<?xml version="1.0" encoding="UTF-8" standalone="no"?>
<!-- Created with Inkscape (http://www.inkscape.org/) -->

<svg
   xmlns:dc="http://purl.org/dc/elements/1.1/"
   xmlns:cc="http://creativecommons.org/ns#"
   xmlns:rdf="http://www.w3.org/1999/02/22-rdf-syntax-ns#"
   xmlns:svg="http://www.w3.org/2000/svg"
   xmlns="http://www.w3.org/2000/svg"
   xmlns:sodipodi="http://sodipodi.sourceforge.net/DTD/sodipodi-0.dtd"
   xmlns:inkscape="http://www.inkscape.org/namespaces/inkscape"
   width="256"
   height="256"
   id="svg2"
   version="1.1"
   inkscape:version="0.48.4 r9939"
   sodipodi:docname="service.svg">
  <defs
     id="defs4">
    <marker
       inkscape:stockid="Arrow2Lend"
       orient="auto"
       refY="0.0"
       refX="0.0"
       id="Arrow2Lend"
       style="overflow:visible;">
      <path
         id="path4676"
         style="fill-rule:evenodd;stroke-width:0.62500000;stroke-linejoin:round;"
         d="M 8.7185878,4.0337352 L -2.2072895,0.016013256 L 8.7185884,-4.0017078 C 6.9730900,-1.6296469 6.9831476,1.6157441 8.7185878,4.0337352 z "
         transform="scale(1.1) rotate(180) translate(1,0)" />
    </marker>
  </defs>
  <sodipodi:namedview
     id="base"
     pagecolor="#ffffff"
     bordercolor="#666666"
     borderopacity="1.0"
     inkscape:pageopacity="0.0"
     inkscape:pageshadow="2"
     inkscape:zoom="0.83278397"
     inkscape:cx="139.08823"
     inkscape:cy="75.084798"
     inkscape:document-units="px"
     inkscape:current-layer="layer1"
     showgrid="true"
     inkscape:snap-global="true"
     inkscape:window-width="1301"
     inkscape:window-height="744"
     inkscape:window-x="65"
     inkscape:window-y="24"
     inkscape:window-maximized="1">
    <inkscape:grid
       type="xygrid"
       id="grid2985"
       empspacing="2"
       visible="true"
       enabled="true"
       snapvisiblegridlinesonly="true" />
  </sodipodi:namedview>
  <metadata
     id="metadata7">
    <rdf:RDF>
      <cc:Work
         rdf:about="">
        <dc:format>image/svg+xml</dc:format>
        <dc:type
           rdf:resource="http://purl.org/dc/dcmitype/StillImage" />
        <dc:title />
      </cc:Work>
    </rdf:RDF>
  </metadata>
  <g
     inkscape:label="1. réteg"
     inkscape:groupmode="layer"
     id="layer1"
     transform="translate(0,-796.36218)">
    <rect
       style="fill:#003443;fill-opacity:1;stroke:none"
       id="rect4145"
       width="256"
       height="256"
       x="0"
       y="0"
       transform="translate(0,796.36218)"
       rx="16"
       ry="16" />
    <path
       style="fill:#268176;fill-opacity:1;stroke:#ffffff;stroke-width:1.68432891;stroke-miterlimit:4;stroke-opacity:1;stroke-dasharray:none"
       d="m 119.60468,832.32939 -2.57913,16.5538 -17.474918,4.36872 -10.316514,-12.79036 -7.263669,4.1845 -7.263668,4.18451 6.053057,15.659 -12.948278,12.50087 -15.316866,-5.92147 -4.210823,7.26367 -4.184504,7.26366 13.053549,10.52706 -4.974034,17.31701 -16.211666,2.5265 0,8.39532 0,8.39532 16.553796,2.57913 4.368728,17.47491 -12.790373,10.31653 4.184504,7.26366 4.184505,7.26367 15.658995,-6.05306 12.500879,12.94828 -5.921469,15.31684 7.263668,4.21084 7.263669,4.1845 10.527055,-13.05353 17.317007,4.97403 2.5265,16.2117 8.39532,0 8.39532,0 2.57913,-16.55382 17.47491,-4.36873 10.31653,12.79035 7.26366,-4.1845 7.26367,-4.18447 -6.05306,-15.65903 12.94828,-12.50087 15.31687,5.92147 4.21082,-7.26367 4.1845,-7.26366 -13.05354,-10.52706 4.97403,-17.31701 16.21167,-2.5265 0,-8.39532 0,-8.39532 -16.5538,-2.57913 -4.36872,-17.47491 12.79036,-10.31653 -4.1845,-7.26366 -4.18451,-7.26367 -15.659,6.05306 -12.50087,-12.94828 5.92147,-15.31686 -7.26367,-4.21083 -7.26366,-4.1845 -10.52706,13.05354 -17.31701,-4.97403 -2.5265,-16.21167 -8.39532,0 -8.39532,0 z"
       id="path3785"
       inkscape:connector-curvature="0" />
    <path
       sodipodi:type="arc"
       style="fill:#003443;fill-opacity:1;stroke:#ffffff;stroke-width:2;stroke-miterlimit:4;stroke-opacity:1;stroke-dasharray:none"
       id="path3795"
       sodipodi:cx="128"
       sodipodi:cy="128"
       sodipodi:rx="32"
       sodipodi:ry="32"
       d="m 160,128 a 32,32 0 1 1 -64,0 32,32 0 1 1 64,0 z"
       transform="translate(0,796.36218)" />
  </g>
</svg>
