<?xml version="1.0" encoding="UTF-8" standalone="no"?>
<!-- Created with Inkscape (http://www.inkscape.org/) -->

<svg
   xmlns:dc="http://purl.org/dc/elements/1.1/"
   xmlns:cc="http://creativecommons.org/ns#"
   xmlns:rdf="http://www.w3.org/1999/02/22-rdf-syntax-ns#"
   xmlns:svg="http://www.w3.org/2000/svg"
   xmlns="http://www.w3.org/2000/svg"
   xmlns:xlink="http://www.w3.org/1999/xlink"
   xmlns:sodipodi="http://sodipodi.sourceforge.net/DTD/sodipodi-0.dtd"
   xmlns:inkscape="http://www.inkscape.org/namespaces/inkscape"
   id="svg2"
   sodipodi:docname="molumen-LCD-Monitor.svg"
   viewBox="0 0 160 125"
   sodipodi:version="0.32"
   version="1.0"
   inkscape:output_extension="org.inkscape.output.svg.inkscape"
   inkscape:version="0.91 r13725"
   width="160"
   height="125">
  <sodipodi:namedview
     id="base"
     bordercolor="#666666"
     inkscape:pageshadow="2"
     guidetolerance="10.0"
     pagecolor="#ffffff"
     gridtolerance="10.0"
     inkscape:zoom="1"
     objecttolerance="10.0"
     borderopacity="0.25098039"
     inkscape:current-layer="layer3"
     inkscape:cx="62.000223"
     inkscape:cy="61.744016"
     inkscape:window-y="-8"
     inkscape:window-x="-8"
     inkscape:window-height="1018"
     inkscape:pageopacity="0.0"
     inkscape:window-width="1920"
     showgrid="false"
     inkscape:showpageshadow="false"
     showguides="false"
     fit-margin-left="5"
     fit-margin-right="5"
     fit-margin-top="5"
     fit-margin-bottom="5"
     inkscape:window-maximized="1" />
  <defs
     id="defs5">
    <linearGradient
       id="linearGradient4323">
      <stop
         offset="0"
         style="stop-color:#ffffff;stop-opacity:0.56818181"
         id="stop4325" />
      <stop
         offset="1"
         style="stop-color:#c1e3ff;stop-opacity:0"
         id="stop4327" />
    </linearGradient>
    <linearGradient
       id="linearGradient3012">
      <stop
         id="stop3014"
         style="stop-color:#53555a"
         offset="0" />
      <stop
         id="stop3016"
         style="stop-color:#e7e8ec"
         offset="1" />
    </linearGradient>
    <linearGradient
       id="linearGradient2894">
      <stop
         id="stop2896"
         style="stop-color:#5e6169"
         offset="0" />
      <stop
         id="stop2898"
         style="stop-color:#1c2125"
         offset="1" />
    </linearGradient>
    <filter
       id="filter2820">
      <feGaussianBlur
         id="feGaussianBlur2822"
         stdDeviation="0.49668993"
         inkscape:collect="always" />
    </filter>
    <clipPath
       id="clipPath2834">
      <path
         id="use2836"
         style="fill:url(#linearGradient3043)"
         d="m 1345.5,1395.2 233.3,0 c 1,0 1.8,0.8 1.8,1.8 l 0,222.3 c 0,1 -0.8,1.8 -1.8,1.8 -77.6,-4.4 -155.6,-3.6 -233.3,0 -1,0 -1.8,-0.8 -1.8,-1.8 l 0,-222.3 c 0,-1 0.8,-1.8 1.8,-1.8 z"
         inkscape:connector-curvature="0" />
    </clipPath>
    <filter
       id="filter3052">
      <feGaussianBlur
         id="feGaussianBlur3054"
         stdDeviation="0.89271179"
         inkscape:collect="always" />
    </filter>
    <filter
       id="filter3368">
      <feGaussianBlur
         id="feGaussianBlur3370"
         stdDeviation="0.59514119"
         inkscape:collect="always" />
    </filter>
    <linearGradient
       id="linearGradient3043"
       y2="1394.7"
       gradientUnits="userSpaceOnUse"
       x2="1378.2"
       y1="1591.7"
       x1="1378.2">
      <stop
         id="stop2792"
         style="stop-color:#8c909b"
         offset="0" />
      <stop
         id="stop2794"
         style="stop-color:#787c87"
         offset="1" />
    </linearGradient>
    <linearGradient
       id="linearGradient2519"
       y2="164.23"
       gradientUnits="userSpaceOnUse"
       x2="978.64001"
       gradientTransform="matrix(0.20257358,0,0,0.18310167,-103.61863,-8.0121637)"
       y1="1373.6"
       x1="978.64001"
       inkscape:collect="always">
      <stop
         id="stop2912"
         style="stop-color:#f9f9f9;stop-opacity:1"
         offset="0" />
      <stop
         id="stop2914"
         style="stop-color:#ffffff;stop-opacity:1"
         offset="1" />
    </linearGradient>
    <linearGradient
       id="linearGradient2523"
       y2="160.91"
       spreadMethod="reflect"
       gradientUnits="userSpaceOnUse"
       x2="1418.9"
       gradientTransform="matrix(0.1968,0,0,0.1968,-95.2272,-10.298955)"
       y1="160.91"
       x1="522.54999"
       inkscape:collect="always">
      <stop
         id="stop2922"
         style="stop-color:#abafb8"
         offset="0" />
      <stop
         id="stop2924"
         style="stop-color:#bebdc5"
         offset="1" />
    </linearGradient>
    <linearGradient
       id="linearGradient2525"
       y2="160.91"
       spreadMethod="reflect"
       gradientUnits="userSpaceOnUse"
       x2="1418.9"
       gradientTransform="translate(-244,1175.6)"
       y1="160.91"
       x1="512.04999"
       inkscape:collect="always">
      <stop
         id="stop2934"
         style="stop-color:#8f919d"
         offset="0" />
      <stop
         id="stop2936"
         style="stop-color:#878a95"
         offset="1" />
    </linearGradient>
    <radialGradient
       id="radialGradient2527"
       xlink:href="#linearGradient4323"
       gradientUnits="userSpaceOnUse"
       cy="-95.417999"
       cx="809.29999"
       gradientTransform="matrix(1.5929172e-8,0.19705402,-0.24393911,1.6109834e-8,167.5261,-126.5542)"
       r="883.59003"
       inkscape:collect="always" />
    <linearGradient
       id="linearGradient2545"
       y2="159.47"
       spreadMethod="reflect"
       gradientUnits="userSpaceOnUse"
       x2="1474.5"
       gradientTransform="translate(-244,1175.6)"
       y1="165.47"
       x1="1474.5"
       inkscape:collect="always">
      <stop
         id="stop3577"
         style="stop-color:#575a62;stop-opacity:.99967"
         offset="0" />
      <stop
         id="stop3579"
         style="stop-color:#878a95;stop-opacity:0"
         offset="1" />
    </linearGradient>
    <linearGradient
       id="linearGradient2547"
       y2="155.99001"
       gradientUnits="userSpaceOnUse"
       x2="1474.5"
       gradientTransform="translate(-244,1175.6)"
       y1="165"
       x1="1474.5"
       inkscape:collect="always">
      <stop
         id="stop3464"
         style="stop-color:#6b6f7a;stop-opacity:0"
         offset="0" />
      <stop
         id="stop3466"
         style="stop-color:#ebebed"
         offset="1" />
    </linearGradient>
    <linearGradient
       id="linearGradient2564"
       y2="1666.7"
       gradientUnits="userSpaceOnUse"
       x2="1667.4"
       gradientTransform="matrix(0.20153,0,0,0.20153,98.831,36.358)"
       y1="1665"
       x1="1282.1"
       inkscape:collect="always">
      <stop
         id="stop5106"
         style="stop-color:#16191e"
         offset="0" />
      <stop
         id="stop5116"
         style="stop-color:#3a3d43"
         offset=".16349" />
      <stop
         id="stop3708"
         style="stop-color:#16191e"
         offset=".23888" />
      <stop
         id="stop5112"
         style="stop-color:#4a4f56"
         offset=".46134" />
      <stop
         id="stop3710"
         style="stop-color:#16191e"
         offset=".66194" />
      <stop
         id="stop5114"
         style="stop-color:#36393f"
         offset=".75" />
      <stop
         id="stop5108"
         style="stop-color:#16191e"
         offset="1" />
    </linearGradient>
    <linearGradient
       id="linearGradient2566"
       y2="1651.3"
       gradientUnits="userSpaceOnUse"
       x2="2124.1001"
       gradientTransform="matrix(0.20153,0,0,0.20153,98.831,36.358)"
       y1="1651.3"
       x1="797.46997"
       inkscape:collect="always">
      <stop
         id="stop3398"
         style="stop-color:#000000"
         offset="0" />
      <stop
         id="stop3400"
         style="stop-color:#000000;stop-opacity:0"
         offset="1" />
    </linearGradient>
    <linearGradient
       id="linearGradient2568"
       y2="1651.3"
       xlink:href="#linearGradient3012"
       gradientUnits="userSpaceOnUse"
       x2="2040.9"
       y1="1695.5"
       x1="2051"
       inkscape:collect="always" />
    <linearGradient
       id="linearGradient2570"
       y2="1648.9"
       gradientUnits="userSpaceOnUse"
       x2="1991.5"
       gradientTransform="translate(0.070804,0)"
       y1="1648.9"
       x1="1470.4"
       inkscape:collect="always">
      <stop
         id="stop3392"
         style="stop-color:#9c9eaa"
         offset="0" />
      <stop
         id="stop3412"
         style="stop-color:#32373b"
         offset=".16567" />
      <stop
         id="stop3414"
         style="stop-color:#9c9ea9"
         offset=".20498" />
      <stop
         id="stop3416"
         style="stop-color:#363b3f"
         offset=".23579" />
      <stop
         id="stop3418"
         style="stop-color:#515257"
         offset=".74124" />
      <stop
         id="stop3394"
         style="stop-color:#4a4f53"
         offset="1" />
    </linearGradient>
    <linearGradient
       id="linearGradient2574"
       y2="1648.9"
       gradientUnits="userSpaceOnUse"
       x2="1991.5"
       gradientTransform="translate(0.070804,0)"
       y1="1648.9"
       x1="1470.4"
       inkscape:collect="always">
      <stop
         id="stop3395"
         style="stop-color:#9c9eaa"
         offset="0" />
      <stop
         id="stop3397"
         style="stop-color:#32373b"
         offset=".16567" />
      <stop
         id="stop3399"
         style="stop-color:#868896"
         offset=".20498" />
      <stop
         id="stop3401"
         style="stop-color:#363b3f"
         offset=".23579" />
      <stop
         id="stop3403"
         style="stop-color:#515257"
         offset=".74124" />
      <stop
         id="stop3405"
         style="stop-color:#4a4f53"
         offset="1" />
    </linearGradient>
    <linearGradient
       id="linearGradient2576"
       y2="1622.3"
       gradientUnits="userSpaceOnUse"
       x2="1467"
       gradientTransform="matrix(0.45989,0,0,0.34382,-277.84,-196.49)"
       y1="1639.5"
       x1="1467"
       inkscape:collect="always">
      <stop
         id="stop3436"
         style="stop-color:#b5b7bb"
         offset="0" />
      <stop
         id="stop3438"
         style="stop-color:#e5e6ea"
         offset="1" />
    </linearGradient>
    <linearGradient
       id="linearGradient2578"
       y2="1623.6"
       gradientUnits="userSpaceOnUse"
       x2="1455.6"
       gradientTransform="matrix(0.45989,0,0,0.34382,-277.84,-196.49)"
       y1="1638.9"
       x1="1455.6"
       inkscape:collect="always">
      <stop
         id="stop3444"
         style="stop-color:#888b95"
         offset="0" />
      <stop
         id="stop3446"
         style="stop-color:#f0f1f5"
         offset="1" />
    </linearGradient>
    <linearGradient
       id="linearGradient2608"
       y2="1421.7"
       gradientUnits="userSpaceOnUse"
       x2="1496.6"
       gradientTransform="translate(0,220.22)"
       y1="1399.2"
       x1="1496.6"
       inkscape:collect="always">
      <stop
         id="stop4263"
         style="stop-color:#979aa4"
         offset="0" />
      <stop
         id="stop4265"
         style="stop-color:#979aa4;stop-opacity:0"
         offset="1" />
    </linearGradient>
    <linearGradient
       id="linearGradient2610"
       y2="1342.2"
       gradientUnits="userSpaceOnUse"
       x2="1367.4"
       y1="1540.1"
       x1="1364.7"
       inkscape:collect="always">
      <stop
         id="stop2963"
         style="stop-color:#979aa4"
         offset="0" />
      <stop
         id="stop2965"
         style="stop-color:#50525a"
         offset="1" />
    </linearGradient>
    <linearGradient
       id="linearGradient3196"
       y2="1503.5"
       gradientUnits="userSpaceOnUse"
       x2="1393"
       y1="1621"
       x1="1393"
       inkscape:collect="always">
      <stop
         id="stop2826"
         style="stop-color:#4c5059"
         offset="0" />
      <stop
         id="stop2828"
         style="stop-color:#818590"
         offset="1" />
    </linearGradient>
    <radialGradient
       id="radialGradient3200"
       gradientUnits="userSpaceOnUse"
       cy="306.60999"
       cx="572.38"
       r="2.0625"
       inkscape:collect="always">
      <stop
         id="stop2988"
         style="stop-color:#cccccc"
         offset="0" />
      <stop
         id="stop2990"
         style="stop-color:#c1c1c1;stop-opacity:0"
         offset="1" />
    </radialGradient>
    <linearGradient
       id="linearGradient4242"
       inkscape:collect="always">
      <stop
         id="stop4244"
         offset="0"
         style="stop-color:#000000;stop-opacity:1" />
      <stop
         id="stop4246"
         offset="1"
         style="stop-color:#ffffff;stop-opacity:1" />
    </linearGradient>
    <linearGradient
       gradientTransform="matrix(2.1428571,0,0,2.1428571,-6.5917969e-5,-27.637874)"
       gradientUnits="userSpaceOnUse"
       xlink:href="#linearGradient5283"
       id="linearGradient5289"
       y2="357"
       x2="784"
       y1="357"
       x1="208" />
    <linearGradient
       id="linearGradient5283">
      <stop
         id="stop5285"
         offset="0"
         style="stop-color:#050505;stop-opacity:1" />
      <stop
         id="stop5287"
         offset="1"
         style="stop-color:#ffffff;stop-opacity:1" />
    </linearGradient>
    <linearGradient
       gradientTransform="matrix(1.00058,0,0,1,-0.97252418,0)"
       gradientUnits="userSpaceOnUse"
       y2="765"
       x2="1679.998"
       y1="765"
       x1="445.71399"
       id="linearGradient4248"
       xlink:href="#linearGradient4242"
       inkscape:collect="always" />
    <linearGradient
       inkscape:collect="always"
       xlink:href="#linearGradient3012"
       id="linearGradient4416"
       gradientUnits="userSpaceOnUse"
       x1="2051"
       y1="1695.5"
       x2="2040.9"
       y2="1651.3" />
    <radialGradient
       inkscape:collect="always"
       xlink:href="#radialGradient3200"
       id="radialGradient4537"
       gradientUnits="userSpaceOnUse"
       cx="572.38"
       cy="306.60999"
       r="2.0625" />
  </defs>
  <metadata
     id="metadata4241">
    <rdf:RDF>
      <cc:Work>
        <dc:format>image/svg+xml</dc:format>
        <dc:type
           rdf:resource="http://purl.org/dc/dcmitype/StillImage" />
        <cc:license
           rdf:resource="http://creativecommons.org/publicdomain/zero/1.0/" />
        <dc:publisher>
          <cc:Agent
             rdf:about="http://openclipart.org/">
            <dc:title>Openclipart</dc:title>
          </cc:Agent>
        </dc:publisher>
        <dc:title>LCD Monitor</dc:title>
        <dc:date>2007-10-14T00:57:15</dc:date>
        <dc:description>Andy's monitor without the background and without the &quot;linux&quot; tag</dc:description>
        <dc:source>https://openclipart.org/detail/6977/lcd-monitor-by-molumen</dc:source>
        <dc:creator>
          <cc:Agent>
            <dc:title>molumen</dc:title>
          </cc:Agent>
        </dc:creator>
        <dc:subject>
          <rdf:Bag>
            <rdf:li>computer</rdf:li>
            <rdf:li>dell</rdf:li>
            <rdf:li>dvi</rdf:li>
            <rdf:li>flat</rdf:li>
            <rdf:li>hardware</rdf:li>
            <rdf:li>lcd</rdf:li>
            <rdf:li>monitor</rdf:li>
            <rdf:li>plasma</rdf:li>
            <rdf:li>remix</rdf:li>
            <rdf:li>screen</rdf:li>
            <rdf:li>tool</rdf:li>
            <rdf:li>wide</rdf:li>
          </rdf:Bag>
        </dc:subject>
      </cc:Work>
      <cc:License
         rdf:about="http://creativecommons.org/publicdomain/zero/1.0/">
        <cc:permits
           rdf:resource="http://creativecommons.org/ns#Reproduction" />
        <cc:permits
           rdf:resource="http://creativecommons.org/ns#Distribution" />
        <cc:permits
           rdf:resource="http://creativecommons.org/ns#DerivativeWorks" />
      </cc:License>
    </rdf:RDF>
  </metadata>
  <g
     inkscape:groupmode="layer"
     id="layer1"
     inkscape:label="Monitor"
     style="display:inline"
     transform="translate(-110.80564,-102.32908)" />
  <g
     inkscape:groupmode="layer"
     id="layer4"
     inkscape:label="Color Bar"
     style="display:inline"
     transform="translate(-110.80564,-102.32908)" />
  <g
     inkscape:groupmode="layer"
     id="layer3"
     inkscape:label="Glare"
     style="display:inline"
     transform="translate(-110.80564,-102.32908)">
    <g
       id="g4472"
       transform="matrix(0.39084403,0,0,0.39084403,116.23053,100.86714)">
      <path
         inkscape:connector-curvature="0"
         d="m 526.81,374.78 -26.73,6.02 -2.45,0 -77.38,-7.75 c -2.45,-0.06 -5.01,-0.25 -7.49,0.03 -10.16,1.15 -28.16,1.24 -39.25,-0.1 l -7.77,0.07 -79.09,7.68 -2.21,0 -24.79,-5.63 3.92,-4.63 c 1.72,-2.04 4.2,-2.7 7.55,-3 l 91.27,-8.05 c 1.55,-0.13 2.96,-0.88 4.21,-1.92 l 21.16,0 35.98,0 c 1.3,1.14 2.89,1.95 5.06,2.14 l 84.55,7.44 c 4.53,0.4 7.84,0.74 10.32,3.81 l 3.14,3.89 z"
         transform="matrix(0.97654,0,0,0.97654,-193.05,-62.533)"
         style="display:inline;fill:url(#linearGradient2564);fill-rule:evenodd;stroke:url(#linearGradient2566);stroke-width:0.20152999px"
         id="path4533" />
      <g
         transform="matrix(-0.1968,0,0,0.1968,478.07,-27.028)"
         id="use4535"
         style="display:inline">
        <path
           inkscape:connector-curvature="0"
           d="m 2123.6,1677.2 -132.6,31.9 -12.2,0 c -13.3,-23 -30.8,-28.3 -55.6,-30.6 l -328.3,-29.8 c -12.1,-1.2 -24.9,-1.3 -37.2,0.1 -23.1,2.6 -66.9,4.3 -99.2,4.5 l -0.1,-61.8 153.8,0 c 6.4,5.7 14.3,9.7 25.1,10.6 l 419.6,37 c 22.4,1.9 38.8,3.6 51.2,18.9 l 15.5,19.2 z"
           style="fill:url(#linearGradient4416);fill-rule:evenodd;stroke-width:1px"
           id="path3029" />
        <path
           inkscape:connector-curvature="0"
           d="m 1991.2,1709.2 -12.8,0 c -13.3,-23.1 -30.3,-26.4 -55.2,-28.7 L 1595,1650.7 c -12.1,-1.1 -24.9,-1.3 -37.2,0.1 -23.1,2.6 -69.7,3.9 -99.2,4.5 l 0,-12.8 90.5,-3.1 c 16.2,-0.6 34.3,-3.5 47.2,-2.4 l 332.9,29.1 c 22.4,1.9 41.2,10.3 51.7,26.9 l 10.3,16.2 z"
           style="fill:url(#linearGradient2570);fill-rule:evenodd;stroke-width:1px"
           id="path3031" />
        <path
           inkscape:connector-curvature="0"
           d="m 1460.5,1642.5 88.5,-3.1 c 16.2,-0.6 34.3,-3.5 47.2,-2.4 l 332.9,29.1 c 22.5,1.9 41.2,10.3 51.7,26.9 l 10.3,16.2"
           style="fill:none;stroke:#ffffff;stroke-width:1px;filter:url(#filter3052)"
           id="path3033" />
        <path
           inkscape:connector-curvature="0"
           d="m 1458.3,1642.5 92.6,-3.1 c 16.1,-0.6 34.2,-3.5 47.1,-2.4 l 332.9,29.1 c 22.5,1.9 41.2,10.3 51.8,26.9 l 10.3,16.2"
           style="fill:none;stroke:#ffffff;stroke-width:1.20000005;filter:url(#filter3368)"
           id="path3035" />
      </g>
      <g
         transform="matrix(0.1968,0,0,0.1968,-96.541,-27.028)"
         id="g4537"
         style="display:inline">
        <path
           inkscape:connector-curvature="0"
           d="m 2123.6,1677.2 -132.6,31.9 -12.2,0 c -13.3,-23 -30.8,-28.3 -55.6,-30.6 l -328.3,-29.8 c -12.1,-1.2 -24.9,-1.3 -37.2,0.1 -23.1,2.6 -66.9,4.3 -99.2,4.5 l -0.1,-61.8 153.8,0 c 6.4,5.7 14.3,9.7 25.1,10.6 l 419.6,37 c 22.4,1.9 38.8,3.6 51.2,18.9 l 15.5,19.2 z"
           style="fill:url(#linearGradient2568);fill-rule:evenodd;stroke-width:1px"
           id="path4539" />
        <path
           inkscape:connector-curvature="0"
           d="m 1991.2,1709.2 -12.8,0 c -13.3,-23.1 -30.3,-26.4 -55.2,-28.7 L 1595,1650.7 c -12.1,-1.1 -24.9,-1.3 -37.2,0.1 -23.1,2.6 -69.7,3.9 -99.2,4.5 l 0,-12.8 90.5,-3.1 c 16.2,-0.6 34.3,-3.5 47.2,-2.4 l 332.9,29.1 c 22.4,1.9 41.2,10.3 51.7,26.9 l 10.3,16.2 z"
           style="fill:url(#linearGradient2574);fill-rule:evenodd;stroke-width:1px"
           id="path4541" />
        <path
           inkscape:connector-curvature="0"
           d="m 1460.5,1642.5 88.5,-3.1 c 16.2,-0.6 34.3,-3.5 47.2,-2.4 l 332.9,29.1 c 22.5,1.9 41.2,10.3 51.7,26.9 l 10.3,16.2"
           style="fill:none;stroke:#ffffff;stroke-width:1px;filter:url(#filter3052)"
           id="path4543" />
        <path
           inkscape:connector-curvature="0"
           d="m 1458.3,1642.5 92.6,-3.1 c 16.1,-0.6 34.2,-3.5 47.1,-2.4 l 332.9,29.1 c 22.5,1.9 41.2,10.3 51.8,26.9 l 10.3,16.2"
           style="fill:none;stroke:#ffffff;stroke-width:1.20000005;filter:url(#filter3368)"
           id="path4545" />
      </g>
      <path
         inkscape:connector-curvature="0"
         d="m 420.27,362.9 c 0,1.8 -11.73,3.26 -26.21,3.26 -14.48,0 -26.21,-1.46 -26.21,-3.26 0,-1.81 11.73,-3.27 26.21,-3.27 14.48,0 26.21,1.46 26.21,3.27 z"
         transform="matrix(0.97654,0,0,0.97654,-193.05,-62.533)"
         style="display:inline;fill:url(#linearGradient2576);stroke:url(#linearGradient2578);stroke-width:0.20152999"
         id="path4547" />
      <path
         inkscape:connector-curvature="0"
         d="m 1345.5,1615.4 233.3,0 c 1,0 1.8,0.8 1.8,1.8 l 0,41.6 c 0,1.1 -236.9,-17.9 -236.9,0 l 0,-41.6 c 0,-1 0.8,-1.8 1.8,-1.8 z"
         transform="matrix(0.1968,0,0,0.1968,-96.541,-27.028)"
         style="display:inline;fill:url(#linearGradient2608)"
         id="path2967" />
      <path
         inkscape:connector-curvature="0"
         d="m 1345.5,1395.2 233.3,0 c 1,0 1.8,0.8 1.8,1.8 l 0,222.3 c 0,1 -0.8,1.8 -1.8,1.8 -77.6,-4.4 -155.6,-3.6 -233.3,0 -1,0 -1.8,-0.8 -1.8,-1.8 l 0,-222.3 c 0,-1 0.8,-1.8 1.8,-1.8 z"
         transform="matrix(0.1968,0,0,0.1968,-96.541,-27.028)"
         style="display:inline;fill:url(#linearGradient2610)"
         id="path4551" />
      <path
         inkscape:connector-curvature="0"
         clip-path="url(#clipPath2834)"
         transform="matrix(0.1968,0,0,0.1968,-96.541,-27.028)"
         style="display:inline;fill:none;stroke:url(#linearGradient3196);stroke-width:4;filter:url(#filter2820)"
         d="m 1345.5,1395.2 233.3,0 c 1,0 1.8,0.8 1.8,1.8 l 0,224.3 c 0,1 -0.8,1.8 -1.8,1.8 -78.7,-4.1 -156.5,-4.3 -233.3,0 -1,0 -1.8,-0.8 -1.8,-1.8 l 0,-224.3 c 0,-1 0.8,-1.8 1.8,-1.8 z"
         id="path4553" />
      <path
         inkscape:connector-curvature="0"
         transform="matrix(0.4185,-0.4185,0.69052,0.69052,-86.648,262.44)"
         d="m 574.44,306.61 c 0,0.34 -0.08,0.65 -0.22,0.93 -1.12,0.63 -2.03,0.78 -3.81,-0.3 -0.06,-0.2 -0.1,-0.41 -0.1,-0.63 0.44,-2 1.63,0.76 3.84,-1.05 0.18,0.31 0.29,0.67 0.29,1.05 z"
         style="display:inline;fill:url(#radialGradient4537);stroke-width:1.25;stroke-linecap:round;stroke-linejoin:round;stroke-dashoffset:0.5"
         id="path2984" />
      <use
         x="0"
         y="0"
         width="825.92938"
         height="463.36414"
         transform="matrix(-1,0,0,1,381.56,0)"
         xlink:href="#path2984"
         id="use3342"
         style="display:inline" />
      <rect
         x="-0.99081373"
         y="22.19943"
         width="383.59335"
         height="223.93333"
         ry="0.9785136"
         rx="1.0825734"
         style="display:inline;fill:url(#linearGradient2519);stroke:#000000;stroke-width:0.1925917;stroke-opacity:1"
         id="rect4555" />
      <rect
         x="4.7708149"
         y="20.401848"
         width="372.07007"
         height="1.7711999"
         ry="0.36291888"
         rx="0.36291888"
         style="display:inline;fill:url(#linearGradient2523)"
         id="rect4559" />
      <rect
         x="264.12"
         y="1331.6"
         width="1890.6"
         height="9"
         ry="1.8441"
         rx="1.8441"
         transform="matrix(0.1968,0,0,0.1968,-47.208,-15.818)"
         style="display:inline;fill:url(#linearGradient2525)"
         id="rect4561" />
      <rect
         x="264.12"
         y="1331.6"
         width="1890.6"
         height="9"
         ry="1.8441"
         rx="1.8441"
         transform="matrix(0.1968,0,0,0.1968,-47.208,-15.818)"
         style="display:inline;fill:url(#linearGradient2545)"
         id="rect4581" />
      <rect
         x="264.12"
         y="1331.6"
         width="1890.6"
         height="9"
         ry="1.8441"
         rx="1.8441"
         transform="matrix(0.1968,0,0,0.1968,-47.208,-15.818)"
         style="display:inline;opacity:0.65639002;fill:url(#linearGradient2547)"
         id="rect4267" />
      <g
         transform="matrix(0.18556701,0,0,0.18556701,12.661523,34.178128)"
         id="layer2"
         inkscape:label="Layer 1"
         style="display:inline">
        <rect
           style="fill:#000000;fill-opacity:1"
           id="rect3394"
           width="1920"
           height="1080"
           x="0"
           y="0" />
        <rect
           style="opacity:1;fill:#666666;fill-opacity:1"
           id="rect4808"
           width="240"
           height="630"
           x="0"
           y="0" />
        <rect
           y="0"
           x="240"
           height="630"
           width="205"
           id="rect4811"
           style="opacity:1;fill:#bfbfbf;fill-opacity:1" />
        <rect
           style="opacity:1;fill:#bfbf00;fill-opacity:1"
           id="rect4839"
           width="206"
           height="630"
           x="445"
           y="0" />
        <rect
           y="0"
           x="651"
           height="630"
           width="206"
           id="rect4841"
           style="opacity:1;fill:#00bfbf;fill-opacity:1" />
        <rect
           style="opacity:1;fill:#00bf00;fill-opacity:1"
           id="rect4843"
           width="206"
           height="630"
           x="857"
           y="0" />
        <rect
           y="0"
           x="1063"
           height="630"
           width="206"
           id="rect4845"
           style="opacity:1;fill:#bf00bf;fill-opacity:1" />
        <rect
           style="opacity:1;fill:#bf0000;fill-opacity:1"
           id="rect4847"
           width="206"
           height="630"
           x="1269"
           y="0" />
        <rect
           y="0"
           x="1475"
           height="630"
           width="205"
           id="rect4849"
           style="opacity:1;fill:#0000bf;fill-opacity:1" />
        <rect
           style="opacity:1;fill:#666666;fill-opacity:1"
           id="rect4851"
           width="240"
           height="630"
           x="1680"
           y="0" />
        <rect
           style="opacity:1;fill:#00ffff;fill-opacity:1"
           id="rect4180"
           width="240"
           height="90"
           x="0"
           y="630" />
        <rect
           y="630"
           x="240"
           height="90"
           width="205"
           id="rect4182"
           style="opacity:1;fill:#00214c;fill-opacity:1" />
        <rect
           style="opacity:1;fill:#bfbfbf;fill-opacity:1"
           id="rect4232"
           width="1235"
           height="90"
           x="445"
           y="630" />
        <rect
           y="630"
           x="1680"
           height="90"
           width="240"
           id="rect4234"
           style="opacity:1;fill:#0000ff;fill-opacity:1" />
        <rect
           style="opacity:1;fill:#ffff00;fill-opacity:1"
           id="rect4236"
           width="240"
           height="90"
           x="0"
           y="720" />
        <rect
           y="720"
           x="240"
           height="90"
           width="205"
           id="rect4238"
           style="opacity:1;fill:#32006a;fill-opacity:1" />
        <rect
           style="opacity:1;fill:url(#linearGradient4248);fill-opacity:1"
           id="rect4240"
           width="1235"
           height="90"
           x="445"
           y="720" />
        <rect
           y="720"
           x="1680"
           height="90"
           width="240"
           id="rect4250"
           style="opacity:1;fill:#ff0000;fill-opacity:1" />
        <rect
           style="opacity:1;fill:#262626;fill-opacity:1"
           id="rect4254"
           width="240"
           height="270"
           x="0"
           y="810" />
        <rect
           y="810"
           x="240"
           height="270"
           width="309"
           id="rect4256"
           style="opacity:1;fill:#000000;fill-opacity:1" />
        <rect
           style="opacity:1;fill:#ffffff;fill-opacity:1"
           id="rect4258"
           width="411"
           height="270"
           x="549"
           y="810" />
        <rect
           y="810"
           x="960"
           height="270"
           width="171"
           id="rect4260"
           style="opacity:1;fill:#000000;fill-opacity:1" />
        <rect
           style="opacity:1;fill:#000000;fill-opacity:1"
           id="rect4262"
           width="69"
           height="270"
           x="1131"
           y="810" />
        <rect
           y="810"
           x="1200"
           height="270"
           width="68"
           id="rect4196"
           style="opacity:1;fill:#000000;fill-opacity:1" />
        <rect
           style="opacity:1;fill:#050505;fill-opacity:1"
           id="rect4198"
           width="69"
           height="270"
           x="1268"
           y="810" />
        <rect
           y="810"
           x="1337"
           height="270"
           width="68"
           id="rect4200"
           style="opacity:1;fill:#000000;fill-opacity:1" />
        <rect
           style="opacity:1;fill:#0a0a0a;fill-opacity:1"
           id="rect4202"
           width="69"
           height="270"
           x="1405"
           y="810" />
        <rect
           y="810"
           x="1474"
           height="270"
           width="206"
           id="rect4204"
           style="opacity:1;fill:#000000;fill-opacity:1" />
        <rect
           style="opacity:1;fill:#262626;fill-opacity:1"
           id="rect4206"
           width="240"
           height="270"
           x="1680"
           y="810" />
      </g>
      <rect
         x="11.917175"
         y="32.925526"
         width="357.78546"
         height="202.47385"
         ry="0.9785136"
         rx="1.0825734"
         style="display:inline;fill:url(#radialGradient2527)"
         id="rect4563" />
    </g>
  </g>
</svg>
