<?xml version="1.0" encoding="UTF-8" standalone="no"?>
<!-- Created with Inkscape (http://www.inkscape.org/) -->

<svg
   version="1.1"
   id="svg757"
   width="800"
   height="800"
   viewBox="0 0 800 800"
   sodipodi:docname="blue-clouds-pdv.svg"
   inkscape:version="1.2 (dc2aedaf03, 2022-05-15)"
   xmlns:inkscape="http://www.inkscape.org/namespaces/inkscape"
   xmlns:sodipodi="http://sodipodi.sourceforge.net/DTD/sodipodi-0.dtd"
   xmlns="http://www.w3.org/2000/svg"
   xmlns:svg="http://www.w3.org/2000/svg">
  <defs
     id="defs761">
    <clipPath
       clipPathUnits="userSpaceOnUse"
       id="clipPath773">
      <path
         d="M 0,600 H 600 V 0 H 0 Z"
         id="path771" />
    </clipPath>
  </defs>
  <sodipodi:namedview
     id="namedview759"
     pagecolor="#ffffff"
     bordercolor="#000000"
     borderopacity="0.25"
     inkscape:showpageshadow="2"
     inkscape:pageopacity="0.0"
     inkscape:pagecheckerboard="0"
     inkscape:deskcolor="#d1d1d1"
     showgrid="false"
     inkscape:zoom="1.04625"
     inkscape:cx="400"
     inkscape:cy="400.4779"
     inkscape:window-width="1920"
     inkscape:window-height="1017"
     inkscape:window-x="-8"
     inkscape:window-y="-8"
     inkscape:window-maximized="1"
     inkscape:current-layer="g765">
    <inkscape:page
       x="0"
       y="0"
       id="page763"
       width="800"
       height="800" />
  </sodipodi:namedview>
  <g
     id="g765"
     inkscape:groupmode="layer"
     inkscape:label="Page 1"
     transform="matrix(1.3333333,0,0,-1.3333333,0,800)">
    <g
       id="g767">
      <g
         id="g769"
         clip-path="url(#clipPath773)">
        <g
           id="g775"
           transform="translate(284.5835,135.6797)">
          <path
             d="m 0,0 c 107.822,0 195.76,48.447 195.76,107.851 0,59.402 -87.938,107.853 -195.76,107.853 -107.82,0 -195.759,-48.451 -195.759,-107.853 C -195.759,48.447 -107.82,0 0,0"
             style="fill:#edf3f7;fill-opacity:1;fill-rule:evenodd;stroke:none"
             id="path777" />
        </g>
        <g
           id="g779"
           transform="translate(209.96,457.3159)">
          <path
             d="m 0,0 c 9.892,33.94 35.889,64.342 72.267,75.412 19.546,5.947 38.69,3.084 52.891,-6.591 v 0.006 l 35.817,-21.37 -15.17,-7.063 c 0.995,-3.305 1.723,-6.792 2.15,-10.453 17.671,-3.185 28.541,-18.317 27.686,-38.325 25.407,-1.483 43.686,-16.486 43.728,-49.235 0.04,-32.75 -29.357,-75.382 -65.755,-86.496 -21.865,-6.677 -43.89,-13.424 -65.916,-20.127 -22.027,-6.703 -44.095,-13.411 -66.038,-20.118 -21.908,-6.698 -43.728,-13.381 -65.267,-19.931 -21.536,-6.549 -42.868,-13.081 -63.719,-19.457 -0.244,-0.074 -0.49,-0.144 -0.735,-0.214 l -0.991,-18.855 -36.368,21.698 0.003,0.003 c -12.629,7.117 -20.618,21.015 -20.618,39.256 0,35.975 30.822,73.04 65.917,79.448 C -91.12,-52.242 -46.863,-7.338 0,0"
             style="fill:#d9ecff;fill-opacity:1;fill-rule:evenodd;stroke:none"
             id="path781" />
        </g>
        <g
           id="g783"
           transform="translate(249.4146,433.6782)">
          <path
             d="m 0,0 c 9.894,33.94 35.89,64.342 72.267,75.412 36.378,11.069 71.374,-8.37 75.689,-45.472 17.67,-3.184 28.541,-18.316 27.686,-38.324 25.405,-1.483 43.687,-16.486 43.728,-49.235 0.04,-32.749 -29.358,-75.381 -65.755,-86.495 -21.866,-6.678 -43.89,-13.425 -65.917,-20.129 -22.026,-6.703 -44.094,-13.409 -66.038,-20.118 -21.906,-6.696 -43.727,-13.379 -65.265,-19.929 -21.538,-6.551 -42.868,-13.084 -63.719,-19.457 -32.526,-9.944 -58.709,8.857 -58.709,41.886 0,35.977 30.82,73.039 65.915,79.448 C -91.118,-52.242 -46.863,-7.337 0,0"
             style="fill:#c2e1ff;fill-opacity:1;fill-rule:evenodd;stroke:none"
             id="path785" />
        </g>
        <g
           id="g787"
           transform="translate(249.4146,433.6782)">
          <path
             d="M 0,0 C 9.894,33.94 35.89,64.342 72.267,75.412 29.322,57.035 11.269,26.147 3.507,-4.365 -45.016,-7.099 -91.7,-65.636 -97.169,-106.115 c -26.262,-3.312 -60.994,-27.419 -68.772,-72.319 1.867,34.87 31.841,69.816 65.823,76.021 C -91.118,-52.242 -46.863,-7.337 0,0"
             style="fill:#fafdff;fill-opacity:1;fill-rule:evenodd;stroke:none"
             id="path789" />
        </g>
        <g
           id="g791"
           transform="translate(188.8467,269.626)">
          <path
             d="m 0,0 c -2.728,20.503 3.589,42.978 15.878,62.274 12.261,19.248 30.699,35.597 52.035,43.982 1.547,31.74 28.539,64.757 58.139,73.727 16.898,5.122 31.273,2.958 41.538,-4.496 l 33.482,-19.976 -3.553,-3.313 c 10.068,-0.073 19.017,-2.86 26.282,-7.834 l 0.001,0.004 36.911,-22.023 v -0.001 L 243.1,110.033 c 0.455,-4.218 0.483,-8.675 0.046,-13.335 16.7,7.771 32.649,6.663 43.592,-1.117 l 0.002,0.004 35.104,-21.028 -12.726,-20.169 h -0.402 l -8.112,2.207 C 296.859,31.261 276.093,6.397 251.168,-1.203 233.21,-6.68 213.918,-12.622 193.638,-18.805 173.327,-24.999 152.065,-31.437 130.327,-38.069 108.622,-44.693 86.316,-51.553 64.085,-58.321 46.88,-63.559 29.645,-68.805 12.617,-74 l 0.393,-26.937 -39.566,23.699 c -0.902,0.468 -1.768,0.986 -2.6,1.554 l -0.047,0.031 h 0.003 c -7.12,4.897 -11.523,13.422 -11.513,24.366 C -40.693,-28.961 -22.107,-5.579 0,0"
             style="fill:#9ecfff;fill-opacity:1;fill-rule:evenodd;stroke:none"
             id="path793" />
        </g>
        <g
           id="g795"
           transform="translate(228.3032,245.9893)">
          <path
             d="m 0,0 c -2.728,20.503 3.587,42.979 15.878,62.274 12.261,19.248 30.699,35.595 52.033,43.98 1.547,31.74 28.541,64.758 58.14,73.729 29.6,8.971 51.463,-4.401 57.041,-29.43 36.561,8.379 63.597,-16.049 60.055,-53.857 30.249,14.081 58.059,-0.976 58.059,-32.073 0,-27.915 -22.479,-57.424 -50.039,-65.827 -17.957,-5.476 -37.249,-11.42 -57.53,-17.603 -20.311,-6.191 -41.574,-12.631 -63.312,-19.262 C 108.621,-44.693 86.314,-51.556 64.083,-58.321 41.855,-65.09 19.574,-71.871 -2.24,-78.537 -23.583,-85.06 -40.735,-72.884 -40.715,-51.288 -40.695,-28.963 -22.107,-5.578 0,0"
             style="fill:#8ac5ff;fill-opacity:1;fill-rule:evenodd;stroke:none"
             id="path797" />
        </g>
        <g
           id="g799"
           transform="translate(420.2275,348.6543)">
          <path
             d="m 0,0 0.002,0.001 20.663,-12.329 c 7.606,0.622 14.462,-1.216 19.761,-5.114 v 0.001 l 36.247,-21.627 -1.74,-3.356 c 3.976,-2.674 7.321,-6.206 9.874,-10.597 l 2.738,2.817 22.232,-13.266 -20.226,-2.875 c 0.581,-3.208 0.886,-6.673 0.889,-10.396 0.02,-27.655 -24.102,-62.048 -53.906,-71.114 -28.297,-8.267 -54.279,-16.254 -79.271,-23.91 -23.108,-7.077 -45.436,-14.004 -68,-20.887 l 9.695,-24.359 -40.414,24.113 c -8.939,4.656 -14.631,14.136 -14.631,26.753 0,23.478 19.584,47.999 42.751,53.519 -2.687,24.059 17.873,51.611 42.465,57.194 -2.728,23.967 16.366,51.611 41.121,59.136 C -18.065,7.256 -7.525,5.578 0,0"
             style="fill:#63b1ff;fill-opacity:1;fill-rule:evenodd;stroke:none"
             id="path801" />
        </g>
        <g
           id="g803"
           transform="translate(346.3457,212.3896)">
          <path
             d="m 0,0 c -2.686,24.06 17.874,51.613 42.467,57.194 -2.73,23.969 16.364,51.611 41.122,59.138 18.972,5.766 34.932,-2.254 39.858,-18.37 20.277,7.25 38.15,-2.01 40.918,-21.491 22.719,0.472 39.393,-12.933 39.413,-40.586 0.02,-27.653 -24.103,-62.048 -53.907,-71.113 -28.297,-8.265 -54.279,-16.255 -79.272,-23.909 -24.922,-7.634 -48.941,-15.092 -73.325,-22.51 -22.153,-6.74 -40.023,5.77 -40.023,28.128 0,23.478 19.584,48.003 42.749,53.519"
             style="fill:#3e9af7;fill-opacity:1;fill-rule:evenodd;stroke:none"
             id="path805" />
        </g>
        <g
           id="g807"
           transform="translate(149.7612,230.0273)">
          <path
             d="m 0,0 v 0 c 2.123,21.069 16.955,38.673 34.225,42.798 0.959,58.818 28.884,85.285 69.129,105.586 3.467,27.88 17.066,48.163 45.178,63.548 l 0.004,-0.002 C 126.11,197.974 108.249,171.498 106.998,145.855 85.663,137.469 67.224,121.121 54.963,101.873 42.674,82.577 36.357,60.102 39.085,39.599 20.837,34.993 4.99,18.259 0,0"
             style="fill:#add6ff;fill-opacity:1;fill-rule:evenodd;stroke:none"
             id="path809" />
        </g>
        <g
           id="g811"
           transform="translate(189.2178,206.3887)">
          <path
             d="m 0,0 h -0.001 c 2.122,21.071 16.956,38.674 34.226,42.798 0.959,58.819 28.883,85.284 69.129,105.587 3.465,27.88 17.068,48.163 45.177,63.547 l 0.002,-10e-4 C 126.108,197.974 108.247,171.499 106.996,145.854 85.663,137.47 67.224,121.122 54.963,101.875 42.672,82.579 36.357,60.104 39.085,39.601 20.835,34.995 4.99,18.26 0,0"
             style="fill:#d1e8ff;fill-opacity:1;fill-rule:evenodd;stroke:none"
             id="path813" />
        </g>
        <g
           id="g815"
           transform="translate(264.1958,184.6738)">
          <path
             d="m 0,0 c -0.169,24.068 12.975,46.638 38.738,53.675 -1.114,28.156 24.218,56.313 42.876,57.511 -2.971,19.385 18.547,51.823 43.05,55.975 l -0.001,-0.003 C 100.701,158.944 82.493,131.989 85.161,108.549 60.569,102.966 40.008,75.413 42.696,51.354 20.241,46.006 1.152,22.802 0.002,0 Z"
             style="fill:#7dbeff;fill-opacity:1;fill-rule:evenodd;stroke:none"
             id="path817" />
        </g>
        <g
           id="g819"
           transform="translate(303.6523,161.0371)">
          <path
             d="m 0,0 c -0.169,24.066 12.975,46.636 38.735,53.673 -1.113,28.158 24.221,56.313 42.877,57.512 -2.968,19.384 18.547,51.824 43.052,55.974 l -0.002,-0.003 C 100.699,158.944 82.491,131.987 85.16,108.547 60.569,102.966 40.008,75.412 42.695,51.353 20.238,46.004 1.15,22.8 0,0"
             style="fill:#baddff;fill-opacity:1;fill-rule:evenodd;stroke:none"
             id="path821" />
        </g>
      </g>
    </g>
  </g>
</svg>
