<?xml version="1.0" ?>
<!-- Uploaded to: SVG Repo, www.svgrepo.com, Generator: SVG Repo Mixer Tools -->
<svg width="800px" height="800px" viewBox="0 0 512 512" id="Layer_1" version="1.1" xml:space="preserve" xmlns="http://www.w3.org/2000/svg" xmlns:xlink="http://www.w3.org/1999/xlink">
<style type="text/css">
	.st0{fill:#2B79C2;}
	.st1{fill:#3B4652;}
</style>
<g>
<path class="st0" d="M433.7,410.3c0,43.7-35.5,79.2-79.2,79.2h-173c-57,0-103.2-46.2-103.2-103.2c0-57,46.4-98.2,103.2-103.2   c6.1-0.5,11.2-0.6,17.2-0.6c12.8,18,33.8,29.4,57.2,29.4c38.7,0,70.2-31.5,70.2-70.2v-0.3c20.8,15.1,34.3,39.5,34.3,67.2   c0,7.9-1.1,15.5-3.2,22.8C399.8,332.7,433.7,367.5,433.7,410.3z"/>
<g>
<path class="st1" d="M106.1,98.7c-1.8,0-3.6-0.7-5-2.1c-2.7-2.7-2.7-7.2,0-9.9c41.4-41.4,96.4-64.2,154.8-64.2    c58.9,0,114,22.8,155,64.1c2.7,2.7,2.7,7.2,0,9.9c-2.7,2.7-7.2,2.7-9.9,0c-38.4-38.6-90-59.9-145.1-59.9    c-54.7,0-106.2,21.4-144.9,60.1C109.7,98,107.9,98.7,106.1,98.7z"/>
</g>
<g>
<path class="st1" d="M147.8,140.4c-1.8,0-3.6-0.7-5-2.1c-2.7-2.7-2.7-7.2,0-9.9c30.3-30.3,70.5-47,113.2-47    c43.1,0,83.3,16.6,113.3,46.8c2.7,2.7,2.7,7.2,0,9.9c-2.7,2.7-7.2,2.7-9.9,0C332,110.7,295.3,95.5,256,95.5    c-39,0-75.6,15.2-103.3,42.9C151.4,139.7,149.6,140.4,147.8,140.4z"/>
</g>
<g>
<path class="st1" d="M189.4,182c-1.8,0-3.6-0.7-5-2.1c-2.7-2.7-2.7-7.2,0-9.9c19.1-19.1,44.5-29.7,71.5-29.7    c27.2,0,52.6,10.5,71.6,29.6c2.7,2.7,2.7,7.2,0,9.9c-2.7,2.7-7.2,2.7-9.9,0c-16.3-16.4-38.2-25.5-61.7-25.5    c-23.3,0-45.1,9.1-61.6,25.6C193,181.4,191.2,182,189.4,182z"/>
</g>
<path class="st1" d="M291.2,241.6c0,19.5-15.8,35.2-35.2,35.2c-17.5,0-31.9-12.7-34.7-29.3c-0.3-1.9-0.5-3.9-0.5-5.9   c0-19.5,15.8-35.2,35.2-35.2c13.9,0,25.9,8,31.7,19.7C289.9,230.8,291.2,236,291.2,241.6z"/>
<g>
<path class="st1" d="M106.1,98.7c-1.8,0-3.6-0.7-5-2.1c-2.7-2.7-2.7-7.2,0-9.9c41.4-41.4,96.4-64.2,154.8-64.2    c58.9,0,114,22.8,155,64.1c2.7,2.7,2.7,7.2,0,9.9c-2.7,2.7-7.2,2.7-9.9,0c-38.4-38.6-90-59.9-145.1-59.9    c-54.7,0-106.2,21.4-144.9,60.1C109.7,98,107.9,98.7,106.1,98.7z"/>
</g>
</g>
</svg>