<?xml version="1.0" ?>
<!-- Uploaded to: SVG Repo, www.svgrepo.com, Generator: SVG Repo Mixer Tools -->
<svg width="800px" height="800px" viewBox="0 0 512 512" id="Layer_1" version="1.1" xml:space="preserve" xmlns="http://www.w3.org/2000/svg" xmlns:xlink="http://www.w3.org/1999/xlink">
<style type="text/css">
	.st0{fill:#2B79C2;}
	.st1{fill:#3B4652;}
</style>
<g>
<path class="st1" d="M391.4,162.9c0-23.5-6-45.7-16.6-65c-6.2-11.4-14-21.7-23.1-30.8c-24.5-24.5-58.4-39.7-95.8-39.7   c-51.3,0-95.9,28.5-118.9,70.5c-10.6,19.3-16.6,41.4-16.6,65v238h270.9V162.9z M293.6,81.5c19.2,8.9,34.6,24.4,43.5,43.5h-43.5   V81.5z M293.6,139H340c0.7,0,1.5-0.1,2.1-0.3c2.1,7.6,3.2,15.6,3.2,23.9s-1.1,16.3-3.2,23.9c-0.7-0.2-1.4-0.3-2.1-0.3h-46.4V139z    M256,73.2c8.3,0,16.3,1.1,23.9,3.3c-0.2,0.7-0.3,1.4-0.3,2.1V125h-47.2V78.6c0-0.7-0.1-1.5-0.3-2.1   C239.7,74.4,247.7,73.2,256,73.2z M279.6,139v47.2h-47.2V139H279.6z M232.4,246.6v-46.4h47.2v46.4c0,0.7,0.1,1.5,0.3,2.1   c-7.6,2.1-15.6,3.3-23.9,3.3s-16.3-1.1-23.9-3.3C232.3,248.1,232.4,247.4,232.4,246.6z M180.8,354.5c-13.7,0-24.8-11.1-24.8-24.8   c0-13.7,11.1-24.8,24.8-24.8s24.8,11.1,24.8,24.8C205.6,343.4,194.5,354.5,180.8,354.5z M218.4,243.7   c-19.2-8.9-34.6-24.4-43.5-43.5h43.5V243.7z M218.4,186.2H172c-0.7,0-1.5,0.1-2.1,0.3c-2.1-7.6-3.2-15.6-3.2-23.9   s1.1-16.3,3.2-23.9c0.7,0.2,1.4,0.3,2.1,0.3h46.4V186.2z M218.4,125h-43.5c8.9-19.2,24.4-34.6,43.5-43.5V125z M256,354.5   c-13.7,0-24.8-11.1-24.8-24.8c0-13.7,11.1-24.8,24.8-24.8s24.8,11.1,24.8,24.8C280.8,343.4,269.7,354.5,256,354.5z M293.6,200.2   h43.5c-8.9,19.2-24.4,34.6-43.5,43.5V200.2z M331.2,354.5c-13.7,0-24.8-11.1-24.8-24.8c0-13.7,11.1-24.8,24.8-24.8   s24.8,11.1,24.8,24.8C356,343.4,344.9,354.5,331.2,354.5z"/>
<path class="st0" d="M56.2,271.3c-5.4-9.9-10.1-20.3-13.9-30.9c-9.1-25-13.7-51.2-13.7-77.8c0-26.6,4.6-52.8,13.7-77.8   c3.9-10.6,8.5-21,13.9-30.9c1.8-3.4,0.6-7.6-2.8-9.5c-3.4-1.8-7.6-0.6-9.5,2.8c-5.7,10.5-10.7,21.5-14.8,32.8   c-9.6,26.5-14.5,54.3-14.5,82.6c0,28.3,4.9,56.1,14.6,82.6c4.1,11.2,9,22.2,14.8,32.7c1.3,2.3,3.7,3.7,6.2,3.7   c1.1,0,2.3-0.3,3.3-0.8C56.7,279,58,274.7,56.2,271.3z"/>
<path class="st0" d="M482.9,80c-4.1-11.2-9-22.2-14.7-32.7c-1.8-3.4-6.1-4.7-9.5-2.8c-3.4,1.8-4.7,6.1-2.8,9.5   c5.4,9.9,10,20.3,13.9,30.8c9.1,25,13.7,51.2,13.7,77.8c0,26.6-4.6,52.8-13.7,77.8c-3.9,10.7-8.6,21.1-13.9,30.9   c-1.8,3.4-0.6,7.6,2.8,9.5c1.1,0.6,2.2,0.9,3.3,0.9c2.5,0,4.9-1.3,6.2-3.7c5.7-10.5,10.7-21.5,14.8-32.8   c9.6-26.5,14.5-54.3,14.5-82.6C497.5,134.3,492.6,106.5,482.9,80z"/>
<path class="st0" d="M86.3,254.9c1.3,2.3,3.7,3.7,6.2,3.7c1.1,0,2.3-0.3,3.3-0.8c3.4-1.8,4.7-6.1,2.8-9.5c-4.2-7.8-7.9-16-11-24.3   c-7.2-19.7-10.8-40.3-10.8-61.3c0-21,3.6-41.6,10.8-61.3c3.1-8.4,6.7-16.6,11-24.3c1.8-3.4,0.6-7.6-2.8-9.5   c-3.4-1.8-7.6-0.6-9.5,2.8c-4.6,8.4-8.5,17.2-11.8,26.2c-7.7,21.2-11.6,43.4-11.6,66c0,22.6,3.9,44.9,11.6,66.1   C77.8,237.7,81.8,246.5,86.3,254.9z"/>
<path class="st0" d="M413.4,248.2c-1.8,3.4-0.6,7.6,2.8,9.5c1.1,0.6,2.2,0.9,3.3,0.9c2.5,0,4.9-1.3,6.2-3.7   c4.5-8.3,8.5-17.2,11.8-26.2c7.7-21.2,11.6-43.4,11.6-66c0-22.6-3.9-44.9-11.6-66.1c-3.3-9-7.2-17.8-11.8-26.2   c-1.8-3.4-6.1-4.7-9.5-2.8c-3.4,1.8-4.7,6.1-2.8,9.5c4.2,7.8,7.9,16,10.9,24.3c7.2,19.7,10.8,40.3,10.8,61.3   c0,21-3.6,41.6-10.8,61.2C421.3,232.3,417.6,240.5,413.4,248.2z"/>
<rect class="st0" height="69.5" width="408" x="52" y="415"/>
</g>
</svg>