<?xml version="1.0" ?>
<!-- Uploaded to: SVG Repo, www.svgrepo.com, Generator: SVG Repo Mixer Tools -->
<svg width="800px" height="800px" viewBox="0 0 512 512" id="Layer_1" version="1.1" xml:space="preserve" xmlns="http://www.w3.org/2000/svg" xmlns:xlink="http://www.w3.org/1999/xlink">
<style type="text/css">
	.st0{fill:#2B79C2;}
	.st1{fill:#3B4652;}
</style>
<g>
<path class="st1" d="M226.8,265.2c8.4,5.6,18.4,8.8,29.2,8.8s20.8-3.2,29.2-8.8c14.3-9.5,23.7-25.7,23.7-44.1   c0-28.2-22-51.2-49.7-52.8c3.8,6,5.9,13,5.9,20.4c0,20.9-17,38-38,38c-8.9,0-17.2-3-23.9-8.4c-0.1,0.9-0.1,1.9-0.1,2.9   C203.1,239.5,212.5,255.7,226.8,265.2z"/>
<path class="st0" d="M227.1,212.6c13.2,0,24-10.7,24-24c0-7.5-3.5-14.2-8.9-18.6c-4.1-3.4-9.4-5.3-15.1-5.3c-13.2,0-24,10.7-24,24   c0,4.7,1.4,9.1,3.7,12.9C211.1,208.2,218.6,212.6,227.1,212.6z"/>
<path class="st1" d="M417.7,427.7H94.3C76.5,427.7,62,442.1,62,460v32.3h388V460C450,442.1,435.5,427.7,417.7,427.7z"/>
<path class="st1" d="M256,398.9c-35.1,0-69-10.2-98.1-29.5l-29.3,44.3h254.8l-29.3-44.3C325,388.7,291.1,398.9,256,398.9z"/>
<path class="st1" d="M256,43.3c47.5,0,92.1,18.5,125.7,52.1l16.7-16.7c-38-38-88.6-59-142.4-59s-104.4,21-142.4,59l16.7,16.7   C163.9,61.8,208.5,43.3,256,43.3z"/>
<path class="st0" d="M165.6,357.7c25.9,17.2,57,27.2,90.4,27.2s64.5-10,90.4-27.2c44.2-29.3,73.4-79.6,73.4-136.6   c0-45.2-18.3-86.2-48-115.8c-29.6-29.6-70.6-48-115.8-48s-86.2,18.3-115.8,48c-29.6,29.6-48,70.6-48,115.8   C92.2,278.1,121.4,328.4,165.6,357.7z M256,124.1c53.6,0,97,43.4,97,97c0,33.8-17.3,63.5-43.5,80.9c-15.3,10.2-33.7,16.1-53.5,16.1   s-38.2-5.9-53.5-16.1c-26.2-17.4-43.5-47.1-43.5-80.9C159,167.5,202.4,124.1,256,124.1z"/>
</g>
</svg>