<?xml version="1.0" ?>
<!-- Uploaded to: SVG Repo, www.svgrepo.com, Generator: SVG Repo Mixer Tools -->
<svg width="800px" height="800px" viewBox="0 0 512 512" id="Layer_1" version="1.1" xml:space="preserve" xmlns="http://www.w3.org/2000/svg" xmlns:xlink="http://www.w3.org/1999/xlink">
<style type="text/css">
	.st0{fill:#2B79C2;}
	.st1{fill:#3B4652;}
</style>
<g>
<path class="st1" d="M317.8,48.5c-3.6-11.1-13.9-18.6-25.6-18.6H123.9c-11.6,0-22,7.5-25.6,18.6l-34.8,86.7h289.2L317.8,48.5z"/>
<path class="st0" d="M395.9,249.5v-68.1c0-5.7-3-11-7.8-13.9l-29.8-18.3H57.8L28,167.4c-4.8,3-7.8,8.3-7.8,13.9v68.1   c0,9,7.3,16.3,16.3,16.3h343C388.6,265.8,395.9,258.5,395.9,249.5z M134.2,228.6H59.9v-37.8h74.4V228.6z M356.2,228.6h-74.4v-37.8   h74.4V228.6z"/>
<path class="st1" d="M127.5,314.8v-34.9H59.9v34.9c0,4,3.2,7.2,7.2,7.2h53.3C124.3,322,127.5,318.8,127.5,314.8z"/>
<path class="st1" d="M292.4,322h53.3c4,0,7.2-3.2,7.2-7.2v-34.9h-67.7v34.9C285.2,318.8,288.4,322,292.4,322z"/>
<path class="st1" d="M455.4,202.7h-45.5v14h45.5c12.4,0,22.4,10,22.4,22.4v163.2c0,12.3-10,22.4-22.4,22.4H219v-21   c0-2.9-2-5.5-4.9-6.2l-43.6-10.7c-0.5-0.1-1-0.2-1.5-0.2h-48.5c-3.5,0-6.4,2.9-6.4,6.4v8.3H80c-3.9,0-7,3.1-7,7s3.1,7,7,7h34.1   v38.1H80c-3.9,0-7,3.1-7,7s3.1,7,7,7h34.1v8.3c0,3.5,2.9,6.4,6.4,6.4H169c0.5,0,1-0.1,1.5-0.2l43.6-10.7c2.9-0.7,4.9-3.3,4.9-6.2   v-26.4h236.4c20.1,0,36.4-16.3,36.4-36.4V239.1C491.8,219.1,475.5,202.7,455.4,202.7z"/>
</g>
</svg>