<?xml version="1.0" ?>
<!-- Uploaded to: SVG Repo, www.svgrepo.com, Generator: SVG Repo Mixer Tools -->
<svg width="800px" height="800px" viewBox="0 0 512 512" id="Layer_1" version="1.1" xml:space="preserve" xmlns="http://www.w3.org/2000/svg" xmlns:xlink="http://www.w3.org/1999/xlink">
<style type="text/css">
	.st0{fill:#2B79C2;}
	.st1{fill:#3B4652;}
</style>
<g>
<path class="st0" d="M135.2,271.4c29.1,0,55.6-10.8,75.7-28.7c0.9-0.8,1.7-1.6,2.6-2.4c0.5-0.5,1-1,1.6-1.5   c0.1-0.1,0.1-0.2,0.2-0.2c0.7-0.7,1.3-1.3,2-2c0.1-0.1,0.1-0.1,0.2-0.2c0.6-0.6,1.2-1.3,1.8-2c0.5-0.6,1.1-1.2,1.6-1.8   c0.8-0.9,1.5-1.7,2.2-2.6c0.6-0.7,1.2-1.5,1.8-2.2c0,0,0.1-0.1,0.1-0.1c0.6-0.7,1.2-1.5,1.7-2.3c0.4-0.5,0.7-0.9,1-1.4   c0.4-0.6,0.8-1.2,1.3-1.8c1.1-1.5,2.1-3.1,3.1-4.7c0.4-0.6,0.8-1.2,1.1-1.8c0.3-0.4,0.6-0.9,0.8-1.4c0.1-0.1,0.1-0.3,0.2-0.4   c0.7-1.2,1.3-2.3,1.9-3.5c-0.3,0.5-0.5,0.9-0.8,1.4c0.3-0.5,0.5-0.9,0.8-1.4c0.6-1,1.1-2.1,1.6-3.2c0.3-0.6,0.6-1.3,1-2   c0.3-0.6,0.5-1.2,0.8-1.8c0.4-0.9,0.8-1.8,1.2-2.7c0.7-1.6,1.3-3.1,1.8-4.7c0.1-0.4,0.3-0.8,0.4-1.2c0.4-1.2,0.9-2.5,1.2-3.7   c0.2-0.5,0.3-0.9,0.4-1.4c0.1-0.5,0.3-0.9,0.4-1.4c0.2-0.6,0.3-1.1,0.5-1.7c0,0,0-0.1,0-0.1c0.2-0.7,0.4-1.5,0.6-2.2   c0-0.1,0.1-0.3,0.1-0.4c0.1-0.6,0.3-1.2,0.4-1.7c0.2-0.8,0.4-1.7,0.5-2.5c0,0.1,0,0.2-0.1,0.3c0-0.1,0-0.2,0.1-0.3   c0-0.1,0-0.1,0-0.2c0.1-0.7,0.3-1.3,0.4-2c0.1-0.3,0.1-0.6,0.1-0.8c0.1-0.5,0.2-1,0.3-1.5c0.1-0.6,0.2-1.2,0.3-1.9   c0-0.2,0.1-0.5,0.1-0.7c0.1-0.7,0.2-1.5,0.3-2.2c0.1-0.3,0.1-0.6,0.1-1c0.1-0.8,0.2-1.6,0.2-2.5c0-0.1,0-0.2,0-0.3   c0.1-0.7,0.1-1.4,0.1-2c0-0.5,0.1-1,0.1-1.5c0.1-0.9,0.1-1.8,0.1-2.7c0-1.1,0-2.1,0-3.2c0-34-14.8-64.5-38.4-85.4   c-20.1-17.9-46.6-28.7-75.7-28.7c-63,0-114.1,51.1-114.1,114.1c0,7.7,0.8,15.2,2.2,22.5C33.8,232.1,79.9,271.4,135.2,271.4z    M135.2,93.4c16.3,0,31.1,6.1,42.4,16.1c13.2,11.7,21.5,28.8,21.5,47.8c0,7.9-1.4,15.5-4.1,22.5c-3.7,9.8-9.8,18.5-17.5,25.3   c-11.3,10-26.1,16.1-42.4,16.1c-27.4,0-50.8-17.2-59.9-41.4c-2.6-7-4.1-14.6-4.1-22.5C71.3,122,99.9,93.4,135.2,93.4z"/>
<path class="st1" d="M479.1,72H230.7c20.9,23.4,32.6,53.7,32.6,85.4c0,1.2,0,2.4-0.1,3.6l0,0.7c0,0.8-0.1,1.6-0.1,2.4   c0,0.5-0.1,1.1-0.1,1.6c0,0.7-0.1,1.5-0.1,2.2l0,0.2l0,0.4c-0.1,1-0.2,1.9-0.3,2.8l0,0.1c0,0.3-0.1,0.6-0.1,1   c-0.1,0.7-0.2,1.5-0.3,2.2c0,0.3-0.1,0.7-0.1,1c-0.1,0.7-0.2,1.4-0.3,2.1c-0.1,0.5-0.1,0.9-0.2,1.4c-0.1,0.4-0.1,0.8-0.2,1.2   c-0.1,0.7-0.2,1.4-0.4,2c0,0.3-0.1,0.5-0.2,0.8c-0.3,1.3-0.6,2.8-1,4.3c0,0.2-0.1,0.4-0.1,0.5c-0.1,0.2-0.1,0.5-0.2,0.7v1.3   l-0.8,1.8c-0.1,0.2-0.1,0.5-0.2,0.7c-0.1,0.6-0.3,1.1-0.5,1.6c-0.1,0.5-0.3,1.1-0.5,1.6c-0.4,1.4-0.9,2.7-1.3,3.9   c-0.2,0.6-0.4,1.1-0.5,1.5c-0.6,1.8-1.3,3.6-2.1,5.3c-0.4,1-0.8,1.9-1.3,2.9c-0.3,0.6-0.6,1.3-0.8,1.9l-0.1,0.1   c-0.3,0.7-0.7,1.5-1.1,2.4c-0.6,1.2-1.2,2.3-1.8,3.5c-0.8,1.5-1.6,2.9-2.4,4.3l-0.1,0.1c-0.3,0.5-0.6,1-0.9,1.5   c-0.3,0.5-0.7,1.1-1,1.6l-0.2,0.3c-1,1.6-2.1,3.2-3.4,5.3l-0.1,0.1c-0.4,0.6-0.9,1.3-1.3,1.9c-0.4,0.6-0.8,1.1-1.2,1.6   c-0.6,0.8-1.2,1.6-1.8,2.4c-0.1,0.1-0.2,0.3-0.3,0.4c-0.6,0.7-1.2,1.5-1.8,2.2c-0.8,0.9-1.6,1.9-2.6,3c-0.3,0.3-0.5,0.6-0.8,0.9   h248.4c6.5,0,11.8-5.3,11.8-11.8V83.8C490.9,77.3,485.6,72,479.1,72z M438.7,136.8H304.6v-31.6h134.1V136.8z"/>
<path class="st1" d="M244.2,191.3c-0.4,1.3-0.8,2.5-1.2,3.7C243.4,193.8,243.8,192.5,244.2,191.3z"/>
<path class="st1" d="M135.2,285.4c-48.9,0-92.6-27.9-114.1-69.8v193c0,33.2,26.9,60.1,60.1,60.1h108c33.2,0,60.1-26.9,60.1-60.1   V256.7h-33.3C193.3,275.3,164.8,285.4,135.2,285.4z M95.7,429c-11.4,0-20.6-9.2-20.6-20.6c0-11.4,9.2-20.6,20.6-20.6   c11.4,0,20.6,9.2,20.6,20.6C116.3,419.7,107.1,429,95.7,429z M174.8,429c-11.4,0-20.6-9.2-20.6-20.6c0-11.4,9.2-20.6,20.6-20.6   c11.4,0,20.6,9.2,20.6,20.6C195.4,419.7,186.2,429,174.8,429z M73.3,357.1v-41.3h123.8v41.3H73.3z"/>
</g>
</svg>