<?xml version="1.0" ?>
<!-- Uploaded to: SVG Repo, www.svgrepo.com, Generator: SVG Repo Mixer Tools -->
<svg width="800px" height="800px" viewBox="0 0 512 512" id="Layer_1" version="1.1" xml:space="preserve" xmlns="http://www.w3.org/2000/svg" xmlns:xlink="http://www.w3.org/1999/xlink">
<style type="text/css">
	.st0{fill:#2B79C2;}
	.st1{fill:#3B4652;}
</style>
<g>
<path class="st1" d="M377.4,244.8V72.1c0-4.9-3.9-8.8-8.8-8.8h-57v36.5H332c4.9,0,8.8,3.9,8.8,8.8v99.7c0,4.9-3.9,8.8-8.8,8.8   h-20.4v36.5h57C373.4,253.6,377.4,249.7,377.4,244.8z"/>
<path class="st0" d="M78.1,272.6h219.5v-4.9v-64.5v-89.3V49.3v-9.4c0-5.1-4.1-9.2-9.2-9.2H53.7c-7.4,0-11.8,8.2-7.6,14.3l32.1,48   V272.6z M123.8,105.6h56.7c3.9,0,7,3.1,7,7c0,3.9-3.1,7-7,7h-56.7c-3.9,0-7-3.1-7-7C116.8,108.7,119.9,105.6,123.8,105.6z    M123.8,148.8h56.7c3.9,0,7,3.1,7,7c0,3.9-3.1,7-7,7h-56.7c-3.9,0-7-3.1-7-7C116.8,151.9,119.9,148.8,123.8,148.8z M123.8,192h56.7   c3.9,0,7,3.1,7,7s-3.1,7-7,7h-56.7c-3.9,0-7-3.1-7-7S119.9,192,123.8,192z M123.8,235.2h56.7c3.9,0,7,3.1,7,7c0,3.9-3.1,7-7,7   h-56.7c-3.9,0-7-3.1-7-7C116.8,238.3,119.9,235.2,123.8,235.2z"/>
<rect class="st1" height="18.6" width="41.2" x="320.9" y="30.7"/>
<path class="st1" d="M425.4,313.1H321.9h0v-17.8c0-4.8-3.9-8.7-8.7-8.7H62.6c-4.8,0-8.7,3.9-8.7,8.7V345c0,4.8,3.9,8.7,8.7,8.7   h250.5c4.8,0,8.7-3.9,8.7-8.7v-17.8h0h103.5c15.5,0,28.2,12.6,28.2,28.2v52.7c0,15.5-12.6,28.2-28.2,28.2H187.9   c-0.5,0-1.1,0.1-1.6,0.2v-17.1c0-2.7-1.8-5-4.4-5.6l-34.1-8.4c-0.4-0.1-0.9-0.2-1.4-0.2h-37.9c-3.2,0-5.8,2.6-5.8,5.8v4.5H75.5   c-3.9,0-7,3.1-7,7s3.1,7,7,7h27.2V457H75.5c-3.9,0-7,3.1-7,7s3.1,7,7,7h27.2v4.5c0,3.2,2.6,5.8,5.8,5.8h37.9c0.5,0,0.9-0.1,1.4-0.2   l34.1-8.4c2.6-0.6,4.4-3,4.4-5.6V450c0.5,0.1,1,0.2,1.6,0.2h237.5c23.3,0,42.2-18.9,42.2-42.2v-52.7   C467.5,332.1,448.6,313.1,425.4,313.1z"/>
</g>
</svg>