<?xml version="1.0" ?>
<!-- Uploaded to: SVG Repo, www.svgrepo.com, Generator: SVG Repo Mixer Tools -->
<svg width="800px" height="800px" viewBox="0 0 512 512" id="Layer_1" version="1.1" xml:space="preserve" xmlns="http://www.w3.org/2000/svg" xmlns:xlink="http://www.w3.org/1999/xlink">
<style type="text/css">
	.st0{fill:#2B79C2;}
	.st1{fill:#3B4652;}
</style>
<g>
<path class="st0" d="M259,103.4H80v259.1h179V103.4z M222,321.1H116.9v-65.5H222V321.1z M222,210.3H116.9v-65.5H222V210.3z"/>
<polygon class="st1" points="309.9,147.8 309.9,144.8 273,144.8 273,321.1 309.9,321.1 309.9,318.1 423.1,426.4 434.9,426.4    434.9,39.5 423.1,39.5  "/>
<rect class="st0" height="126.6" width="36.6" x="448.9" y="166.6"/>
<rect class="st1" height="126.6" width="39.5" x="26.5" y="166.6"/>
<polygon class="st1" points="132.8,376.5 184.4,456 199.1,456 212.2,472.5 298,472.5 226.2,376.5  "/>
</g>
</svg>