<?xml version="1.0" ?>
<!-- Uploaded to: SVG Repo, www.svgrepo.com, Generator: SVG Repo Mixer Tools -->
<svg width="800px" height="800px" viewBox="0 0 512 512" id="Layer_1" version="1.1" xml:space="preserve" xmlns="http://www.w3.org/2000/svg" xmlns:xlink="http://www.w3.org/1999/xlink">
<style type="text/css">
	.st0{fill:#2B79C2;}
	.st1{fill:#3B4652;}
</style>
<g>
<path class="st0" d="M380.6,32.6H102.8v75.2h277.9V32.6z M212.9,92.4h-57.1V62.1h57.1V92.4z M327.6,92.4h-57.1V62.1h57.1V92.4z"/>
<path class="st0" d="M447.3,404.9c-11-13.1-31.1-17.8-51.2-12c-13.6,4-25.3,11.6-36.5,19c-2.3,1.5-4.6,3-6.9,4.5   c-16,10.2-29.6,16.6-42.8,20.1c-11.2,3-28.1,5.4-44.8-0.4c-14.6-5-26.2-15.7-31-28.5c-3.4-9.1-3.7-20.2-0.8-31.1   c2-7.5,5.4-14.9,10.2-22.7h79.7v-36.1H160.1v36.1h67.2c-3.4,6.4-5.9,12.7-7.6,19.1c-3.7,13.7-3.2,27.8,1.2,39.6   c6.3,16.7,21,30.4,39.5,36.8c15.9,5.5,34.2,5.7,53,0.7c14.6-3.9,29.4-10.8,46.7-21.8c2.4-1.5,4.7-3,7-4.6   c10.9-7.1,21.2-13.9,32.8-17.2c12.1-3.5,28-2.5,36.5,7.6c6.5,7.7,6.8,18.3,6.4,23.9c-0.7,9.4-3.9,18.8-7.1,28   c-1.3,3.7,0.7,7.6,4.4,8.9c0.8,0.3,1.5,0.4,2.3,0.4c2.9,0,5.6-1.8,6.6-4.7c3.4-10,7-20.3,7.8-31.5   C457.9,425.5,454.5,413.5,447.3,404.9z"/>
<path class="st1" d="M421.5,284.3V141.2c0-10.7-8.7-19.3-19.3-19.3H81.3c-10.7,0-19.3,8.7-19.3,19.3v143.1   c0,10.7,8.7,19.3,19.3,19.3h320.8C412.8,303.6,421.5,295,421.5,284.3z M355.4,166.9h-42.7c-3.9,0-7-3.1-7-7s3.1-7,7-7h42.7   c3.9,0,7,3.1,7,7S359.3,166.9,355.4,166.9z"/>
</g>
</svg>