<?xml version="1.0" ?>
<!-- Uploaded to: SVG Repo, www.svgrepo.com, Generator: SVG Repo Mixer Tools -->
<svg width="800px" height="800px" viewBox="0 0 512 512" id="Layer_1" version="1.1" xml:space="preserve" xmlns="http://www.w3.org/2000/svg" xmlns:xlink="http://www.w3.org/1999/xlink">
<style type="text/css">
	.st0{fill:#2B79C2;}
	.st1{fill:#3B4652;}
</style>
<g>
<path class="st1" d="M216.2,310.4l9.4-16.3l56.3-97.1l9.4-16.3c5.2-8.9,3.9-20.3-3.2-27.8l-33.3-35.7L143,310.4l47.5,11.1   C200.6,323.9,211,319.4,216.2,310.4z"/>
<path class="st0" d="M461.3,346.1l-18.4,31.7l-25.8-15l-8.5,14.7L371,360.4l-18.7-8.5l-20.4-9.3l-14.9-6.8l-8.3-3.8l0,0l-1-0.5   l-0.3-0.1l-6.8-3.1l-39-17.8L238.4,300l54.8-94.6l61.8,45.5c6.3-8.5,16.3-14,27.7-14c19,0,34.4,15.4,34.4,34.4   c0,7.6-2.5,14.7-6.7,20.4l33.6,24.8l-8.5,14.7L461.3,346.1z"/>
<path class="st1" d="M249.5,61.2l-33.8-41.3L39.1,324.7l52.6,8.8c11.9,2,23.8-3.6,29.8-14L252.2,94   C258.2,83.6,257.2,70.5,249.5,61.2z"/>
<path class="st1" d="M363.6,372.4l-43.8-20l0,0l-25-11.4L257.3,324c-0.7,3.7-1.1,7.6-1.1,11.5c0,12.2,3.6,23.5,9.8,33   c5.2,7.9,12.1,14.5,20.3,19.2c5,2.9,10.5,5.1,16.3,6.4c4.4,1,8.9,1.5,13.6,1.5c6.2,0,12.2-1,17.8-2.7c4.2-1.3,8.3-3.1,12-5.2   C352.9,383.7,358.8,378.5,363.6,372.4z"/>
<path class="st0" d="M256.6,379.4l-97,112.7h56.6l62.4-92.8C270,394.1,262.5,387.4,256.6,379.4z"/>
<path class="st0" d="M375.9,379.4c-5.9,8-13.4,14.8-21.9,19.8l62.4,92.9h56.6L375.9,379.4z"/>
<path class="st0" d="M316.3,409.5c-4.9,0-9.8-0.5-14.6-1.5l-6.2,84h43.2l-3.8-84.9C328.8,408.7,322.6,409.5,316.3,409.5z"/>
</g>
</svg>