<?xml version="1.0" ?>
<!-- Uploaded to: SVG Repo, www.svgrepo.com, Generator: SVG Repo Mixer Tools -->
<svg width="800px" height="800px" viewBox="0 0 512 512" id="Layer_1" version="1.1" xml:space="preserve" xmlns="http://www.w3.org/2000/svg" xmlns:xlink="http://www.w3.org/1999/xlink">
<style type="text/css">
	.st0{fill:#2B79C2;}
	.st1{fill:#3B4652;}
</style>
<g>
<polygon class="st1" points="160.8,155.5 114.1,155.5 39.4,214.7 39.4,346.5 160.8,281.7  "/>
<path class="st1" d="M39.9,362c5.9,65.5,60.9,116.8,127.9,116.8c35.5,0,67.6-14.4,90.8-37.6c20.7-20.7,34.3-48.3,37.1-79.1   l-127.9-68.2L39.9,362z"/>
<polygon class="st0" points="174.8,155.5 174.8,281.7 296.2,346.5 296.2,214.7 221.5,155.5  "/>
<path class="st1" d="M424.9,118.6v180.5c2.3-0.3,4.7-0.5,7-0.5c2.3,0,4.7,0.2,7,0.5V118.6c0-47.1-38.3-85.4-85.4-85.4H246.2   c-47.1,0-85.4,38.3-85.4,85.4h-46.7v22.8h107.3v-22.8h-46.7c0-39.4,32-71.4,71.4-71.4h107.4C392.9,47.2,424.9,79.3,424.9,118.6z"/>
<path class="st0" d="M460.7,324.6c-5.8-5.8-13.3-9.9-21.8-11.3c-2.3-0.4-4.6-0.6-7-0.6s-4.7,0.2-7,0.6c-19.1,3.3-33.7,20-33.7,40.1   v64.7h81.4v-64.7C472.6,342.2,468.1,332,460.7,324.6z"/>
<rect class="st1" height="36.6" width="50.6" x="406.6" y="432.1"/>
</g>
</svg>