<?xml version="1.0" encoding="utf-8"?>
<!-- Generator: Adobe Illustrator 24.0.0, SVG Export Plug-In . SVG Version: 6.00 Build 0)  -->
<svg version="1.1" xmlns="http://www.w3.org/2000/svg" xmlns:xlink="http://www.w3.org/1999/xlink" x="0px" y="0px"
	 viewBox="0 0 256 256" enable-background="new 0 0 256 256" xml:space="preserve">
<g id="Layer_2" display="none">
	<rect x="-764" y="-2808" display="inline" fill="#FFFFFF" width="1786" height="5896"/>
</g>
<g id="Layer_1">
	<g>
		<g>
			<g>
				<path fill="#72C2E9" d="M217.321,181.418h8.999c1.105,0,2-0.895,2-2v-13.332c0-1.105-0.895-2-2-2h-8.999c-1.105,0-2,0.895-2,2
					v13.332C215.321,180.523,216.216,181.418,217.321,181.418z"/>
			</g>
			<g>
				<g>
					<path fill="#72C1E8" d="M112,84.086c0,6.49,3.86,12.07,9.41,14.58c-0.15,4.34-0.25,7.33-0.25,7.33
						c-0.13,3.62-1.77,7.07-4.49,9.48c-12.73,11.21-29.31,31.22-37.73,53.76c-9.98,26.7-6.92,51.03,9.11,72.37
						c1.19,1.56,1.06,3.76-0.28,5.2c-1.42,1.51-3.77,1.71-5.42,0.45c-33.078-25.337-46.617-68.227,13.91-140.74
						c2.37-2.83,3.66-6.41,3.66-10.09v-38.03c0-7.42,9.04-11.24,14.33-5.94l4.39,4.38c2.51,2.51,3.88,5.82,3.88,9.35
						c0,0-0.04,1.09-0.1,2.9C116.33,71.346,112,77.206,112,84.086z"/>
				</g>
				<g>
					<path fill="#72C1E8" d="M112,84.086c0,6.49,3.86,12.07,9.41,14.58c-0.15,4.34-0.25,7.33-0.25,7.33
						c-0.13,3.62-1.77,7.07-4.49,9.48c-12.73,11.21-29.31,31.22-37.73,53.76c-9.98,26.7-6.92,51.03,9.11,72.37
						c1.19,1.56,1.06,3.76-0.28,5.2c-1.42,1.51-3.77,1.71-5.42,0.45c-33.078-25.337-46.617-68.227,13.91-140.74
						c2.37-2.83,3.66-6.41,3.66-10.09v-38.03c0-7.42,9.04-11.24,14.33-5.94l4.39,4.38c2.51,2.51,3.88,5.82,3.88,9.35
						c0,0-0.04,1.09-0.1,2.9C116.33,71.346,112,77.206,112,84.086z"/>
				</g>
				<g>
					<path fill="#C5E5FF" d="M65.191,218.698c-0.594-2.254-1.089-4.559-1.473-6.85c-0.228-1.362,0.691-2.65,2.053-2.878
						c1.367-0.227,2.651,0.692,2.878,2.053c0.358,2.142,0.821,4.295,1.376,6.402c0.352,1.335-0.445,2.703-1.781,3.054
						C66.91,220.83,65.543,220.034,65.191,218.698z M65.197,203.992c-1.343,0-2.453-1.066-2.497-2.419
						c-0.4-12.252,2.077-24.435,6.404-36.012c9.107-24.38,26.949-45.92,40.608-57.949c1.037-0.912,2.616-0.812,3.529,0.224
						c0.912,1.036,0.812,2.616-0.224,3.529c-13.205,11.628-30.445,32.432-39.229,55.947c-4.097,10.963-6.467,22.496-6.091,34.099
						c0.045,1.38-1.037,2.535-2.417,2.58C65.252,203.992,65.224,203.992,65.197,203.992z"/>
				</g>
				<g>
					<g>
						<path fill="#72C1E8" d="M201.28,202.786c-2.23,17.19-11.52,32.13-27.63,44.47c-1.65,1.26-4,1.06-5.42-0.45
							c-1.34-1.44-1.47-3.64-0.28-5.2c16.03-21.34,19.09-45.67,9.11-72.37c-8.42-22.54-25-42.55-37.73-53.76
							c-2.72-2.41-4.36-5.86-4.49-9.48c0,0-0.1-2.99-0.25-7.33c5.55-2.51,9.41-8.09,9.41-14.58c0-6.88-4.33-12.74-10.42-15
							c-0.06-1.81-0.1-2.9-0.1-2.9c0-3.53,1.37-6.84,3.88-9.35l4.39-4.38c5.29-5.3,14.33-1.48,14.33,5.94v38.03
							c0,3.68,1.29,7.26,3.66,10.09C191.2,144.206,204.79,175.696,201.28,202.786z"/>
					</g>
					<g>
						<path fill="#72C1E8" d="M201.28,202.786c-2.23,17.19-11.52,32.13-27.63,44.47c-1.65,1.26-4,1.06-5.42-0.45
							c-1.34-1.44-1.47-3.64-0.28-5.2c16.03-21.34,19.09-45.67,9.11-72.37c-8.42-22.54-25-42.55-37.73-53.76
							c-2.72-2.41-4.36-5.86-4.49-9.48c0,0-0.1-2.99-0.25-7.33c5.55-2.51,9.41-8.09,9.41-14.58c0-6.88-4.33-12.74-10.42-15
							c-0.06-1.81-0.1-2.9-0.1-2.9c0-3.53,1.37-6.84,3.88-9.35l4.39-4.38c5.29-5.3,14.33-1.48,14.33,5.94v38.03
							c0,3.68,1.29,7.26,3.66,10.09C191.2,144.206,204.79,175.696,201.28,202.786z"/>
					</g>
					<g>
						<path fill="#C5E5FF" d="M187.268,220.324c-1.236-0.614-1.741-2.115-1.127-3.351c2.435-4.903,4.025-10.13,4.727-15.536
							c0.302-2.323,0.455-4.728,0.455-7.148c0.001-19.814-9.927-42.515-30.352-69.401c-0.835-1.099-0.62-2.667,0.479-3.503
							c1.099-0.835,2.668-0.621,3.504,0.479c21.109,27.788,31.37,51.478,31.369,72.425c0,2.634-0.167,5.256-0.496,7.792
							c-0.773,5.957-2.525,11.716-5.207,17.116C190.007,220.43,188.508,220.939,187.268,220.324z M154.843,117.088
							c-1.03-1.27-2.081-2.547-3.154-3.833c-0.885-1.06-0.743-2.636,0.316-3.521c1.06-0.884,2.637-0.744,3.521,0.317
							c1.089,1.304,2.155,2.6,3.199,3.888c0.87,1.072,0.706,2.646-0.366,3.517C157.283,118.326,155.71,118.158,154.843,117.088z"/>
					</g>
				</g>
			</g>
			<g>
				<g>
					<path fill="#F0C020" d="M43.116,201.446c-3.489-1.153-7.093-2.161-9.116-10.876c-1.863,8.027-4.849,9.466-9.116,10.876
						c6.96,2.3,8.009,6.108,9.116,10.876C35.907,204.102,39.061,202.785,43.116,201.446z"/>
				</g>
				<g>
					<path fill="#F0C020" d="M202.32,97.446c-3.489-1.153-7.093-2.161-9.116-10.876c-1.863,8.027-4.849,9.466-9.116,10.876
						c6.96,2.3,8.01,6.108,9.116,10.876C195.111,100.102,198.266,98.785,202.32,97.446z"/>
				</g>
				<g>
					<path fill="#F0C020" d="M231.116,126.721c-3.489-1.153-7.093-2.161-9.116-10.876c-1.863,8.027-4.849,9.466-9.116,10.876
						c6.96,2.3,8.01,6.108,9.116,10.876C223.907,129.378,227.061,128.061,231.116,126.721z"/>
				</g>
			</g>
			<g>
				<g>
					<path fill="#878787" d="M144,84.086c0,6.49-3.86,12.07-9.41,14.58c-4.183,1.894-8.995,1.895-13.18,0
						c-5.55-2.51-9.41-8.09-9.41-14.58c0-6.88,4.33-12.74,10.42-15c1.73-0.65,3.62-1,5.58-1s3.85,0.35,5.58,1
						C139.67,71.346,144,77.206,144,84.086z"/>
				</g>
				<g>
					<path fill="#EFEFEF" d="M127.573,92.451c-0.336-1.339,0.477-2.697,1.816-3.033c3.62-0.909,5.521-5.527,2.88-8.791
						c-0.868-1.074-0.701-2.648,0.373-3.516c1.072-0.869,2.647-0.701,3.516,0.373c1.533,1.897,2.344,4.164,2.344,6.555
						c0,4.856-3.247,9.062-7.896,10.229C129.272,94.603,127.91,93.794,127.573,92.451z M119.182,89.78
						c-0.374-0.578-0.692-1.194-0.944-1.831c-0.509-1.284,0.12-2.737,1.403-3.246c1.284-0.508,2.736,0.119,3.246,1.403
						c0.132,0.333,0.298,0.655,0.495,0.959c0.75,1.159,0.417,2.707-0.742,3.457C121.476,91.273,119.93,90.938,119.182,89.78z"/>
				</g>
			</g>
		</g>
		<g>
			<path d="M91.87,31.386c0.36,0.19,0.77,0.29,1.17,0.29c0.93,0,1.78-0.51,2.21-1.33c0.64-1.22,0.18-2.74-1.04-3.38
				c-0.36-0.19-0.77-0.29-1.17-0.29c-0.93,0-1.78,0.51-2.21,1.33C90.155,29.291,90.712,30.777,91.87,31.386z"/>
			<path d="M164.979,145.556c-1.17,0.73-1.529,2.27-0.8,3.44c0.736,1.185,2.287,1.527,3.45,0.8c1.188-0.743,1.515-2.278,0.8-3.44
				C167.693,145.171,166.143,144.829,164.979,145.556z"/>
			<path d="M24.103,203.811c5.81,1.921,6.471,4.766,7.47,9.073c0.597,2.569,4.258,2.569,4.854,0c1.659-7.153,3.971-7.916,7.47-9.073
				c2.271-0.75,2.276-3.98,0-4.732c-3.271-1.072-5.779-1.789-7.471-9.073c-0.595-2.564-4.26-2.557-4.853,0
				c-1.661,7.154-3.972,7.917-7.47,9.073C21.832,199.83,21.827,203.059,24.103,203.811z M34.008,197.719
				c0.989,1.715,2.098,2.892,3.245,3.746c-1.191,0.869-2.268,2.011-3.21,3.615c-0.797-1.285-1.876-2.501-3.401-3.581
				C31.897,200.606,33.027,199.418,34.008,197.719z"/>
			<path d="M183.307,99.811c5.81,1.921,6.471,4.766,7.47,9.073c0.597,2.569,4.258,2.569,4.854,0c1.659-7.153,3.971-7.916,7.47-9.073
				c2.271-0.75,2.276-3.98,0-4.732c-3.271-1.072-5.779-1.789-7.471-9.073c-0.595-2.564-4.26-2.557-4.853,0
				c-1.661,7.154-3.972,7.917-7.47,9.073C181.036,95.83,181.031,99.059,183.307,99.811z M193.213,93.719
				c0.989,1.715,2.098,2.892,3.245,3.746c-1.191,0.869-2.268,2.011-3.21,3.615c-0.797-1.285-1.876-2.501-3.401-3.581
				C191.101,96.606,192.231,95.418,193.213,93.719z"/>
			<path d="M212.103,129.086c5.81,1.921,6.471,4.766,7.47,9.073c0.597,2.569,4.258,2.569,4.854,0
				c1.659-7.153,3.971-7.917,7.47-9.073c2.271-0.75,2.276-3.98,0-4.732c-3.271-1.072-5.779-1.789-7.471-9.073
				c-0.595-2.564-4.26-2.557-4.853,0c-1.661,7.154-3.972,7.917-7.47,9.073C209.832,125.105,209.827,128.334,212.103,129.086z
				 M222.008,122.995c0.989,1.715,2.098,2.892,3.245,3.746c-1.191,0.869-2.268,2.011-3.21,3.615
				c-0.797-1.285-1.876-2.501-3.401-3.581C219.897,125.881,221.027,124.694,222.008,122.995z"/>
			<path d="M248,233.586c-1.38,0-2.5,1.12-2.5,2.5v9.5h-29.29v-9.5c0-1.38-1.12-2.5-2.5-2.5c-1.37,0-2.49,1.12-2.49,2.5v9.5h-31.581
				c13.008-11.265,21.894-25.271,24.121-42.48c0.37-2.88,0.56-5.84,0.56-8.78c-0.007-6.152-0.816-12.502-2.419-19.07h10.919v4.16
				c0,2.48,2.021,4.5,4.5,4.5h9c2.48,0,4.5-2.02,4.5-4.5v-13.33c0-2.48-2.02-4.5-4.5-4.5h-9c-2.479,0-4.5,2.02-4.5,4.5v4.17h-12.282
				c-5.904-19.641-18.766-41.225-38.877-65.34c-1.99-2.37-3.08-5.39-3.08-8.49v-20.05c25.279-26.725,6.098-70.79-30.58-70.79
				c-11.901,0-23.094,4.976-31.08,13.74c-0.93,1.02-0.85,2.61,0.17,3.53c0.98,0.9,2.64,0.82,3.53-0.16
				c7.01-7.7,16.99-12.11,27.38-12.11c29.981,0,47.162,33.656,30.58,57.864V58.396c0.01-3.02-1.24-5.91-3.42-7.92
				c-4.195-3.891-10.845-4.156-15.181,0.22l-4.39,4.37c-2.898,2.888-4.515,6.705-4.594,10.775c-1.976-0.319-4.011-0.319-5.992,0
				c-0.079-4.07-1.696-7.887-4.594-10.775l-4.39-4.38c-4.347-4.366-11-4.096-15.19-0.21c-2.17,2.02-3.42,4.9-3.41,7.92v10.046
				c-6.08-8.872-7.737-19.608-5.45-29.356c0.32-1.34-0.52-2.69-1.86-3.01c-1.33-0.31-2.69,0.54-3.01,1.86
				c-3.135,13.53,0.413,27.967,10.32,38.44v20.05c0,3.1-1.09,6.12-3.08,8.48c-39.062,46.824-63.849,100.936-17.975,140.68H44.78
				v-9.5c0-1.38-1.12-2.5-2.49-2.5c-1.38,0-2.5,1.12-2.5,2.5v9.5H10.5v-9.5c0-1.38-1.12-2.5-2.5-2.5c-1.38,0-2.5,1.12-2.5,2.5v12
				c0,1.38,1.12,2.5,2.5,2.5h240c1.38,0,2.5-1.12,2.5-2.5v-12C250.5,234.706,249.38,233.586,248,233.586z M217.819,166.586h8v12.33
				h-8V166.586z M128,70.586c7.49,0,13.5,6.107,13.5,13.5c0,5.29-3.11,10.12-7.94,12.3c-8.905,4.034-19.06-2.51-19.06-12.3
				C114.5,76.845,120.354,70.586,128,70.586z M85.96,245.086c-0.01,0-0.01,0-0.01,0.01c-0.58,0.6-1.472,0.643-2.08,0.17
				c-48.599-37.308-24.797-90.336,14.31-137.15c2.73-3.27,4.24-7.42,4.24-11.69c0-14.049,0-23.358,0-38.03
				c0.01-1.69,0.62-3.13,1.82-4.26c2.262-2.12,5.818-2.31,8.24,0.09l4.4,4.38c2.642,2.655,3.207,5.443,3.1,8.81
				c-13.447,6.467-14.031,25.407-1.12,32.75c-0.12,3.47-0.2,5.75-0.2,5.75c-0.1,2.92-1.43,5.73-3.65,7.69
				c-15.365,13.539-30.694,34.128-38.41,54.75c-10.745,28.773-6.312,53.79,9.45,74.75l0.01,0.02
				C86.519,243.724,86.444,244.546,85.96,245.086z M164.825,245.586H147.64v-9.5c0-1.38-1.12-2.5-2.5-2.5s-2.5,1.12-2.5,2.5v9.5
				h-29.28v-9.5c0-1.38-1.12-2.5-2.5-2.5s-2.5,1.12-2.5,2.5v9.5H91.166c0.486-1.994,0.036-3.973-1.126-5.5h-0.01
				c-14.451-19.294-17.963-40.914-10.495-64.83h96.929c7.44,23.876,4.011,45.484-10.513,64.85
				C164.817,241.598,164.333,243.578,164.825,245.586z M170.05,245.096c-0.508-0.546-0.566-1.391-0.12-1.97l0.021-0.02
				c20.496-27.256,19.203-58.071,3.54-87.91c-0.641-1.234-2.157-1.685-3.37-1.06c-1.205,0.622-1.712,2.139-1.061,3.38
				c2.193,4.177,4.114,8.442,5.713,12.74H81.23c0.017-0.047,0.032-0.093,0.049-0.14c8.25-22.15,24.55-41.78,37.04-52.76
				c3.24-2.87,5.18-6.98,5.34-11.26c0,0,0.135-3.997,0.135-4.003c2.84,0.662,5.605,0.653,8.41,0
				c0.084,2.435,0.134,3.962,0.134,3.983c0.16,4.3,2.1,8.4,5.33,11.27c7.25,6.39,14.72,14.73,21.03,23.49
				c0.769,1.064,2.301,1.417,3.489,0.56c1.12-0.8,1.37-2.37,0.57-3.49c-6.52-9.05-14.26-17.68-21.78-24.31
				c-2.21-1.95-3.54-4.76-3.64-7.69c0-0.087-0.193-5.661-0.195-5.748c5.731-3.265,9.356-9.389,9.356-16.072
				c0-7.324-4.246-13.682-10.473-16.664c-0.036-1-0.542-5.154,3.103-8.816l4.39-4.38c2.413-2.39,5.955-2.219,8.23-0.09
				c1.21,1.13,1.819,2.57,1.83,4.26v38.03c0,4.27,1.51,8.43,4.239,11.7c19.77,23.668,41.538,55.398,41.5,86.2
				c0,2.72-0.18,5.46-0.52,8.14c-2.15,16.47-11.12,30.87-26.67,42.8C171.51,245.736,170.58,245.656,170.05,245.096z"/>
		</g>
	</g>
</g>
</svg>
