<?xml version="1.0" encoding="utf-8"?>
<!-- Generator: Adobe Illustrator 21.0.0, SVG Export Plug-In . SVG Version: 6.00 Build 0)  -->
<svg version="1.1" xmlns="http://www.w3.org/2000/svg" xmlns:xlink="http://www.w3.org/1999/xlink" x="0px" y="0px"
	 viewBox="0 0 64 64" style="enable-background:new 0 0 64 64;" xml:space="preserve">
<style type="text/css">
	.st0{fill:#68C7C2;}
	.st1{fill:#1CACAB;}
	.st2{fill:#0B3442;}
	.st3{fill:#002539;}
	.st4{fill:#D22227;}
	.st5{fill:#DD2B26;}
	.st6{fill:#F2F2F2;}
	.st7{fill:#A31C37;}
	.st8{fill:#CCCCCC;}
	.st9{fill:#F99D28;}
	.st10{fill:#FCB216;}
	.st11{fill:#FED767;}
	.st12{fill:#F47D36;}
	.st13{fill:#F78F1E;}
	.st14{fill:#FFCA3E;}
	.st15{fill:#2E599C;}
	.st16{fill:#283996;}
	.st17{fill:#4279BD;}
	.st18{fill:#538AC8;}
	.st19{fill:#CCDDE7;}
	.st20{fill:#ABBAC3;}
	.st21{fill:#F05138;}
	.st22{fill:#3B6BB4;}
	.st23{fill:#E54325;}
	.st24{fill:#FEBF3F;}
	.st25{fill:#E6E6E6;}
	.st26{fill:#FFE8C9;}
	.st27{fill:#999999;}
	.st28{fill:#B3B3B3;}
	.st29{fill:none;stroke:#000000;stroke-linecap:round;stroke-linejoin:round;stroke-miterlimit:10;}
	.st30{fill:#BD8150;}
	.st31{fill:#DFA57A;}
	.st32{fill:#FDCC99;}
	.st33{fill:#FED9B4;}
	.st34{fill:#EE2761;}
	.st35{fill:#EF4E79;}
	.st36{fill:#DB1B51;}
	.st37{fill:#FBB684;}
	.st38{fill:#354E5A;}
	.st39{fill:#55C9E9;}
	.st40{fill:#02BFE2;}
	.st41{fill:#0980B7;}
	.st42{fill:#A36841;}
	.st43{fill:#7EC3EC;}
	.st44{fill:#65A8DC;}
	.st45{fill:#57646E;}
	.st46{fill:#7A8D9D;}
	.st47{fill:#FEE7A3;}
	.st48{fill:#CC2B57;}
	.st49{fill:#F16F8D;}
	.st50{fill:#00969D;}
	.st51{fill:#00A8C7;}
	.st52{fill:#00B08E;}
	.st53{fill:#56BF98;}
	.st54{fill:#8AD5EC;}
</style>
<g id="guides">
</g>
<g id="_x32_5._location_pin">
</g>
<g id="_x32_4._first_aid_kit">
</g>
<g id="_x32_3._medicine">
</g>
<g id="_x32_2._pills">
</g>
<g id="_x32_1._flask">
</g>
<g id="_x32_0._syringe">
</g>
<g id="_x31_9._brain">
	<path class="st30" d="M50,41v1h-0.0300293c-0.25,3.8999634-3.5,7-7.4699707,7H37l-0.710022-1L32,42v-1H50z"/>
	<path class="st31" d="M48.9699707,41c-0.25,3.8999634-3.5,7-7.4699707,7h-5.210022L32,42v-1H48.9699707z"/>
	<path class="st32" d="M43.2070313,45.5l0.6464844-0.6464844c0.1953125-0.1953125,0.1953125-0.5117188,0-0.7070313
		s-0.5117188-0.1953125-0.7070313,0L42.2929688,45H35.5c-0.2763672,0-0.5,0.2236328-0.5,0.5s0.2236328,0.5,0.5,0.5h6.7929688
		l0.8535156,0.8535156C43.2441406,46.9511719,43.3720703,47,43.5,47s0.2558594-0.0488281,0.3535156-0.1464844
		c0.1953125-0.1953125,0.1953125-0.5117188,0-0.7070313L43.2070313,45.5z"/>
	<path class="st32" d="M42.3900146,57.4099731c-0.0300293,0.0599976-0.0599976,0.1099854-0.0900269,0.1600342
		c0,0.0099487,0,0.0099487-0.0100098,0C41.7700195,58.4599609,40.8200073,59,39.7700195,59
		c-0.960022,0-1.8600464-0.4700317-2.4100342-1.25L34.710022,54l-0.7000122-1l-1.4199829-2l-0.7000122-1l-1.4100342-2l-0.7099609-1
		l-3.6799927-5.210022c-0.1100464-0.1499634-0.1200562-0.3499756-0.0300293-0.5200195C26.1400146,41.0999756,26.3099976,41,26.5,41
		h6c0.1599731,0,0.3099976,0.0799561,0.4099731,0.2099609l9.2700195,13.1400146
		C42.8200073,55.25,42.9000244,56.4199829,42.3900146,57.4099731z"/>
	<path class="st33" d="M42.3900146,57.4099731c-0.0300293,0.0599976-0.0599976,0.1099854-0.0900269,0.1600342
		c0,0.0099487,0,0.0099487-0.0100098,0C41.8400269,57.8499756,41.3200073,58,40.7700195,58
		c-0.960022,0-1.8600464-0.4700317-2.4100342-1.25L35.710022,53l-0.7000122-1l-1.4199829-2l-0.7000122-1l-1.4100342-2l-0.7099609-1
		l-3.5300293-5H32.5c0.1599731,0,0.3099976,0.0799561,0.4099731,0.2099609l9.2700195,13.1400146
		C42.8200073,55.25,42.9000244,56.4199829,42.3900146,57.4099731z"/>
	<g>
		<path class="st30" d="M36,50.5c0,0.2799683-0.2199707,0.5-0.5,0.5h-2.9099731l-0.7000122-1H35.5
			C35.7800293,50,36,50.2199707,36,50.5z"/>
	</g>
	<path class="st31" d="M35.5,50h-1.9099731l0.710022,1H35.5c0.2800293,0,0.5-0.2200317,0.5-0.5C36,50.2199707,35.7800293,50,35.5,50
		z"/>
	<g>
		<path class="st30" d="M34,47.5c0,0.2799683-0.2199707,0.5-0.5,0.5h-3.0200195l-0.7099609-1H33.5
			C33.7800293,47,34,47.2199707,34,47.5z"/>
	</g>
	<path class="st31" d="M33.5,47h-2.0200195l0.7050171,1H33.5c0.2800293,0,0.5-0.2200317,0.5-0.5
		C34,47.2199707,33.7800293,47,33.5,47z"/>
	<g>
		<path class="st30" d="M38,53.5c0,0.2799683-0.2199707,0.5-0.5,0.5h-2.789978l-0.7000122-1H37.5
			C37.7800293,53,38,53.2199707,38,53.5z"/>
	</g>
	<path class="st31" d="M37.5,53h-1.789978l0.706665,1H37.5c0.2800293,0,0.5-0.2200317,0.5-0.5C38,53.2199707,37.7800293,53,37.5,53z
		"/>
	<path class="st34" d="M57,35.5c0,3.5799561-2.9199829,6.5-6.5,6.5H17.0599976c-1.6400146,0-3.0999756-0.7900391-4.0200195-2
		C12.3900146,39.1499634,12,38.0899658,12,36.9400024c0-1.6700439,0.8200073-3.2399902,2.210022-4.1799927l1.5599976-1.0400391
		l-1.0800171-0.4799805l-1.9099731-0.8499756C9.2700195,28.8299561,7,25.3399658,7,21.5
		C7,13,13.460022,5.9799805,21.7299805,5.0999756c0.3699951-0.0499878,0.7399902-0.0700073,1.1100464-0.0800171
		C23.1995201,4.9873409,26.1375504,5,26.5,5c2.7999878,0,4.6376915,0.8488626,7.2176476,1.5588236
		c0.2000122,0.0500488,1.2704735-0.3203835,1.4604759-0.260386c8.3050003,2.553885,14.6819878,8.0582905,18.3618546,15.1015263
		C53.7000122,21.7000122,53.8499756,21.9899902,54,22.2999878c1.6400146,3.4000244,2.6599731,7.1500244,2.9299927,11.1199951
		c0.0300293,0.4899902,0.0499878,0.9799805,0.0599976,1.4700317C57,35.0899658,57,35.2999878,57,35.5z"/>
	<path class="st35" d="M52,33.5c0,3.5799561-2.9199829,6.5-6.5,6.5H13.039978C12.3900146,39.1499634,12,38.0899658,12,36.9400024
		c0-1.6700439,0.8200073-3.2399902,2.210022-4.1799927l1.5599976-1.0400391l-1.0800171-0.4799805l-1.9099731-0.8499756
		C9.2700195,28.8299561,7,25.3399658,7,21.5C7,13,13.460022,5.9799805,21.7299805,5.0999756
		c0.3699951-0.0499878,0.7399902-0.0700073,1.1100464-0.0800171C23.1995201,4.9873409,26.1375504,5,26.5,5
		c2.5,0,5.3588486,1.6982694,7.9588242,1.7882352C34.6648788,6.7953653,35,7.2000122,35.1900024,7.2600098
		C45.4895821,12.4368286,52,21.9448547,52,33.5z"/>
	<path class="st36" d="M41,17.5c0-0.2763672-0.2236328-0.5-0.5-0.5S40,17.2236328,40,17.5
		c0,14.4378052-17.0776367,18.0501709-19.3296509,18.4633179l-1.8168335-1.8168335
		c-0.1953125-0.1953125-0.5117188-0.1953125-0.7070313,0s-0.1953125,0.5117188,0,0.7070313L19.7929688,36.5l-1.6464844,1.6464844
		c-0.1953125,0.1953125-0.1953125,0.5117188,0,0.7070313c0.1953182,0.1953163,0.511713,0.1953163,0.7070313,0l1.8879395-1.8879395
		C22.6264648,36.6339111,41,32.9887085,41,17.5z"/>
	<g>
		<path class="st36" d="M18.0527344,26.7236328C15.2460938,21.1103516,11.6484375,21.0019531,11.4970703,21
			C11.2216797,20.9970703,11,20.7714844,11.0019531,20.4970703C11.0029297,20.2216797,11.2246094,20,11.5,20
			c0.1757813,0,4.3447266,0.0712891,7.4472656,6.2763672c0.1230469,0.2470703,0.0234375,0.546875-0.2236328,0.6708984
			C18.4775028,27.0703316,18.1768551,26.9704971,18.0527344,26.7236328z"/>
	</g>
	<path class="st36" d="M44.0499878,31.4799805l0.9000244,1.7999878c0.1199951,0.2399902,0.0199585,0.5400391-0.2300415,0.6700439
		c-0.2886925,0.1236916-0.5555038-0.0011635-0.6699829-0.2300415l-0.6900024-1.3800049l-1.5100098,1.5100098
		c-0.1799355,0.2000809-0.5200157,0.2000809-0.6999512,0c-0.2000122-0.1900024-0.2000122-0.5100098,0-0.7000122l1.9299927-1.9299927
		c1.7799683-5.0899658,8.2000122-8.7000122,10.4599609-9.8200073C53.7000122,21.7000122,53.8499756,21.9899902,54,22.2999878
		C51.9299927,23.3499756,45.7299805,26.8200073,44.0499878,31.4799805z"/>
	<g>
		<path d="M56.9788208,34.616394c0.0218506-0.0895386,0.0206909-0.1793823-0.0064087-0.2651978
			c-0.2797241-7.5638428-3.3087769-14.6724243-8.6130371-20.1217041c-0.1914063-0.1972656-0.5107422-0.2011719-0.7070313-0.0097656
			c-0.1982422,0.1923828-0.2021484,0.5087891-0.0097656,0.7070313c2.1257324,2.1838989,3.868103,4.6461182,5.2068481,7.2979126
			c-1.7761841,0.7540894-7.928833,3.7045898-9.7739868,8.9928589l-1.9289551,1.9289551
			c-0.1953125,0.1953125-0.1953125,0.5117188,0,0.7070313C41.2441406,33.9511719,41.3720703,34,41.5,34
			s0.2558594-0.0488281,0.3535156-0.1464844l1.5094604-1.5094604l0.6897583,1.3795776C44.140625,33.8984375,44.3173828,34,44.5,34
			c0.0751953,0,0.1513672-0.0166016,0.2236328-0.0527344c0.2470703-0.1240234,0.3466797-0.4238281,0.2236328-0.6708984
			l-0.899353-1.798645c1.7424316-4.8537598,7.6779175-7.6812134,9.2443848-8.3521118
			c1.6199341,3.5031128,2.5344849,7.3168335,2.6809082,11.2581787c-0.5454102,0.7539063-3.6602173,4.4841919-11.4175415,3.6191406
			c-0.2851563-0.0302734-0.5224609,0.1669922-0.5527344,0.4414063c-0.0302734,0.2753906,0.1669922,0.5224609,0.4414063,0.5527344
			c0.8476563,0.09375,1.6416016,0.1367188,2.3886719,0.1367188c5.0228882,0,7.8286743-1.9373779,9.1468506-3.2363281
			C55.7747192,38.7442627,53.3980713,41,50.5,41c-3.9367867,0-23.4212856,0-27,0c-0.2763672,0-0.5,0.2236328-0.5,0.5
			s0.2236328,0.5,0.5,0.5h2.741394l11.117981,15.7509766C37.9111328,58.5332031,38.8124924,59,39.7695313,59
			c1.1064453,0,2.1113281-0.6103516,2.6201172-1.59375c0.5097656-0.9824219,0.4296875-2.1542969-0.2089844-3.0585938L41.40625,53.25
			c-0.1582031-0.2275391-0.4707031-0.2802734-0.6962891-0.1201172c-0.2255859,0.1591797-0.2792969,0.4707031-0.1201172,0.6962891
			l0.7744141,1.0976563c0.4277344,0.6064453,0.4794922,1.3632813,0.1376953,2.0224609
			C41.1601563,57.6064453,40.5126953,58,39.7695313,58c-0.6328125,0-1.2285156-0.3085938-1.59375-0.8251953L35.9348755,54H37.5
			c0.2763672,0,0.5-0.2236328,0.5-0.5S37.7763672,53,37.5,53h-2.2709351l-1.4116821-2H35.5c0.2763672,0,0.5-0.2236328,0.5-0.5
			S35.7763672,50,35.5,50h-2.3884888l-1.4116211-2H33.5c0.2763672,0,0.5-0.2236328,0.5-0.5S33.7763672,47,33.5,47h-2.5059814
			l-3.5291748-5h4.7763672l6.3505859,8.9960938c0.1582031,0.2275391,0.4736328,0.2802734,0.6962891,0.1201172
			c0.2255859-0.1591797,0.2792969-0.4707031,0.1201172-0.6962891L38.4058838,49H42.5c3.96698,0,7.2155151-3.0975952,7.4746704-7
			H50.5c3.5839844,0,6.5-2.9160156,6.5-6.5C57,35.2044067,56.9871826,34.9107666,56.9788208,34.616394z M42.5,48h-4.8000488
			l-1.4118042-2h6.0048218l0.8535156,0.8535156C43.2441406,46.9511719,43.3720703,47,43.5,47
			s0.2558594-0.0488281,0.3535156-0.1464844c0.1953125-0.1953125,0.1953125-0.5117188,0-0.7070313L43.2070313,45.5
			l0.6464844-0.6464844c0.1953125-0.1953125,0.1953125-0.5117188,0-0.7070313s-0.5117188-0.1953125-0.7070313,0L42.2929688,45
			h-6.7107544l-2.1176758-3h15.5101318C48.7177124,45.3505249,45.9152222,48,42.5,48z"/>
		<path d="M19.5,41h-2.4404297C14.8212891,41,13,39.1787109,13,36.9404297c0-1.3603516,0.6757813-2.6230469,1.8076172-3.3779297
			l9.9697266-6.6464844c0.2294922-0.1533203,0.2919922-0.4638672,0.1386719-0.6933594
			c-0.1542969-0.2314453-0.4667969-0.2910156-0.6933594-0.1386719l-7.4803467,4.9868774
			c-0.0142212-0.0081177-0.0239258-0.0211182-0.0391846-0.0278931l-3.5175781-1.5634766C10.0351563,28.0800781,8,24.9472656,8,21.5
			c0-7.930603,5.9896851-14.479126,13.6812134-15.383667c-0.7486572,1.8312378-2.2271118,6.3391724-0.7081909,10.3826294
			l-0.9476318,2.8428345c-0.0869141,0.2617188,0.0546875,0.5449219,0.3164063,0.6328125
			C20.3945313,19.9921875,20.4472656,20,20.5,20c0.2089844,0,0.4042969-0.1328125,0.4746094-0.3417969l0.7929688-2.3789063
			l2.4550781,1.6367188C24.3076172,18.9726563,24.4042969,19,24.5,19c0.1611328,0,0.3193359-0.078125,0.4160156-0.2226563
			c0.1533203-0.2294922,0.0908203-0.5400391-0.1386719-0.6933594l-2.859314-1.906189
			c-1.5467529-4.0770264,0.336853-8.8944702,0.8864746-10.1425781c4.1585732-0.1857972,7.4964046,0.0016537,10.9508057,0.8737793
			c-0.5919189,1.303894-1.9255981,4.4963379-2.7130737,8.3417358l-1.895752,1.895752
			c-0.1953125,0.1953125-0.1953125,0.5117188,0,0.7070313C29.2441406,17.9511719,29.3720703,18,29.5,18
			s0.2558594-0.0488281,0.3535156-0.1464844l1.5094604-1.5094604l0.6897583,1.3795776C32.140625,17.8984375,32.3173828,18,32.5,18
			c0.0751953,0,0.1513672-0.0166016,0.2236328-0.0527344c0.2470703-0.1240234,0.3466797-0.4238281,0.2236328-0.6708984
			l-0.9216919-1.8433838c0.789917-3.8432617,2.1759033-7.0924072,2.7061157-8.2514648
			c3.1952515,0.9260254,6.2276611,2.3764038,8.9802246,4.3575439c0.2216797,0.1601563,0.5361328,0.109375,0.6982422-0.1142578
			c0.1611328-0.2236328,0.1103516-0.5361328-0.1142578-0.6982422c-3.0552177-2.198431-6.5249519-3.7979565-9.9641724-4.694458
			c-5.1378002-1.3595433-11.0541267-1.0852733-12.0541382-0.9702148C13.7504883,5.6917725,7,12.8149414,7,21.5
			c0,3.8427734,2.2685547,7.3330078,5.7792969,8.8935547l2.9873047,1.3278198l-1.5136719,1.0090942
			C12.8417969,33.6708984,12,35.2451172,12,36.9404297C12,39.7304688,14.2695313,42,17.0595703,42H19.5
			c0.2763672,0,0.5-0.2236328,0.5-0.5S19.7763672,41,19.5,41z"/>
		<path d="M18.1464844,38.8535156C18.2441406,38.9511719,18.3720703,39,18.5,39s0.2558594-0.0488281,0.3535156-0.1464844
			l1.8879395-1.8879395C22.6264648,36.6339111,41,32.9887085,41,17.5c0-0.2763672-0.2236328-0.5-0.5-0.5S40,17.2236328,40,17.5
			c0,14.4378052-17.0776367,18.0501709-19.3296509,18.4633179l-1.8168335-1.8168335
			c-0.1953125-0.1953125-0.5117188-0.1953125-0.7070313,0s-0.1953125,0.5117188,0,0.7070313L19.7929688,36.5l-1.6464844,1.6464844
			C17.9511719,38.3417969,17.9511719,38.6582031,18.1464844,38.8535156z"/>
		<path d="M11.5,20c-0.2753906,0-0.4970703,0.2216797-0.4980469,0.4970703C11,20.7714844,11.2216797,20.9970703,11.4970703,21
			c0.1513672,0.0019531,3.7490234,0.1103516,6.5556641,5.7236328C18.140625,26.8984375,18.3173828,27,18.5,27
			c0.0751953,0,0.1513672-0.0166016,0.2236328-0.0527344c0.2470703-0.1240234,0.3466797-0.4238281,0.2236328-0.6708984
			C15.8447266,20.0712891,11.6757813,20,11.5,20z"/>
	</g>
</g>
<g id="_x31_8._bandage">
</g>
<g id="_x31_7._bed">
</g>
<g id="_x31_6._blood_test">
</g>
<g id="_x31_5._rx">
</g>
<g id="_x31_4._injury">
</g>
<g id="_x31_3._call">
</g>
<g id="_x31_2._heart">
</g>
<g id="_x31_1._stethoscope">
</g>
<g id="_x31_0._hospital">
</g>
<g id="_x39_._blood_donation">
</g>
<g id="_x38_._charity">
</g>
<g id="_x37_._test_tube">
</g>
<g id="_x36_._expenses">
</g>
<g id="_x35_._folder">
</g>
<g id="_x34_._insurance">
</g>
<g id="_x33_._dna">
</g>
<g id="_x32_._health_report">
</g>
<g id="_x31_._ambulance">
</g>
</svg>
