<svg id="artwork" xmlns="http://www.w3.org/2000/svg" width="64" height="64" viewBox="0 0 64 64"><title>target</title><path d="M32,.5A31.383,31.383,0,0,0,10.822,8.7L9.5,7.379V2a1.5,1.5,0,0,0-3,0V4.379L3.061.94A1.5,1.5,0,0,0,.939,3.061L4.379,6.5H2a1.5,1.5,0,0,0,0,3H7.379L8.7,10.823A31.486,31.486,0,1,0,32,.5Zm0,60A28.483,28.483,0,0,1,10.826,12.947l3.188,3.188a24.041,24.041,0,1,0,2.121-2.121l-3.188-3.188A28.493,28.493,0,1,1,32,60.5ZM30.939,33.061a1.5,1.5,0,0,0,2.122-2.122L18.269,16.148a21.068,21.068,0,1,1-2.121,2.121Z"/><path d="M32,15.5a16.382,16.382,0,0,0-8.035,2.1l5.713,5.713a9.045,9.045,0,1,1-6.363,6.363L17.6,23.965A16.492,16.492,0,1,0,32,15.5Z" style="fill:#3e3ef4"/></svg>