<?xml version="1.0" encoding="utf-8"?>
<!-- Generator: Adobe Illustrator 24.0.0, SVG Export Plug-In . SVG Version: 6.00 Build 0)  -->
<svg version="1.1" xmlns="http://www.w3.org/2000/svg" xmlns:xlink="http://www.w3.org/1999/xlink" x="0px" y="0px"
	 viewBox="0 0 256 256" enable-background="new 0 0 256 256" xml:space="preserve">
<g id="Layer_2" display="none">
	<rect x="-92" y="-2808" display="inline" fill="#FFFFFF" width="1786" height="5896"/>
</g>
<g id="Layer_1">
	<g>
		<path fill="#AFAFAF" d="M243.375,151.847h-13.133c-2.624,15.758-8.824,30.306-17.723,42.791l9.278,9.277
			c-6.88,9.31-15.131,17.561-24.441,24.441l-9.278-9.277c-12.485,8.9-27.033,15.099-42.791,17.723v13.133
			c-11.184,1.671-22.995,1.728-34.561,0v-13.133c-15.758-2.624-30.306-8.824-42.791-17.723l-9.278,9.277
			c-9.31-6.88-17.561-15.131-24.441-24.441l9.278-9.277c-8.9-12.485-15.099-27.034-17.723-42.791H12.635
			c-1.668-11.162-1.732-22.971,0-34.561h13.133c2.624-15.758,8.824-30.306,17.723-42.791l-9.278-9.277
			c6.88-9.31,15.131-17.561,24.441-24.441l8.867,8.867v36.052c-2.884,3.553-5.4,7.301-7.56,11.2
			c-15.153,27.314-12.572,61.681,7.56,86.544c14.321,17.734,36.203,28.891,60.482,28.891c24.193,0,46.064-11.081,60.482-28.891
			c19.981-24.701,22.821-59.046,7.56-86.544c-2.16-3.888-4.677-7.647-7.56-11.211V49.643l8.867-8.867
			c9.31,6.88,17.561,15.131,24.441,24.441l-9.278,9.277c8.9,12.485,15.099,27.033,17.723,42.791h13.133
			C245.043,128.448,245.107,140.257,243.375,151.847z"/>
		<path fill="#7D7B79" d="M59.963,42.083l7.56,7.56v36.052c-2.884,3.553-5.4,7.301-7.56,11.2V42.083z"/>
		<path fill="#7D7B79" d="M196.048,42.083v54.812c-2.16-3.888-4.677-7.647-7.56-11.211V49.643L196.048,42.083z"/>
		<path fill="#EFEFEF" d="M128.005,227.79c-11.95,0-23.61-2.24-34.658-6.657c-1.282-0.513-1.906-1.967-1.393-3.25
			c0.512-1.281,1.966-1.905,3.25-1.393c10.454,4.18,21.49,6.299,32.801,6.299c67.547,0,110.135-73.132,76.717-131.835
			c-0.683-1.2-0.264-2.727,0.936-3.41c1.199-0.685,2.726-0.264,3.41,0.936C244.488,150.704,199.179,227.79,128.005,227.79z
			 M84.038,216.798c-8.05-4.308-15.436-9.796-21.952-16.313c-0.976-0.976-0.976-2.559,0-3.536c0.976-0.976,2.559-0.976,3.536,0
			c6.168,6.169,13.158,11.363,20.775,15.439c1.217,0.651,1.676,2.166,1.024,3.384C86.771,216.991,85.254,217.45,84.038,216.798z"/>
		<path fill="#72C2E9" d="M188.49,15.766v167.67c-14.44,17.83-36.31,28.89-60.48,28.89c-24.05,0-46.01-10.97-60.49-28.89V15.766
			c0-5.97,4.84-10.8,10.8-10.8h99.37C183.65,4.966,188.49,9.796,188.49,15.766z"/>
		<path fill="#4AA4C7" d="M188.49,161.606v21.83c-14.44,17.83-36.31,28.89-60.48,28.89c-24.05,0-46.01-10.97-60.49-28.89v-21.83
			c10.35,23.11,33.54,39.2,60.49,39.2C154.95,200.806,178.14,184.716,188.49,161.606z"/>
		<path fill="#EFEFEF" d="M175.527,21.162v153.636c0,1.789-1.451,3.24-3.24,3.24H83.724c-1.789,0-3.24-1.451-3.24-3.24V21.162
			c0-1.789,1.451-3.24,3.24-3.24h16.482c1.071,0,2.073,0.529,2.676,1.414c5.994,8.784,6.142,9.743,8.359,9.743h33.528
			c0.941,0,2.146-0.636,2.676-1.414l5.683-8.329c0.604-0.885,1.605-1.414,2.676-1.414h16.482
			C174.077,17.922,175.527,19.373,175.527,21.162z"/>
		<path fill="#AFAFAF" d="M144.408,139.189v14.042c0,2.353-1.92,4.272-4.279,4.272h-24.245c-2.36,0-4.279-1.92-4.279-4.272v-14.042
			H144.408z"/>
		<path fill="#F0C020" d="M162.025,103.251c-1.449,10.587-7.391,17.429-12.219,21.472c-5.959,4.99-5.4,11.13-5.4,14.47h-32.799
			c0-3.032,0.627-9.43-5.477-14.546c-4.836-4.058-10.747-10.892-12.159-21.396c-2.862-20.987,13.25-38.726,33.028-39.298
			C147.987,63.321,165.052,81.753,162.025,103.251z"/>
		<path fill="#F9E5AF" d="M151.032,111.956c-1.253-0.581-1.798-2.067-1.218-3.319c0.945-2.039,1.577-4.242,1.878-6.55
			c0.18-1.369,1.434-2.333,2.803-2.155c1.369,0.179,2.334,1.434,2.155,2.803c-0.368,2.812-1.142,5.504-2.299,8.003
			C153.772,111.989,152.287,112.536,151.032,111.956z M151.232,93.072c-2.673-10.998-12.595-18.629-23.96-18.26
			c-1.376,0.008-2.533-1.043-2.575-2.423c-0.042-1.38,1.043-2.533,2.423-2.575c13.723-0.402,25.74,8.782,28.971,22.077
			c0.326,1.342-0.497,2.694-1.839,3.02C152.918,95.236,151.56,94.421,151.232,93.072z"/>
		<g>
			<circle cx="188.485" cy="25.776" r="2.5"/>
			<path d="M115.883,160.004h24.245c3.738,0,6.78-3.038,6.78-6.772c0-0.497,0.001-13.571-0.002-14.066
				c0-3.063-0.587-8.262,4.505-12.526c7.445-6.234,11.85-13.988,13.09-23.045c3.218-22.882-14.883-42.799-37.575-42.14
				c-21.087,0.609-38.52,19.489-35.433,42.129c1.21,9.007,5.594,16.738,13.03,22.979c5.12,4.292,4.583,9.557,4.583,12.603
				c-0.004,0.495-0.002,13.569-0.002,14.066C109.104,156.966,112.145,160.004,115.883,160.004z M141.908,145.847h-9.58
				c-1.381,0-2.5,1.119-2.5,2.5s1.119,2.5,2.5,2.5h9.58v2.385c0,0.978-0.798,1.772-1.78,1.772h-24.245
				c-0.981,0-1.779-0.795-1.779-1.772v-11.539h27.804V145.847z M107.737,122.731c-6.451-5.414-10.249-12.08-11.289-19.819
				c-2.675-19.622,12.429-35.935,30.626-36.46c19.553-0.608,35.266,16.63,32.476,36.45c0,0.003-0.001,0.006-0.001,0.01
				c-1.066,7.789-4.884,14.482-11.347,19.894c-3.94,3.299-6.295,7.928-6.295,13.884h-27.799
				C114.106,130.818,111.721,126.071,107.737,122.731z"/>
			<path d="M128.006,124.256c13.72,0,20.426-16.619,10.85-26.194c-0.977-0.976-2.559-0.976-3.536,0
				c-0.976,0.976-0.976,2.559,0,3.536c6.442,6.44,1.956,17.658-7.314,17.658c-9.146,0-13.834-11.137-7.314-17.658
				c0.977-0.976,0.977-2.559,0-3.535c-0.976-0.977-2.56-0.977-3.535,0C107.495,107.724,114.429,124.256,128.006,124.256z"/>
			<path d="M128.006,110.009c1.381,0,2.5-1.119,2.5-2.5V88.694c0-1.381-1.119-2.5-2.5-2.5s-2.5,1.119-2.5,2.5v18.815
				C125.506,108.89,126.625,110.009,128.006,110.009z"/>
			<circle cx="121.015" cy="178.036" r="2.5"/>
			<path d="M178.025,174.796V21.166c0-3.17-2.57-5.74-5.74-5.74h-16.48c-1.9,0-3.67,0.93-4.74,2.5l-5.67,8.31
				c-0.196,0.196-0.537,0.34-0.64,0.34h-33.51c-0.25,0-0.48-0.12-0.61-0.32l-5.69-8.33c-1.07-1.57-2.84-2.5-4.74-2.5h-16.48
				c-3.16,0-5.74,2.57-5.74,5.74v153.63c0,3.16,2.58,5.74,5.74,5.74h27.29c1.38,0,2.5-1.12,2.5-2.5c0-1.37-1.11-2.49-2.49-2.5h-0.01
				h-27.29c-0.41,0-0.74-0.33-0.74-0.74V21.166c0-0.41,0.33-0.74,0.74-0.75h16.48c0.24,0,0.47,0.13,0.61,0.33
				c5.612,8.231,6.514,10.83,10.43,10.83h33.53c2.01-0.11,3.51-0.9,4.74-2.5l5.68-8.33c0.14-0.2,0.37-0.33,0.61-0.33h16.48
				c0.41,0.01,0.74,0.34,0.74,0.75v153.63c0,0.41-0.33,0.74-0.74,0.74h-41.27c-1.38,0-2.5,1.12-2.5,2.5s1.12,2.5,2.5,2.5h41.27
				C175.455,180.536,178.025,177.956,178.025,174.796z"/>
			<path d="M116.125,196.196h23.76c1.38,0,2.5-1.12,2.5-2.5s-1.12-2.5-2.5-2.5h-23.76c-1.38,0-2.5,1.12-2.5,2.5
				S114.745,196.196,116.125,196.196z"/>
			<path d="M123.115,20.416c1.37,0,2.5-1.12,2.5-2.5c0-1.37-1.13-2.49-2.5-2.49h-1.29c-1.37,0-2.5,1.12-2.5,2.49
				c0,1.38,1.13,2.5,2.5,2.5H123.115z"/>
			<path d="M134.185,20.416c1.38,0,2.5-1.12,2.5-2.5c0-1.37-1.12-2.49-2.5-2.49h-1.29c-1.37,0-2.5,1.12-2.5,2.49
				c0,1.38,1.13,2.5,2.5,2.5H134.185z"/>
			<path d="M33.705,177.806c1.265-0.53,1.856-2.001,1.31-3.28c-0.53-1.23-2.04-1.84-3.28-1.31c-1.312,0.571-1.854,2.052-1.31,3.28
				C30.975,177.792,32.479,178.36,33.705,177.806z"/>
			<path d="M245.845,116.916c-0.18-1.21-1.24-2.13-2.47-2.13h-11.04c-2.69-14.4-8.27-27.86-16.57-40.01l7.8-7.79
				c0.88-0.88,0.98-2.25,0.24-3.26c-7.04-9.52-15.44-17.92-24.96-24.96c-0.98-0.72-2.41-0.61-3.26,0.24l-4.6,4.6v-7.83
				c0-1.38-1.12-2.5-2.5-2.5c-1.38,0-2.5,1.12-2.5,2.5v146.761c-14.378,17.354-35.456,27.292-57.98,27.292
				c-22.558,0-43.635-9.938-57.98-27.291V15.766c0.01-4.57,3.73-8.3,8.3-8.3h99.36c4.57,0,8.29,3.73,8.3,8.3v0.01
				c0,1.38,1.12,2.5,2.5,2.5c1.38,0,2.5-1.12,2.5-2.5v-0.01c0-7.34-5.97-13.3-13.3-13.3h-99.36c-7.33,0-13.3,5.96-13.3,13.3v27.84
				l-4.6-4.6c-0.86-0.85-2.28-0.96-3.26-0.24c-9.571,7.093-17.955,15.474-24.96,24.96c-0.73,0.99-0.63,2.39,0.24,3.26l7.8,7.79
				c-8.3,12.15-13.88,25.61-16.57,40.01h-11.04c-1.23,0-2.29,0.92-2.47,2.13c-1.747,11.609-1.746,23.672,0,35.3
				c0.18,1.22,1.24,2.13,2.47,2.13h11.04c0.79,4.24,1.86,8.46,3.16,12.56c0.402,1.243,1.688,2.041,3.15,1.63
				c1.334-0.445,2.03-1.849,1.62-3.14c-1.46-4.56-2.59-9.26-3.37-13.96c-0.2-1.21-1.24-2.09-2.47-2.09h-10.95
				c-1.267-9.599-1.294-19.755,0-29.56h10.95c1.23,0,2.27-0.88,2.47-2.09c2.49-14.93,8.46-29.37,17.29-41.75
				c0.71-1,0.6-2.35-0.27-3.22l-7.74-7.74c6.09-7.904,13.151-14.952,20.91-20.91l6.6,6.6v34.16
				c-2.698,3.405-5.142,7.043-7.249,10.845c-29.855,53.814,9.538,119.148,70.229,119.148c24.331,0,47.084-10.868,62.426-29.819
				c20.673-25.557,23.735-60.621,7.802-89.331c-2.119-3.813-4.562-7.453-7.248-10.852V50.685l6.6-6.609
				c7.85,6.03,14.88,13.07,20.91,20.91l-7.74,7.74c-0.87,0.87-0.98,2.22-0.27,3.22c8.82,12.38,14.8,26.82,17.29,41.75
				c0.2,1.21,1.24,2.09,2.47,2.09h10.96c1.234,9.518,1.303,19.59-0.01,29.56h-10.95c-1.23,0-2.27,0.88-2.47,2.09
				c-2.49,14.93-8.47,29.37-17.29,41.75c-0.71,1-0.6,2.35,0.27,3.22l7.74,7.74c-6.03,7.84-13.06,14.87-20.91,20.91l-7.74-7.74
				c-0.84-0.85-2.25-0.97-3.22-0.27c-12.38,8.83-26.82,14.8-41.75,17.29c-1.21,0.2-2.09,1.24-2.09,2.47v10.95
				c-9.7,1.26-19.82,1.27-29.56,0v-10.95c0-1.23-0.88-2.27-2.09-2.47c-14.93-2.49-29.37-8.46-41.75-17.29
				c-0.97-0.7-2.38-0.58-3.22,0.27l-7.74,7.74c-7.85-6.04-14.88-13.07-20.91-20.91l7.74-7.74c0.87-0.87,0.98-2.22,0.27-3.22
				c-2.26-3.17-4.35-6.5-6.23-9.9c-0.64-1.17-2.22-1.63-3.39-0.99c-1.21,0.67-1.65,2.19-0.98,3.4c1.62,2.96,3.41,5.87,5.32,8.66
				l-7.8,7.79c-0.87,0.87-0.97,2.27-0.24,3.25c7.04,9.53,15.44,17.93,24.96,24.97c0.98,0.72,2.4,0.61,3.26-0.24l7.8-7.8
				c12.15,8.3,25.6,13.88,40,16.57v11.04c0,1.23,0.92,2.29,2.13,2.47c11.622,1.747,23.874,1.72,35.3,0
				c1.21-0.18,2.13-1.24,2.13-2.47v-11.04c14.4-2.69,27.86-8.27,40.01-16.57l7.79,7.8c0.85,0.85,2.28,0.96,3.26,0.24
				c9.52-7.04,17.92-15.44,24.96-24.97c0.73-0.98,0.63-2.38-0.24-3.25l-7.8-7.8c8.3-12.14,13.88-25.6,16.57-40h11.04
				c1.23,0,2.29-0.91,2.47-2.13C247.592,140.595,247.565,128.342,245.845,116.916z M65.025,175.773
				c-15.289-23.231-16.59-52.947-2.875-77.667c0.893-1.613,1.862-3.188,2.875-4.733V175.773z M193.862,98.108
				c13.709,24.701,12.408,54.415-2.876,77.66V93.376C191.996,94.92,192.965,96.494,193.862,98.108z"/>
		</g>
	</g>
</g>
</svg>
