<?xml version="1.0" encoding="UTF-8"?>
<!DOCTYPE svg PUBLIC "-//W3C//DTD SVG 1.1//EN" "http://www.w3.org/Graphics/SVG/1.1/DTD/svg11.dtd">
<!-- Creator: CorelDRAW -->
<svg xmlns="http://www.w3.org/2000/svg" xml:space="preserve" width="2048px" height="2048px" style="shape-rendering:geometricPrecision; text-rendering:geometricPrecision; image-rendering:optimizeQuality; fill-rule:evenodd; clip-rule:evenodd"
viewBox="0 0 2048 2048"
 xmlns:xlink="http://www.w3.org/1999/xlink">
 <defs>
  <style type="text/css">
   <![CDATA[
    .fil3 {fill:none}
    .fil1 {fill:#0277BD;fill-rule:nonzero}
    .fil0 {fill:#29B6F6;fill-rule:nonzero}
    .fil2 {fill:#66BB6A;fill-rule:nonzero}
   ]]>
  </style>
 </defs>
 <g id="Layer_x0020_1">
  <metadata id="CorelCorpID_0Corel-Layer"/>
  <g id="_356340952">
   <path id="_354718048" class="fil0" d="M1595.96 1186.48c-35.0729,130.898 -111.979,241.903 -214.032,320.211 -102,78.2682 -229.061,123.797 -364.51,123.797 -165.404,0 -315.155,-67.0477 -423.552,-175.446 -108.398,-108.397 -175.447,-258.149 -175.447,-423.552l83.0812 0c0,142.469 57.7465,271.452 151.107,364.811 93.3591,93.3603 222.34,151.106 364.811,151.106 116.86,0 226.381,-39.2032 314.208,-106.596 87.7713,-67.3501 153.949,-162.938 184.174,-275.75l80.1603 21.4181z"/>
   <polygon id="_354718024" class="fil1" points="316.062,1142.29 429.726,1003.97 453.613,974.898 482.702,998.801 621.022,1112.46 "/>
   <path id="_354717952" class="fil0" d="M444.711 861.522c35.074,-130.897 111.982,-241.903 214.034,-320.211 102,-78.2682 229.061,-123.797 364.51,-123.797 165.404,0 315.155,67.0465 423.552,175.445 108.398,108.398 175.446,258.149 175.446,423.553l-83.0812 0c0,-142.471 -57.7453,-271.452 -151.104,-364.812 -93.3603,-93.3603 -222.342,-151.104 -364.812,-151.104 -116.86,0 -226.381,39.2032 -314.208,106.596 -87.7725,67.3501 -153.947,162.939 -184.175,275.75l-80.1603 -21.4181z"/>
   <polygon id="_355802048" class="fil1" points="1724.61,905.715 1610.95,1044.03 1587.06,1073.1 1557.97,1049.2 1419.66,935.535 "/>
   <polygon id="_355801976" class="fil2" points="1792,567.057 1526.14,567.057 1484.6,567.057 1484.6,525.517 1484.6,259.662 1567.69,259.662 1567.69,483.976 1792,483.976 "/>
   <polygon id="_355802264" class="fil2" points="1792,446.214 1646.99,446.214 1605.45,446.214 1605.45,404.673 1605.45,259.662 1688.53,259.662 1688.53,363.133 1792,363.133 "/>
   <polygon id="_355801952" class="fil2" points="1784.68,1564.02 1560.36,1564.02 1560.36,1788.34 1477.28,1788.34 1477.28,1522.48 1477.28,1480.94 1518.82,1480.94 1784.68,1480.94 "/>
   <polygon id="_355802168" class="fil2" points="1784.68,1684.87 1681.21,1684.87 1681.21,1788.34 1598.12,1788.34 1598.12,1643.33 1598.12,1601.79 1639.67,1601.79 1784.68,1601.79 "/>
   <polygon id="_355802096" class="fil2" points="255.999,483.976 480.313,483.976 480.313,259.662 563.395,259.662 563.395,525.517 563.395,567.057 521.854,567.057 255.999,567.057 "/>
   <polygon id="_356340784" class="fil2" points="255.999,363.133 359.47,363.133 359.47,259.662 442.551,259.662 442.551,404.673 442.551,446.214 401.011,446.214 255.999,446.214 "/>
   <polygon id="_356340664" class="fil2" points="255.999,1480.94 521.854,1480.94 563.395,1480.94 563.395,1522.48 563.395,1788.34 480.313,1788.34 480.313,1564.02 255.999,1564.02 "/>
   <polygon id="_356341000" class="fil2" points="255.999,1601.79 401.011,1601.79 442.551,1601.79 442.551,1643.33 442.551,1788.34 359.47,1788.34 359.47,1684.87 255.999,1684.87 "/>
  </g>
 </g>
 <rect class="fil3" width="2048" height="2048"/>
</svg>
