<?xml version="1.0" encoding="UTF-8"?>
<!DOCTYPE svg PUBLIC "-//W3C//DTD SVG 1.1//EN" "http://www.w3.org/Graphics/SVG/1.1/DTD/svg11.dtd">
<!-- Creator: CorelDRAW -->
<svg xmlns="http://www.w3.org/2000/svg" xml:space="preserve" width="2048px" height="2048px" style="shape-rendering:geometricPrecision; text-rendering:geometricPrecision; image-rendering:optimizeQuality; fill-rule:evenodd; clip-rule:evenodd"
viewBox="0 0 2048 2048"
 xmlns:xlink="http://www.w3.org/1999/xlink">
 <defs>
  <style type="text/css">
   <![CDATA[
    .fil7 {fill:none}
    .fil6 {fill:#37474F}
    .fil5 {fill:#455A64}
    .fil0 {fill:#AB47BC}
    .fil4 {fill:#B0BEC5}
    .fil2 {fill:#BA68C8}
    .fil1 {fill:#EC407A}
    .fil3 {fill:#FFD740;fill-rule:nonzero}
   ]]>
  </style>
 </defs>
 <g id="Layer_x0020_1">
  <metadata id="CorelCorpID_0Corel-Layer"/>
  <g id="_360188952">
   <path id="_287149280" class="fil0" d="M1286.81 456.937l482.723 278.699c21.4323,12.3744 28.8425,40.0311 16.4693,61.4634l-445.426 771.5c-12.3744,21.4323 -40.0311,28.8425 -61.4634,16.4693l-510.235 -294.584c-21.4323,-12.3744 -28.8425,-40.0311 -16.4681,-61.4634l445.426 -771.5 0.347244 -0.584646 88.6276 0z"/>
   <path id="_287149064" class="fil0" d="M278.462 735.637l482.723 -278.7 88.6276 0c0.115748,0.194882 0.23504,0.387402 0.348425,0.584646l445.426 771.5c12.3732,21.4323 4.96181,49.089 -16.4693,61.4634l-510.234 294.585c-21.4335,12.3732 -49.0902,4.963 -61.4634,-16.4705l-445.426 -771.5c-12.3744,-21.4311 -4.96418,-49.0878 16.4681,-61.4623z"/>
   <path id="_287148632" class="fil1" d="M729.415 456.937l589.169 0c24.7477,0 44.9941,20.2465 44.9941,44.9941l0 890.852c0,24.7477 -20.2465,44.9941 -44.9941,44.9941l-589.169 0c-24.7477,0 -44.9941,-20.2465 -44.9941,-44.9941l0 -890.852c0,-24.7477 20.2465,-44.9941 44.9941,-44.9941z"/>
   <path id="_287149088" class="fil2" d="M729.415 456.937l589.169 0c24.7477,0 44.9941,20.2465 44.9941,44.9941l0 890.852c0,24.7477 -20.2465,44.9941 -44.9941,44.9941l-589.169 0c-24.7477,0 -44.9941,-20.2465 -44.9941,-44.9941l0 -890.852c0,-24.7477 20.2465,-44.9941 44.9941,-44.9941z"/>
   <g>
    <g>
     <path id="_287148968" class="fil3" d="M1111.28 1145.71c0,3.65079 2.96103,6.61182 6.61182,6.61182 3.65197,0 6.61182,-2.96103 6.61182,-6.61182l0 -59.9953c0,-3.65079 -2.95984,-6.61182 -6.61182,-6.61182 -3.65079,0 -6.61182,2.96103 -6.61182,6.61182l0 59.9953z"/>
     <path id="_287148488" class="fil3" d="M1064.33 1145.71c0,3.65079 2.96103,6.61182 6.61182,6.61182 3.65079,0 6.61182,-2.96103 6.61182,-6.61182l0 -59.9953c0,-3.65079 -2.96103,-6.61182 -6.61182,-6.61182 -3.65079,0 -6.61182,2.96103 -6.61182,6.61182l0 59.9953z"/>
     <path id="_287148944" class="fil3" d="M1017.39 1145.71c0,3.65079 2.96103,6.61182 6.61182,6.61182 3.65079,0 6.61182,-2.96103 6.61182,-6.61182l0 -59.9953c0,-3.65079 -2.96103,-6.61182 -6.61182,-6.61182 -3.65079,0 -6.61182,2.96103 -6.61182,6.61182l0 59.9953z"/>
     <path id="_287148704" class="fil3" d="M970.443 1145.71c0,3.65079 2.96103,6.61182 6.61182,6.61182 3.65079,0 6.61182,-2.96103 6.61182,-6.61182l0 -59.9953c0,-3.65079 -2.96103,-6.61182 -6.61182,-6.61182 -3.65079,0 -6.61182,2.96103 -6.61182,6.61182l0 59.9953z"/>
     <path id="_287148992" class="fil3" d="M923.498 1145.71c0,3.65079 2.95984,6.61182 6.61182,6.61182 3.65079,0 6.61182,-2.96103 6.61182,-6.61182l0 -59.9953c0,-3.65079 -2.96103,-6.61182 -6.61182,-6.61182 -3.65197,0 -6.61182,2.96103 -6.61182,6.61182l0 59.9953z"/>
    </g>
    <g>
     <path id="_287147816" class="fil3" d="M1222.35 860.078c3.65079,0 6.61182,-2.96103 6.61182,-6.61182 0,-3.65197 -2.96103,-6.61182 -6.61182,-6.61182l-59.9953 0c-3.65079,0 -6.61182,2.95984 -6.61182,6.61182 0,3.65079 2.96103,6.61182 6.61182,6.61182l59.9953 0z"/>
     <path id="_287148320" class="fil3" d="M1222.35 907.024c3.65079,0 6.61182,-2.96103 6.61182,-6.61182 0,-3.65079 -2.96103,-6.61182 -6.61182,-6.61182l-59.9953 0c-3.65079,0 -6.61182,2.96103 -6.61182,6.61182 0,3.65079 2.96103,6.61182 6.61182,6.61182l59.9953 0z"/>
     <path id="_287147672" class="fil3" d="M1222.35 953.969c3.65079,0 6.61182,-2.96103 6.61182,-6.61182 0,-3.65079 -2.96103,-6.61182 -6.61182,-6.61182l-59.9953 0c-3.65079,0 -6.61182,2.96103 -6.61182,6.61182 0,3.65079 2.96103,6.61182 6.61182,6.61182l59.9953 0z"/>
     <path id="_287148080" class="fil3" d="M1222.35 1000.91c3.65079,0 6.61182,-2.96103 6.61182,-6.61182 0,-3.65079 -2.96103,-6.61182 -6.61182,-6.61182l-59.9953 0c-3.65079,0 -6.61182,2.96103 -6.61182,6.61182 0,3.65079 2.96103,6.61182 6.61182,6.61182l59.9953 0z"/>
     <path id="_287147960" class="fil3" d="M1222.35 1047.86c3.65079,0 6.61182,-2.95984 6.61182,-6.61182 0,-3.65079 -2.96103,-6.61182 -6.61182,-6.61182l-59.9953 0c-3.65079,0 -6.61182,2.96103 -6.61182,6.61182 0,3.65197 2.96103,6.61182 6.61182,6.61182l59.9953 0z"/>
    </g>
    <g>
     <path id="_287147864" class="fil3" d="M825.65 1034.64c-3.65079,0 -6.61182,2.96103 -6.61182,6.61182 0,3.65197 2.96103,6.61182 6.61182,6.61182l59.9953 0c3.65079,0 6.61182,-2.95984 6.61182,-6.61182 0,-3.65079 -2.96103,-6.61182 -6.61182,-6.61182l-59.9953 0z"/>
     <path id="_287147888" class="fil3" d="M825.65 987.691c-3.65079,0 -6.61182,2.96103 -6.61182,6.61182 0,3.65079 2.96103,6.61182 6.61182,6.61182l59.9953 0c3.65079,0 6.61182,-2.96103 6.61182,-6.61182 0,-3.65079 -2.96103,-6.61182 -6.61182,-6.61182l-59.9953 0z"/>
     <path id="_287147648" class="fil3" d="M825.65 940.745c-3.65079,0 -6.61182,2.96103 -6.61182,6.61182 0,3.65079 2.96103,6.61182 6.61182,6.61182l59.9953 0c3.65079,0 6.61182,-2.96103 6.61182,-6.61182 0,-3.65079 -2.96103,-6.61182 -6.61182,-6.61182l-59.9953 0z"/>
     <path id="_287148344" class="fil3" d="M825.65 893.8c-3.65079,0 -6.61182,2.96103 -6.61182,6.61182 0,3.65079 2.96103,6.61182 6.61182,6.61182l59.9953 0c3.65079,0 6.61182,-2.96103 6.61182,-6.61182 0,-3.65079 -2.96103,-6.61182 -6.61182,-6.61182l-59.9953 0z"/>
     <path id="_287148056" class="fil3" d="M825.65 846.855c-3.65079,0 -6.61182,2.95984 -6.61182,6.61182 0,3.65079 2.96103,6.61182 6.61182,6.61182l59.9953 0c3.65079,0 6.61182,-2.96103 6.61182,-6.61182 0,-3.65197 -2.96103,-6.61182 -6.61182,-6.61182l-59.9953 0z"/>
    </g>
    <g>
     <path id="_360189960" class="fil3" d="M936.721 749.007c0,-3.65079 -2.96103,-6.61182 -6.61182,-6.61182 -3.65197,0 -6.61182,2.96103 -6.61182,6.61182l0 59.9953c0,3.65079 2.95984,6.61182 6.61182,6.61182 3.65079,0 6.61182,-2.96103 6.61182,-6.61182l0 -59.9953z"/>
     <path id="_360189888" class="fil3" d="M983.667 749.007c0,-3.65079 -2.96103,-6.61182 -6.61182,-6.61182 -3.65079,0 -6.61182,2.96103 -6.61182,6.61182l0 59.9953c0,3.65079 2.96103,6.61182 6.61182,6.61182 3.65079,0 6.61182,-2.96103 6.61182,-6.61182l0 -59.9953z"/>
     <path id="_360189792" class="fil3" d="M1030.61 749.007c0,-3.65079 -2.96103,-6.61182 -6.61182,-6.61182 -3.65079,0 -6.61182,2.96103 -6.61182,6.61182l0 59.9953c0,3.65079 2.96103,6.61182 6.61182,6.61182 3.65079,0 6.61182,-2.96103 6.61182,-6.61182l0 -59.9953z"/>
     <path id="_360189264" class="fil3" d="M1077.56 749.007c0,-3.65079 -2.96103,-6.61182 -6.61182,-6.61182 -3.65079,0 -6.61182,2.96103 -6.61182,6.61182l0 59.9953c0,3.65079 2.96103,6.61182 6.61182,6.61182 3.65079,0 6.61182,-2.96103 6.61182,-6.61182l0 -59.9953z"/>
     <path id="_360189240" class="fil3" d="M1124.5 749.007c0,-3.65079 -2.95984,-6.61182 -6.61182,-6.61182 -3.65079,0 -6.61182,2.96103 -6.61182,6.61182l0 59.9953c0,3.65079 2.96103,6.61182 6.61182,6.61182 3.65197,0 6.61182,-2.96103 6.61182,-6.61182l0 -59.9953z"/>
    </g>
    <rect id="_360189216" class="fil4" x="911.231" y="782.196" width="225.538" height="52.893"/>
    <g>
     <rect id="_360189408" class="fil4" x="911.231" y="782.196" width="225.538" height="52.893"/>
     <rect id="_360189288" class="fil4" x="911.231" y="1066.37" width="225.538" height="52.893"/>
    </g>
    <g>
     <rect id="_360188928" class="fil4" transform="matrix(8.48476E-015 0.320366 -0.0751321 1.98984E-015 1192.53 837.958)" width="704" height="704"/>
     <rect id="_360188904" class="fil4" transform="matrix(8.48476E-015 0.320366 -0.0751321 1.98984E-015 908.361 837.958)" width="704" height="704"/>
    </g>
    <rect id="_360188520" class="fil5" x="878.544" y="801.901" width="290.912" height="290.912"/>
    <rect id="_360188496" class="fil6" x="937.678" y="861.035" width="172.645" height="172.645"/>
   </g>
  </g>
 </g>
 <rect class="fil7" width="2048" height="2048"/>
</svg>
