<?xml version="1.0" encoding="UTF-8"?>
<!DOCTYPE svg PUBLIC "-//W3C//DTD SVG 1.1//EN" "http://www.w3.org/Graphics/SVG/1.1/DTD/svg11.dtd">
<!-- Creator: CorelDRAW -->
<svg xmlns="http://www.w3.org/2000/svg" xml:space="preserve" width="2048px" height="2048px" style="shape-rendering:geometricPrecision; text-rendering:geometricPrecision; image-rendering:optimizeQuality; fill-rule:evenodd; clip-rule:evenodd"
viewBox="0 0 2048 2048"
 xmlns:xlink="http://www.w3.org/1999/xlink">
 <defs>
  <style type="text/css">
   <![CDATA[
    .fil5 {fill:none}
    .fil0 {fill:#004D40}
    .fil1 {fill:#26A69A}
    .fil4 {fill:#66BB6A}
    .fil3 {fill:#D32F2F}
    .fil2 {fill:white}
   ]]>
  </style>
 </defs>
 <g id="Layer_x0020_1">
  <metadata id="CorelCorpID_0Corel-Layer"/>
  <g id="_358804576">
   <rect id="_358907152" class="fil0" x="357.198" y="348.353" width="1333.6" height="1200.17"/>
   <path id="_358907320" class="fil1" d="M543.098 287.781c-114.858,18.3756 -185.901,40.0217 -185.901,60.5729 0,20.55 71.0445,42.1937 185.901,60.5693 122.723,19.6358 292.721,31.7811 480.902,31.7811 188.18,0 358.179,-12.1453 480.902,-31.7811 114.856,-18.3756 185.901,-40.0193 185.901,-60.5693 0,-20.5512 -71.0434,-42.1973 -185.901,-60.5729 -122.723,-19.6335 -292.721,-31.7811 -480.902,-31.7811 -188.18,0 -358.179,12.1476 -480.902,31.7811z"/>
   <path id="_358907440" class="fil1" d="M357.198 390.773l0 266.186c1.51417,2.54764 2.38465,5.52284 2.38465,8.70119 0,20.589 70.5886,42.2492 185.03,60.6237 122.106,19.6051 291.377,31.7292 479.387,31.7292 188.18,0 358.179,-12.1465 480.902,-31.7799 114.858,-18.3768 185.901,-40.0217 185.901,-60.5729l0 -274.888c-35.8985,20.9835 -98.5654,38.6303 -180.567,51.75 -124.787,19.9654 -296.725,32.3162 -486.235,32.3162 -189.51,0 -361.448,-12.3508 -486.235,-32.3162 -82.0016,-13.1197 -144.669,-30.7666 -180.567,-51.75z"/>
   <path id="_358907344" class="fil1" d="M357.198 706.77l0 294.851c1.51417,2.54764 2.38465,5.52284 2.38465,8.70237 0,20.589 70.5886,42.2492 185.029,60.6237 122.106,19.604 291.377,31.728 479.389,31.728 188.18,0 358.18,-12.1465 480.903,-31.7799 114.856,-18.3768 185.9,-40.0205 185.9,-60.5729l0 -302.24c-35.8985,20.9847 -98.5642,38.6315 -180.567,51.7512 -124.787,19.9642 -296.725,32.3138 -486.235,32.3138 -189.349,0 -360.559,-12.3284 -484.721,-32.263 -83.478,-13.4043 -146.758,-31.5331 -182.081,-53.1142z"/>
   <path id="_358906480" class="fil1" d="M539.278 1104.55c-83.478,-13.4032 -146.757,-31.5319 -182.08,-53.113l0 294.851c1.51417,2.54764 2.38465,5.52284 2.38465,8.70237 0,20.5902 70.5898,42.2492 185.03,60.6237 122.107,19.604 291.377,31.728 479.387,31.728 188.18,0 358.179,-12.1465 480.902,-31.7799 114.856,-18.3768 185.901,-40.0205 185.901,-60.5729l0 -302.241c-35.8985,20.9847 -98.5642,38.6315 -180.566,51.7512 -124.787,19.9642 -296.727,32.3138 -486.237,32.3138 -189.35,0 -360.56,-12.3284 -484.722,-32.263z"/>
   <path id="_358906864" class="fil1" d="M1024 1481.47c-189.349,0 -360.559,-12.3284 -484.721,-32.2618 -83.478,-13.4043 -146.758,-31.5343 -182.081,-53.1142l0 294.851c1.51417,2.55 2.38465,5.52284 2.38465,8.70119 0,20.589 70.5886,42.2492 185.03,60.6248 122.106,19.604 291.377,31.7292 479.387,31.7292 188.18,0 358.179,-12.1476 480.902,-31.7811 114.858,-18.3756 185.901,-40.0217 185.901,-60.5729l0 -302.241c-35.8985,20.9835 -98.5654,38.6315 -180.567,51.7512 -124.787,19.9642 -296.725,32.3138 -486.235,32.3138z"/>
   <g>
    <circle id="_358906312" class="fil2" cx="1597.21" cy="513.26" r="37.213"/>
    <circle id="_358906264" class="fil2" cx="1597.21" cy="635.526" r="37.213"/>
    <circle id="_358906720" class="fil3" cx="1597.21" cy="513.26" r="29.2134"/>
    <circle id="_358906648" class="fil4" cx="1597.21" cy="635.526" r="29.2134"/>
   </g>
   <g>
    <circle id="_358905928" class="fil2" cx="1597.21" cy="843.59" r="37.213"/>
    <circle id="_358906120" class="fil2" cx="1597.21" cy="965.855" r="37.213"/>
    <circle id="_358905976" class="fil3" cx="1597.21" cy="843.59" r="29.2134"/>
    <circle id="_358905544" class="fil4" cx="1597.21" cy="965.855" r="29.2134"/>
   </g>
   <g>
    <circle id="_358805368" class="fil2" cx="1597.21" cy="1188.25" r="37.213"/>
    <circle id="_358805488" class="fil2" cx="1597.21" cy="1310.52" r="37.213"/>
    <circle id="_358804768" class="fil3" cx="1597.21" cy="1188.25" r="29.2134"/>
    <circle id="_358804600" class="fil4" cx="1597.21" cy="1310.52" r="29.2134"/>
   </g>
   <g>
    <circle id="_358804432" class="fil2" cx="1597.21" cy="1532.91" r="37.213"/>
    <circle id="_358804192" class="fil2" cx="1597.21" cy="1655.18" r="37.213"/>
    <circle id="_358804288" class="fil3" cx="1597.21" cy="1532.91" r="29.2134"/>
    <circle id="_358804648" class="fil4" cx="1597.21" cy="1655.18" r="29.2134"/>
   </g>
  </g>
 </g>
 <rect class="fil5" width="2048" height="2048"/>
</svg>
