<?xml version="1.0" encoding="UTF-8"?>
<!DOCTYPE svg PUBLIC "-//W3C//DTD SVG 1.1//EN" "http://www.w3.org/Graphics/SVG/1.1/DTD/svg11.dtd">
<!-- Creator: CorelDRAW -->
<svg xmlns="http://www.w3.org/2000/svg" xml:space="preserve" width="6.82666in" height="6.82666in" style="shape-rendering:geometricPrecision; text-rendering:geometricPrecision; image-rendering:optimizeQuality; fill-rule:evenodd; clip-rule:evenodd"
viewBox="0 0 6.82666 6.82666"
 xmlns:xlink="http://www.w3.org/1999/xlink">
 <defs>
  <style type="text/css">
   <![CDATA[
    .fil2 {fill:none}
    .fil0 {fill:#424242}
    .fil1 {fill:#64B5F6;fill-rule:nonzero}
   ]]>
  </style>
 </defs>
 <g id="Layer_x0020_1">
  <metadata id="CorelCorpID_0Corel-Layer"/>
  <path class="fil0" d="M0.853331 1.406l5.12 0 0 3.35322 -5.12 0 0 -3.35322zm0.278264 0.278264l4.56348 0 0 2.58336 -4.56348 0 0 -2.58336z"/>
  <polygon class="fil0" points="3.91954,4.65719 4.40537,5.42065 2.42128,5.42065 2.90711,4.65719 "/>
  <polygon class="fil1" points="2.52169,2.81811 2.65934,2.81811 2.7075,2.90246 2.76334,2.81811 2.89136,2.81811 2.78815,2.96229 2.89876,3.12076 2.76334,3.12076 2.7075,3.02328 2.64164,3.12076 2.51595,3.12076 2.62598,2.96229 "/>
  <path class="fil1" d="M2.27068 3.27991l-0.517571 0c0.00592913,-0.0511772 0.024,-0.0991772 0.0540709,-0.144283 0.0300709,-0.0449606 0.0864528,-0.0981654 0.16915,-0.159465 0.0506024,-0.0374449 0.0828386,-0.0660709 0.0970079,-0.0854409 0.0141693,-0.0195197 0.021252,-0.0380236 0.021252,-0.0555157 0,-0.0189409 -0.00708268,-0.0351339 -0.0209606,-0.0485787 -0.0140236,-0.0132992 -0.0316614,-0.0200945 -0.0527717,-0.0200945 -0.0221181,0 -0.0400472,0.00694094 -0.0540709,0.0208189 -0.013878,0.0137323 -0.0232756,0.0381654 -0.028189,0.0732992l-0.172768 -0.0140236c0.00679528,-0.0485787 0.0192283,-0.0864567 0.0373031,-0.11378 0.0180709,-0.0271811 0.0435157,-0.0481417 0.0764764,-0.0626024 0.0328189,-0.0145984 0.0783583,-0.0218307 0.136622,-0.0218307 0.0605748,0 0.10785,0.00694094 0.141681,0.0206772 0.033685,0.013878 0.0602874,0.0351299 0.0795157,0.0637559 0.019374,0.0287677 0.0290591,0.0608661 0.0290591,0.0964291 0,0.037878 -0.0111339,0.0740197 -0.033252,0.108429 -0.0221181,0.0344094 -0.0624567,0.0722874 -0.120862,0.113492 -0.0348425,0.0239961 -0.0579724,0.0407677 -0.069685,0.0504528 -0.0117087,0.00954331 -0.0255906,0.022122 -0.0413465,0.0375906l0.269339 0 0 0.140669z"/>
  <path class="fil1" d="M3.46996 3.16381l-0.314299 0 0 -0.141827 0.314299 -0.373579 0.150358 0 0 0.381531 0.0779252 0 0 0.133874 -0.0779252 0 0 0.116091 -0.150358 0 0 -0.116091zm0 -0.133874l0 -0.195177 -0.166114 0.195177 0.166114 0z"/>
  <path class="fil1" d="M3.90908 2.82018l0.462488 0 0 0.137634 -0.462488 0 0 -0.137634zm0 0.208472l0.462488 0 0 0.137201 -0.462488 0 0 -0.137201z"/>
  <path class="fil1" d="M4.69276 2.94609c-0.0271811,-0.014311 -0.0468425,-0.0305039 -0.0592756,-0.0482874 -0.0169173,-0.0242874 -0.0254449,-0.052189 -0.0254449,-0.0838504 0,-0.0519016 0.0244331,-0.0944094 0.0732992,-0.127516 0.0380197,-0.0252992 0.0884764,-0.0380236 0.15122,-0.0380236 0.0829843,0 0.144283,0.0157598 0.184043,0.0474213 0.0396102,0.0316614 0.0594173,0.0714213 0.0594173,0.119417 0,0.0279016 -0.00780709,0.0540709 -0.0237087,0.0783583 -0.0118543,0.0180709 -0.0305039,0.0355669 -0.0559488,0.0524803 0.033685,0.0161929 0.0586969,0.0374449 0.0751772,0.0640472 0.016626,0.0264567 0.0248661,0.0558031 0.0248661,0.0880433 0,0.0310827 -0.00708268,0.0601417 -0.0213976,0.0870315 -0.014311,0.0270354 -0.0318071,0.0478543 -0.0524803,0.0624567 -0.0208189,0.014748 -0.0466969,0.0255906 -0.0774882,0.0323858 -0.0309409,0.00693701 -0.0639016,0.0104094 -0.0990354,0.0104094 -0.0657795,0 -0.115945,-0.00766535 -0.150787,-0.0232756 -0.0346969,-0.0154724 -0.0610118,-0.0384567 -0.0790827,-0.0686732 -0.0180709,-0.0300709 -0.0271811,-0.0639016 -0.0271811,-0.101201 0,-0.0364331 0.0085315,-0.0672283 0.0254449,-0.0925276 0.0169173,-0.0252992 0.0430827,-0.0448189 0.0783622,-0.0586969zm0.0774882 -0.121874c0,0.0213976 0.00664961,0.0387441 0.0200984,0.0519016 0.0134449,0.0130118 0.0312244,0.0196614 0.0536339,0.0196614 0.0196614,0 0.036,-0.00650394 0.0487205,-0.0195157 0.0127244,-0.0130118 0.0190866,-0.0297835 0.0190866,-0.0504567 0,-0.0213976 -0.00665354,-0.0388898 -0.0199528,-0.0521929 -0.0132992,-0.0134449 -0.0302165,-0.0202402 -0.0508898,-0.0202402 -0.0208189,0 -0.037878,0.00664961 -0.0510354,0.0198071 -0.0131535,0.0130118 -0.0196614,0.0300709 -0.0196614,0.0510354zm-0.00925197 0.267169c0,0.0274685 0.00824016,0.049878 0.0248661,0.0672283 0.0167717,0.0173465 0.0357087,0.0260236 0.057252,0.0260236 0.0205276,0 0.0390354,-0.0088189 0.0555157,-0.0264606 0.0163346,-0.0176378 0.0245787,-0.0400433 0.0245787,-0.0672244 0,-0.0273228 -0.00838583,-0.0497323 -0.0248661,-0.0672244 -0.0164843,-0.0176417 -0.0355669,-0.026315 -0.0573976,-0.026315 -0.0213976,0 -0.0401929,0.00838583 -0.0560945,0.0254449 -0.0159016,0.0169173 -0.0238543,0.0397598 -0.0238543,0.0685276z"/>
 </g>
 <rect class="fil2" width="6.82666" height="6.82666"/>
</svg>
