<?xml version="1.0" encoding="utf-8"?>
<!-- Generator: Adobe Illustrator 24.0.0, SVG Export Plug-In . SVG Version: 6.00 Build 0)  -->
<svg version="1.1" xmlns="http://www.w3.org/2000/svg" xmlns:xlink="http://www.w3.org/1999/xlink" x="0px" y="0px"
	 viewBox="0 0 256 256" enable-background="new 0 0 256 256" xml:space="preserve">
<g id="Layer_2" display="none">
	<rect x="-1100" y="-5160" display="inline" fill="#FFFFFF" width="1786" height="5896"/>
</g>
<g id="Layer_1">
	<g>
		<path fill="#72C2E9" d="M228.894,61.796L132.966,10.81c-3.106-1.651-6.826-1.651-9.931,0L27.106,61.796
			c-3.455,1.836-5.615,5.43-5.615,9.342v113.866c0,3.913,2.159,7.506,5.615,9.342l95.929,50.986c3.104,1.65,6.825,1.651,9.931,0
			l95.929-50.986c3.455-1.836,5.615-5.43,5.615-9.342V71.138C234.509,67.226,232.349,63.632,228.894,61.796z M138.58,218.385
			v-25.861H117.42v25.861l-74.768-39.739V88.957l13.216,7.021l9.927-18.687l-11.381-6.046L128,32.135l73.585,39.11l-11.381,6.046
			l9.927,18.687l13.216-7.021v89.689L138.58,218.385z"/>
		<path fill="#C5E5FE" d="M126.088,239.595l-18.76-9.97c-1.22-0.648-1.683-2.162-1.035-3.381c0.649-1.219,2.165-1.681,3.381-1.035
			L128,234.95l95.009-50.498V71.138c0-1.381,1.119-2.5,2.5-2.5s2.5,1.119,2.5,2.5v113.867c0,1.513-0.83,2.893-2.165,3.603
			l-95.929,50.986C128.708,240.232,127.285,240.229,126.088,239.595z M98.498,224.932l-68.343-36.324
			c-1.219-0.648-1.682-2.162-1.034-3.381c0.649-1.22,2.162-1.682,3.382-1.035l68.341,36.324c1.22,0.648,1.683,2.162,1.035,3.381
			C101.229,225.117,99.717,225.58,98.498,224.932z"/>
		<g>
			<circle cx="213.35" cy="145.992" r="2.5"/>
			<path d="M136.08,218.381c0,1.944,2.049,3.066,3.67,2.21l74.77-39.74c0.82-0.43,1.33-1.279,1.33-2.199v-22.66
				c0-1.38-1.12-2.5-2.5-2.5s-2.5,1.12-2.5,2.5v21.149l-69.77,37.08v-21.699c0-1.381-1.12-2.5-2.5-2.5s-2.5,1.119-2.5,2.5V218.381z"
				/>
			<path d="M215.85,88.952c0-1.894-2.044-3.083-3.68-2.2l-13.21,7.021c-1.209,0.634-1.685,2.155-1.04,3.38
				c0.628,1.171,2.09,1.705,3.39,1.04c0-0.011,0-0.011,0.01-0.011l9.53-5.069v32.46h-5.648l-7.249-9.062
				c-0.663-0.829-1.781-1.145-2.779-0.798c-1.002,0.352-1.673,1.298-1.673,2.359v20c0,1.381,1.119,2.5,2.5,2.5s2.5-1.119,2.5-2.5
				v-12.873l3.548,4.435c0.475,0.593,1.192,0.938,1.952,0.938h6.85v5.42c0,1.38,1.12,2.5,2.5,2.5s2.5-1.12,2.5-2.5V88.952z"/>
			<path d="M202.76,69.032C124.085,27.229,128.972,29.641,128,29.643c-0.978,0.001,3.892-2.401-74.76,39.389
				c-1.769,0.947-1.776,3.466,0,4.42l11.38,6.05c1.208,0.64,2.734,0.19,3.38-1.04c0.667-1.27,0.151-2.76-1.03-3.38l-7.229-3.84
				L128,34.971l68.26,36.271l-7.229,3.84c-1.221,0.65-1.681,2.17-1.03,3.38c0.644,1.229,2.168,1.68,3.38,1.04l11.38-6.05
				C204.541,72.495,204.521,69.975,202.76,69.032z"/>
			<path d="M40.149,88.961v89.69c0,0.92,0.511,1.77,1.33,2.199l74.761,39.74c1.63,0.863,3.68-0.274,3.68-2.21v-25.859
				c0-1.381-1.12-2.5-2.5-2.5s-2.5,1.119-2.5,2.5v21.699l-69.771-37.08v-46.569h5.816l7.249,9.062
				c0.663,0.828,1.777,1.148,2.779,0.798c1.002-0.352,1.673-1.298,1.673-2.359v-20c0-1.381-1.119-2.5-2.5-2.5s-2.5,1.119-2.5,2.5
				v12.873l-3.548-4.435c-0.475-0.593-1.192-0.938-1.952-0.938h-7.018v-32.46l9.54,5.069c1.244,0.672,2.752,0.168,3.38-1.029
				c0.65-1.221,0.19-2.73-1.029-3.38l-13.221-7.021C42.199,85.876,40.149,87.042,40.149,88.961z"/>
			<path d="M230.069,59.591l-95.93-50.99c-3.77-2-8.54-2-12.28,0l-95.93,50.99c-4.28,2.271-6.939,6.7-6.939,11.55v113.86
				c0,4.85,2.659,9.271,6.939,11.55l49.11,26.101c1.166,0.646,2.724,0.222,3.38-1.03c0.664-1.222,0.173-2.749-1.03-3.38
				L28.28,192.141c-2.65-1.409-4.29-4.14-4.29-7.14V71.141c0-3,1.64-5.729,4.29-7.14l95.93-50.979c2.31-1.24,5.26-1.24,7.58,0
				l95.93,50.979c2.64,1.41,4.29,4.14,4.29,7.14v113.86c0,3-1.65,5.73-4.29,7.14l-95.93,50.99c-2.33,1.23-5.24,1.23-7.58,0
				l-29.16-15.5c-1.164-0.647-2.724-0.223-3.38,1.03c-0.652,1.237-0.188,2.713,1.02,3.38c0.011,0,0.011,0,0.011,0l29.159,15.5
				c3.747,1.992,8.355,2.088,12.28,0l95.93-50.99c4.28-2.27,6.94-6.7,6.94-11.55V71.141C237.01,66.292,234.35,61.862,230.069,59.591
				z"/>
			<path d="M86.22,222.931c-1.229-0.646-2.743-0.175-3.38,1.04c-0.667,1.23-0.168,2.751,1.03,3.38
				c1.207,0.639,2.732,0.189,3.38-1.029C87.899,225.101,87.439,223.582,86.22,222.931z"/>
			<path d="M92.2,110.072v36c0,1.381,1.119,2.5,2.5,2.5s2.5-1.119,2.5-2.5v-36c0-1.381-1.119-2.5-2.5-2.5S92.2,108.691,92.2,110.072
				z"/>
			<path d="M70,110.072v36c0,1.381,1.119,2.5,2.5,2.5s2.5-1.119,2.5-2.5v-36c0-1.381-1.119-2.5-2.5-2.5S70,108.691,70,110.072z"/>
			<path d="M81.1,92.072v72c0,1.381,1.119,2.5,2.5,2.5s2.5-1.119,2.5-2.5v-72c0-1.381-1.119-2.5-2.5-2.5S81.1,90.691,81.1,92.072z"
				/>
			<path d="M139.1,148.572c1.381,0,2.5-1.119,2.5-2.5v-36c0-1.381-1.119-2.5-2.5-2.5s-2.5,1.119-2.5,2.5v36
				C136.6,147.453,137.719,148.572,139.1,148.572z"/>
			<path d="M114.4,110.072v36c0,1.381,1.119,2.5,2.5,2.5s2.5-1.119,2.5-2.5v-36c0-1.381-1.119-2.5-2.5-2.5
				S114.4,108.691,114.4,110.072z"/>
			<path d="M103.3,119.072v18c0,1.381,1.119,2.5,2.5,2.5s2.5-1.119,2.5-2.5v-18c0-1.381-1.119-2.5-2.5-2.5
				S103.3,117.691,103.3,119.072z"/>
			<path d="M125.5,92.072v72c0,1.381,1.119,2.5,2.5,2.5s2.5-1.119,2.5-2.5v-72c0-1.381-1.119-2.5-2.5-2.5S125.5,90.691,125.5,92.072
				z"/>
			<path d="M186,146.072v-36c0-1.381-1.119-2.5-2.5-2.5s-2.5,1.119-2.5,2.5v36c0,1.381,1.119,2.5,2.5,2.5S186,147.453,186,146.072z"
				/>
			<path d="M163.8,146.072v-36c0-1.381-1.119-2.5-2.5-2.5s-2.5,1.119-2.5,2.5v36c0,1.381,1.119,2.5,2.5,2.5
				S163.8,147.453,163.8,146.072z"/>
			<path d="M152.7,137.072v-18c0-1.381-1.119-2.5-2.5-2.5s-2.5,1.119-2.5,2.5v18c0,1.381,1.119,2.5,2.5,2.5
				S152.7,138.453,152.7,137.072z"/>
			<path d="M174.9,164.072v-72c0-1.381-1.119-2.5-2.5-2.5s-2.5,1.119-2.5,2.5v72c0,1.381,1.119,2.5,2.5,2.5
				S174.9,165.453,174.9,164.072z"/>
		</g>
	</g>
</g>
</svg>
