<?xml version="1.0" encoding="UTF-8"?>
<!DOCTYPE svg PUBLIC "-//W3C//DTD SVG 1.1//EN" "http://www.w3.org/Graphics/SVG/1.1/DTD/svg11.dtd">
<!-- Creator: CorelDRAW -->
<svg xmlns="http://www.w3.org/2000/svg" xml:space="preserve" width="2048px" height="2048px" style="shape-rendering:geometricPrecision; text-rendering:geometricPrecision; image-rendering:optimizeQuality; fill-rule:evenodd; clip-rule:evenodd"
viewBox="0 0 2048 2048"
 xmlns:xlink="http://www.w3.org/1999/xlink">
 <defs>
  <style type="text/css">
   <![CDATA[
    .fil2 {fill:none}
    .fil1 {fill:#8C8D8D}
    .fil3 {fill:#ABABAB}
    .fil0 {fill:#C7C7C7}
   ]]>
  </style>
 </defs>
 <g id="Layer_x0020_1">
  <metadata id="CorelCorpID_0Corel-Layer"/>
  <path class="fil0" d="M543.524 255.998l832.477 0.0011811 224.001 191.999 0 1249.86c0,51.8859 -42.8752,94.1387 -95.5442,94.1387l-960.934 0c-52.6477,0 -95.5229,-42.2528 -95.5229,-94.1387l0 -1347.73c0,-51.8859 42.8752,-94.1316 95.5229,-94.1316z"/>
  <path class="fil1" d="M637.717 1440c-16.4114,0 -29.7154,14.328 -29.7154,32.0008 0,17.6728 13.3039,32.0008 29.7154,32.0008l772.569 0c16.4114,0 29.7154,-14.328 29.7154,-32.0008 0,-17.6728 -13.3039,-32.0008 -29.7154,-32.0008l-772.569 0z"/>
  <path class="fil1" d="M637.717 1120c-16.4114,0 -29.7154,14.328 -29.7154,32.0008 0,17.6728 13.3039,32.0008 29.7154,32.0008l772.569 0c16.4114,0 29.7154,-14.328 29.7154,-32.0008 0,-17.6728 -13.3039,-32.0008 -29.7154,-32.0008l-772.569 0z"/>
  <path class="fil1" d="M637.717 799.998c-16.4114,0 -29.7154,14.328 -29.7154,32.0008 0,17.6728 13.3039,32.0008 29.7154,32.0008l772.569 0c16.4114,0 29.7154,-14.328 29.7154,-32.0008 0,-17.6728 -13.3039,-32.0008 -29.7154,-32.0008l-772.569 0z"/>
  <g id="_583683240">
   <rect id="_583660704" class="fil2" width="2048" height="2048"/>
   <rect id="_583683144" class="fil2" x="255.999" y="255.999" width="1536" height="1536"/>
  </g>
  <polygon class="fil3" points="1376,447.998 1376,255.999 1600,447.998 "/>
 </g>
</svg>
