<?xml version="1.0" encoding="UTF-8"?>
<!DOCTYPE svg PUBLIC "-//W3C//DTD SVG 1.1//EN" "http://www.w3.org/Graphics/SVG/1.1/DTD/svg11.dtd">
<!-- Creator: CorelDRAW -->
<svg xmlns="http://www.w3.org/2000/svg" xml:space="preserve" width="2048px" height="2048px" style="shape-rendering:geometricPrecision; text-rendering:geometricPrecision; image-rendering:optimizeQuality; fill-rule:evenodd; clip-rule:evenodd"
viewBox="0 0 2048 2048"
 xmlns:xlink="http://www.w3.org/1999/xlink">
 <defs>
  <style type="text/css">
   <![CDATA[
    .fil4 {fill:none}
    .fil2 {fill:#545454}
    .fil1 {fill:#717171;fill-rule:nonzero}
    .fil0 {fill:gray;fill-rule:nonzero}
    .fil5 {fill:#A2A2A2;fill-rule:nonzero}
    .fil3 {fill:#ECECEC;fill-rule:nonzero}
   ]]>
  </style>
 </defs>
 <g id="Layer_x0020_1">
  <metadata id="CorelCorpID_0Corel-Layer"/>
  <path class="fil0" d="M1024 255.998l-724.576 0c-24.0012,0 -43.4256,19.4244 -43.4256,43.4244l0 1449.15c0,24.0012 19.4244,43.4256 43.4256,43.4256l724.576 0 0 -1536z"/>
  <path class="fil1" d="M1779.3 539.887l-271.191 -271.191c-8.14253,-8.12481 -19.187,-12.698 -30.7276,-12.698l-452.313 0 -1.07244 0 0 1536 0.199606 0 724.378 0c24,0 43.4244,-19.4244 43.4244,-43.4256l0 -1177.96c0,-11.5406 -4.57323,-22.5851 -12.698,-30.7276z"/>
  <path class="fil2" d="M1566 1532.93c0,36.5185 -31.6406,63.4949 -67.2473,63.4949l-1013.5 0c-35.6079,0 -67.2485,-26.9752 -67.2485,-63.4949l0 -443.415c0,-36.5197 31.6335,-63.5174 67.2485,-63.5174l1013.5 0c35.6138,0 67.2473,26.9988 67.2473,63.5174l0 443.415z"/>
  <path class="fil3" d="M1536 1532.93c0,18.4914 -16.6772,33.4949 -37.2473,33.4949l-1013.5 0c-20.5725,0 -37.2485,-15.0036 -37.2485,-33.4949l0 -443.415c0,-18.4984 16.676,-33.5173 37.2485,-33.5173l1013.5 0c20.5701,0 37.2473,15.0189 37.2473,33.5173l0 443.415z"/>
  <path class="fil2" d="M418.001 473.202c0,-33.1618 30.4524,-55.2036 61.7422,-55.2036l863.486 0c31.3028,0 61.7493,22.0264 61.7493,55.2036l0 333.609c0,33.1925 -30.4347,55.1882 -61.7493,55.1882l-863.486 0c-31.3016,0 -61.7422,-22.011 -61.7422,-55.1882l0 -333.609z"/>
  <path class="fil3" d="M448.001 473.202c0,-13.891 14.2217,-25.2036 31.7422,-25.2036l863.486 0c17.5524,0 31.7492,11.3126 31.7492,25.2036l0 333.609c0,13.9158 -14.1969,25.1882 -31.7492,25.1882l-863.486 0c-17.5205,0 -31.7422,-11.2724 -31.7422,-25.1882l0 -333.609z"/>
  <g id="_526146120">
   <rect id="_526170936" class="fil4" width="2048" height="2048"/>
   <rect id="_526161192" class="fil4" x="255.999" y="255.999" width="1536" height="1536"/>
  </g>
  <polygon class="fil5" points="1184,767.999 1248,767.999 1248,511.999 1184,511.999 "/>
  <polygon class="fil5" points="544.001,1376 1440,1376 1440,1440 544.001,1440 "/>
  <polygon class="fil5" points="544.001,1184 1440,1184 1440,1248 544.001,1248 "/>
 </g>
</svg>
