<?xml version="1.0" encoding="UTF-8"?>
<!DOCTYPE svg PUBLIC "-//W3C//DTD SVG 1.1//EN" "http://www.w3.org/Graphics/SVG/1.1/DTD/svg11.dtd">
<!-- Creator: CorelDRAW -->
<svg xmlns="http://www.w3.org/2000/svg" xml:space="preserve" width="2048px" height="2048px" style="shape-rendering:geometricPrecision; text-rendering:geometricPrecision; image-rendering:optimizeQuality; fill-rule:evenodd; clip-rule:evenodd"
viewBox="0 0 2048 2048"
 xmlns:xlink="http://www.w3.org/1999/xlink">
 <defs>
  <style type="text/css">
   <![CDATA[
    .fil4 {fill:none}
    .fil2 {fill:#0277BD}
    .fil3 {fill:#0872B1}
    .fil1 {fill:#D8B29E}
    .fil0 {fill:#E9BEA8}
   ]]>
  </style>
 </defs>
 <g id="Layer_x0020_1">
  <metadata id="CorelCorpID_0Corel-Layer"/>
  <g id="_489431936">
   <path id="_489432800" class="fil0" d="M523.711 1024.39c-91.0064,-5.95276 -162.984,-83.843 -162.984,-174.937 0,-91.0938 67.6323,-163.545 154.669,-173.414 -9.65788,-21.6792 -15.0331,-45.6839 -15.0331,-70.9512 0,-96.3969 78.1477,-174.545 174.545,-174.545 0.00236221,-96.3993 78.1477,-174.545 174.547,-174.545 96.3981,0 174.546,78.1465 174.546,174.546 0,-96.3993 78.1477,-174.546 174.546,-174.546 96.3993,0 174.545,78.1453 174.547,174.545 96.3969,0 174.545,78.1477 174.545,174.545 0,25.2673 -5.3752,49.2721 -15.0331,70.9512 87.0367,9.8693 154.669,82.3205 154.669,173.414 0,91.0938 -71.9776,168.984 -162.984,174.937 91.0064,5.95276 162.984,81.6426 162.984,174.155 0,89.6764 -67.6323,163.545 -154.669,173.414 9.65788,21.6792 15.0331,45.6839 15.0331,70.9512 0,96.3969 -78.1477,174.545 -174.545,174.545 -0.00236221,96.3993 -78.1477,174.545 -174.547,174.545 -84.4418,0 -154.878,-59.967 -171.052,-139.636l-3.4937 0 -3.4937 0c-16.174,79.669 -86.6103,139.636 -171.052,139.636 -96.3993,0 -174.545,-78.1453 -174.547,-174.545 -96.3969,0 -174.545,-78.1477 -174.545,-174.545 0,-25.2673 5.3752,-49.2721 15.0331,-70.9512 -87.0367,-9.8693 -154.669,-83.7379 -154.669,-173.414 0,-92.5123 71.9776,-168.202 162.984,-174.155z"/>
   <path id="_489433352" class="fil1" d="M1547.64 605.089c0,-96.3969 -78.1477,-174.545 -174.545,-174.545 -0.00236221,-96.3993 -78.1477,-174.545 -174.547,-174.545 -96.3981,0 -174.546,78.1465 -174.546,174.546l0 1221.82 3.4937 0c16.174,79.669 86.6103,139.636 171.052,139.636 96.3993,0 174.545,-78.1453 174.547,-174.545 96.3969,0 174.545,-78.1477 174.545,-174.545 0,-25.2673 -5.3752,-49.2721 -15.0331,-70.9512 87.0367,-9.8693 154.669,-83.7379 154.669,-173.414 0,-92.5123 -71.9776,-168.202 -162.984,-174.155 91.0064,-5.95276 162.984,-83.843 162.984,-174.937 0,-91.0938 -67.6323,-163.545 -154.669,-173.414 9.65788,-21.6792 15.0331,-45.6839 15.0331,-70.9512z"/>
   <path id="_489433304" class="fil2" d="M873.376 745.997c14.8417,-29.5784 32.1047,-54.704 51.2445,-74.2879 -55.2508,15.5539 -105.202,43.754 -146.532,81.28 21.5917,19.6028 45.5256,36.6579 71.3233,50.6894 7.06654,-20.6953 15.0969,-40.0075 23.9646,-57.6815z"/>
   <path id="_489433280" class="fil2" d="M815.495 1007.3c1.30866,-61.7245 9.83741,-119.878 23.9587,-171.221 -30.9484,-16.1575 -59.5063,-36.2433 -85.0075,-59.5914 -56.3422,61.33 -92.028,141.946 -96.0178,230.812l157.067 0z"/>
   <path id="_489433496" class="fil2" d="M839.454 1211.92c-14.1213,-51.3437 -22.65,-109.498 -23.9587,-171.223l-157.067 0c3.98977,88.8662 39.6756,169.482 96.0178,230.814 25.5012,-23.348 54.0591,-43.4327 85.0075,-59.5902z"/>
   <path id="_489433136" class="fil2" d="M924.62 1376.29c-19.1386,-19.5827 -36.4028,-44.7095 -51.2433,-74.2867 -8.86772,-17.674 -16.898,-36.9862 -23.9634,-57.6815 -25.7988,14.0339 -49.7327,31.0878 -71.3233,50.6906 41.3303,37.5237 91.2816,65.7249 146.53,81.2776z"/>
   <path id="_489432200" class="fil2" d="M1007.3 1388.23l0 -187.726c-43.4634,1.94055 -84.8883,11.4272 -122.993,27.1725 -1.58622,0.656693 -3.16772,1.32284 -4.74213,1.99961 6.88111,20.7343 14.778,39.9815 23.5465,57.4595 27.9945,55.7941 64.4304,92.8938 104.189,101.094z"/>
   <path id="_489432080" class="fil2" d="M1007.3 1167.08l0 -126.387 -158.411 0c1.23898,56.576 8.74253,109.769 21.1512,156.869l1.61457 -0.672048c42.1429,-17.4142 87.8457,-27.8351 135.645,-29.8099z"/>
   <path id="_489432680" class="fil2" d="M1007.3 1007.3l0 -126.387c-47.7992,-1.9748 -93.5032,-12.3945 -135.646,-29.8099l-1.61339 -0.670867c-12.4087,47.0989 -19.9122,100.293 -21.1512,156.868l158.411 0z"/>
   <path id="_489432344" class="fil2" d="M1007.3 847.497l0 -187.726c-39.7583,8.2004 -76.1942,45.3 -104.189,101.094 -8.76851,17.478 -16.6654,36.7252 -23.5465,57.4607 1.57441,0.676772 3.15473,1.34173 4.74095,1.99843 38.1059,15.7453 79.5308,25.2319 122.994,27.1725z"/>
   <g>
    <path id="_489432584" class="fil3" d="M1144.88 1287.13c8.76851,-17.478 16.6654,-36.7252 23.5465,-57.4595 -1.57441,-0.676772 -3.15591,-1.34291 -4.74213,-1.99961 -38.1048,-15.7453 -79.5296,-25.2319 -122.993,-27.1725l0 187.726c39.7583,-8.2004 76.1942,-45.3 104.189,-101.094z"/>
    <path id="_489432512" class="fil3" d="M1177.96 1197.57c12.4087,-47.1 19.9122,-100.293 21.1512,-156.869l-158.411 0 0 126.387c47.7992,1.9748 93.502,12.3957 135.645,29.8099l1.61457 0.672048z"/>
    <path id="_489432296" class="fil3" d="M1199.11 1007.3c-1.23898,-56.5748 -8.74253,-109.769 -21.1512,-156.868l-1.61339 0.670867c-42.1429,17.4154 -87.8469,27.8351 -135.646,29.8099l0 126.387 158.411 0z"/>
    <path id="_489432104" class="fil3" d="M1163.69 820.325c1.58622,-0.656693 3.16654,-1.32165 4.74095,-1.99843 -6.88111,-20.7354 -14.778,-39.9827 -23.5465,-57.4607 -27.9945,-55.7941 -64.4304,-92.8938 -104.189,-101.094l0 187.726c43.4634,-1.94055 84.8883,-11.4272 122.994,-27.1725z"/>
    <path id="_489431720" class="fil3" d="M1198.59 803.678c25.7977,-14.0327 49.7315,-31.0866 71.3233,-50.6894 -41.3303,-37.526 -91.2816,-65.7272 -146.532,-81.28 19.1398,19.5839 36.4028,44.7095 51.2445,74.2879 8.86772,17.674 16.898,36.9862 23.9646,57.6815z"/>
    <path id="_489431624" class="fil3" d="M1389.57 1007.3c-3.98977,-88.8662 -39.6744,-169.482 -96.0178,-230.812 -25.5012,23.348 -54.0591,43.4339 -85.0075,59.5914 14.1213,51.3426 22.65,109.497 23.9587,171.221l157.067 0z"/>
    <path id="_489431840" class="fil3" d="M1293.55 1271.51c56.3434,-61.3311 92.028,-141.947 96.0178,-230.814l-157.067 0c-1.30866,61.7245 -9.83741,119.878 -23.9587,171.223 30.9484,16.1575 59.5063,36.2422 85.0075,59.5902z"/>
    <path id="_489431864" class="fil3" d="M1123.38 1376.29c55.2496,-15.5528 105.201,-43.754 146.53,-81.2776 -21.5906,-19.6028 -45.5244,-36.6567 -71.3233,-50.6906 -7.06536,20.6965 -15.0957,40.0075 -23.9634,57.6815 -14.8406,29.5784 -32.1047,54.704 -51.2433,74.2867z"/>
   </g>
  </g>
 </g>
 <rect class="fil4" width="2048" height="2048"/>
</svg>
