<?xml version="1.0" encoding="utf-8"?>
<!-- Generator: Adobe Illustrator 24.0.0, SVG Export Plug-In . SVG Version: 6.00 Build 0)  -->
<svg version="1.1" xmlns="http://www.w3.org/2000/svg" xmlns:xlink="http://www.w3.org/1999/xlink" x="0px" y="0px"
	 viewBox="0 0 256 256" enable-background="new 0 0 256 256" xml:space="preserve">
<g id="Layer_2" display="none">
	<rect x="-92" y="-4488" display="inline" fill="#FFFFFF" width="1786" height="5896"/>
</g>
<g id="Layer_1">
	<g>
		<path fill="#F0C020" d="M198,231.923H58c-5.523,0-10-4.477-10-10V18.086c0-5.523,4.477-10,10-10h140c5.523,0,10,4.477,10,10
			v203.837C208,227.446,203.523,231.923,198,231.923z"/>
		<rect x="62" y="22.086" fill="#EFEFEF" width="132" height="104.333"/>
		<circle fill="#EFEFEF" cx="128" cy="104.899" r="12.188"/>
		<circle fill="#AFAFAF" cx="128" cy="104.896" r="12.19"/>
		<path fill="#AFAFAF" d="M119.17,150.666v57.01c-2.49-0.77-4.84-1.85-7-3.22c-8.41-5.27-14-14.62-14-25.28
			c0-10.66,5.59-20.02,14-25.29C114.33,152.526,116.68,151.436,119.17,150.666z"/>
		<path fill="#7D7B79" d="M112.17,153.886c2.16-1.36,4.51-2.45,7-3.22v57.01c-2.49-0.77-4.84-1.85-7-3.22V153.886z"/>
		<path fill="#AFAFAF" d="M157.83,179.176c0,10.66-5.59,20.01-14,25.28c-2.16,1.37-4.51,2.45-7,3.22v-57.01
			c2.49,0.77,4.84,1.86,7,3.22C152.24,159.156,157.83,168.516,157.83,179.176z"/>
		<path fill="#7D7B79" d="M143.83,153.886v50.57c-2.16,1.37-4.51,2.45-7,3.22v-57.01C139.32,151.436,141.67,152.526,143.83,153.886z
			"/>
		<path fill="#FC5D3D" d="M136.83,148.836v12.42h-17.66v-12.42c0-4.88,3.95-8.83,8.83-8.83
			C132.89,140.006,136.83,143.966,136.83,148.836z"/>
		<circle fill="#72C2E9" cx="70.375" cy="209.961" r="8.375"/>
		<circle fill="#AFAFAF" cx="185.625" cy="209.961" r="8.375"/>
		<path fill="#FC5D3D" d="M239,190.753h-7c-2.761,0-5-2.239-5-5V85.866c0-4.694,3.806-8.5,8.5-8.5h0c4.694,0,8.5,3.806,8.5,8.5
			v99.887C244,188.514,241.761,190.753,239,190.753z"/>
		<path fill="#72C2E9" d="M24,190.753h-7c-2.761,0-5-2.239-5-5V85.866c0-4.694,3.806-8.5,8.5-8.5h0c4.694,0,8.5,3.806,8.5,8.5
			v99.887C29,188.514,26.761,190.753,24,190.753z"/>
		<path fill="#F9E5AF" d="M62,195.086c-1.381,0-2.5-1.119-2.5-2.5v-3.25c0-1.381,1.119-2.5,2.5-2.5s2.5,1.119,2.5,2.5v3.25
			C64.5,193.967,63.381,195.086,62,195.086z M62,181.836c-1.381,0-2.5-1.119-2.5-2.5v-43c0-1.381,1.119-2.5,2.5-2.5
			s2.5,1.119,2.5,2.5v43C64.5,180.717,63.381,181.836,62,181.836z"/>
		<g>
			<path d="M70.54,105.126c0,1.412,1.141,2.5,2.5,2.5h40.543c0.551,2.939,1.973,5.644,4.147,7.77c5.75,5.625,14.877,5.55,20.52,0.01
				c2.189-2.126,3.615-4.835,4.167-7.779h40.543c1.343,0,2.5-1.076,2.5-2.5c0-20.114-10.406-38.239-26.801-48.591l8.531-15.579
				c0.696-1.284,0.163-2.765-0.99-3.391c-1.18-0.649-2.75-0.18-3.39,0.99l-8.488,15.5c-8.319-4.281-17.128-6.39-26.322-6.39
				C96.23,47.667,70.54,73.445,70.54,105.126z M137.69,104.936c-0.441,6.469-5.193,9.65-9.69,9.65h-0.01
				c-4.633,0-9.269-3.321-9.68-9.65v-0.01v-0.03c0.01-5.33,4.36-9.68,9.69-9.689c5.332,0.01,9.69,4.365,9.69,9.71
				C137.69,104.937,137.69,104.936,137.69,104.936z M156.256,60.925c3.125,2.005,6.064,4.348,8.757,7.028l-7.643,7.644
				c-0.97,0.98-0.97,2.56,0,3.54c0.977,0.976,2.568,0.972,3.54,0l7.483-7.483c7.246,8.737,11.474,19.561,12.007,30.973h-37.88
				c-0.501-3.172-2.03-6.137-4.481-8.435L156.256,60.925z M98.63,75.596l-7.643-7.644c9.309-9.262,21.478-14.617,34.514-15.225
				v10.609c0,1.38,1.12,2.5,2.5,2.5c1.38,0,2.5-1.12,2.5-2.5V52.728c7.566,0.353,14.835,2.315,21.427,5.703l-18.071,33.002
				c-8.903-3.881-18.915,1.843-20.366,11.194H75.6c0.534-11.413,4.762-22.236,12.007-30.973l7.483,7.483
				c0.997,0.976,2.543,0.976,3.54,0C99.6,78.156,99.6,76.577,98.63,75.596z"/>
			<path d="M166.25,156.957c0,6.83,5.55,12.38,12.37,12.38c6.83,0,12.38-5.55,12.38-12.38c0-6.82-5.55-12.37-12.38-12.37
				C171.8,144.586,166.25,150.136,166.25,156.957z M181.12,154.756v-4.719c2.834,1.03,4.872,3.737,4.88,6.919
				c-0.01,4.06-3.32,7.37-7.38,7.38c-4.05-0.01-7.36-3.32-7.37-7.38c0.008-3.184,2.048-5.892,4.88-6.921v4.721
				c0,1.38,1.12,2.5,2.5,2.5C180,157.256,181.12,156.136,181.12,154.756z"/>
			<circle cx="208" cy="97.106" r="2.5"/>
			<circle cx="95.67" cy="22.086" r="2.5"/>
			<path d="M196.5,126.417V22.086c0-1.371-1.114-2.5-2.5-2.5h-88.33c-1.38,0-2.5,1.12-2.5,2.5s1.12,2.5,2.5,2.5h85.83v99.33h-127
				v-99.33h21.17c1.37,0,2.5-1.12,2.5-2.5s-1.13-2.5-2.5-2.5H62c-1.393,0-2.5,1.136-2.5,2.5v104.33c0,1.414,1.145,2.5,2.5,2.5h132
				C195.384,128.917,196.5,127.806,196.5,126.417z"/>
			<path d="M128,220.836c6.25,0,11.33-5.08,11.33-11.33v-0.064c12.46-4.683,21-16.527,21-30.266c0-13.721-8.519-25.585-21-30.277
				v-0.063c0-6.25-5.08-11.33-11.33-11.33s-11.33,5.08-11.33,11.33v0.063c-12.463,4.685-21,16.536-21,30.277
				c0,13.712,8.517,25.574,21,30.266v0.064C116.67,215.756,121.75,220.836,128,220.836z M139.33,154.287
				c9.73,4.439,16,14.199,16,24.89s-6.27,20.44-16,24.88C139.33,185.738,139.33,171.872,139.33,154.287z M121.67,148.836
				c0.01-3.48,2.85-6.32,6.33-6.33c3.48,0.01,6.32,2.85,6.33,6.33c0,4.568,0-2.991,0,9.92h-12.66
				C121.67,146.875,121.67,152.547,121.67,148.836z M121.67,163.756h12.66c0,5.005,0,41.132,0,45.75
				c-0.01,3.479-2.85,6.32-6.33,6.33c-3.48-0.01-6.32-2.851-6.33-6.33C121.67,204.889,121.67,168.769,121.67,163.756z
				 M100.67,179.176c0-10.69,6.27-20.45,16-24.89c0,17.998,0,31.006,0,49.77C106.95,199.617,100.67,189.867,100.67,179.176z"/>
			<path d="M238,75.165V56.747c0-1.37-1.12-2.49-2.5-2.49c-1.38,0-2.5,1.12-2.5,2.49v18.418c-4.86,1.138-8.5,5.502-8.5,10.702v99.89
				c0,4.13,3.37,7.49,7.5,7.5h1v39.83c-0.01,6.88-5.62,12.49-12.5,12.5h-19.87c-6.427-0.009-11.743-4.907-12.423-11.16H198
				c6.89-0.01,12.5-5.61,12.5-12.5v-114.82c0-1.38-1.12-2.5-2.5-2.5c-1.38,0-2.5,1.12-2.5,2.5v114.82c-0.01,4.12-3.37,7.49-7.5,7.5
				h-9.87v-8.894c4.792-1.138,8.37-5.441,8.37-10.576c0-5.99-4.88-10.87-10.88-10.87c-5.99,0-10.87,4.88-10.87,10.87
				c0,5.137,3.581,9.442,8.37,10.578v8.892H72.88v-8.894c4.792-1.138,8.37-5.441,8.37-10.576c0-5.99-4.88-10.87-10.88-10.87
				c-5.99,0-10.87,4.88-10.87,10.87c0,5.137,3.581,9.442,8.37,10.578v8.892H58c-4.13-0.01-7.49-3.38-7.5-7.5V18.086
				c0.01-4.13,3.37-7.49,7.5-7.5h140c4.13,0.01,7.49,3.37,7.5,7.5v69.02c0,1.38,1.12,2.5,2.5,2.5c1.38,0,2.5-1.12,2.5-2.5v-69.02
				c0-6.891-5.61-12.5-12.5-12.5H58c-6.89,0-12.5,5.609-12.5,12.5v203.84c0,6.89,5.61,12.49,12.5,12.5h9.793
				c-0.679,6.253-5.986,11.151-12.413,11.16H35.5c-6.88-0.01-12.49-5.62-12.5-12.5v-39.83h1c4.13-0.01,7.5-3.37,7.5-7.5v-31.351
				c0-1.38-1.12-2.5-2.5-2.5c-1.38,0-2.5,1.12-2.5,2.5v31.351c0,1.37-1.12,2.5-2.5,2.5h-7c-1.38,0-2.5-1.13-2.5-2.5v-82.9h12v31.55
				c0,1.381,1.12,2.5,2.5,2.5c1.38,0,2.5-1.119,2.5-2.5V85.867c0-5.2-3.64-9.564-8.5-10.702V56.747c0-1.37-1.12-2.49-2.5-2.49
				c-1.38,0-2.5,1.12-2.5,2.49v18.418c-4.86,1.138-8.5,5.502-8.5,10.702v99.89c0,4.13,3.37,7.49,7.5,7.5h1v39.83
				c0,9.649,7.85,17.5,17.5,17.5h19.88c9.188,0,16.733-7.136,17.431-16.16h110.378c0.698,9.024,8.243,16.16,17.441,16.16h19.87
				c9.65,0,17.5-7.851,17.5-17.5v-39.83h1c4.13-0.01,7.5-3.37,7.5-7.5v-99.89C246.5,80.667,242.86,76.303,238,75.165z M14.5,85.867
				c0.009-3.002,2.316-5.913,5.969-5.913h0.064c3.623,0,5.967,2.884,5.967,5.913v11.989h-12V85.867z M70.37,215.836
				c-3.23-0.01-5.86-2.641-5.87-5.88c0.01-3.23,2.64-5.86,5.87-5.87c3.24,0.01,5.87,2.64,5.88,5.87
				C76.24,213.196,73.61,215.827,70.37,215.836z M179.75,209.957c0.01-3.23,2.64-5.86,5.87-5.87c3.24,0.01,5.88,2.64,5.88,5.87
				c0,3.239-2.64,5.87-5.88,5.88C182.39,215.827,179.76,213.196,179.75,209.957z M241.5,185.756c0,1.37-1.12,2.5-2.5,2.5h-7
				c-1.38,0-2.5-1.13-2.5-2.5v-82.9h12V185.756z M241.5,97.856h-12V85.867c0-3,2.313-5.913,5.967-5.913
				c3.745,0,6.024,2.922,6.033,5.913V97.856z"/>
			<circle cx="29" cy="144.406" r="2.5"/>
			<path d="M125.74,85.186c0.41,0.88,1.29,1.44,2.26,1.44c0.96,0,1.85-0.561,2.26-1.44l5.13-10.91c0.58-1.25,0.04-2.739-1.2-3.33
				c-1.22-0.569-2.76,0-3.33,1.2L128,78.247l-2.86-6.101c-0.57-1.2-2.11-1.77-3.32-1.2c-1.308,0.622-1.766,2.121-1.21,3.33
				L125.74,85.186z"/>
		</g>
	</g>
</g>
</svg>
