<?xml version="1.0" encoding="iso-8859-1"?>
<!-- Generator: Adobe Illustrator 19.0.0, SVG Export Plug-In . SVG Version: 6.00 Build 0)  -->
<svg xmlns="http://www.w3.org/2000/svg" xmlns:xlink="http://www.w3.org/1999/xlink" version="1.1" id="Layer_1" x="0px" y="0px" viewBox="0 0 512 512" style="enable-background:new 0 0 512 512;" xml:space="preserve">
<path style="fill:#3C66B1;" d="M405.481,256.178c-5.508,0-11.028-1.996-15.386-6.036c-75.196-69.691-192.999-69.691-268.191,0  c-9.172,8.5-23.498,7.956-31.998-1.215s-7.957-23.497,1.215-31.998c92.455-85.69,237.301-85.69,329.757,0  c9.172,8.5,9.716,22.827,1.215,31.998C417.632,253.742,411.564,256.178,405.481,256.178z"/>
<path style="fill:#4675CF;" d="M324.773,339.617c-5.326,0-10.673-1.867-14.979-5.67c-30.165-26.637-77.424-26.637-107.588,0  c-9.374,8.278-23.682,7.391-31.959-1.983c-8.278-9.373-7.39-23.683,1.983-31.959c22.974-20.29,52.724-31.463,83.771-31.463  c31.045,0,60.795,11.173,83.771,31.463c9.373,8.278,10.261,22.585,1.983,31.959C337.279,337.029,331.039,339.617,324.773,339.617z"/>
<path style="fill:#315591;" d="M481.747,180.884c-5.617,0-11.24-2.076-15.626-6.26c-117.825-112.407-302.418-112.407-420.244,0  c-9.046,8.631-23.379,8.296-32.012-0.753c-8.632-9.048-8.295-23.38,0.753-32.012c64.996-62.008,150.721-96.157,241.38-96.157  s176.385,34.149,241.381,96.156c9.048,8.632,9.385,22.964,0.753,32.012C493.685,178.534,487.722,180.884,481.747,180.884z"/>
<circle style="fill:#4E8FE3;" cx="255.999" cy="423.826" r="42.47"/>
<g>
	<path style="fill:#315591;" d="M421.956,233.686c-4.461,4.814-10.529,7.251-16.611,7.251c-5.508,0-11.028-1.997-15.386-6.036   c-75.196-69.691-192.999-69.691-268.191,0c-9.172,8.5-23.498,7.956-31.998-1.215c-2.145-2.315-3.711-4.958-4.71-7.752   c-2.734,7.689-1.221,16.594,4.71,22.993c8.5,9.171,22.826,9.715,31.998,1.215c75.192-69.691,192.996-69.691,268.191,0   c4.358,4.04,9.878,6.036,15.386,6.036c6.083,0,12.15-2.437,16.611-7.251c5.932-6.399,7.445-15.304,4.71-22.993   C425.668,228.729,424.102,231.373,421.956,233.686z"/>
	<path style="fill:#315591;" d="M341.616,316.722c-4.475,5.067-10.713,7.655-16.981,7.655c-5.326,0-10.673-1.867-14.979-5.67   c-30.165-26.637-77.424-26.637-107.588,0c-9.374,8.278-23.682,7.391-31.959-1.983c-1.968-2.229-3.402-4.741-4.343-7.38   c-2.682,7.514-1.312,16.218,4.343,22.621c8.278,9.374,22.585,10.261,31.959,1.983c30.165-26.637,77.424-26.637,107.588,0   c4.306,3.803,9.653,5.67,14.979,5.67c6.267,0,12.506-2.588,16.981-7.655c5.654-6.404,7.025-15.108,4.342-22.621   C345.018,311.981,343.584,314.493,341.616,316.722z"/>
	<path style="fill:#315591;" d="M497.998,158.631c-4.449,4.663-10.412,7.013-16.387,7.013c-5.617,0-11.24-2.076-15.626-6.26   c-117.825-112.408-302.418-112.408-420.244,0c-9.046,8.631-23.379,8.296-32.012-0.753c-2.26-2.368-3.888-5.103-4.924-7.998   c-2.778,7.8-1.183,16.839,4.924,23.239c8.633,9.05,22.965,9.384,32.012,0.753c117.827-112.407,302.42-112.407,420.244,0   c4.386,4.184,10.01,6.26,15.626,6.26c5.974,0,11.937-2.35,16.387-7.013c6.106-6.4,7.703-15.438,4.924-23.239   C501.886,153.529,500.257,156.263,497.998,158.631z"/>
	<path style="fill:#315591;" d="M255.863,451.056c-20.853,0-38.183-15.033-41.775-34.85c-0.448,2.474-0.695,5.017-0.695,7.62   c0,23.456,19.015,42.47,42.47,42.47c23.456,0,42.47-19.015,42.47-42.47c0-2.603-0.247-5.146-0.695-7.62   C294.046,436.023,276.716,451.056,255.863,451.056z"/>
</g>
<path d="M426.058,211.341c-95.359-88.38-244.757-88.38-340.117,0c-12.238,11.344-12.967,30.53-1.624,42.768  c11.344,12.237,30.528,12.967,42.767,1.625c72.289-67.001,185.542-66.996,257.832-0.001c5.613,5.203,12.917,8.067,20.566,8.067  c8.402,0,16.492-3.533,22.199-9.691c5.496-5.929,8.354-13.642,8.046-21.721C435.419,224.31,431.985,216.836,426.058,211.341z   M416.503,243.748c-2.874,3.102-6.789,4.81-11.022,4.81c-3.796,0-7.421-1.421-10.206-4.004  c-39.055-36.196-89.159-54.288-139.277-54.288c-50.108,0-100.23,18.1-139.274,54.288c-6.076,5.628-15.6,5.269-21.23-0.807  c-5.631-6.075-5.269-15.598,0.806-21.229c89.551-82.997,229.845-82.997,319.397,0c2.942,2.728,4.647,6.438,4.801,10.448  C420.649,236.976,419.232,240.805,416.503,243.748z"/>
<path d="M344.814,294.291c-24.367-21.52-55.909-33.372-88.814-33.372s-64.447,11.852-88.814,33.372  c-6.059,5.351-9.673,12.741-10.172,20.808c-0.501,8.068,2.17,15.849,7.521,21.908c11.046,12.506,30.207,13.696,42.716,2.651  c27.335-24.141,70.162-24.14,97.5-0.001c5.533,4.888,12.646,7.58,20.024,7.58c8.679,0,16.95-3.729,22.693-10.23  C358.51,324.497,357.32,305.335,344.814,294.291z M336.042,326.917c-2.851,3.227-6.959,5.078-11.27,5.078  c-3.661,0-7.188-1.335-9.936-3.762c-16.498-14.569-37.664-21.851-58.838-21.851c-21.168,0-42.343,7.286-58.838,21.851  c-6.209,5.482-15.721,4.892-21.204-1.316c-2.656-3.007-3.982-6.869-3.734-10.874c0.249-4.005,2.042-7.674,5.05-10.329  c21.58-19.06,49.54-29.555,78.726-29.555s57.145,10.496,78.726,29.555C340.934,311.197,341.524,320.709,336.042,326.917z"/>
<path d="M502.641,136.346C436.221,72.98,348.629,38.082,256,38.082c-92.628,0-180.22,34.898-246.641,98.263  c-12.072,11.519-12.525,30.713-1.007,42.785c5.58,5.85,13.104,9.176,21.186,9.366c0.244,0.006,0.487,0.009,0.728,0.009  c7.812-0.001,15.2-2.956,20.871-8.367c114.876-109.594,294.849-109.594,409.724,0c5.655,5.396,13.073,8.366,20.887,8.366  c8.355,0,16.133-3.329,21.901-9.374C515.167,167.058,514.714,147.864,502.641,136.346z M492.621,168.611  c-2.863,3-6.725,4.653-10.874,4.653c-3.876,0-7.558-1.475-10.367-4.154C350.607,53.891,161.393,53.89,40.616,169.112  c-2.903,2.769-6.699,4.245-10.722,4.148c-4.011-0.094-7.746-1.746-10.516-4.648c-5.717-5.993-5.494-15.521,0.5-21.238  C83.45,86.725,167.307,53.324,256,53.324c88.693,0,172.549,33.401,236.121,94.05c2.903,2.77,4.554,6.504,4.648,10.516  C496.864,161.902,495.391,165.708,492.621,168.611z"/>
<path d="M256,373.736c-27.62,0-50.09,22.471-50.09,50.091c0,27.62,22.471,50.09,50.09,50.09s50.09-22.471,50.09-50.09  C306.09,396.207,283.619,373.736,256,373.736z M256,458.676c-19.216,0-34.85-15.634-34.85-34.85s15.634-34.851,34.85-34.851  c19.217,0,34.85,15.635,34.85,34.851S275.217,458.676,256,458.676z"/>
<g>
</g>
<g>
</g>
<g>
</g>
<g>
</g>
<g>
</g>
<g>
</g>
<g>
</g>
<g>
</g>
<g>
</g>
<g>
</g>
<g>
</g>
<g>
</g>
<g>
</g>
<g>
</g>
<g>
</g>
</svg>
