<?xml version="1.0" encoding="UTF-8"?>
<!DOCTYPE svg PUBLIC "-//W3C//DTD SVG 1.1//EN" "http://www.w3.org/Graphics/SVG/1.1/DTD/svg11.dtd">
<!-- Creator: CorelDRAW -->
<svg xmlns="http://www.w3.org/2000/svg" xml:space="preserve" width="2048px" height="2048px" style="shape-rendering:geometricPrecision; text-rendering:geometricPrecision; image-rendering:optimizeQuality; fill-rule:evenodd; clip-rule:evenodd"
viewBox="0 0 2048 2048"
 xmlns:xlink="http://www.w3.org/1999/xlink">
 <defs>
  <style type="text/css">
   <![CDATA[
    .fil2 {fill:none}
    .fil6 {fill:#00C853}
    .fil1 {fill:#0288D1}
    .fil10 {fill:#171717}
    .fil3 {fill:#1F1C1C}
    .fil4 {fill:#333232}
    .fil7 {fill:#353E45}
    .fil9 {fill:#3E3E3E}
    .fil5 {fill:#454C54}
    .fil0 {fill:#4FC3F7}
    .fil11 {fill:#515151}
    .fil8 {fill:#97E1FC}
    .fil12 {fill:#212121;fill-rule:nonzero}
   ]]>
  </style>
   <clipPath id="id0">
    <path d="M1024 -0.0011811c565.541,0 1024,458.461 1024,1024 0,565.541 -458.461,1024 -1024,1024 -565.541,0 -1024,-458.461 -1024,-1024 0,-565.541 458.461,-1024 1024,-1024z"/>
   </clipPath>
 </defs>
 <g id="Layer_x0020_1">
  <metadata id="CorelCorpID_0Corel-Layer"/>
  <path class="fil0" d="M1024 -0.0011811c565.541,0 1024,458.461 1024,1024 0,565.541 -458.461,1024 -1024,1024 -565.541,0 -1024,-458.461 -1024,-1024 0,-565.541 458.461,-1024 1024,-1024z"/>
  <g style="clip-path:url(#id0)">
   <g id="_385668112">
    <g>
     <polygon id="_2840886161" class="fil1" points="1260.96,739.765 2396.84,1875.65 2398.22,1877.49 2399.42,1879.46 2400.43,1881.54 2401.23,1883.73 2401.82,1886.02 2402.19,1888.38 2402.31,1890.81 2402.31,2327.06 2402.19,2329.49 2401.82,2331.85 2401.23,2334.14 2400.42,2336.33 2399.41,2338.41 2398.21,2340.38 2396.84,2342.22 2395.29,2343.92 2393.59,2345.46 2391.75,2346.84 2389.78,2348.04 2387.7,2349.05 2385.51,2349.86 2383.22,2350.45 2380.86,2350.81 2378.43,2350.94 2011.04,2350.94 875.163,1215.06 1242.55,1215.06 1244.98,1214.93 1247.34,1214.57 1249.62,1213.98 1251.82,1213.17 1253.9,1212.16 1255.87,1210.96 1257.71,1209.58 1259.41,1208.04 1260.95,1206.34 1262.33,1204.5 1263.53,1202.53 1264.54,1200.44 1265.35,1198.25 1265.94,1195.97 1266.3,1193.61 1266.43,1191.18 1266.43,754.928 1266.3,752.497 1265.94,750.134 1265.35,747.851 1264.54,745.66 1263.53,743.574 1262.34,741.605 "/>
     <polygon id="_284088736" class="fil1" points="1579.01,729.748 2714.89,1865.63 2716.15,1867.31 2717.24,1869.11 2718.16,1871.01 2718.9,1873.01 2719.44,1875.09 2719.77,1877.25 2719.88,1879.47 2719.88,2440.29 2719.77,2442.51 2719.44,2444.67 2718.9,2446.75 2718.16,2448.75 2717.24,2450.66 2716.15,2452.45 2714.89,2454.13 2713.48,2455.68 2711.93,2457.09 2710.25,2458.35 2708.45,2459.44 2706.55,2460.37 2704.55,2461.1 2702.47,2461.64 2700.31,2461.97 2698.09,2462.09 2462.72,2462.09 2460.5,2461.97 2458.34,2461.64 2456.26,2461.1 2454.26,2460.37 2452.35,2459.45 2450.56,2458.35 2448.88,2457.09 2447.33,2455.68 1311.45,1319.8 1312.99,1321.21 1314.67,1322.47 1316.47,1323.56 1318.37,1324.48 1320.37,1325.22 1322.46,1325.76 1324.62,1326.09 1326.84,1326.2 1562.21,1326.2 1564.43,1326.09 1566.58,1325.76 1568.67,1325.22 1570.67,1324.48 1572.57,1323.56 1574.37,1322.47 1576.05,1321.21 1577.6,1319.8 1579.01,1318.25 1580.27,1316.57 1581.36,1314.78 1582.28,1312.87 1583.02,1310.87 1583.55,1308.79 1583.89,1306.63 1584,1304.41 1584,743.59 1583.89,741.369 1583.55,739.212 1583.02,737.128 1582.28,735.128 1581.36,733.224 1580.27,731.427 "/>
     <polygon id="_284089552" class="fil1" points="855.266,1215.06 1991.15,2350.94 1623.76,2350.94 1621.33,2350.81 1618.97,2350.45 1616.68,2349.86 1614.49,2349.05 1612.41,2348.05 1610.44,2346.85 1608.6,2345.47 472.718,1209.59 474.557,1210.96 476.527,1212.16 478.613,1213.17 480.804,1213.98 483.087,1214.57 485.45,1214.93 487.881,1215.06 "/>
     <polygon id="_284089576" class="fil1" points="875.163,1215.06 2011.04,2350.94 2043,2438.6 907.123,1302.72 "/>
     <polygon id="_284089672" class="fil1" points="930.986,1316.95 2066.87,2452.84 1935.32,2452.84 799.443,1316.95 "/>
     <polygon id="_284089600" class="fil1" points="930.986,1302.72 2066.87,2438.6 2066.87,2452.84 930.986,1316.95 "/>
    </g>
    <path id="_385668160" class="fil1" d="M1326.84 721.797l235.371 0c11.987,0 21.7925,9.8067 21.7925,21.7925l0 560.821c0,11.9847 -9.8067,21.7925 -21.7925,21.7925l-235.371 0c-11.9847,0 -21.7925,-9.8067 -21.7925,-21.7925l0 -560.821c0,-11.987 9.8067,-21.7925 21.7925,-21.7925zm-60.4075 33.1311l0 436.248c0,13.1232 -10.7563,23.8807 -23.8807,23.8807l-367.385 0 31.9595 87.6627 23.863 0 0 14.2347 -131.543 0 0 -14.2347 23.8654 0 31.9583 -87.6627 -367.386 0c-13.1244,0 -23.8807,-10.7469 -23.8807,-23.8807l0 -436.248c0,-13.135 10.7457,-23.8807 23.8807,-23.8807l754.667 0c13.135,0 23.8807,10.7575 23.8807,23.8807z"/>
   </g>
  </g>
  <path class="fil2" d="M1024 -0.0011811c565.541,0 1024,458.461 1024,1024 0,565.541 -458.461,1024 -1024,1024 -565.541,0 -1024,-458.461 -1024,-1024 0,-565.541 458.461,-1024 1024,-1024z"/>
  <polygon class="fil3" points="858.866,1205.18 871.563,1205.18 908.713,1307.08 821.717,1307.08 "/>
  <rect class="fil4" x="799.443" y="1302.72" width="131.543" height="14.2352"/>
  <path class="fil4" d="M487.881 731.047l754.667 0c13.135,0 23.8819,10.7575 23.8819,23.8807l0 436.248c0,13.1232 -10.7575,23.8807 -23.8819,23.8807l-754.667 0c-13.1244,0 -23.8807,-10.7457 -23.8807,-23.8807l0 -436.248c0,-13.135 10.7457,-23.8807 23.8807,-23.8807z"/>
  <circle class="fil5" cx="825.562" cy="1183.15" r="11.5417"/>
  <circle class="fil0" cx="825.563" cy="1183.15" r="8.40246"/>
  <circle class="fil5" cx="865.214" cy="1183.15" r="11.5417"/>
  <circle class="fil6" cx="865.214" cy="1183.15" r="8.40246"/>
  <circle class="fil7" cx="904.865" cy="1183.15" r="11.5417"/>
  <path class="fil8" d="M511.722 754.928l706.984 0c12.3047,0 22.3725,9.09568 22.3725,20.1898l0 359.055c0,11.0941 -10.0784,20.1898 -22.3725,20.1898l-706.984 0c-12.2929,0 -22.3713,-9.08505 -22.3713,-20.1898l0 -359.055c0,-11.1047 10.0665,-20.1898 22.3713,-20.1898z"/>
  <path class="fil9" d="M1326.84 721.797l235.371 0c11.987,0 21.7925,9.8067 21.7925,21.7925l0 560.821c0,11.9847 -9.8067,21.7925 -21.7925,21.7925l-235.371 0c-11.9847,0 -21.7925,-9.8067 -21.7925,-21.7925l0 -560.821c0,-11.987 9.8067,-21.7925 21.7925,-21.7925z"/>
  <path class="fil10" d="M1335.32 734.043l218.398 0c11.1213,0 20.2205,9.10158 20.2205,20.2217l0 462.264c0,11.1189 -9.10158,20.2205 -20.2205,20.2205l-218.398 0c-11.1201,0 -20.2217,-9.09922 -20.2217,-20.2205l0 -462.264c0,-11.1224 9.09922,-20.2217 20.2217,-20.2217z"/>
  <rect class="fil4" x="1328.29" y="768.29" width="232.463" height="69.7391"/>
  <rect class="fil10" x="1535.9" y="825.313" width="19.3036" height="8.95299"/>
  <rect class="fil10" x="1513.54" y="825.313" width="19.3036" height="8.95299"/>
  <rect class="fil10" x="1328.29" y="817.547" width="232.463" height="3.08712"/>
  <circle class="fil11" cx="1444.52" cy="1152.85" r="15.4742"/>
  <path class="fil4" d="M1339.56 1011.75l209.922 0c3.99567,0 7.26379,3.26811 7.26379,7.26379l0 27.5398c0,3.99449 -3.26929,7.26379 -7.26379,7.26379l-209.922 0c-3.99567,0 -7.26497,-3.26811 -7.26497,-7.26379l0 -27.5398c0,-3.99567 3.26929,-7.26379 7.26497,-7.26379z"/>
  <polygon class="fil12" points="1315.1,911.163 1573.94,911.163 1573.94,957.657 1315.1,957.657 "/>
  <circle class="fil11" cx="1444.52" cy="1187.4" r="8.89671"/>
 </g>
</svg>
