<?xml version="1.0" encoding="utf-8"?>
<!-- Generator: Adobe Illustrator 24.0.0, SVG Export Plug-In . SVG Version: 6.00 Build 0)  -->
<svg version="1.1" xmlns="http://www.w3.org/2000/svg" xmlns:xlink="http://www.w3.org/1999/xlink" x="0px" y="0px"
	 viewBox="0 0 256 256" enable-background="new 0 0 256 256" xml:space="preserve">
<g id="Layer_2" display="none">
	<rect x="-1436" y="-3480" display="inline" fill="#FFFFFF" width="1786" height="5896"/>
</g>
<g id="Layer_1">
	<g>
		<path fill="#F0C020" d="M219.162,86.398c-3.489-1.153-7.093-2.161-9.116-10.876c-1.863,8.027-4.849,9.466-9.116,10.876
			c6.96,2.3,8.01,6.108,9.116,10.876C211.953,89.055,215.107,87.738,219.162,86.398z"/>
		<path fill="#F0C020" d="M51.712,186.72c-3.489-1.153-7.093-2.161-9.116-10.876c-1.863,8.027-4.849,9.466-9.116,10.876
			c6.96,2.3,8.009,6.108,9.116,10.876C44.504,189.377,47.658,188.06,51.712,186.72z"/>
		<path fill="#F0C020" d="M222.519,126.72c-3.489-1.153-7.093-2.161-9.116-10.876c-1.863,8.027-4.849,9.466-9.116,10.876
			c6.96,2.3,8.009,6.108,9.116,10.876C215.31,129.377,218.464,128.06,222.519,126.72z"/>
		<path fill="#F0C020" d="M153.663,110.691h-51.326c-8.284,0-15-6.716-15-15V57.077c0-8.284,6.716-15,15-15h51.326
			c8.284,0,15,6.716,15,15v38.614C168.663,103.975,161.947,110.691,153.663,110.691z"/>
		<path fill="#F9E5AF" d="M150.897,103.716h-28.869c-1.381,0-2.5-1.119-2.5-2.5s1.119-2.5,2.5-2.5h28.869
			c3.192,0,5.79-2.598,5.79-5.79V59.842c0-3.192-2.598-5.79-5.79-5.79c-1.381,0-2.5-1.119-2.5-2.5s1.119-2.5,2.5-2.5
			c5.949,0,10.79,4.841,10.79,10.79v33.084C161.688,98.875,156.847,103.716,150.897,103.716z M112.028,103.716h-6.926
			c-5.949,0-10.79-4.841-10.79-10.79c0-1.381,1.119-2.5,2.5-2.5s2.5,1.119,2.5,2.5c0,3.192,2.598,5.79,5.79,5.79h6.926
			c1.381,0,2.5,1.119,2.5,2.5S113.409,103.716,112.028,103.716z"/>
		<path fill="#72C1E8" d="M190.692,123.166H65.308c-3.271,0-5.922,2.652-5.922,5.922v43.387c0,3.271,2.651,5.922,5.922,5.922
			h125.384c3.271,0,5.922-2.651,5.922-5.922v-43.387C196.614,125.818,193.963,123.166,190.692,123.166z"/>
		<path fill="#C5E5FF" d="M187.614,171.897H82.845c-1.381,0-2.5-1.119-2.5-2.5s1.119-2.5,2.5-2.5h102.27v-34.73c0-3.303,5-3.308,5,0
			v37.23C190.114,170.778,188.995,171.897,187.614,171.897z M72.845,171.897h-4.459c-1.381,0-2.5-1.119-2.5-2.5s1.119-2.5,2.5-2.5
			h4.459c1.381,0,2.5,1.119,2.5,2.5S74.226,171.897,72.845,171.897z"/>
		<circle fill="#72C1E8" cx="128.297" cy="76.749" r="15.889"/>
		<path fill="#C5E5FF" d="M132.993,86.799c-0.835,0-1.651-0.418-2.125-1.18c-0.729-1.173-0.369-2.714,0.803-3.443
			c3.496-2.17,4.042-7.05,1.145-9.945c-0.977-0.977-0.977-2.56-0.001-3.536c0.977-0.977,2.56-0.976,3.536-0.001
			c4.436,4.434,4.454,11.651,0.001,16.108C135.529,85.623,134.156,86.799,132.993,86.799z M122.161,86.345
			c-0.69-0.441-1.336-0.961-1.918-1.543c-0.977-0.977-0.977-2.559,0-3.535s2.559-0.977,3.535,0c0.327,0.327,0.689,0.618,1.078,0.867
			c1.163,0.743,1.502,2.29,0.759,3.453C124.87,86.751,123.323,87.089,122.161,86.345z"/>
		<path fill="#7D7B79" d="M87.337,123.166H66.413V36.339c0-2.761,2.239-5,5-5h10.924c2.761,0,5,2.239,5,5V123.166z"/>
		<path fill="#EFEFEF" d="M77.961,115.856c-1.381,0-2.5-1.119-2.5-2.5V59.035c0-1.381,1.119-2.5,2.5-2.5s2.5,1.119,2.5,2.5v54.321
			C80.461,114.737,79.342,115.856,77.961,115.856z M77.961,51.535c-1.381,0-2.5-1.119-2.5-2.5v-6c0-1.381,1.119-2.5,2.5-2.5
			s2.5,1.119,2.5,2.5v6C80.461,50.415,79.342,51.535,77.961,51.535z"/>
		<path fill="#7D7B79" d="M189.587,123.166h-20.924V36.339c0-2.761,2.239-5,5-5h10.924c2.761,0,5,2.239,5,5V123.166z"/>
		<path fill="#EFEFEF" d="M180.211,115.856c-1.381,0-2.5-1.119-2.5-2.5V59.035c0-1.381,1.119-2.5,2.5-2.5s2.5,1.119,2.5,2.5v54.321
			C182.711,114.737,181.592,115.856,180.211,115.856z M180.211,51.535c-1.381,0-2.5-1.119-2.5-2.5v-6c0-1.381,1.119-2.5,2.5-2.5
			s2.5,1.119,2.5,2.5v6C182.711,50.415,181.592,51.535,180.211,51.535z"/>
		<path fill="#EFEFEF" d="M130.106,161.477H81.341c-2.761,0-5-2.239-5-5v-11.392c0-2.761,2.239-5,5-5h48.765c2.761,0,5,2.239,5,5
			v11.392C135.106,159.239,132.868,161.477,130.106,161.477z"/>
		<rect x="118.101" y="197.799" fill="#7D7B79" width="18.953" height="54.411"/>
		<rect x="118.101" y="197.801" fill="#4C4944" width="18.95" height="9.475"/>
		<path fill="#7D7B79" d="M179.935,17.65H76.065V8.96c0-2.761,2.239-5,5-5h93.869c2.761,0,5,2.239,5,5V17.65z"/>
		<rect x="71.151" y="178.851" fill="#7D7B79" width="113.699" height="18.95"/>
		<polygon fill="#7D7B79" points="99.78,197.799 98.108,207.281 90.176,252.21 71.244,252.21 79.166,207.281 80.838,197.799 		"/>
		<polygon fill="#4C4944" points="80.836,197.801 99.785,197.801 98.115,207.276 79.166,207.276 		"/>
		<polygon fill="#7D7B79" points="184.756,252.21 165.824,252.21 157.892,207.281 156.22,197.799 175.162,197.799 176.834,207.281 
					"/>
		<polygon fill="#4C4944" points="175.164,197.801 156.215,197.801 157.885,207.276 176.834,207.276 		"/>
		<g>
			<path d="M207.619,97.837c0.597,2.569,4.257,2.569,4.854,0c1.659-7.153,3.971-7.917,7.47-9.073c2.271-0.75,2.276-3.98,0-4.732
				c-3.271-1.072-5.779-1.789-7.471-9.073c-0.595-2.564-4.26-2.557-4.853,0c-1.661,7.154-3.972,7.917-7.47,9.073
				c-2.271,0.75-2.276,3.979,0,4.731C205.959,90.684,206.62,93.529,207.619,97.837z M210.054,82.672
				c0.989,1.715,2.098,2.893,3.245,3.746c-1.191,0.869-2.268,2.011-3.21,3.615c-0.797-1.285-1.876-2.501-3.401-3.581
				C207.943,85.559,209.073,84.371,210.054,82.672z"/>
			<path d="M52.494,184.354c-3.271-1.072-5.779-1.789-7.471-9.073c-0.595-2.564-4.26-2.557-4.853,0
				c-1.661,7.154-3.972,7.917-7.47,9.073c-2.271,0.75-2.276,3.979,0,4.731c5.81,1.921,6.471,4.766,7.47,9.073
				c0.597,2.569,4.257,2.569,4.854,0c1.659-7.153,3.971-7.917,7.47-9.073C54.765,188.336,54.77,185.106,52.494,184.354z
				 M42.64,190.355c-0.797-1.285-1.876-2.501-3.401-3.581c1.254-0.894,2.384-2.081,3.366-3.78c0.989,1.715,2.098,2.892,3.245,3.746
				C44.66,187.609,43.583,188.752,42.64,190.355z"/>
			<path d="M223.3,124.354c-3.271-1.072-5.779-1.789-7.471-9.073c-0.594-2.564-4.26-2.557-4.853,0
				c-1.661,7.154-3.972,7.917-7.47,9.073c-2.271,0.75-2.276,3.979,0,4.731c5.81,1.921,6.471,4.766,7.47,9.073
				c0.597,2.569,4.258,2.569,4.854,0c1.659-7.153,3.971-7.917,7.47-9.073C225.571,128.336,225.576,125.106,223.3,124.354z
				 M213.447,130.355c-0.797-1.285-1.876-2.501-3.401-3.581c1.254-0.894,2.384-2.081,3.366-3.78
				c0.989,1.715,2.098,2.892,3.245,3.746C215.466,127.609,214.389,128.752,213.447,130.355z"/>
			<path d="M128.297,58.359c-10.14,0-18.39,8.25-18.39,18.39s8.25,18.39,18.39,18.39s18.39-8.25,18.39-18.39
				S138.437,58.359,128.297,58.359z M128.297,90.138c-7.383,0-13.39-6.007-13.39-13.39s6.007-13.39,13.39-13.39
				s13.39,6.007,13.39,13.39S135.68,90.138,128.297,90.138z"/>
			<path d="M157.499,142.582h-1.505c-1.381,0-2.5,1.119-2.5,2.5s1.119,2.5,2.5,2.5h1.505c1.381,0,2.5-1.119,2.5-2.5
				S158.88,142.582,157.499,142.582z"/>
			<path d="M168.579,142.582h-1.505c-1.381,0-2.5,1.119-2.5,2.5s1.119,2.5,2.5,2.5h1.505c1.381,0,2.5-1.119,2.5-2.5
				S169.96,142.582,168.579,142.582z"/>
			<path d="M179.659,142.582h-1.505c-1.381,0-2.5,1.119-2.5,2.5s1.119,2.5,2.5,2.5h1.505c1.381,0,2.5-1.119,2.5-2.5
				S181.04,142.582,179.659,142.582z"/>
			<path d="M157.499,153.981h-1.505c-1.381,0-2.5,1.119-2.5,2.5s1.119,2.5,2.5,2.5h1.505c1.381,0,2.5-1.119,2.5-2.5
				S158.88,153.981,157.499,153.981z"/>
			<path d="M168.579,153.981h-1.505c-1.381,0-2.5,1.119-2.5,2.5s1.119,2.5,2.5,2.5h1.505c1.381,0,2.5-1.119,2.5-2.5
				S169.96,153.981,168.579,153.981z"/>
			<path d="M179.659,153.981h-1.505c-1.381,0-2.5,1.119-2.5,2.5s1.119,2.5,2.5,2.5h1.505c1.381,0,2.5-1.119,2.5-2.5
				S181.04,153.981,179.659,153.981z"/>
			<path d="M130.106,137.585H81.341c-4.136,0-7.5,3.364-7.5,7.5v11.392c0,4.136,3.364,7.5,7.5,7.5h48.766c4.136,0,7.5-3.364,7.5-7.5
				v-11.392C137.606,140.95,134.242,137.585,130.106,137.585z M132.606,156.477c0,1.379-1.121,2.5-2.5,2.5H81.341
				c-1.379,0-2.5-1.121-2.5-2.5v-11.392c0-1.379,1.121-2.5,2.5-2.5h48.766c1.379,0,2.5,1.121,2.5,2.5V156.477z"/>
			<path d="M125.709,148.282H87.38c-1.381,0-2.5,1.119-2.5,2.5s1.119,2.5,2.5,2.5h38.329c1.381,0,2.5-1.119,2.5-2.5
				S127.09,148.282,125.709,148.282z"/>
			<path d="M192.087,120.792V36.338c0-4.136-3.364-7.5-7.5-7.5h-2.152c0-15.694,0-9.063,0-18.956c0-5.746-3.465-8.422-8.422-8.422
				c-10.929,0-81.339,0-92.947,0c-4.136,0-7.5,3.364-7.5,7.5c0,6.663,0,12.56,0,19.878h-2.152c-4.136,0-7.5,3.364-7.5,7.5v84.454
				c-3.981,0.668-7.027,4.129-7.027,8.296v43.387c0,4.644,3.778,8.422,8.422,8.422h3.343v16.904c0,1.381,1.119,2.5,2.5,2.5h6.708
				l-9.076,51.475c-0.27,1.528,0.903,2.935,2.465,2.935c1.19,0,2.245-0.854,2.459-2.065l9.229-52.344H96.8l-9.086,51.475
				c-0.24,1.359,0.668,2.656,2.027,2.896c1.365,0.245,2.657-0.667,2.896-2.027l9.239-52.344H115.6v51.904c0,1.38,1.12,2.5,2.5,2.5
				s2.5-1.12,2.5-2.5v-51.904h13.95v51.904c0,1.38,1.12,2.5,2.5,2.5s2.51-1.12,2.51-2.5l-0.01-0.011v-51.894h14.573l9.239,52.344
				c0.24,1.36,1.543,2.272,2.896,2.027c1.359-0.24,2.268-1.537,2.027-2.896l-9.086-51.475h13.865l9.229,52.344
				c0.243,1.378,1.56,2.266,2.896,2.027c1.359-0.239,2.268-1.536,2.027-2.896l-9.076-51.475h6.708c1.381,0,2.5-1.119,2.5-2.5
				v-16.904h3.343c4.644,0,8.422-3.778,8.422-8.422v-43.387C199.114,124.921,196.068,121.46,192.087,120.792z M184.587,33.838
				c1.379,0,2.5,1.121,2.5,2.5v84.328h-15.924V95.691V57.077V36.338c0-1.379,1.121-2.5,2.5-2.5H184.587z M78.565,9.882
				c0-1.887,1.535-3.422,3.422-3.422h92.025c1.887,0,3.422,1.535,3.422,3.422v5.268H78.565V9.882z M78.565,20.15h98.869v8.688
				h-3.771c-4.136,0-7.5,3.364-7.5,7.5v8.514c-3.179-3.25-7.605-5.276-12.5-5.276h-51.326c-4.895,0-9.321,2.026-12.5,5.276v-8.514
				c0-4.136-3.364-7.5-7.5-7.5h-3.771V20.15z M153.663,108.191h-51.326c-6.893,0-12.5-5.607-12.5-12.5V57.077
				c0-6.893,5.607-12.5,12.5-12.5h51.326c6.893,0,12.5,5.607,12.5,12.5v38.614C166.163,102.583,160.556,108.191,153.663,108.191z
				 M166.163,107.915v12.752H89.837v-12.752c3.179,3.25,7.605,5.276,12.5,5.276h51.326
				C158.558,113.191,162.984,111.165,166.163,107.915z M68.913,36.338c0-1.379,1.121-2.5,2.5-2.5h10.924c1.379,0,2.5,1.121,2.5,2.5
				v20.738v38.614v24.976H68.913V36.338z M182.35,195.301c-3.231,0-111.666,0-108.486,0c-0.073,0-0.14,0-0.213,0v-13.95H182.35
				V195.301z M194.114,172.475c0,1.887-1.535,3.422-3.422,3.422H65.308c-1.887,0-3.422-1.535-3.422-3.422v-43.387
				c0-1.887,1.535-3.422,3.422-3.422c6.059,0,119.035,0,125.385,0c1.887,0,3.422,1.535,3.422,3.422V172.475z"/>
		</g>
	</g>
</g>
</svg>
