<?xml version="1.0" encoding="UTF-8"?>
<!DOCTYPE svg PUBLIC "-//W3C//DTD SVG 1.1//EN" "http://www.w3.org/Graphics/SVG/1.1/DTD/svg11.dtd">
<!-- Creator: CorelDRAW -->
<svg xmlns="http://www.w3.org/2000/svg" xml:space="preserve" width="2048px" height="2048px" style="shape-rendering:geometricPrecision; text-rendering:geometricPrecision; image-rendering:optimizeQuality; fill-rule:evenodd; clip-rule:evenodd"
viewBox="0 0 2048 2048"
 xmlns:xlink="http://www.w3.org/1999/xlink">
 <defs>
  <style type="text/css">
   <![CDATA[
    .fil0 {fill:none}
    .fil1 {fill:#212121;fill-rule:nonzero}
    .fil2 {fill:#66BB6A;fill-rule:nonzero}
   ]]>
  </style>
 </defs>
 <g id="Layer_x0020_1">
  <metadata id="CorelCorpID_0Corel-Layer"/>
  <rect class="fil0" width="2048" height="2048"/>
  <g id="_323225104">
   <path id="_323230432" class="fil1" d="M1563.86 1487.82c63.1028,-57.5422 104.146,-114.023 129.199,-178.623 25.3169,-65.2831 34.9382,-140.374 34.9382,-234.345 0,-147.026 -48.1772,-288.008 -130.837,-398.561 -79.9796,-106.969 -192.121,-185.278 -323.814,-212.532 -14.1354,-2.92441 -27.078,-4.32402 -38.8654,-4.32402l0 0.125197c-30.2185,0 -53.4626,9.21497 -70.3052,25.3134 -17.8311,17.0445 -29.7343,42.3555 -36.1288,73.2508 -3.68977,17.8358 -5.49331,37.8083 -5.49331,59.426l-0.125197 0 -0.0011811 719.258 0.125197 0c0,67.4445 12.1169,119.319 32.7036,157.836 23.2925,43.5803 57.952,70.4067 98.1024,83.576 41.9563,13.7634 90.2623,13.2106 138.588,1.60276 61.878,-14.863 123.347,-47.7154 171.913,-92.002zm188.698 -155.622c-28.8449,74.3788 -75.1241,138.519 -145.699,202.873 -56.1934,51.2422 -127.765,89.3623 -200.163,106.752 -59.4189,14.2713 -119.663,14.6728 -173.088,-2.85236 -55.2296,-18.1158 -102.8,-54.8245 -134.603,-114.327 -25.4646,-47.6445 -40.454,-109.574 -40.454,-187.836l0.125197 0 0.0011811 -719.258 -0.125197 0c0,-25.2284 2.29606,-49.4646 6.99567,-72.1772 9.00591,-43.5177 26.961,-80.3044 54.6272,-106.749 28.6547,-27.3898 66.554,-43.0654 114.306,-43.0654l0 0.125197c16.1835,-0.0011811 33.3886,1.80473 51.6166,5.57599 147.959,30.6201 273.385,117.843 362.313,236.78 90.7158,121.326 143.588,275.847 143.588,436.812 0,101.392 -10.8614,183.651 -39.4406,257.346z"/>
   <path id="_323226232" class="fil2" d="M1510.8 626.436c-17.2713,19.9961 -27.7146,36.4323 -33.9213,51.287 -8.82166,21.1134 -9.3756,41.1603 -9.50906,64.8709 -0.034252,6.22914 1.22835,16.5142 2.62559,27.8929 5.99528,48.7961 14.0291,114.187 -42.3307,170.545 -12.4949,12.4949 -32.7555,12.4949 -45.2504,0 -12.4949,-12.4949 -12.4949,-32.7555 0,-45.2504 34.3063,-34.3063 28.4504,-81.9745 24.0803,-117.545 -1.54488,-12.5858 -2.94213,-23.961 -2.87599,-35.8937 0.174803,-30.9638 0.986221,-57.3556 14.2595,-89.1213 8.62914,-20.6516 22.35,-42.6071 44.5028,-68.3115 16.9063,12.8244 33.065,26.7024 48.4193,41.5252z"/>
   <path id="_323224216" class="fil2" d="M1154.43 739.882c22.8744,27.1075 37.9028,21.3874 52.415,15.8516 24.3957,-9.30591 48.1618,-18.3721 80.3835,-0.0578741 27.9756,15.8988 41.4591,44.1638 46.3689,75.5575 5.91142,37.7988 -1.20709,81.2812 -8.67402,106.963 -4.9004,16.9134 -22.5862,26.6504 -39.4996,21.75 -16.9134,-4.9004 -26.6504,-22.5862 -21.75,-39.4996 5.68819,-19.5626 11.1886,-52.1894 6.92363,-79.4623 -2.13071,-13.6264 -6.60473,-25.1126 -14.8689,-29.8087 -5.95985,-3.3874 -15.9165,0.409843 -26.1331,4.30748 -23.6563,9.02481 -47.9174,18.2752 -75.1654,7.37363l0 -82.9749z"/>
   <path id="_323224744" class="fil2" d="M1695.54 1050.68c-18.9047,-33.8918 -43.3335,-68.9493 -68.8347,-72.3201 -29.0162,-3.83622 -41.2961,26.0303 -55.1256,59.6658 -21.078,51.2717 -44.4532,108.122 -117.312,127.329 -17.0516,4.48701 -34.513,-5.69882 -39,-22.7504 -4.48701,-17.0516 5.69882,-34.513 22.7504,-39 42.2032,-11.1248 59.2182,-52.5083 74.5607,-89.8288 23.7213,-57.6969 44.7851,-108.924 122.378,-98.6658 16.5213,2.18386 31.5733,8.75788 45.2575,18.1725 8.67638,38.5453 13.8307,77.8949 15.326,117.398z"/>
   <path id="_323222992" class="fil2" d="M1509.01 1129.98c-16.5685,-5.93623 -25.1858,-24.1819 -19.2496,-40.7504 5.93623,-16.5685 24.1819,-25.1858 40.7504,-19.2496 18.5516,6.68504 53.5134,19.5732 79.9973,44.6811 30.6189,29.0244 48.9178,70.7434 22.4386,130.013 -8.50512,19.037 -26.7874,38.3209 -47.1697,50.7945 -20.3729,12.4677 -44.2311,19.1327 -65.6268,14.2536 -17.1898,-3.86575 -27.991,-20.9362 -24.1252,-38.126 3.86575,-17.1898 20.9362,-27.991 38.126,-24.1252 3.91418,0.892914 10.9205,-1.94055 18.3756,-6.50315 10.1669,-6.22205 18.7866,-14.7201 22.1705,-22.2945 12.1748,-27.2516 4.73741,-45.5091 -8.18977,-57.763 -17.0587,-16.1717 -43.4599,-25.8721 -57.4973,-30.9307z"/>
   <path id="_323227120" class="fil2" d="M1405.35 697.47c14.2902,-10.3547 34.2709,-7.16457 44.6256,7.1256 10.3547,14.2902 7.16457,34.2709 -7.1256,44.6256 -9.17599,6.6626 -19.4528,11.9787 -30.3284,15.9036 -21.8516,7.88741 -45.5752,9.58111 -67.0819,4.85906 -23.2654,-5.10945 -44.3185,-17.4685 -58.7646,-37.363 -4.8815,-6.72402 -9.00591,-14.4898 -12.1937,-23.3185 -2.4626,-6.82678 -4.95473,-14.9055 -7.07953,-26.1709 -2.00788,-10.6441 -3.76654,-24.3213 -4.98071,-42.8729 -1.10433,-17.6043 12.2717,-32.7709 29.876,-33.8752 17.6043,-1.10433 32.7709,12.2717 33.8752,29.876 1.03347,15.802 2.42835,26.8984 3.97914,35.1225 1.43386,7.6004 2.91378,12.4925 4.32992,16.4197 0.921261,2.55118 2.26181,5.00079 3.94488,7.3193 4.64055,6.39095 12.0295,10.5012 20.5134,12.3638 10.2449,2.24882 21.5906,1.42677 32.0811,-2.35984 4.88622,-1.76339 9.73229,-4.31693 14.3291,-7.65473z"/>
   <path id="_323229904" class="fil2" d="M1327.48 1163.3c-0.62126,17.6043 -15.3969,31.3713 -33.0012,30.75 -17.6043,-0.62126 -31.3713,-15.3969 -30.75,-33.0012 0.354331,-9.15355 -0.670867,-18.3614 -2.87953,-27.2799 -4.49174,-18.1299 -13.8319,-34.6217 -26.3658,-46.6607 -11.4154,-10.9665 -25.3666,-18.0095 -40.2803,-18.587 -5.07993,-0.196063 -10.4161,0.34252 -15.9591,1.71496 -6.30827,1.5626 -13.7114,3.78425 -23.8087,8.01497l0 -67.7162c3.01536,-0.878741 5.85119,-1.62874 8.55827,-2.29961 11.3114,-2.80158 22.5118,-3.88937 33.4607,-3.46536 31.6736,1.22835 60.0544,14.987 82.2804,36.339 21.111,20.2784 36.7382,47.6363 44.1154,77.4095 3.57284,14.4225 5.22166,29.5276 4.62992,44.7815z"/>
   <path id="_323224384" class="fil2" d="M1393.33 1244.1c12.7016,-12.2185 32.9067,-11.8276 45.1252,0.874016 12.2185,12.7016 11.8276,32.9067 -0.874016,45.1252 -38.074,36.8055 -57.2811,63.0225 -66.7111,85.5922 -8.82166,21.1134 -9.3756,41.1603 -9.50906,64.8709 -0.034252,6.22914 1.22835,16.5142 2.62559,27.8929 3.05433,24.8563 6.63071,54.0189 1.96299,84.0981 -21.9284,3.82559 -44.726,5.19685 -66.9154,2.80512 7.88386,-26.7626 4.3441,-55.6075 1.45158,-79.1528 -1.54488,-12.5858 -2.94213,-23.961 -2.87599,-35.8937 0.174803,-30.9638 0.986221,-57.3556 14.2595,-89.1213 12.665,-30.3118 36.2929,-63.4276 81.4607,-107.091z"/>
   <path id="_323227600" class="fil2" d="M1299.35 1395.44c14.2902,-10.3547 34.2709,-7.16457 44.6256,7.1256 10.3547,14.2902 7.16457,34.2709 -7.1256,44.6256 -9.17599,6.6626 -19.4528,11.9787 -30.3284,15.9036 -21.854,7.88859 -45.5764,9.58111 -67.0831,4.85906 -23.2642,-5.10945 -44.3185,-17.4697 -58.7646,-37.363 -4.88386,-6.72638 -9.00827,-14.4886 -12.1937,-23.3185 -2.4626,-6.8256 -4.95473,-14.9043 -7.07953,-26.1709 -2.00788,-10.6441 -3.76654,-24.3189 -4.98071,-42.8729 -1.10433,-17.6043 12.2717,-32.7709 29.876,-33.8752 17.6043,-1.10433 32.7709,12.2717 33.8752,29.876 1.03347,15.8032 2.42835,26.8984 3.97914,35.1225 1.43386,7.6004 2.91378,12.4937 4.32992,16.4197 0.920079,2.55118 2.26063,4.99961 3.94488,7.3193 4.64055,6.39095 12.0307,10.5012 20.5134,12.3638 10.2449,2.24882 21.5906,1.42677 32.0823,-2.35984 4.88622,-1.76339 9.73347,-4.31811 14.3291,-7.65473z"/>
   <path id="_323224552" class="fil2" d="M1478.2 1420.77c-16.5685,-5.93623 -25.1858,-24.1819 -19.2496,-40.7504 5.93623,-16.5685 24.1819,-25.1858 40.7504,-19.2496 1.71142,0.616536 1.95118,0.66378 5.76142,1.99606 8.77205,3.06614 19.9902,6.98859 32.2666,12.4736 19.565,8.74016 40.1256,20.4626 55.7752,36.6095 -14.3445,16.7291 -29.9244,32.6292 -46.4764,47.9882 -8.03032,-12.1299 -22.1729,-20.4839 -35.2996,-26.3481 -9.67914,-4.3252 -19.5484,-7.77638 -27.2658,-10.4728 -0.537402,-0.187795 -0.907087,-0.316536 -6.26221,-2.24646z"/>
  </g>
  <g id="_323230048">
   <path id="_323230264" class="fil1" d="M484.137 1487.82c-63.1028,-57.5422 -104.146,-114.023 -129.199,-178.623 -25.3169,-65.2831 -34.9382,-140.374 -34.9382,-234.345 0,-147.026 48.1772,-288.008 130.837,-398.561 79.9796,-106.969 192.121,-185.278 323.814,-212.532 14.1354,-2.92441 27.078,-4.32402 38.8654,-4.32402l0 0.125197c30.2185,0 53.4626,9.21497 70.3052,25.3134 17.8311,17.0445 29.7343,42.3555 36.1288,73.2508 3.68977,17.8358 5.49331,37.8083 5.49331,59.426l0.125197 0 0.0011811 719.258 -0.125197 0c0,67.4445 -12.1169,119.319 -32.7036,157.836 -23.2925,43.5803 -57.952,70.4067 -98.1024,83.576 -41.9563,13.7634 -90.2623,13.2106 -138.588,1.60276 -61.878,-14.863 -123.347,-47.7154 -171.913,-92.002zm-188.698 -155.622c28.8449,74.3788 75.1241,138.519 145.699,202.873 56.1934,51.2422 127.765,89.3623 200.163,106.752 59.4189,14.2713 119.663,14.6728 173.088,-2.85236 55.2296,-18.1158 102.8,-54.8245 134.603,-114.327 25.4646,-47.6445 40.454,-109.574 40.454,-187.836l-0.125197 0 -0.0011811 -719.258 0.125197 0c0,-25.2284 -2.29606,-49.4646 -6.99567,-72.1772 -9.00591,-43.5177 -26.961,-80.3044 -54.6272,-106.749 -28.6547,-27.3898 -66.554,-43.0654 -114.306,-43.0654l0 0.125197c-16.1835,-0.0011811 -33.3886,1.80473 -51.6166,5.57599 -147.959,30.6201 -273.385,117.843 -362.313,236.78 -90.7158,121.326 -143.588,275.847 -143.588,436.812 0,101.392 10.8614,183.651 39.4406,257.346z"/>
   <path id="_323226208" class="fil2" d="M537.2 626.436c17.2713,19.9961 27.7146,36.4323 33.9213,51.287 8.82166,21.1134 9.3756,41.1603 9.50906,64.8709 0.034252,6.22914 -1.22835,16.5142 -2.62559,27.8929 -5.99528,48.7961 -14.0291,114.187 42.3307,170.545 12.4949,12.4949 32.7555,12.4949 45.2504,0 12.4949,-12.4949 12.4949,-32.7555 0,-45.2504 -34.3063,-34.3063 -28.4504,-81.9745 -24.0803,-117.545 1.54488,-12.5858 2.94213,-23.961 2.87599,-35.8937 -0.174803,-30.9638 -0.986221,-57.3556 -14.2595,-89.1213 -8.62914,-20.6516 -22.35,-42.6071 -44.5028,-68.3115 -16.9063,12.8244 -33.065,26.7024 -48.4193,41.5252z"/>
   <path id="_323229928" class="fil2" d="M893.568 739.882c-22.8744,27.1075 -37.9028,21.3874 -52.415,15.8516 -24.3957,-9.30591 -48.1618,-18.3721 -80.3835,-0.0578741 -27.9756,15.8988 -41.4591,44.1638 -46.3689,75.5575 -5.91142,37.7988 1.20709,81.2812 8.67402,106.963 4.9004,16.9134 22.5862,26.6504 39.4996,21.75 16.9134,-4.9004 26.6504,-22.5862 21.75,-39.4996 -5.68819,-19.5626 -11.1886,-52.1894 -6.92363,-79.4623 2.13071,-13.6264 6.60473,-25.1126 14.8689,-29.8087 5.95985,-3.3874 15.9165,0.409843 26.1331,4.30748 23.6563,9.02481 47.9174,18.2752 75.1654,7.37363l0 -82.9749z"/>
   <path id="_323224312" class="fil2" d="M352.462 1050.68c18.9047,-33.8918 43.3335,-68.9493 68.8347,-72.3201 29.0162,-3.83622 41.2961,26.0303 55.1256,59.6658 21.078,51.2717 44.4532,108.122 117.312,127.329 17.0516,4.48701 34.513,-5.69882 39,-22.7504 4.48701,-17.0516 -5.69882,-34.513 -22.7504,-39 -42.2032,-11.1248 -59.2182,-52.5083 -74.5607,-89.8288 -23.7213,-57.6969 -44.7851,-108.924 -122.378,-98.6658 -16.5213,2.18386 -31.5733,8.75788 -45.2575,18.1725 -8.67638,38.5453 -13.8307,77.8949 -15.326,117.398z"/>
   <path id="_323226376" class="fil2" d="M538.991 1129.98c16.5685,-5.93623 25.1858,-24.1819 19.2496,-40.7504 -5.93623,-16.5685 -24.1819,-25.1858 -40.7504,-19.2496 -18.5516,6.68504 -53.5134,19.5732 -79.9973,44.6811 -30.6189,29.0244 -48.9178,70.7434 -22.4386,130.013 8.50512,19.037 26.7874,38.3209 47.1697,50.7945 20.3729,12.4677 44.2311,19.1327 65.6268,14.2536 17.1898,-3.86575 27.991,-20.9362 24.1252,-38.126 -3.86575,-17.1898 -20.9362,-27.991 -38.126,-24.1252 -3.91418,0.892914 -10.9205,-1.94055 -18.3756,-6.50315 -10.1669,-6.22205 -18.7866,-14.7201 -22.1705,-22.2945 -12.1748,-27.2516 -4.73741,-45.5091 8.18977,-57.763 17.0587,-16.1717 43.4599,-25.8721 57.4973,-30.9307z"/>
   <path id="_323222440" class="fil2" d="M642.647 697.47c-14.2902,-10.3547 -34.2709,-7.16457 -44.6256,7.1256 -10.3547,14.2902 -7.16457,34.2709 7.1256,44.6256 9.17599,6.6626 19.4528,11.9787 30.3284,15.9036 21.8516,7.88741 45.5752,9.58111 67.0819,4.85906 23.2654,-5.10945 44.3185,-17.4685 58.7646,-37.363 4.8815,-6.72402 9.00591,-14.4898 12.1937,-23.3185 2.4626,-6.82678 4.95473,-14.9055 7.07953,-26.1709 2.00788,-10.6441 3.76654,-24.3213 4.98071,-42.8729 1.10433,-17.6043 -12.2717,-32.7709 -29.876,-33.8752 -17.6043,-1.10433 -32.7709,12.2717 -33.8752,29.876 -1.03347,15.802 -2.42835,26.8984 -3.97914,35.1225 -1.43386,7.6004 -2.91378,12.4925 -4.32992,16.4197 -0.921261,2.55118 -2.26181,5.00079 -3.94488,7.3193 -4.64055,6.39095 -12.0295,10.5012 -20.5134,12.3638 -10.2449,2.24882 -21.5906,1.42677 -32.0811,-2.35984 -4.88622,-1.76339 -9.73229,-4.31693 -14.3291,-7.65473z"/>
   <path id="_323224480" class="fil2" d="M720.525 1163.3c0.62126,17.6043 15.3969,31.3713 33.0012,30.75 17.6043,-0.62126 31.3713,-15.3969 30.75,-33.0012 -0.354331,-9.15355 0.670867,-18.3614 2.87953,-27.2799 4.49174,-18.1299 13.8319,-34.6217 26.3658,-46.6607 11.4154,-10.9665 25.3666,-18.0095 40.2803,-18.587 5.07993,-0.196063 10.4161,0.34252 15.9591,1.71496 6.30827,1.5626 13.7114,3.78425 23.8087,8.01497l0 -67.7162c-3.01536,-0.878741 -5.85119,-1.62874 -8.55827,-2.29961 -11.3114,-2.80158 -22.5118,-3.88937 -33.4607,-3.46536 -31.6736,1.22835 -60.0544,14.987 -82.2804,36.339 -21.111,20.2784 -36.7382,47.6363 -44.1154,77.4095 -3.57284,14.4225 -5.22166,29.5276 -4.62992,44.7815z"/>
   <path id="_323224000" class="fil2" d="M654.669 1244.1c-12.7016,-12.2185 -32.9067,-11.8276 -45.1252,0.874016 -12.2185,12.7016 -11.8276,32.9067 0.874016,45.1252 38.074,36.8055 57.2811,63.0225 66.7111,85.5922 8.82166,21.1134 9.3756,41.1603 9.50906,64.8709 0.034252,6.22914 -1.22835,16.5142 -2.62559,27.8929 -3.05433,24.8563 -6.63071,54.0189 -1.96299,84.0981 21.9284,3.82559 44.726,5.19685 66.9154,2.80512 -7.88386,-26.7626 -4.3441,-55.6075 -1.45158,-79.1528 1.54488,-12.5858 2.94213,-23.961 2.87599,-35.8937 -0.174803,-30.9638 -0.986221,-57.3556 -14.2595,-89.1213 -12.665,-30.3118 -36.2929,-63.4276 -81.4607,-107.091z"/>
   <path id="_323227840" class="fil2" d="M748.653 1395.44c-14.2902,-10.3547 -34.2709,-7.16457 -44.6256,7.1256 -10.3547,14.2902 -7.16457,34.2709 7.1256,44.6256 9.17599,6.6626 19.4528,11.9787 30.3284,15.9036 21.854,7.88859 45.5764,9.58111 67.0831,4.85906 23.2642,-5.10945 44.3185,-17.4697 58.7646,-37.363 4.88386,-6.72638 9.00827,-14.4886 12.1937,-23.3185 2.4626,-6.8256 4.95473,-14.9043 7.07953,-26.1709 2.00788,-10.6441 3.76654,-24.3189 4.98071,-42.8729 1.10433,-17.6043 -12.2717,-32.7709 -29.876,-33.8752 -17.6043,-1.10433 -32.7709,12.2717 -33.8752,29.876 -1.03347,15.8032 -2.42835,26.8984 -3.97914,35.1225 -1.43386,7.6004 -2.91378,12.4937 -4.32992,16.4197 -0.920079,2.55118 -2.26063,4.99961 -3.94488,7.3193 -4.64055,6.39095 -12.0307,10.5012 -20.5134,12.3638 -10.2449,2.24882 -21.5906,1.42677 -32.0823,-2.35984 -4.88622,-1.76339 -9.73347,-4.31811 -14.3291,-7.65473z"/>
   <path id="_323225080" class="fil2" d="M569.803 1420.77c16.5685,-5.93623 25.1858,-24.1819 19.2496,-40.7504 -5.93623,-16.5685 -24.1819,-25.1858 -40.7504,-19.2496 -1.71142,0.616536 -1.95118,0.66378 -5.76142,1.99606 -8.77205,3.06614 -19.9902,6.98859 -32.2666,12.4736 -19.565,8.74016 -40.1256,20.4626 -55.7752,36.6095 14.3445,16.7291 29.9244,32.6292 46.4764,47.9882 8.03032,-12.1299 22.1729,-20.4839 35.2996,-26.3481 9.67914,-4.3252 19.5484,-7.77638 27.2658,-10.4728 0.537402,-0.187795 0.907087,-0.316536 6.26221,-2.24646z"/>
  </g>
 </g>
</svg>
