<?xml version="1.0" encoding="utf-8"?>
<!-- Generator: Adobe Illustrator 24.0.0, SVG Export Plug-In . SVG Version: 6.00 Build 0)  -->
<svg version="1.1" xmlns="http://www.w3.org/2000/svg" xmlns:xlink="http://www.w3.org/1999/xlink" x="0px" y="0px"
	 viewBox="0 0 256 256" enable-background="new 0 0 256 256" xml:space="preserve">
<g id="Layer_2" display="none">
	<rect x="-92" y="-2136" display="inline" fill="#FFFFFF" width="1786" height="5896"/>
</g>
<g id="Layer_1">
	<g>
		<path fill="#F0C020" d="M61.147,85.492C57.646,84.335,54.03,83.323,52,74.578c-1.87,8.055-4.865,9.498-9.147,10.913
			C49.836,87.799,50.89,91.62,52,96.405C53.913,88.157,57.079,86.836,61.147,85.492z"/>
		<path fill="#F0C020" d="M204.432,29.492c-3.501-1.157-7.117-2.168-9.147-10.913c-1.87,8.055-4.865,9.498-9.147,10.913
			c6.984,2.308,8.037,6.129,9.147,10.913C197.198,32.157,200.363,30.836,204.432,29.492z"/>
		<path fill="#F0C020" d="M213.147,61.492c-3.501-1.157-7.117-2.168-9.147-10.913c-1.87,8.055-4.865,9.498-9.147,10.913
			c6.984,2.308,8.037,6.129,9.147,10.913C205.913,64.157,209.079,62.836,213.147,61.492z"/>
		<path fill="#72C1E8" d="M178.642,112.086h-102c-2.761,0-5-2.239-5-5v-6c0-2.761,2.239-5,5-5h102c2.761,0,5,2.239,5,5v6
			C183.642,109.847,181.404,112.086,178.642,112.086z"/>
		<path fill="#F0C020" d="M167.261,96.086H88.023v-78c0-5.523,4.477-10,10-10h59.238c5.523,0,10,4.477,10,10V96.086z"/>
		<path fill="#F9E5AF" d="M159.261,90.586h-50c-1.381,0-2.5-1.119-2.5-2.5s1.119-2.5,2.5-2.5h47.5v-61.5c0-1.381,1.119-2.5,2.5-2.5
			s2.5,1.119,2.5,2.5v64C161.761,89.467,160.642,90.586,159.261,90.586z M99.261,90.586h-3.238c-1.381,0-2.5-1.119-2.5-2.5
			s1.119-2.5,2.5-2.5h3.238c1.381,0,2.5,1.119,2.5,2.5S100.642,90.586,99.261,90.586z"/>
		<circle fill="#7D7B79" cx="127.642" cy="52.657" r="25.016"/>
		<circle fill="#EFEFEF" cx="127.642" cy="52.554" r="12.468"/>
		<path fill="#72C1E8" d="M88,72.086H77c-2.761,0-5-2.239-5-5V38.229c0-2.761,2.239-5,5-5h11V72.086z"/>
		<path fill="#7D7B79" d="M135.64,112.086v33.6c-2.52,0.23-5.06,0.35-7.64,0.35c-2.82,0-5.61-0.14-8.36-0.41v-33.54H135.64z"/>
		<path fill="#7D7B79" d="M128,194.036c2.56,0,5.11-0.07,7.64-0.22v54.27h-16v-54.31C122.4,193.946,125.19,194.036,128,194.036z"/>
		<rect x="119.642" y="112.086" fill="#4C4944" width="16" height="8"/>
		<path fill="#7D7B79" d="M75.12,183.036c4.86,2.13,9.88,3.97,15.03,5.5l-10.51,59.55h-16L75.12,183.036z"/>
		<path fill="#7D7B79" d="M103.64,112.086l-1.41,8l-3.65,20.68c-5.17-1.92-10.1-4.33-14.73-7.17l2.38-13.51l1.41-8H103.64z"/>
		<path fill="#7D7B79" d="M171.5,133.986c-4.65,2.8-9.59,5.16-14.76,7.03l-3.69-20.93l-1.41-8h16l1.41,8L171.5,133.986z"/>
		<path fill="#7D7B79" d="M191.64,248.086h-16l-10.47-59.35c5.15-1.5,10.17-3.31,15.04-5.41L191.64,248.086z"/>
		<polygon fill="#4C4944" points="87.642,112.086 103.642,112.086 102.232,120.086 86.232,120.086 		"/>
		<polygon fill="#4C4944" points="169.052,120.086 153.052,120.086 151.642,112.086 167.642,112.086 		"/>
		<g>
			<path d="M42.069,87.865c5.831,1.927,6.493,4.782,7.496,9.104c0.599,2.578,4.272,2.578,4.871,0
				c1.665-7.178,3.985-7.944,7.496-9.104c2.279-0.753,2.284-3.994,0-4.748c-3.283-1.076-5.799-1.795-7.497-9.104
				c-0.597-2.573-4.275-2.566-4.87,0c-1.667,7.179-3.986,7.945-7.496,9.104C39.79,83.87,39.785,87.111,42.069,87.865z
				 M52.009,81.753c0.992,1.721,2.105,2.902,3.256,3.759c-1.195,0.872-2.275,2.018-3.221,3.627c-0.799-1.289-1.882-2.51-3.413-3.593
				C49.889,84.649,51.023,83.457,52.009,81.753z"/>
			<path d="M185.353,31.865c5.831,1.927,6.493,4.782,7.496,9.104c0.599,2.578,4.272,2.578,4.871,0
				c1.665-7.178,3.985-7.944,7.496-9.104c2.279-0.753,2.284-3.994,0-4.748c-3.283-1.076-5.799-1.795-7.497-9.104
				c-0.597-2.573-4.275-2.566-4.87,0c-1.667,7.179-3.986,7.945-7.496,9.104C183.075,27.87,183.069,31.111,185.353,31.865z
				 M195.293,25.753c0.992,1.721,2.105,2.902,3.256,3.759c-1.195,0.872-2.275,2.018-3.221,3.627
				c-0.799-1.289-1.882-2.51-3.413-3.593C193.174,28.649,194.308,27.457,195.293,25.753z"/>
			<path d="M201.565,50.013c-1.667,7.179-3.986,7.945-7.496,9.104c-2.279,0.753-2.284,3.993,0,4.748
				c5.831,1.927,6.493,4.782,7.496,9.104c0.599,2.578,4.272,2.578,4.871,0c1.665-7.178,3.985-7.944,7.496-9.104
				c2.279-0.753,2.284-3.994,0-4.748c-3.283-1.076-5.799-1.795-7.497-9.104C205.838,47.44,202.16,47.447,201.565,50.013z
				 M204.044,65.139c-0.799-1.289-1.882-2.51-3.413-3.593c1.258-0.897,2.392-2.088,3.377-3.793c0.992,1.721,2.105,2.902,3.256,3.759
				C206.07,62.384,204.99,63.53,204.044,65.139z"/>
			<path d="M76.642,114.586h8.019l-3.273,18.576c-0.24,1.36,0.668,2.656,2.028,2.896c1.358,0.241,2.656-0.667,2.896-2.028
				l3.426-19.443h10.923l-4.543,25.746c-0.24,1.36,0.667,2.657,2.027,2.896c1.365,0.24,2.657-0.671,2.896-2.027l4.696-26.615h11.402
				v31.04c0,1.38,1.12,2.5,2.5,2.5c1.38,0,2.5-1.12,2.5-2.5v-31.04h11v31.1c0,1.38,1.12,2.5,2.5,2.5c1.38,0,2.5-1.12,2.5-2.5v-31.1
				h11.403l4.736,26.864c0.239,1.355,1.531,2.268,2.896,2.028c1.36-0.24,2.268-1.536,2.028-2.896l-4.583-25.996h10.923l3.496,19.834
				c0.24,1.36,1.536,2.267,2.896,2.028c1.36-0.24,2.268-1.536,2.028-2.896l-3.343-18.966h8.023c4.136,0,7.5-3.364,7.5-7.5v-6
				c0-4.136-3.364-7.5-7.5-7.5h-8.882v-33.4c0-1.38-1.12-2.5-2.5-2.5s-2.5,1.12-2.5,2.5v33.4H90.52v-75.5
				c0.01-4.13,3.38-7.49,7.5-7.5h59.24c4.13,0.01,7.49,3.37,7.5,7.5v22.1c0,1.37,1.12,2.5,2.5,2.5s2.5-1.13,2.5-2.5v-22.1
				c0-6.89-5.61-12.5-12.5-12.5H98.02c-6.89,0-12.5,5.61-12.5,12.5v12.643H77c-4.136,0-7.5,3.364-7.5,7.5v28.857
				c0,4.136,3.364,7.5,7.5,7.5h8.52v19h-8.878c-4.136,0-7.5,3.364-7.5,7.5v6C69.142,111.222,72.506,114.586,76.642,114.586z
				 M85.5,69.586H77c-1.378,0-2.5-1.122-2.5-2.5V38.229c0-1.378,1.122-2.5,2.5-2.5h8.5V69.586z M74.142,101.086
				c0-1.378,1.122-2.5,2.5-2.5c12.27,0,90.255,0,102,0c1.378,0,2.5,1.122,2.5,2.5v6c0,1.378-1.122,2.5-2.5,2.5
				c-38.55,0-68.175,0-102,0c-1.378,0-2.5-1.122-2.5-2.5V101.086z"/>
			<circle cx="167.26" cy="50.186" r="2.5"/>
			<path d="M100.17,51.146c-0.943,15.254,11.293,29.03,27.47,29.03c15.2,0,27.52-12.31,27.52-27.52
				c0-15.144-12.237-27.51-27.53-27.51c-6.64,0-13.06,2.4-18.06,6.76c-1.059,0.932-1.137,2.51-0.24,3.53c0.87,1,2.52,1.11,3.52,0.24
				c4.1-3.57,9.35-5.53,14.79-5.53c12.39,0.02,22.5,10.12,22.52,22.51c-0.02,12.39-10.13,22.49-22.52,22.52
				c-12.649-0.03-23.122-10.612-22.48-23.76c0.07-1.38-0.99-2.56-2.36-2.63C101.41,48.716,100.24,49.776,100.17,51.146z"/>
			<path d="M104.06,43.916c1.181,0.574,2.707,0.152,3.35-1.15c0.6-1.24,0.09-2.74-1.15-3.34c-1.21-0.6-2.75-0.07-3.34,1.14
				C102.32,41.765,102.79,43.281,104.06,43.916z"/>
			<path d="M142.61,52.554c0-8.253-6.714-14.968-14.968-14.968c-8.253,0-14.967,6.714-14.967,14.968
				c0,8.253,6.714,14.967,14.967,14.967C135.896,67.521,142.61,60.807,142.61,52.554z M117.675,52.554
				c0-5.496,4.471-9.968,9.967-9.968s9.968,4.472,9.968,9.968s-4.472,9.967-9.968,9.967S117.675,58.05,117.675,52.554z"/>
			<path d="M135.64,191.316c-1.38,0-2.5,1.12-2.5,2.5v54.27c0,1.38,1.12,2.5,2.5,2.5c1.38,0,2.5-1.12,2.5-2.5v-54.27
				C138.14,192.436,137.02,191.316,135.64,191.316z"/>
			<path d="M119.64,191.276c-1.38,0-2.5,1.12-2.5,2.5v54.31c0,1.38,1.12,2.5,2.5,2.5c1.38,0,2.5-1.12,2.5-2.5v-54.31
				C122.14,192.396,121.02,191.276,119.64,191.276z"/>
			<path d="M182.672,182.892c-0.239-1.359-1.535-2.267-2.896-2.027c-1.36,0.24-2.268,1.537-2.027,2.896l11.43,64.76
				c0.214,1.213,1.269,2.066,2.459,2.066c0.144,0,0.291-0.013,0.438-0.039c1.36-0.24,2.268-1.537,2.027-2.896L182.672,182.892z"/>
			<path d="M167.632,188.301c-0.24-1.359-1.532-2.266-2.896-2.027c-1.359,0.24-2.267,1.537-2.027,2.896l10.47,59.35
				c0.214,1.212,1.269,2.066,2.459,2.066c0.144,0,0.291-0.013,0.437-0.039c1.36-0.24,2.268-1.537,2.028-2.896L167.632,188.301z"/>
			<path d="M90.584,186.074c-1.358-0.238-2.657,0.668-2.896,2.027l-10.51,59.55c-0.24,1.36,0.667,2.657,2.027,2.896
				c0.147,0.026,0.293,0.039,0.438,0.039c1.19,0,2.245-0.853,2.459-2.066l10.51-59.55C92.852,187.611,91.944,186.314,90.584,186.074
				z"/>
			<path d="M75.555,180.574c-1.36-0.238-2.656,0.668-2.896,2.027l-11.48,65.05c-0.24,1.36,0.668,2.657,2.027,2.896
				c0.147,0.026,0.293,0.039,0.438,0.039c1.19,0,2.245-0.854,2.459-2.066l11.48-65.05C77.822,182.111,76.914,180.814,75.555,180.574
				z"/>
			<path d="M245.835,58.672h-18.702c-1.381,0-2.5,1.119-2.5,2.5s1.119,2.5,2.5,2.5h7.05c-0.275,12.607-2.76,24.678-7.078,35.845
				l-6.561-2.718c-1.274-0.529-2.738,0.077-3.266,1.353c-0.528,1.275,0.077,2.738,1.353,3.266l6.56,2.718
				c-4.995,11.294-11.896,21.563-20.303,30.389l-5.023-5.023c-0.976-0.977-2.56-0.977-3.535,0c-0.977,0.976-0.977,2.559,0,3.535
				l5.025,5.026c-8.814,8.428-19.074,15.354-30.363,20.371l-2.85-6.882c-0.528-1.276-1.991-1.884-3.266-1.354
				c-1.276,0.527-1.882,1.99-1.354,3.266l2.855,6.894c-11.173,4.345-23.256,6.853-35.878,7.146v-7.47c0-1.381-1.119-2.5-2.5-2.5
				s-2.5,1.119-2.5,2.5v7.47c-12.622-0.293-24.704-2.801-35.878-7.146l2.855-6.894c0.528-1.276-0.079-2.738-1.354-3.266
				c-1.276-0.529-2.738,0.078-3.266,1.354l-2.85,6.882c-11.289-5.017-21.549-11.943-30.362-20.371l5.216-5.216
				c0.978-0.975,0.979-2.558,0.004-3.536s-2.558-0.98-3.536-0.004l-5.218,5.218c-8.407-8.826-15.308-19.095-20.303-30.389
				l6.811-2.821c1.276-0.527,1.882-1.99,1.354-3.266s-1.992-1.884-3.266-1.354l-6.814,2.823
				c-4.282-11.072-6.764-23.032-7.074-35.523h7.046c1.381,0,2.5-1.119,2.5-2.5s-1.119-2.5-2.5-2.5c-0.523,0-18.701,0-18.702,0
				c-1.381,0-2.5,1.119-2.5,2.5s1.119,2.5,2.5,2.5h6.656c0.312,13.168,2.928,25.774,7.453,37.437l-6.096,2.525
				c-1.276,0.528-1.881,1.991-1.353,3.266c0.532,1.284,2.002,1.878,3.266,1.353l6.098-2.526
				c5.25,11.904,12.522,22.723,21.388,32.011l-4.667,4.667c-0.977,0.976-0.977,2.559,0,3.535c0.976,0.977,2.56,0.977,3.535,0
				l4.665-4.665c9.275,8.888,20.084,16.184,31.983,21.457l-2.496,6.027c-0.528,1.275,0.077,2.738,1.353,3.266
				c1.27,0.527,2.737-0.073,3.266-1.353l2.492-6.016c11.764,4.588,24.493,7.229,37.792,7.524v6.504c0,1.381,1.119,2.5,2.5,2.5
				s2.5-1.119,2.5-2.5v-6.504c13.299-0.295,26.028-2.936,37.792-7.524l2.492,6.016c0.531,1.284,2.001,1.879,3.266,1.353
				c1.276-0.528,1.881-1.991,1.353-3.266l-2.496-6.027c11.899-5.273,22.708-12.569,31.983-21.457l4.665,4.665
				c0.976,0.977,2.56,0.977,3.535,0c0.977-0.976,0.977-2.559,0-3.535l-4.667-4.667c8.866-9.288,16.138-20.107,21.388-32.01
				l6.098,2.526c1.263,0.525,2.734-0.067,3.266-1.353c0.528-1.275-0.077-2.738-1.353-3.266l-6.096-2.525
				c4.562-11.757,7.18-24.475,7.457-37.759h6.652c1.381,0,2.5-1.119,2.5-2.5S247.216,58.672,245.835,58.672z"/>
		</g>
	</g>
</g>
</svg>
