<svg id="artwork" xmlns="http://www.w3.org/2000/svg" width="64" height="64" viewBox="0 0 64 64"><title>mobile</title><path d="M37,18.5H9A2.5,2.5,0,0,0,6.5,21V43A2.5,2.5,0,0,0,9,45.5h4.379l5.56,5.561A1.5,1.5,0,0,0,21.5,50V45.5H37A2.5,2.5,0,0,0,39.5,43V21A2.5,2.5,0,0,0,37,18.5Zm-5,20H14a1.5,1.5,0,0,1,0-3H32a1.5,1.5,0,0,1,0,3Zm0-10H14a1.5,1.5,0,0,1,0-3H32a1.5,1.5,0,0,1,0,3Z" style="fill:#3e3ef4"/><path d="M38,57.5a1.5,1.5,0,0,0,0-3H32a1.5,1.5,0,0,0,0,3Z"/><path d="M54,.5H16A3.5,3.5,0,0,0,12.5,4V15.5h3V4a.5.5,0,0,1,.5-.5h7.7l3.555,5.332A1.5,1.5,0,0,0,28.5,9.5h13a1.5,1.5,0,0,0,1.248-.668L46.3,3.5H54a.5.5,0,0,1,.5.5V60a.5.5,0,0,1-.5.5H16a.5.5,0,0,1-.5-.5V51.863l-3-3V60A3.5,3.5,0,0,0,16,63.5H54A3.5,3.5,0,0,0,57.5,60V4A3.5,3.5,0,0,0,54,.5Zm-13.3,6H29.3l-2-3H42.7Z"/></svg>