<svg id="artwork" xmlns="http://www.w3.org/2000/svg" width="64" height="64" viewBox="0 0 64 64"><title>follower</title><path d="M36.5,26a10.485,10.485,0,0,0,8.751-4.7,1.56,1.56,0,0,1,2.5,0,10.544,10.544,0,0,0,6.975,4.554,10.757,10.757,0,0,0,1.2.133A16.492,16.492,0,0,0,23.076,26Z" style="fill:#3e3ef4"/><path d="M54.221,28.808A13.537,13.537,0,0,1,46.5,24.563,13.468,13.468,0,0,1,36.5,29H23.076a16.491,16.491,0,0,0,32.849-.025A14.158,14.158,0,0,1,54.221,28.808Zm-7.3,6.117A10.435,10.435,0,0,1,39.5,38a1.5,1.5,0,0,1,0-3A7.451,7.451,0,0,0,44.8,32.8a1.5,1.5,0,0,1,2.121,2.121Z" style="fill:#3e3ef4"/><path d="M18.518,26H15.509V22.991a1.5,1.5,0,0,0-3,0V26H9.5a1.5,1.5,0,0,0,0,3h3.009v3.009a1.5,1.5,0,0,0,3,0V29h3.009a1.5,1.5,0,0,0,0-3Z"/><path d="M60,.5H4A3.5,3.5,0,0,0,.5,4V51A3.5,3.5,0,0,0,4,54.5H22.379l8.56,8.561a1.5,1.5,0,0,0,2.122,0l8.56-8.561H60A3.5,3.5,0,0,0,63.5,51V4A3.5,3.5,0,0,0,60,.5ZM60.5,51a.5.5,0,0,1-.5.5H41a1.5,1.5,0,0,0-1.061.439L32,59.879l-7.939-7.94A1.5,1.5,0,0,0,23,51.5H4a.5.5,0,0,1-.5-.5V4A.5.5,0,0,1,4,3.5H60a.5.5,0,0,1,.5.5Z"/></svg>