<?xml version="1.0" encoding="UTF-8"?>
<!DOCTYPE svg PUBLIC "-//W3C//DTD SVG 1.1//EN" "http://www.w3.org/Graphics/SVG/1.1/DTD/svg11.dtd">
<!-- Creator: CorelDRAW -->
<svg xmlns="http://www.w3.org/2000/svg" xml:space="preserve" width="2048px" height="2048px" style="shape-rendering:geometricPrecision; text-rendering:geometricPrecision; image-rendering:optimizeQuality; fill-rule:evenodd; clip-rule:evenodd"
viewBox="0 0 2048 2048"
 xmlns:xlink="http://www.w3.org/1999/xlink">
 <defs>
  <style type="text/css">
   <![CDATA[
    .fil5 {fill:none}
    .fil4 {fill:#0D47A1}
    .fil3 {fill:#1565C0}
    .fil2 {fill:#64B5F6}
    .fil1 {fill:#90CAF9}
    .fil0 {fill:#1565C0;fill-rule:nonzero}
   ]]>
  </style>
 </defs>
 <g id="Layer_x0020_1">
  <metadata id="CorelCorpID_0Corel-Layer"/>
  <g id="_360186864">
   <path id="_360187704" class="fil0" d="M267.738 795.814c-13.5307,11.2524 -15.3768,31.3441 -4.12441,44.8748 11.2524,13.5307 31.3441,15.3768 44.8748,4.12441 173.221,-144.006 444.11,-215.971 715.703,-215.895 271.542,0.0755906 542.292,72.1808 715.321,216.308 13.5307,11.2524 33.6225,9.40631 44.8748,-4.12441 11.2524,-13.5307 9.40631,-33.6225 -4.12441,-44.8748 -184.831,-153.959 -470.8,-230.981 -756.071,-231.06 -285.293,-0.0791339 -571.399,76.8036 -756.453,230.647z"/>
   <path id="_360187992" class="fil1" d="M255.999 1096.82c404.568,525.639 1148.4,503.599 1536,0 -387.605,-503.599 -1131.43,-525.639 -1536,0z"/>
   <path id="_360187752" class="fil2" d="M1024 1482.83c287.125,-0.846851 572.755,-132.332 767.999,-386.005 -195.245,-253.673 -480.874,-385.158 -767.999,-386.005 0,219.417 0,558.103 0,772.009z"/>
   <path id="_360187896" class="fil3" d="M912.001 1394.87l0 -300.874 -128 0 0 282.779c42.3366,8.21457 85.3016,14.1756 128,18.0957z"/>
   <path id="_360187008" class="fil3" d="M1088 1399.9l0 -407.957 0 -147.423 -128 0 0 233.473 0 320.443c26.9918,1.5378 53.7367,2.28425 79.9997,2.28425 15.8421,0 31.8591,-0.269292 48,-0.820867z"/>
   <path id="_360186912" class="fil4" d="M1264 1382.55l0 -374.599 -128 0 0 389.491c42.4725,-2.90906 85.4375,-7.80119 128,-14.8925z"/>
   <path id="_360186960" class="fil4" d="M1024 565.167l0 63.7512c0.0637796,0 0.126378,0 0.190158,0 271.542,0.0755906 542.292,72.1808 715.321,216.308 13.5307,11.2524 33.6225,9.40631 44.8748,-4.12441 11.2524,-13.5307 9.40631,-33.6225 -4.12441,-44.8748 -184.831,-153.959 -470.8,-230.981 -756.071,-231.06 -0.0637796,0 -0.126378,0 -0.190158,0z"/>
   <path id="_360187488" class="fil4" d="M1024 844.523l0 556.108c5.35158,0.0614174 10.6854,0.0921261 15.9992,0.0921261 15.8421,0 31.8591,-0.269292 48,-0.820867l0 -407.957 0 -147.423 -63.9993 0z"/>
  </g>
 </g>
 <rect class="fil5" width="2048" height="2048"/>
</svg>
