<svg xmlns="http://www.w3.org/2000/svg" viewBox="0 0 32 32"><title>Artboard-37</title><g id="Satellite"><path d="M9.6216,16.207a3.0732,3.0732,0,0,0-4.2427,0L1.293,20.293a.9994.9994,0,0,0,0,1.414l9,9a.9995.9995,0,0,0,1.414,0l4.0865-4.0859a3.0048,3.0048,0,0,0-.0005-4.2422Z" style="fill:#262628"/><path d="M23.6684,9.7457,24.707,8.707a1,1,0,1,0-1.414-1.414L22.2543,8.3316A3.1333,3.1333,0,0,0,18.71,8.87l4.42,4.42A3.1334,3.1334,0,0,0,23.6684,9.7457Z" style="fill:#262628"/><path d="M10.33,15.5l6.17,6.17c.04.04.08.09.12.13l6.09-6.09a1.008,1.008,0,0,0,0-1.42l-5-5a1.008,1.008,0,0,0-1.42,0L10.2,15.38A1.538,1.538,0,0,1,10.33,15.5Z" style="fill:#262628"/><path d="M26,7a1,1,0,0,0,2,0,3.0033,3.0033,0,0,0-3-3,1,1,0,0,0,0,2A1.0009,1.0009,0,0,1,26,7Z" style="fill:#262628"/><path d="M25,1a1,1,0,0,0,0,2,4.0042,4.0042,0,0,1,4,4,1,1,0,0,0,2,0A6.0066,6.0066,0,0,0,25,1Z" style="fill:#262628"/><path d="M6.5859,12a2.0016,2.0016,0,0,0,2.8282,0l.583-.583L11.37,12.79l1.42-1.42L11.4171,9.997,12,9.4141a2.002,2.002,0,0,0,0-2.8282L7.707,2.293a.9994.9994,0,0,0-1.414,0l-4,4a.9994.9994,0,0,0,0,1.414Z" style="fill:#262628"/><path d="M25.4141,20a2.0029,2.0029,0,0,0-2.8282,0l-.5829.5829L20.63,19.21l-1.42,1.42,1.373,1.3729-.583.583a2.002,2.002,0,0,0,0,2.8282l4.293,4.2929a.9995.9995,0,0,0,1.414,0l4-4a.9994.9994,0,0,0,0-1.414Z" style="fill:#262628"/></g></svg>