<?xml version="1.0" encoding="utf-8"?>
<!-- Generator: Adobe Illustrator 24.0.0, SVG Export Plug-In . SVG Version: 6.00 Build 0)  -->
<svg version="1.1" xmlns="http://www.w3.org/2000/svg" xmlns:xlink="http://www.w3.org/1999/xlink" x="0px" y="0px"
	 viewBox="0 0 256 256" enable-background="new 0 0 256 256" xml:space="preserve">
<g id="Layer_2" display="none">
	<rect x="-1100" y="-3816" display="inline" fill="#FFFFFF" width="1786" height="5896"/>
</g>
<g id="Layer_1">
	<g>
		<path fill="#F0C020" d="M128.866,151.526H49.002l-23.536-23.536c-0.938-0.938-1.464-2.209-1.464-3.536V36.01
			c0-1.326,0.527-2.598,1.464-3.536l22.071-22.071c0.938-0.938,2.209-1.464,3.536-1.464h75.722c1.326,0,2.598,0.527,3.536,1.464
			l22.071,22.071c0.938,0.938,1.464,2.209,1.464,3.536c0,95.968,0.628,89.889-1.464,91.981L128.866,151.526z"/>
		<path fill="#F8E5B0" d="M125.138,145.026H52.729c-0.663,0-1.299-0.264-1.768-0.732l-6.832-6.832c-0.977-0.977-0.977-2.559,0-3.535
			s2.559-0.977,3.535,0l6.1,6.1h70.338l18.263-18.262V38.701l-18.994-18.994c-0.977-0.977-0.977-2.559,0-3.535s2.559-0.977,3.535,0
			l19.727,19.727c0.469,0.469,0.732,1.104,0.732,1.768c0,91.878,0.335,85.834-0.732,86.901l-19.728,19.727
			C126.437,144.763,125.801,145.026,125.138,145.026z M37.059,130.39l-5.824-5.823c-0.977-0.976-0.977-2.559,0-3.535
			c0.975-0.977,2.559-0.977,3.535,0l5.824,5.823c0.977,0.976,0.977,2.559,0,3.535C39.618,131.368,38.035,131.367,37.059,130.39z"/>
		<polygon fill="#EFEFEF" points="41.002,119.484 41.002,40.98 56.044,25.938 121.824,25.938 136.866,40.98 136.866,119.484 		"/>
		<polygon fill="#7D7B79" points="129.267,151.526 49.002,151.526 46.299,247.231 131.971,247.231 		"/>
		<path fill="#EFEFEF" d="M123.741,241.731H71.479c-1.381,0-2.5-1.119-2.5-2.5s1.119-2.5,2.5-2.5h49.691l-2.18-77.135
			c-0.039-1.38,1.048-2.53,2.429-2.569c1.394-0.034,2.53,1.049,2.569,2.429l2.252,79.705
			C126.281,240.572,125.144,241.731,123.741,241.731z M61.479,241.731h-5.795c-1.381,0-2.5-1.119-2.5-2.5s1.119-2.5,2.5-2.5h5.795
			c1.381,0,2.5,1.119,2.5,2.5S62.859,241.731,61.479,241.731z"/>
		<path fill="#FC5D3D" d="M103.341,211.833H74.527c-4.378,0-7.926-3.549-7.926-7.926v0c0-4.378,3.549-7.926,7.926-7.926h28.814
			c4.378,0,7.926,3.549,7.926,7.926v0C111.267,208.285,107.719,211.833,103.341,211.833z"/>
		<circle fill="#13BF6D" cx="88.934" cy="72.711" r="35.814"/>
		<circle fill="#F0C020" cx="88.934" cy="72.711" r="20.536"/>
		<circle fill="#FC5D3D" cx="88.934" cy="72.711" r="7.997"/>
		<path fill="#72C2E9" d="M210.463,140.384V66.451c0-9.683-7.85-17.533-17.533-17.533h0c-9.683,0-17.533,7.85-17.533,17.533v73.932
			c0,3.323-1.661,6.415-4.409,8.284c-10.713,7.286-17.617,19.753-17.094,33.803c0.705,18.934,17.35,36.166,36.251,37.476
			c22.834,1.583,41.849-16.472,41.849-38.967c0-13.471-6.823-25.342-17.198-32.363C212.071,146.772,210.463,143.675,210.463,140.384
			z"/>
		<path fill="#FC5D3D" d="M203.207,164.374c-2.887-1.79-4.737-4.855-4.737-8.252l0-78.641c0-3.06-2.48-5.54-5.54-5.54l0,0
			c-3.06,0-5.54,2.48-5.54,5.54l0,78.561c0,3.439-1.868,6.542-4.785,8.364c-6.196,3.869-10.074,11.115-9.038,19.162
			c1.133,8.811,8.318,15.851,17.148,16.821c11.783,1.295,21.745-7.888,21.745-19.408
			C212.46,173.967,208.762,167.817,203.207,164.374z"/>
		<path fill="#FFCBC2" d="M187.988,194.12c-1.293-0.486-1.947-1.928-1.462-3.22c0.486-1.293,1.933-1.945,3.22-1.462
			c5.892,2.218,12.214-2.164,12.214-8.457c0-3.146-1.603-6.019-4.285-7.683c-1.174-0.729-1.535-2.27-0.807-3.442
			c0.727-1.176,2.27-1.533,3.441-0.808c4.164,2.583,6.65,7.044,6.65,11.933C206.96,190.747,197.162,197.564,187.988,194.12z
			 M179.709,185.722c-0.332-0.928-0.563-1.889-0.688-2.857c-0.176-1.369,0.792-2.622,2.162-2.797
			c1.367-0.178,2.622,0.793,2.797,2.162c0.078,0.61,0.225,1.218,0.436,1.805c0.466,1.3-0.21,2.731-1.51,3.197
			C181.602,187.698,180.174,187.018,179.709,185.722z"/>
		<path fill="#EFEFEF" d="M187.39,77.481v24.25h11.08v-24.25c0-3.06-2.48-5.54-5.54-5.54l0,0
			C189.87,71.941,187.39,74.421,187.39,77.481z"/>
		<g>
			<path d="M154.17,129.758c3.077-3.079,2.196,2.149,2.196-93.748c0-2.003-0.78-3.886-2.197-5.303L132.098,8.635
				c-1.417-1.417-3.3-2.197-5.303-2.197H51.073c-2.002,0-3.886,0.78-5.304,2.197l-22.07,22.071c-1.417,1.417-2.197,3.3-2.197,5.303
				v88.445c0,2.002,0.78,3.886,2.197,5.304l22.778,22.778l-1.109,38.898c-0.04,1.37,1.05,2.521,2.43,2.561
				c1.4,0.09,2.53-1.04,2.57-2.42l1.06-37.549h75.41l2.63,93.278c0.04,1.34,1.16,2.43,2.5,2.43h0.07
				c1.38-0.04,2.47-1.199,2.43-2.569l-2.681-95.024L154.17,129.758z M127.833,149.024H50.035l-22.8-22.8
				c-0.473-0.474-0.733-1.103-0.733-1.77V36.01c0-0.667,0.26-1.295,0.732-1.768l22.069-22.07c0.474-0.473,1.103-0.733,1.77-0.733
				h75.722c0.667,0,1.295,0.26,1.768,0.732l22.071,22.071c0.473,0.473,0.732,1.101,0.732,1.768c0,95.76,0.333,89.146-0.732,90.214
				L127.833,149.024z"/>
			<path d="M123.588,24.175c-0.46-0.47-1.11-0.74-1.76-0.74h-65.78c-0.66,0-1.31,0.271-1.77,0.74l-15.04,15.04
				c-0.471,0.46-0.74,1.11-0.74,1.77v78.5c0,1.361,1.108,2.5,2.5,2.5h61.2c1.38,0,2.5-1.119,2.5-2.5c0-1.369-1.11-2.489-2.49-2.5
				h-0.01h-58.7v-74.97l13.58-13.58h63.71l13.58,13.58v74.97h-12.17c-1.381,0-2.5,1.12-2.5,2.5c0,1.381,1.119,2.5,2.5,2.5h14.67
				c1.387,0,2.5-1.137,2.5-2.5v-78.5c0-0.67-0.261-1.3-0.74-1.77L123.588,24.175z"/>
			<circle cx="112.198" cy="119.484" r="2.5"/>
			<path d="M64.928,49.615c0,0,0,0,0-0.011c0.989-1.031,0.881-2.609-0.07-3.52c-0.96-0.931-2.6-0.9-3.529,0.06c0,0,0,0-0.011,0
				c-0.949,1-0.92,2.59,0.07,3.54C62.397,50.652,63.975,50.608,64.928,49.615z"/>
			<path d="M88.918,34.394c-6.75,0-13.4,1.79-19.22,5.17c-1.212,0.722-1.594,2.237-0.9,3.42c0.67,1.15,2.26,1.57,3.42,0.9
				c5.05-2.93,10.83-4.49,16.72-4.49c18.361,0,33.311,14.865,33.311,33.32c-0.03,18.33-14.98,33.28-33.311,33.31
				c-18.34-0.029-33.29-14.979-33.319-33.31c0-5.51,1.3-10.76,3.859-15.59c0.65-1.221,0.181-2.73-1.029-3.38
				c-1.209-0.639-2.734-0.192-3.381,1.04c-2.909,5.479-4.449,11.68-4.449,17.93c0,21.165,17.131,38.31,38.319,38.31
				c21.17,0,38.311-17.139,38.311-38.31C127.248,51.546,110.129,34.394,88.918,34.394z"/>
			<path d="M111.968,72.715c0-12.71-10.33-23.04-23.03-23.04c-12.71,0-23.04,10.33-23.04,23.04c0,12.7,10.33,23.03,23.04,23.03
				C101.638,95.745,111.968,85.415,111.968,72.715z M70.897,72.715c0.021-9.93,8.11-18.021,18.04-18.04
				c9.92,0.02,18.011,8.11,18.03,18.04c-0.02,9.92-8.11,18.02-18.03,18.03C79.008,90.734,70.918,82.635,70.897,72.715z"/>
			<path d="M99.428,72.715c0-5.79-4.71-10.5-10.49-10.5c-5.79,0-10.5,4.71-10.5,10.5c0,5.78,4.71,10.49,10.5,10.49
				C94.718,83.205,99.428,78.495,99.428,72.715z M83.438,72.715c0-3.03,2.471-5.49,5.5-5.5c3.021,0.01,5.49,2.47,5.49,5.5
				c0,3.02-2.47,5.49-5.49,5.49C85.908,78.205,83.438,75.734,83.438,72.715z"/>
			<path d="M47.378,208.995c-1.35-0.04-2.53,1.06-2.57,2.43l-1.01,35.74c-0.04,1.364,1.026,2.519,2.43,2.56c0.03,0,0.051,0,0.08,0
				c1.36,0,2.45-1.06,2.49-2.42l1.01-35.74C49.851,210.156,48.739,209.035,47.378,208.995z"/>
			<path d="M47.658,198.995c-1.38-0.061-2.53,1.05-2.57,2.43c-0.042,1.359,1.026,2.527,2.43,2.57c1.544,0,2.532-1.148,2.57-2.431
				C50.128,200.184,49.038,199.035,47.658,198.995z"/>
			<path d="M103.338,193.484h-28.81c-5.75,0-10.431,4.67-10.431,10.42s4.681,10.431,10.431,10.431h28.81
				c5.75,0,10.43-4.681,10.43-10.431S109.088,193.484,103.338,193.484z M103.338,209.335h-28.81c-2.99-0.01-5.421-2.44-5.431-5.431
				c0.01-2.979,2.44-5.42,5.431-5.42h28.81c2.99,0,5.42,2.431,5.43,5.42C108.758,206.894,106.328,209.325,103.338,209.335z"/>
			<path d="M112.308,131.984h-46.75c-1.38,0-2.5,1.12-2.5,2.5c0,1.381,1.12,2.5,2.5,2.5h46.75c1.38,0,2.5-1.119,2.5-2.5
				C114.808,133.104,113.688,131.984,112.308,131.984z"/>
			<path d="M230.618,191.575c-1.271-0.45-2.74,0.26-3.181,1.529c-0.477,1.309,0.243,2.741,1.53,3.19
				c1.33,0.46,2.734-0.256,3.18-1.53C232.607,193.465,231.918,192.035,230.618,191.575z"/>
			<path d="M216.198,146.545c-2.03-1.37-3.24-3.67-3.24-6.16v-73.93c0-11.051-8.98-20.04-20.03-20.04
				c-11.04,0-20.03,8.989-20.03,20.04v73.93c0,2.48-1.239,4.8-3.319,6.22c-11.992,8.153-18.723,21.787-18.181,35.971
				c0.815,20.19,18.169,38.348,38.57,39.869c15.813,0.977,29.484-6.49,37.41-18.21c0.77-1.14,0.47-2.699-0.67-3.47
				c-1.11-0.75-2.72-0.43-3.47,0.67c-7.085,10.482-19.355,16.949-32.921,16.021c-17.51-1.13-33.359-17.521-33.93-35.08
				c-0.515-12.139,5.253-24.323,16.01-31.641c3.44-2.34,5.5-6.21,5.5-10.35v-17.14h1.601c1.38,0,2.5-1.12,2.5-2.49
				c0-1.38-1.12-2.5-2.5-2.5h-1.601v-14.021h1.601c1.38,0,2.5-1.13,2.5-2.5c0-1.38-1.12-2.5-2.5-2.5h-1.601V85.205h1.601
				c1.38,0,2.5-1.12,2.5-2.5c0-1.37-1.12-2.49-2.5-2.49h-1.601v-13.76c0.011-8.28,6.761-15.021,15.03-15.04
				c8.28,0.02,15.021,6.76,15.04,15.04v73.93c0,4.15,2.03,8,5.43,10.3c10.712,7.258,17.056,19.747,15.971,33.3
				c-0.104,1.358,0.903,2.586,2.29,2.69c1.37,0.12,2.59-0.93,2.699-2.29v-0.01C235.585,169.365,228.639,154.958,216.198,146.545z"/>
			<path d="M192.928,69.444c-4.43,0-8.03,3.601-8.03,8.03c0,4.57,0,73.817,0,78.58c0,2.49-1.35,4.811-3.609,6.23
				c-7.152,4.446-11.328,12.714-10.21,21.56c1.283,9.972,9.315,17.883,19.31,19.021c12.959,1.537,24.57-8.667,24.57-21.881
				c0-7.662-3.967-14.738-10.44-18.729c-2.22-1.39-3.55-3.68-3.55-6.13v-78.41C200.968,73.147,197.399,69.444,192.928,69.444z
				 M189.897,77.474c0-4.025,6.07-4.153,6.07,0.24v21.52h-6.07V77.474z M201.888,166.505c5.05,3.13,8.07,8.55,8.07,14.479
				c-0.011,10.209-9.015,18.106-19.021,16.91c-7.68-0.85-13.949-7.029-14.899-14.689c-0.861-6.421,2.015-13.013,7.89-16.681
				c3.74-2.31,5.97-6.229,5.97-10.47v-51.82h6.07v51.891C195.968,160.335,198.178,164.215,201.888,166.505z"/>
			<path d="M66.938,168.734h5.5c1.38,0,2.5-1.13,2.5-2.5c0-1.38-1.12-2.5-2.5-2.5h-5.5c-1.38,0-2.5,1.12-2.5,2.5
				C64.438,167.604,65.558,168.734,66.938,168.734z"/>
			<path d="M86.388,168.734h5.5c1.38,0,2.5-1.13,2.5-2.5c0-1.38-1.12-2.5-2.5-2.5h-5.5c-1.38,0-2.5,1.12-2.5,2.5
				C83.888,167.604,85.008,168.734,86.388,168.734z"/>
			<path d="M111.328,163.734h-5.5c-1.38,0-2.5,1.12-2.5,2.5c0,1.37,1.12,2.5,2.5,2.5h5.5c1.38,0,2.5-1.13,2.5-2.5
				C113.828,164.854,112.708,163.734,111.328,163.734z"/>
			<path d="M66.938,181.234h5.5c1.38,0,2.5-1.119,2.5-2.5c0-1.38-1.12-2.5-2.5-2.5h-5.5c-1.38,0-2.5,1.12-2.5,2.5
				C64.438,180.115,65.558,181.234,66.938,181.234z"/>
			<path d="M86.388,181.234h5.5c1.38,0,2.5-1.119,2.5-2.5c0-1.38-1.12-2.5-2.5-2.5h-5.5c-1.38,0-2.5,1.12-2.5,2.5
				C83.888,180.115,85.008,181.234,86.388,181.234z"/>
			<path d="M111.328,176.234h-5.5c-1.38,0-2.5,1.12-2.5,2.5c0,1.381,1.12,2.5,2.5,2.5h5.5c1.38,0,2.5-1.119,2.5-2.5
				C113.828,177.354,112.708,176.234,111.328,176.234z"/>
		</g>
	</g>
</g>
</svg>
