<?xml version="1.0" encoding="UTF-8"?>
<!DOCTYPE svg PUBLIC "-//W3C//DTD SVG 1.1//EN" "http://www.w3.org/Graphics/SVG/1.1/DTD/svg11.dtd">
<!-- Creator: CorelDRAW -->
<svg xmlns="http://www.w3.org/2000/svg" xml:space="preserve" width="2048px" height="2048px" style="shape-rendering:geometricPrecision; text-rendering:geometricPrecision; image-rendering:optimizeQuality; fill-rule:evenodd; clip-rule:evenodd"
viewBox="0 0 2048 2048"
 xmlns:xlink="http://www.w3.org/1999/xlink">
 <defs>
  <style type="text/css">
   <![CDATA[
    .fil0 {fill:none}
    .fil3 {fill:#545454}
    .fil4 {fill:#717171}
    .fil5 {fill:#888888}
    .fil2 {fill:#B7B7B7}
    .fil6 {fill:#BBBBBC}
    .fil1 {fill:#757575;fill-rule:nonzero}
   ]]>
  </style>
 </defs>
 <g id="Layer_x0020_1">
  <metadata id="CorelCorpID_0Corel-Layer"/>
  <g id="_526140912">
   <rect id="_526162464" class="fil0" width="2048" height="2048"/>
   <rect id="_526152912" class="fil0" x="255.999" y="255.999" width="1536" height="1536"/>
  </g>
  <g id="_526153896">
   <polygon id="_526167768" class="fil1" points="1052.63,1589.57 1052.63,1732.73 1424.84,1732.73 1424.84,1789.99 623.158,1789.99 623.158,1732.73 995.368,1732.73 995.368,1589.57 "/>
   <path id="_526140840" class="fil2" d="M1603.26 1083.58c19.4764,-10.9925 37.3016,-24.5705 53.0044,-40.2721 44.3174,-44.3185 71.739,-105.535 71.739,-173.132 0,-52.6902 -16.6854,-101.215 -45.013,-140.836 -29.3008,-40.9878 -71.0564,-72.5646 -119.697,-89.5064l-21.1866 -7.37717 0.740552 -22.3949c0.151181,-4.60394 0.595276,-7.73386 1.03701,-10.8579 0.226772,-1.59685 0.453544,-3.19488 0.453544,-4.50827 0,-92.967 -37.6902,-177.144 -98.6186,-238.074 -60.9272,-60.9248 -145.097,-98.6139 -238.069,-98.6139 -61.7174,0 -119.167,16.7752 -168.452,45.8989 -51.5776,30.4796 -94.3465,74.4733 -123.859,126.934l-10.6689 18.965 -21.2551 -3.77953c-7.663,-1.36299 -15.0307,-2.50512 -21.7937,-3.23268 -6.64607,-0.712205 -13.6831,-1.1374 -21.2693,-1.1374 -52.6807,0 -101.182,16.6819 -140.782,45.0024 -40.9701,29.2996 -72.5327,71.0587 -89.4768,119.707l-7.65945 21.9898 -23.1886 -1.5437c-2.78858,-0.185433 -5.76733,-0.591733 -8.75198,-0.998032 -1.86024,-0.253937 -3.73583,-0.509056 -5.62087,-0.509056 -67.5981,0 -128.816,27.4205 -173.132,71.7379 -44.3209,44.3197 -71.7414,105.54 -71.7414,173.133 0,67.5993 27.4193,128.819 71.7367,173.136 15.7028,15.7016 33.5303,29.2807 53.0079,40.2721l1158.52 -0.00354331z"/>
   <g>
    <path id="_526149888" class="fil3" d="M551.248 716.306l945.505 0c13.8626,0 25.7268,6.97441 33.6839,18.2433 5.88426,8.33268 9.52914,19.3406 9.52914,31.0382l0 93.6757 0 0.201969 -1031.93 0 0 -0.979135 0 -92.8985c0,-11.6976 3.64725,-22.7043 9.5315,-31.037 7.95709,-11.2689 19.8213,-18.2445 33.6827,-18.2445z"/>
    <g>
     <path id="_526148208" class="fil4" d="M1539.97 859.465l0 93.8765c0,11.6894 -3.64607,22.6984 -9.53268,31.0359 -7.95473,11.2665 -19.8142,18.2457 -33.6803,18.2457l-945.505 0c-13.8638,0 -25.7244,-6.9815 -33.6792,-18.2469 -5.88662,-8.33386 -9.53505,-19.3441 -9.53505,-31.0347l0 -93.8765 1031.93 0z"/>
     <g>
      <rect id="_526141608" class="fil5" x="580.026" y="839.154" width="42.365" height="42.365" rx="10.0004" ry="10.0004"/>
      <rect id="_526143168" class="fil6" x="640.001" y="839.154" width="42.365" height="42.365" rx="10.0004" ry="10.0004"/>
     </g>
    </g>
   </g>
   <g>
    <path id="_526146192" class="fil3" d="M551.248 1015.25l945.505 0c13.8626,0 25.7268,6.97441 33.6839,18.2433 5.88426,8.33268 9.52914,19.3406 9.52914,31.0382l0 93.6757 0 0.201969 -1031.93 0 0 -0.979135 0 -92.8985c0,-11.6976 3.64725,-22.7043 9.5315,-31.037 7.95709,-11.2689 19.8213,-18.2445 33.6827,-18.2445z"/>
    <g>
     <path id="_526146168" class="fil4" d="M1539.97 1158.41l0 93.8765c0,11.6894 -3.64607,22.6984 -9.53268,31.0359 -7.95473,11.2665 -19.8142,18.2457 -33.6803,18.2457l-945.505 0c-13.8638,0 -25.7244,-6.9815 -33.6792,-18.2469 -5.88662,-8.33386 -9.53505,-19.3441 -9.53505,-31.0347l0 -93.8765 1031.93 0z"/>
     <g>
      <rect id="_526156608" class="fil5" x="580.026" y="1138.1" width="42.365" height="42.365" rx="10.0004" ry="10.0004"/>
      <rect id="_526168104" class="fil6" x="640.001" y="1138.1" width="42.365" height="42.365" rx="10.0004" ry="10.0004"/>
     </g>
    </g>
   </g>
   <g>
    <path id="_526168680" class="fil3" d="M551.248 1314.19l945.505 0c13.8626,0 25.7268,6.97441 33.6839,18.2433 5.88426,8.33268 9.52914,19.3406 9.52914,31.0382l0 93.6757 0 0.201969 -1031.93 0 0 -0.979135 0 -92.8985c0,-11.6976 3.64725,-22.7043 9.5315,-31.037 7.95709,-11.2689 19.8213,-18.2445 33.6827,-18.2445z"/>
    <g>
     <path id="_526170624" class="fil4" d="M1539.97 1457.35l0 93.8765c0,11.6894 -3.64607,22.6984 -9.53268,31.0359 -7.95473,11.2665 -19.8142,18.2457 -33.6803,18.2457l-945.505 0c-13.8638,0 -25.7244,-6.9815 -33.6792,-18.2469 -5.88662,-8.33386 -9.53505,-19.3441 -9.53505,-31.0347l0 -93.8765 1031.93 0z"/>
     <g>
      <rect id="_526153752" class="fil5" x="580.026" y="1437.04" width="42.365" height="42.365" rx="10.0004" ry="10.0004"/>
      <rect id="_526159152" class="fil6" x="640.001" y="1437.04" width="42.365" height="42.365" rx="10.0004" ry="10.0004"/>
     </g>
    </g>
   </g>
  </g>
 </g>
</svg>
