<?xml version="1.0" encoding="utf-8"?>
<!-- Generator: Adobe Illustrator 24.0.0, SVG Export Plug-In . SVG Version: 6.00 Build 0)  -->
<svg version="1.1" xmlns="http://www.w3.org/2000/svg" xmlns:xlink="http://www.w3.org/1999/xlink" x="0px" y="0px"
	 viewBox="0 0 256 256" enable-background="new 0 0 256 256" xml:space="preserve">
<g id="Layer_2" display="none">
	<rect x="-764" y="-3480" display="inline" fill="#FFFFFF" width="1786" height="5896"/>
</g>
<g id="Layer_1">
	<g>
		<path fill="#72C3E7" d="M154.325,248.086h-52.65c-3.491,0-5.907-3.486-4.682-6.754l11.607-30.976l4.748-12.661h29.304
			l4.748,12.661l11.607,30.976C160.232,244.6,157.816,248.086,154.325,248.086z"/>
		<polygon fill="#4AA5CA" points="147.4,210.356 108.601,210.356 113.348,197.695 142.652,197.695 		"/>
		<path fill="#77BFF0" d="M242.03,197.696H13.97c-6.26,0-11.12-5.44-10.42-11.66l14.08-124.16c0.6-5.29,5.09-9.3,10.42-9.3h53.46
			c-0.78,0.78-1.15,0.97-8.4,6.24c-3.5,2.54-4.87,6.71-4.11,10.53c0.501,2.559,1.974,4.877,4.11,6.42l7.3,5.31
			c3.19,2.32,4.81,6.22,4.19,10.12l-1.41,8.91c-0.37,2.33,0.05,4.55,1.04,6.44c1.97,3.82,6.25,6.29,10.95,5.55
			c9.59-1.52,10.34-1.84,12.81-1.29c4.812,1.056,6.111,3.92,11.53,11.37c4.19,5.76,12.77,5.76,16.96,0l5.31-7.3
			c2.335-3.22,6.277-4.8,10.11-4.19l8.92,1.41c7.045,1.109,13.102-4.987,11.99-11.99l-1.41-8.91c-0.62-3.9,1-7.8,4.19-10.12
			c7.164-5.213,10.429-6.724,11.41-11.73c0.76-3.82-0.61-7.99-4.11-10.53c-7.24-5.27-7.62-5.46-8.4-6.24h53.46
			c5.33,0,9.82,4.01,10.42,9.3l14.08,124.16C253.15,192.256,248.29,197.696,242.03,197.696z"/>
		<path fill="#4EA1CE" d="M191.6,78.266c-2.08,2.82-3.24,3.41-11.3,9.28c-0.76,0.55-1.15,1.47-1,2.39l1.41,8.92
			c1.77,11.15-6.82,21.37-18.23,21.37c-1.89,0-2.18-0.11-11.83-1.64c-0.95-0.15-1.87,0.27-2.38,0.99l-5.32,7.31
			c-7.39,10.16-22.51,10.16-29.9,0l-5.31-7.3c-0.43-0.6-1.07-0.95-1.79-1.03c-0.84,0-4.04,0.57-9.52,1.44
			c-12.49,1.96-23.1-8.81-21.14-21.15l1.41-8.9c0.15-0.93-0.23-1.85-0.99-2.4l-7.31-5.31c-10.02-7.23-10.13-22.23-0.3-29.66h13.41
			c-0.78,0.78-1.15,0.97-8.4,6.24c-3.5,2.54-4.87,6.71-4.11,10.53c0.501,2.559,1.974,4.877,4.11,6.42l7.3,5.31
			c3.19,2.32,4.81,6.22,4.19,10.12l-1.41,8.91c-0.37,2.33,0.05,4.55,1.04,6.44c1.97,3.82,6.25,6.29,10.95,5.55
			c9.59-1.52,10.34-1.84,12.81-1.29c4.812,1.056,6.111,3.92,11.53,11.37c4.19,5.76,12.77,5.76,16.96,0l5.31-7.3
			c2.335-3.22,6.277-4.8,10.11-4.19l8.92,1.41c7.045,1.109,13.102-4.987,11.99-11.99l-1.41-8.91c-0.62-3.9,1-7.8,4.19-10.12
			c7.164-5.213,10.429-6.724,11.41-11.73c0.76-3.82-0.61-7.99-4.11-10.53c-7.24-5.27-7.62-5.46-8.4-6.24h13.41
			C195.91,58.636,197.6,70.136,191.6,78.266z"/>
		<path fill="#AFAFAF" d="M237,180.926H19c4.9-38.27,4.26-33.26,14.26-111.58H69c0.501,2.559,1.974,4.877,4.11,6.42l7.3,5.31
			c3.19,2.32,4.81,6.22,4.19,10.12l-1.41,8.91c-0.37,2.33,0.05,4.55,1.04,6.44c1.97,3.82,6.25,6.29,10.95,5.55
			c9.59-1.52,10.34-1.84,12.81-1.29c4.812,1.056,6.111,3.92,11.53,11.37c4.19,5.76,12.77,5.76,16.96,0l5.31-7.3
			c2.335-3.22,6.277-4.8,10.11-4.19l8.92,1.41c7.045,1.109,13.102-4.987,11.99-11.99l-1.41-8.91c-0.62-3.9,1-7.8,4.19-10.12
			c7.164-5.213,10.429-6.724,11.41-11.73h35.74C232.63,146.816,232.1,142.636,237,180.926z"/>
		<path fill="#7D7B79" d="M195.09,69.346c-0.34,3.13-1.49,6.21-3.49,8.92c-2.08,2.82-3.24,3.41-11.3,9.28
			c-0.76,0.55-1.15,1.47-1,2.39l1.41,8.92c1.77,11.15-6.82,21.37-18.23,21.37c-1.89,0-2.18-0.11-11.83-1.64
			c-0.95-0.15-1.87,0.27-2.38,0.99l-5.32,7.31c-7.39,10.16-22.51,10.16-29.9,0l-5.31-7.3c-0.43-0.6-1.07-0.95-1.79-1.03
			c-0.84,0-4.04,0.57-9.52,1.44c-12.49,1.96-23.1-8.81-21.14-21.15l1.41-8.9c0.15-0.93-0.23-1.85-0.99-2.4l-7.31-5.31
			c-4.45-3.21-6.94-7.96-7.48-12.89H69c0.501,2.559,1.974,4.877,4.11,6.42l7.3,5.31c3.19,2.32,4.81,6.22,4.19,10.12l-1.41,8.91
			c-0.37,2.33,0.05,4.55,1.04,6.44c1.97,3.82,6.25,6.29,10.95,5.55c9.59-1.52,10.34-1.84,12.81-1.29
			c4.812,1.056,6.111,3.92,11.53,11.37c4.19,5.76,12.77,5.76,16.96,0l5.31-7.3c2.335-3.22,6.277-4.8,10.11-4.19l8.92,1.41
			c7.045,1.109,13.102-4.987,11.99-11.99l-1.41-8.91c-0.62-3.9,1-7.8,4.19-10.12c7.164-5.213,10.429-6.724,11.41-11.73H195.09z"/>
		<path fill="#EFEFEF" d="M224.503,172.426H46.953c-1.381,0-2.5-1.119-2.5-2.5s1.119-2.5,2.5-2.5h174.709
			c-2.883-22.529-3.856-30.136-11.086-86.764c-0.175-1.369,0.793-2.621,2.163-2.796c1.369-0.172,2.621,0.793,2.796,2.163
			c7.483,58.608,8.264,64.703,11.396,89.183C227.198,171.29,225.958,172.426,224.503,172.426z M36.953,172.426h-5.456
			c-1.381,0-2.5-1.119-2.5-2.5s1.119-2.5,2.5-2.5h5.456c1.381,0,2.5,1.119,2.5,2.5S38.334,172.426,36.953,172.426z"/>
		<path fill="#F0C020" d="M187,69.346c-0.981,5.004-4.241,6.515-11.41,11.73c-3.19,2.32-4.81,6.22-4.19,10.12l1.41,8.91
			c1.112,7.005-4.946,13.099-11.99,11.99l-8.92-1.41c-3.83-0.609-7.773,0.967-10.11,4.19l-5.31,7.3c-4.19,5.76-12.77,5.76-16.96,0
			c-5.497-7.557-6.767-10.324-11.53-11.37c-2.484-0.552-3.274-0.217-12.81,1.29c-4.7,0.74-8.98-1.73-10.95-5.55
			c-0.99-1.89-1.41-4.11-1.04-6.44l1.41-8.91c0.62-3.9-1-7.8-4.19-10.12l-7.3-5.31c-2.132-1.539-3.607-3.855-4.11-6.42
			c-0.76-3.82,0.61-7.99,4.11-10.53c7.244-5.27,7.623-5.463,8.4-6.24c2.45-2.35,3.63-5.77,3.09-9.18l-1.41-8.92
			c-1.11-7.03,4.96-13.1,11.99-11.99l8.92,1.41c3.89,0.61,7.8-1,10.11-4.19l5.31-7.3c4.19-5.76,12.77-5.76,16.96,0l5.31,7.3
			c2.31,3.19,6.22,4.8,10.11,4.19l8.92-1.41c7.03-1.11,13.1,4.96,11.99,11.99l-1.41,8.92c-0.54,3.41,0.64,6.83,3.09,9.18
			c0.777,0.777,1.154,0.97,8.4,6.24C186.39,61.356,187.76,65.526,187,69.346z"/>
		<circle fill="#FC5D3D" cx="128" cy="67.292" r="34.51"/>
		<path fill="#FFCBC3" d="M124.428,94.054c-1.369-0.182-2.332-1.438-2.15-2.807s1.439-2.335,2.807-2.15
			c20.783,2.76,33.332-22.519,18.479-37.368c-0.977-0.976-0.977-2.559,0-3.535s2.559-0.977,3.535,0
			C165.295,66.386,149.955,97.434,124.428,94.054z M114.094,90.45c-1.882-1.131-3.629-2.496-5.192-4.06
			c-0.977-0.977-0.977-2.559,0-3.535c0.976-0.977,2.56-0.977,3.535,0c1.275,1.274,2.698,2.388,4.231,3.308
			c1.184,0.711,1.567,2.247,0.856,3.431C116.815,90.773,115.283,91.161,114.094,90.45z"/>
		<g>
			<path d="M254.94,185.756l-14.09-124.16c-0.74-6.57-6.29-11.52-12.899-11.52h-52.372c-1.431-1.746-2.066-4.033-1.708-6.291
				l1.409-8.92c1.376-8.715-6.129-16.222-14.85-14.85l-8.917,1.41c-2.979,0.469-5.936-0.752-7.701-3.19l-5.31-7.3
				c-5.192-7.14-15.809-7.141-21.003,0l-5.313,7.304c-1.762,2.434-4.712,3.659-7.694,3.187l-8.921-1.41
				c-8.718-1.374-16.225,6.134-14.849,14.851l1.41,8.92c0.356,2.247-0.271,4.524-1.713,6.29H28.05c-6.61,0-12.16,4.949-12.91,11.52
				l-6.98,61.63c-0.16,1.37,0.83,2.61,2.2,2.771c1.343,0.146,2.606-0.812,2.76-2.2l6.99-61.641c0.46-4.039,3.87-7.079,7.94-7.079
				h45.955c-0.698,0.506-1.472,1.067-2.363,1.716c-3.32,2.409-5.228,6.096-5.342,10.054H33.26c-1.258,0-2.32,0.935-2.48,2.183
				l-14.26,111.58c-0.19,1.495,0.974,2.817,2.48,2.817h218c1.51,0,2.672-1.326,2.479-2.817l-14.26-111.58
				c-0.159-1.248-1.222-2.183-2.479-2.183h-33.04c-0.115-3.959-2.023-7.644-5.34-10.052c-0.893-0.649-1.667-1.212-2.365-1.718
				h45.955c4.069,0,7.479,3.04,7.939,7.079l14.07,124.16c0.613,4.438-2.993,8.869-7.93,8.88c-17.785,0-218.916,0-228.061,0
				c-4.657-0.01-8.456-4.027-7.94-8.869l4.84-42.66c0.163-1.346-0.808-2.601-2.2-2.771c-1.38-0.149-2.61,0.851-2.77,2.21
				l-4.83,42.65c-0.944,7.383,4.958,14.429,12.9,14.439h95.771l-15.089,40.259c-1.833,4.886,1.781,10.132,7.022,10.132h52.65
				c5.23,0,8.859-5.234,7.022-10.132l-15.088-40.259h95.771C249.546,200.185,255.767,193.739,254.94,185.756z M80.765,104.046
				h-9.759l1.941-25.308l5.993,4.36c2.442,1.775,3.665,4.728,3.191,7.706l-1.41,8.908C80.489,101.175,80.511,102.634,80.765,104.046
				z M35.461,71.846H67.12c0.31,0.827,0.761,1.706,1.161,2.345l-2.29,29.855H31.346L35.461,71.846z M60.285,178.426H21.84
				l4.115-32.195h36.8L60.285,178.426z M26.594,141.231l4.113-32.185h34.9l-2.469,32.185H26.594z M103.764,178.426H65.299
				l2.47-32.195h36.816L103.764,178.426z M104.713,141.231h-36.56l2.469-32.185h12.204c2.799,4.116,7.733,6.31,12.745,5.52
				c5.738-0.908,8.372-1.396,9.861-1.488L104.713,141.231z M108.765,178.426l0.822-32.195h36.827l0.822,32.195H108.765z
				 M109.714,141.231l0.681-26.662c1.364,0.983,1.29,1.086,7.104,9.078c5.189,7.133,15.812,7.137,21.003,0l5.312-7.303
				c0.501-0.691,1.11-1.284,1.792-1.775l0.681,26.661H109.714z M152.237,178.426l-0.822-32.195h36.816l2.47,32.195H152.237z
				 M234.16,178.426h-38.444l-2.47-32.195h36.799L234.16,178.426z M225.294,109.046l4.113,32.185h-36.544l-2.469-32.185H225.294z
				 M188.881,71.846h31.658l4.115,32.2H190.01l-2.29-29.856C188.132,73.533,188.576,72.659,188.881,71.846z M187.847,141.231h-36.56
				l-0.719-28.162c0.827,0.031,0.537,0.023,9.863,1.497c5.017,0.79,9.953-1.407,12.745-5.52h12.201L187.847,141.231z
				 M175.235,104.046c0.254-1.413,0.276-2.871,0.044-4.331l-1.41-8.912c-0.474-2.977,0.749-5.929,3.191-7.705
				c2.662-1.937,4.602-3.324,5.994-4.344l1.94,25.292H175.235z M184.548,68.859c0,0.002-0.001,0.004-0.001,0.007
				c-0.756,3.864-3.032,4.807-10.428,10.189c-3.97,2.887-5.958,7.689-5.188,12.531l1.41,8.912c0.85,5.366-3.81,9.978-9.13,9.128
				l-8.918-1.409c-4.615-0.734-9.56,1.1-12.524,5.188l-5.31,7.3c-3.207,4.405-9.729,4.38-12.917,0l-5.308-7.296
				c-3.374-4.654-8.702-5.266-7.702-5.044c-3.027-0.673-4.158-0.253-13.741,1.261c-3.408,0.538-6.759-1.162-8.346-4.24
				c-0.784-1.497-1.056-3.188-0.786-4.89l1.41-8.908c0.771-4.844-1.218-9.646-5.188-12.533l-7.308-5.316
				c-1.65-1.191-2.748-2.974-3.121-4.88c-0.617-3.1,0.582-6.173,3.128-8.021c7.187-5.228,7.726-5.52,8.661-6.457
				c0.009-0.009,0.016-0.019,0.025-0.027c0.011-0.011,0.021-0.024,0.032-0.035c3.018-2.934,4.429-7.154,3.77-11.313l-1.41-8.919
				c-0.846-5.357,3.772-9.979,9.13-9.131l8.923,1.41c4.85,0.759,9.65-1.229,12.519-5.188l5.311-7.3
				c3.194-4.392,9.722-4.393,12.917,0l5.307,7.295c2.87,3.966,7.668,5.953,12.525,5.193l8.919-1.41
				c5.37-0.841,9.976,3.776,9.13,9.131l-1.408,8.919c-0.663,4.182,0.564,7.819,3.792,11.339c0.986,0.987,1.525,1.277,8.698,6.495
				C183.967,62.686,185.164,65.759,184.548,68.859z M156.666,242.208c0.613,1.637-0.593,3.378-2.341,3.378h-52.65
				c-1.744,0-2.955-1.739-2.341-3.378l15.746-42.013h25.84L156.666,242.208z"/>
			<path d="M9.23,135.926c1.486,0.146,2.616-0.897,2.77-2.2c0.145-1.371-0.83-2.615-2.21-2.76c-1.37-0.16-2.61,0.84-2.76,2.2
				C6.87,134.536,7.86,135.776,9.23,135.926z"/>
			<path d="M157.281,48.846c-1.198,0.628-1.697,2.152-1.03,3.38c0,0.01,0,0.01,0.01,0.01c11.36,21.304-4.259,47.016-28.26,47.07
				c-17.62-0.04-31.98-14.4-32.01-32.01c0.03-17.62,14.39-31.98,32.01-32.01c5.38,0,10.7,1.359,15.39,3.93
				c1.264,0.684,2.746,0.181,3.391-0.99c0.661-1.201,0.236-2.72-0.98-3.39c-5.42-2.98-11.57-4.55-17.8-4.55
				c-20.41,0-37.01,16.501-37.01,37.01c0,20.442,16.544,37,37.01,37c27.832,0,45.854-29.755,32.66-54.43
				C159.979,48.613,158.433,48.204,157.281,48.846z"/>
			<path d="M154.3,44.806c0.98-0.97,0.99-2.55,0.02-3.53c-0.939-0.949-2.59-0.96-3.539-0.02c-1.031,1.029-0.938,2.611-0.021,3.53
				C151.781,45.805,153.372,45.734,154.3,44.806z"/>
		</g>
	</g>
</g>
</svg>
