<?xml version="1.0" encoding="UTF-8"?>
<!DOCTYPE svg PUBLIC "-//W3C//DTD SVG 1.1//EN" "http://www.w3.org/Graphics/SVG/1.1/DTD/svg11.dtd">
<!-- Creator: CorelDRAW -->
<svg xmlns="http://www.w3.org/2000/svg" xml:space="preserve" width="2048px" height="2048px" style="shape-rendering:geometricPrecision; text-rendering:geometricPrecision; image-rendering:optimizeQuality; fill-rule:evenodd; clip-rule:evenodd"
viewBox="0 0 2048 2048"
 xmlns:xlink="http://www.w3.org/1999/xlink">
 <defs>
  <style type="text/css">
   <![CDATA[
    .fil1 {fill:none}
    .fil0 {fill:#A4A4A5}
    .fil2 {fill:#717171;fill-rule:nonzero}
   ]]>
  </style>
 </defs>
 <g id="Layer_x0020_1">
  <metadata id="CorelCorpID_0Corel-Layer"/>
  <path class="fil0" d="M1088 1344l416 0c70.6654,0 134.671,-28.6677 181.004,-75.0024 46.3323,-46.3323 75.0001,-110.332 75.0001,-181.002 0,-55.0855 -17.4449,-105.816 -47.0587,-147.239 -30.6331,-42.8504 -74.2867,-75.8634 -125.139,-93.5741l-22.1492 -7.71379 0.773623 -23.4118c0.158268,-4.813 0.623623,-8.08583 1.08543,-11.3516 0.236221,-1.67008 0.473622,-3.34134 0.473622,-4.71378 0,-97.193 -39.4028,-185.196 -103.101,-248.895 -63.6969,-63.6957 -151.694,-103.099 -248.892,-103.099 -64.5237,0 -124.585,17.5382 -176.111,47.9859 -53.9221,31.8662 -98.6363,77.8595 -129.489,132.705l-11.1532 19.8272 -22.2225 -3.95197c-8.01142,-1.42441 -15.7134,-2.61969 -22.7835,-3.37914 -6.94961,-0.745276 -14.3067,-1.19055 -22.2366,-1.19055 -55.076,0 -105.782,17.4414 -147.181,47.0481 -42.8339,30.6319 -75.8316,74.289 -93.5457,125.15l-8.0067 22.9902 -24.2433 -1.61457c-2.91614,-0.193701 -6.02953,-0.618898 -9.14883,-1.04291 -1.94646,-0.265748 -3.90591,-0.532678 -5.87717,-0.532678 -70.6701,0 -134.672,28.6677 -181.003,74.9989 -46.3347,46.3347 -75.0024,110.339 -75.0024,181.004 0,70.6725 28.6666,134.675 74.9977,181.006 46.3311,46.3323 110.335,74.9977 181.008,74.9977l416 0 128.001 0z"/>
  <g id="_526151976">
   <rect id="_526163184" class="fil1" width="2048" height="2048"/>
   <rect id="_526164432" class="fil1" x="255.999" y="255.999" width="1536" height="1536"/>
  </g>
  <polygon class="fil2" points="1056,1036.54 1056,1568 991.999,1568 991.999,1036.54 839.86,1188.68 794.61,1143.43 1001.37,936.664 1024,914.04 1046.63,936.664 1253.39,1143.43 1208.14,1188.68 "/>
 </g>
</svg>
