<svg id="Layer_1" data-name="Layer 1" xmlns="http://www.w3.org/2000/svg" viewBox="0 0 128 128"><title>DATING APPS</title><path d="M96.425,57.7c0-5.575-2.976-11.2-9.625-11.2a10.01,10.01,0,0,0-7.872,3.358A9.841,9.841,0,0,0,71.98,46.54a10.571,10.571,0,0,0-8.81-4.19,12.151,12.151,0,0,0-9.94,4.49l-.007.01a12.14,12.14,0,0,0-9.948-4.5c-8.082,0-11.7,6.876-11.7,13.69,0,12.419,11.168,23.572,20.736,29.353l.009.007a1.961,1.961,0,0,0,.33.15.379.379,0,0,0,.069.02c.035.011.069.019.1.027a.672.672,0,0,0,.167.033,1.794,1.794,0,0,0,.22.02h.03a1.794,1.794,0,0,0,.22-.02c.046-.006.088-.017.131-.026s.079-.016.119-.028a.425.425,0,0,0,.09-.026,1.674,1.674,0,0,0,.174-.079c.04-.019.081-.032.119-.054.012-.006.026-.01.037-.017A53.084,53.084,0,0,0,68.19,73.08a43.081,43.081,0,0,0,9.83,8.17c.012.007.026.011.038.017.036.021.076.033.113.052.061.027.119.059.179.081a.427.427,0,0,0,.093.026c.037.011.074.018.112.027a.589.589,0,0,0,.135.027,1.8,1.8,0,0,0,.22.02h.03a1.793,1.793,0,0,0,.22-.02,1.373,1.373,0,0,0,.172-.034c.033-.008.064-.016.1-.025a.371.371,0,0,0,.071-.02,1.651,1.651,0,0,0,.33-.15l.013-.011C87.5,76.614,96.425,67.678,96.425,57.7ZM53.237,81.836c-9.182-5.826-18.161-15.856-18.161-25.8,0-1.7.4-10.19,8.2-10.19,5.955,0,7.971,4.176,8.265,4.87h0a.037.037,0,0,1,.01.03.22.22,0,0,1,.013.025l.015.037a1.706,1.706,0,0,0,.093.2c.007.013.012.03.019.042l0,0a1.742,1.742,0,0,0,.121.19c.022.031.043.061.067.09a1.71,1.71,0,0,0,.161.168l.007.008c.013.013.026.022.038.033.037.032.072.068.111.1h0a1.747,1.747,0,0,0,.4.21c.013,0,.023.015.037.019s.036.008.053.013a1.728,1.728,0,0,0,.217.054l.01,0,.017,0a1.733,1.733,0,0,0,.263.026l.02,0c.031,0,.062,0,.094-.007a1.718,1.718,0,0,0,.422-.073.053.053,0,0,1,.015,0l.02-.009c.015-.005.03-.006.045-.011a1.733,1.733,0,0,0,.869-.692l.006-.008c.009-.013.014-.026.022-.04a1.767,1.767,0,0,0,.114-.213.553.553,0,0,0,.044-.088c.07-.21,1.94-4.98,8.3-4.98a7.62,7.62,0,0,1,4.42,1.24c-4.23,1.59-6.17,6.11-6.17,10.61a21.838,21.838,0,0,0,4.5,12.54A48.714,48.714,0,0,1,53.237,81.836Zm25.682-4.154A39.12,39.12,0,0,1,70.28,70.14a29.5,29.5,0,0,1-2.26-3.07,17.642,17.642,0,0,1-3.1-9.37c0-1.21.27-6.96,5.16-7.64a7.533,7.533,0,0,1,.97-.06,7.405,7.405,0,0,1,2.99.57,6.09,6.09,0,0,1,3.2,3.02c.02.06.04.09.04.1s.023.037.031.058a1.732,1.732,0,0,0,.149.284c.012.018.017.04.03.057l.015.019.022.028a1.259,1.259,0,0,0,.122.153c.06.06.12.12.19.18a1.681,1.681,0,0,0,1.129.363l.08,0c.044,0,.087,0,.131-.008a1.04,1.04,0,0,0,.137-.031l.035-.008.049-.011a.09.09,0,0,0,.05-.01c.02-.01.04-.01.06-.02a.769.769,0,0,0,.115-.054c.034-.015.066-.034.1-.051a1.163,1.163,0,0,0,.186-.105l.015-.011.046-.035c.033-.025.068-.05.1-.075s.042-.047.066-.069.073-.073.107-.112c.017-.021.042-.037.057-.059s.041-.062.063-.094.051-.076.074-.116a.554.554,0,0,0,.063-.11c.01-.021.015-.043.024-.064s.031-.055.043-.085A6.393,6.393,0,0,1,86.8,50c5.83,0,6.125,6.414,6.125,7.7C92.925,65.356,86.031,73.108,78.918,77.682Z"/><path d="M97.808,4.75H30.192a7.759,7.759,0,0,0-7.75,7.75v103a7.759,7.759,0,0,0,7.75,7.75H97.808a7.759,7.759,0,0,0,7.75-7.75V12.5A7.759,7.759,0,0,0,97.808,4.75ZM25.942,25.942h76.115v76.115H25.942ZM30.192,8.25H97.808a4.255,4.255,0,0,1,4.25,4.25v9.942H25.942V12.5A4.255,4.255,0,0,1,30.192,8.25Zm67.615,111.5H30.192a4.255,4.255,0,0,1-4.25-4.25v-9.942h76.115V115.5A4.255,4.255,0,0,1,97.808,119.75Z"/><circle cx="64" cy="112.654" r="4"/><path d="M55.154,17.1H72.846a1.75,1.75,0,0,0,0-3.5H55.154a1.75,1.75,0,0,0,0,3.5Z"/></svg>