<svg id="artwork" xmlns="http://www.w3.org/2000/svg" viewBox="0 0 512 512"><title>Microchip</title><g id="Microchip"><circle cx="174.49" cy="62.42" r="11.56" transform="translate(-2.27 118.1) rotate(-37.17)" style="fill:#fff"/><circle cx="280.68" cy="73.99" r="11.56" transform="translate(38.71 234.32) rotate(-48.3)" style="fill:#fff"/><circle cx="320.55" cy="60.31" r="11.56" transform="translate(209.85 367.12) rotate(-80.82)" style="fill:#59aee4"/><circle cx="450.57" cy="166.91" r="11.56" transform="translate(13.94 367.49) rotate(-45)" style="fill:#fff"/><circle cx="439" cy="273.1" r="11.56" transform="translate(69.75 634.97) rotate(-76.31)" style="fill:#fff"/><circle cx="452.68" cy="312.97" r="11.56" style="fill:#59aee4"/><circle cx="349.13" cy="443.85" r="11.56" transform="translate(-211.59 376.87) rotate(-45)" style="fill:#fff"/><circle cx="242.95" cy="432.28" r="11.56" style="fill:#fff"/><circle cx="203.07" cy="445.96" r="11.56" transform="translate(-255.86 274.21) rotate(-45)" style="fill:#59aee4"/><circle cx="70.36" cy="339.48" r="11.56" transform="translate(-276.21 330.36) rotate(-76.78)" style="fill:#fff"/><circle cx="81.92" cy="233.3" r="11.56" style="fill:#fff"/><circle cx="68.24" cy="193.42" r="11.56" transform="translate(-116.78 104.91) rotate(-45)" style="fill:#59aee4"/><rect x="160.04" y="152.1" width="201.85" height="201.85" style="fill:#fff"/><rect x="161.68" y="250.73" width="201.85" height="103.21" style="fill:#c6d0dc"/><rect x="236.21" y="228.01" width="50.81" height="51.57" style="fill:#f7c648"/><rect x="190.14" y="130.3" width="23.52" height="23.52" style="fill:#f7c648"/><rect x="250.16" y="130.3" width="23.52" height="23.52" style="fill:#f7c648"/><rect x="308.79" y="130.3" width="23.52" height="23.52" style="fill:#f7c648"/><rect x="360.17" y="182.91" width="23.52" height="23.52" style="fill:#f7c648"/><rect x="360.17" y="242.93" width="23.52" height="23.52" style="fill:#f7c648"/><rect x="360.17" y="301.57" width="23.52" height="23.52" style="fill:#f7c648"/><rect x="138.74" y="182.3" width="23.52" height="23.52" style="fill:#f7c648"/><rect x="138.74" y="242.32" width="23.52" height="23.52" style="fill:#f7c648"/><rect x="138.74" y="300.95" width="23.52" height="23.52" style="fill:#f7c648"/><rect x="310.18" y="352.34" width="23.52" height="23.52" style="fill:#f7c648"/><rect x="250.16" y="352.34" width="23.52" height="23.52" style="fill:#f7c648"/><rect x="191.52" y="352.34" width="23.52" height="23.52" style="fill:#f7c648"/><polygon points="228.9 285.57 293.02 285.57 293.02 247.17 281.02 247.17 281.02 273.57 240.9 273.57 240.9 233.46 281.02 233.46 281.02 238.88 293.02 238.88 293.02 221.46 228.9 221.46 228.9 285.57"/><rect x="238.67" y="171.12" width="15" height="12"/><rect x="268.67" y="171.12" width="15" height="12"/><rect x="178.67" y="171.12" width="15" height="12"/><rect x="298.67" y="171.12" width="15" height="12"/><rect x="328.67" y="171.12" width="14.58" height="12"/><rect x="208.67" y="171.12" width="15" height="12"/><rect x="208.67" y="194.56" width="15" height="12"/><rect x="298.67" y="194.56" width="15" height="12"/><rect x="178.67" y="194.56" width="15" height="12"/><rect x="238.67" y="194.56" width="15" height="12"/><rect x="328.67" y="194.56" width="14.58" height="12"/><rect x="268.67" y="194.56" width="15" height="12"/><rect x="238.67" y="299.49" width="15" height="12"/><rect x="208.67" y="299.49" width="15" height="12"/><rect x="298.67" y="299.49" width="15" height="12"/><rect x="268.67" y="299.49" width="15" height="12"/><rect x="328.67" y="299.49" width="14.58" height="12"/><rect x="178.67" y="299.49" width="15" height="12"/><rect x="178.67" y="322.93" width="15" height="12"/><rect x="298.67" y="322.93" width="15" height="12"/><rect x="268.67" y="322.93" width="15" height="12"/><rect x="238.67" y="322.93" width="15" height="12"/><rect x="208.67" y="322.93" width="15" height="12"/><rect x="328.67" y="322.93" width="14.58" height="12"/><rect x="178.67" y="247.66" width="15" height="12"/><rect x="328.67" y="247.66" width="14.58" height="12"/><rect x="178.67" y="273.58" width="15" height="12"/><rect x="328.67" y="273.58" width="14.58" height="12"/><rect x="328.67" y="221.11" width="14.58" height="12"/><rect x="178.67" y="221.11" width="15" height="12"/><path d="M452.68,295.41A17.57,17.57,0,0,0,436.19,307H388v-9.71h-20.1V270.09H388V259.38h16.18l17.6,10.84a17.1,17.1,0,0,0-.32,3.3,17.59,17.59,0,1,0,6.46-13.6l-20.34-12.54H388V237.24h-20.1V211.46H388V200.31h21.11l30.57-19.65A17.55,17.55,0,1,0,433,166.91a17.83,17.83,0,0,0,.36,3.53l-27.8,17.87H388V178.6h-20.1V146.1H337V126H326.55V76.79a17.56,17.56,0,1,0-12,0V126H304.12V146.1H278.34V126H267V108.83l10.84-17.6a17.92,17.92,0,0,0,3.3.32,17.61,17.61,0,1,0-13.6-6.47L255,105.43V126h-9.47V146.1H218.32V126H207.89V103.9L188.24,73.33A17.55,17.55,0,1,0,174.49,80a17.83,17.83,0,0,0,3.53-.36l17.87,27.79V126H185.47V146.1H154v31.81H134V188H84.73a17.56,17.56,0,1,0,0,12H134v10.72H154v25.78H134v11.08H116.77l-17.6-10.84a17.9,17.9,0,0,0,.32-3.29A17.59,17.59,0,1,0,93,247.09l20.35,12.53H134v9.78H154v27.16H134v10.13H111.83L81.27,326.35a17.55,17.55,0,1,0,6.65,13.74,17.83,17.83,0,0,0-.35-3.53l27.79-17.87H134v10.73H154V360h32.12v20.2h10.48v49.32a17.57,17.57,0,1,0,12,0V380.15H219V360h27.17v20.2h10.05v17.29L245.39,415a17.07,17.07,0,0,0-3.29-.32,17.57,17.57,0,1,0,13.6,6.46l12.53-20.34V380.15H279V360h25.79v20.2H315.3v22.22L335,432.94a17.54,17.54,0,1,0,13.74-6.66,17.11,17.11,0,0,0-3.53.36l-17.87-27.8V380.15h10.37V360h30.21V330.11H388V319h48.21a17.56,17.56,0,1,0,16.49-23.56ZM439,268a5.57,5.57,0,1,1-5.56,5.57A5.58,5.58,0,0,1,439,268Zm11.57-106.6a5.57,5.57,0,1,1-5.57,5.56A5.57,5.57,0,0,1,450.57,161.35ZM367.88,190.6H376v8.86h-8.1Zm0,58.64H376v8.85h-8.1ZM281.1,68.42A5.57,5.57,0,1,1,275.53,74,5.58,5.58,0,0,1,281.1,68.42ZM174.49,68a5.57,5.57,0,1,1,5.57-5.57A5.58,5.58,0,0,1,174.49,68ZM68.24,199.6A5.57,5.57,0,1,1,73.81,194,5.57,5.57,0,0,1,68.24,199.6Zm13.68,39.45a5.57,5.57,0,1,1,5.57-5.56A5.56,5.56,0,0,1,81.92,239.05ZM70.36,345.66a5.57,5.57,0,1,1,5.56-5.57A5.58,5.58,0,0,1,70.36,345.66ZM154,317.42H146v-8.86H154Zm0-60H146v-8.86H154Zm0-58.64H146v-8.85H154ZM242.1,437.84a5.56,5.56,0,1,1,5.56-5.56A5.57,5.57,0,0,1,242.1,437.84Zm106.6.44a5.57,5.57,0,1,1-5.56,5.56A5.57,5.57,0,0,1,348.7,438.28ZM320.55,54.74A5.57,5.57,0,1,1,315,60.31,5.57,5.57,0,0,1,320.55,54.74ZM325,138v8.09h-8.86V138Zm-67.49,0h8.85v8.09h-8.85Zm-60,0h8.85v8.09h-8.85Zm5.17,313.51a5.57,5.57,0,1,1,5.57-5.56A5.57,5.57,0,0,1,202.64,451.52Zm-4.48-83.37v-8.09H207v8.09Zm68.87,0h-8.85v-8.09H267Zm58.64,0h-8.85v-8.09h8.85ZM355.88,178.6V348H166V158.1H355.88ZM376,318.11h-8.1v-8.85H376Zm76.7.42a5.56,5.56,0,1,1,5.57-5.56A5.56,5.56,0,0,1,452.68,318.53Z"/></g></svg>