<?xml version="1.0" encoding="utf-8"?>
<!-- Generator: Adobe Illustrator 24.3.0, SVG Export Plug-In . SVG Version: 6.00 Build 0)  -->
<svg version="1.1" id="Layer_1" xmlns="http://www.w3.org/2000/svg" xmlns:xlink="http://www.w3.org/1999/xlink" x="0px" y="0px"
	 viewBox="0 0 180 180" style="enable-background:new 0 0 180 180;" xml:space="preserve">
<style type="text/css">
	.st0{fill:#333333;}
	.st1{fill:#45525B;}
	.st2{fill:#EF7048;}
	.st3{fill:#FF9975;}
	.st4{fill:#FFFFFF;}
</style>
<g>
	<g id="XMLID_370_">
		<path class="st0" d="M90,25.4c-35.7,0-64.6,28.9-64.6,64.6c0,35.7,28.9,64.6,64.6,64.6c35.7,0,64.6-28.9,64.6-64.6
			C154.6,54.3,125.7,25.4,90,25.4z"/>
	</g>
	<g>
		<g>
			<path class="st1" d="M74.8,65.3H52.7c-2,0-3.6,1.6-3.6,3.6c0,2,1.6,3.6,3.6,3.6h22.1c2,0,3.6-1.6,3.6-3.6
				C78.5,66.9,76.9,65.3,74.8,65.3z"/>
		</g>
		<g>
			<path class="st1" d="M73.8,79.4H39c-2,0-3.6,1.6-3.6,3.6c0,2,1.6,3.6,3.6,3.6h34.8c2,0,3.6-1.6,3.6-3.6
				C77.4,81.1,75.8,79.4,73.8,79.4z"/>
		</g>
		<g>
			<path class="st1" d="M87.4,79.4h-5.4c-2,0-3.6,1.6-3.6,3.6c0,2,1.6,3.6,3.6,3.6h5.4c2,0,3.6-1.6,3.6-3.6
				C91.1,81.1,89.4,79.4,87.4,79.4z"/>
		</g>
		<g>
			<path class="st1" d="M70.9,72.4H53.3c1.8,0,3.2,1.5,3.2,3.2v0.8c0,1.8-1.5,3.2-3.2,3.2h17.6c-1.8,0-3.2-1.5-3.2-3.2v-0.8
				C67.7,73.8,69.1,72.4,70.9,72.4z"/>
		</g>
	</g>
	<g>
		<g>
			<path class="st1" d="M128.6,55.6h-15.9c-1.4,0-2.6,1.2-2.6,2.6c0,1.4,1.2,2.6,2.6,2.6h15.9c1.4,0,2.6-1.2,2.6-2.6
				C131.2,56.7,130,55.6,128.6,55.6z"/>
		</g>
		<g>
			<path class="st1" d="M127.8,65.7h-25c-1.4,0-2.6,1.2-2.6,2.6c0,1.4,1.2,2.6,2.6,2.6h25c1.4,0,2.6-1.2,2.6-2.6
				C130.4,66.9,129.2,65.7,127.8,65.7z"/>
		</g>
		<g>
			<path class="st1" d="M137.6,65.7h-3.8c-1.4,0-2.6,1.2-2.6,2.6c0,1.4,1.2,2.6,2.6,2.6h3.8c1.4,0,2.6-1.2,2.6-2.6
				C140.2,66.9,139,65.7,137.6,65.7z"/>
		</g>
		<g>
			<path class="st1" d="M125.7,60.6h-12.6c1.3,0,2.3,1,2.3,2.3v0.6c0,1.3-1,2.3-2.3,2.3h12.6c-1.3,0-2.3-1-2.3-2.3V63
				C123.4,61.7,124.5,60.6,125.7,60.6z"/>
		</g>
	</g>
	<g>
		<g>
			<path class="st1" d="M98.6,43.9H82.7c-1.4,0-2.6,1.2-2.6,2.6c0,1.4,1.2,2.6,2.6,2.6h15.9c1.4,0,2.6-1.2,2.6-2.6v0
				C101.2,45,100,43.9,98.6,43.9z"/>
		</g>
		<g>
			<path class="st1" d="M108.5,33.7h-25c-1.4,0-2.6,1.2-2.6,2.6c0,1.4,1.2,2.6,2.6,2.6h25c1.4,0,2.6-1.2,2.6-2.6
				C111.1,34.9,109.9,33.7,108.5,33.7z"/>
		</g>
		<g>
			<path class="st1" d="M77.5,33.7h-3.8c-1.4,0-2.6,1.2-2.6,2.6c0,1.4,1.2,2.6,2.6,2.6h3.8c1.4,0,2.6-1.2,2.6-2.6
				C80.1,34.9,79,33.7,77.5,33.7z"/>
		</g>
		<g>
			<path class="st1" d="M98.2,38.8H85.5c1.3,0,2.3,1,2.3,2.3v0.6c0,1.3-1,2.3-2.3,2.3h12.6c-1.3,0-2.3-1-2.3-2.3v-0.6
				C95.9,39.8,96.9,38.8,98.2,38.8z"/>
		</g>
	</g>
	<g>
		<g>
			<path class="st1" d="M119.5,125H66.3c-1.5,0-2.8,1.3-2.8,2.8v1c0,1.5,1.3,2.8,2.8,2.8h53.2c1.5,0,2.8-1.3,2.8-2.8v-1
				C122.3,126.3,121,125,119.5,125z"/>
		</g>
		<g>
			<path class="st1" d="M119.1,137.9H60c-1.5,0-2.8,1.3-2.8,2.8v1c0,1.5,1.3,2.8,2.8,2.8h59.1c1.5,0,2.8-1.3,2.8-2.8v-1
				C121.9,139.1,120.6,137.9,119.1,137.9z"/>
		</g>
		<g>
			<path class="st1" d="M129,131.6h-5.9c-1.5,0-2.8,1.3-2.8,2.8v1c0,1.5,1.3,2.8,2.8,2.8h5.9c1.5,0,2.8-1.3,2.8-2.8v-1
				C131.8,132.9,130.5,131.6,129,131.6z"/>
		</g>
		<g>
			<path class="st1" d="M57.4,125h-5.9c-1.5,0-2.8,1.3-2.8,2.8v1c0,1.5,1.3,2.8,2.8,2.8h5.9c1.5,0,2.8-1.3,2.8-2.8v-1
				C60.2,126.3,58.9,125,57.4,125z"/>
		</g>
		<g>
			<path class="st1" d="M115.4,131.4H67.3c1.6,0,2.9,1.3,2.9,2.9v0.8c0,1.6-1.3,2.9-2.9,2.9h48.1c-1.6,0-2.9-1.3-2.9-2.9v-0.8
				C112.5,132.8,113.8,131.4,115.4,131.4z"/>
		</g>
	</g>
	<g id="XMLID_287_">
		<g id="XMLID_317_">
			<g id="XMLID_325_">
				<g id="XMLID_341_">
					<path class="st2" d="M81.2,41.4c-6-0.2-7.5,4.8-7.5,4.8c-9.5,0.5-10.6,5.9-10.6,5.9c-7.4,2.4-7.1,10-7.1,10
						c-5.5,4.3-2.8,10.1-2.8,10.1c-4.5,5.1,0,10.9,0,10.9C52.4,91.2,57,93.7,57,93.7c2.4,9,10.5,9.3,10.5,9.3
						c4.1,6.3,12.5,4.2,12.5,4.2c7.5-0.2,8.6-9.1,8.6-9.1V47.4C87.9,46.1,87.2,41.6,81.2,41.4z"/>
				</g>
				<g id="XMLID_337_">
					<path class="st3" d="M76.4,44.7c0,0-4.5,4.9,0,9.2c0,0,4-1.1,5.5-0.5c0,0,0.5,0.2,0.2,1c0,0-1.1,1.6,0.2,4c0,0,0.3,1.6-1,0.8
						c0,0-3.9-1.9-6.2-4c0,0-2.8-1.8-2.5-7c0,0-5.7-0.7-8.5,5.4c0,0-6.3,1.2-6.1,8.3c0,0,0.3,7.9,7.2,9.4c0,0,2.6,0.3,4.2,0
						c0,0-1-3.4-0.5-4.5c0.2-0.5,1.2-1.5,2-0.1c0,0-1.6,7.2,5.5,7.4c0,0,7.8-2.8,10.3-13.2V47.3C86.7,47.3,83.2,40.2,76.4,44.7z"/>
				</g>
				<g id="XMLID_326_">
					<path class="st3" d="M70.4,77.8c-2.4-0.6-1.3-5.4-1.3-5.4c-11.3,1.9-12.7-8.1-12.7-8.1c-3.7,3-1.3,8.3-1.3,8.3
						c-5.5,8.2,1.6,11.1,1.6,11.1c5,2.9,9.6-0.4,9.6-0.4l0.9-0.8c4,4.9,9.1,2,9.1,2l1.3-2.5l2.1,4.5c-1.1,0.9-2.4-0.7-2.4-0.7
						c-6.2,3.4-10.7-1.2-10.7-1.2c-0.7,1.1-4.2,1.9-4.2,1.9c-3.6,0.7-8-1.9-8-1.9c-0.4,4.8,3.6,8,3.6,8c2.9,8,7.9,8.1,7.9,8.1
						C62.8,93,68.3,88,68.3,88c1.7-1.1,1.8,1.2,1.8,1.2c-4.4,3.2-3,9-3,9c1.4,7.8,10.4,7.9,10.4,7.9c7.5,0.1,9.3-7.9,9.3-7.9V67.2
						C80.8,77.6,70.4,77.8,70.4,77.8z"/>
				</g>
			</g>
		</g>
		<g id="XMLID_298_">
			<g id="XMLID_304_">
				<g id="XMLID_316_">
					<path class="st2" d="M126.8,72.1c0,0,2.6-5.8-2.8-10.1c0,0,0.3-7.6-7.1-10c0,0-1.1-5.4-10.6-5.9c0,0-1.5-5-7.5-4.8
						c-6,0.2-6.7,4.7-7.4,6v50.7c0,0,1.1,8.9,8.6,9.1c0,0,8.5,2.1,12.5-4.2c0,0,8.1-0.3,10.5-9.3c0,0,4.6-2.5,3.8-10.7
						C126.8,83,131.2,77.3,126.8,72.1z"/>
				</g>
				<g id="XMLID_315_">
					<path class="st3" d="M115.8,53.5c-2.8-6.1-8.5-5.4-8.5-5.4c0.3,5.1-2.5,7-2.5,7c-2.4,2-6.2,4-6.2,4c-1.3,0.9-1-0.8-1-0.8
						c1.3-2.4,0.2-4,0.2-4c-0.3-0.7,0.2-1,0.2-1c1.5-0.6,5.5,0.5,5.5,0.5c4.5-4.3,0-9.2,0-9.2c-6.8-4.5-10.3,2.7-10.3,2.7v13.5
						C95.8,71.3,103.6,74,103.6,74c7.1-0.2,5.5-7.4,5.5-7.4c0.8-1.4,1.8-0.4,2,0.1c0.4,1.1-0.5,4.5-0.5,4.5c1.6,0.3,4.2,0,4.2,0
						c6.8-1.5,7.2-9.4,7.2-9.4C122.1,54.7,115.8,53.5,115.8,53.5z"/>
				</g>
				<g id="XMLID_314_">
					<path class="st3" d="M103.7,84.5c0,0,5.1,2.9,9.1-2l0.9,0.8c0,0,4.5,3.3,9.6,0.4c0,0,7.1-2.9,1.6-11.1c0,0,2.5-5.4-1.3-8.3
						c0,0-1.4,10.1-12.7,8.1c0,0,1.1,4.7-1.3,5.4c0,0-10.4-0.2-16.3-10.6v30.9c0,0,1.8,8,9.3,7.9c0,0,9-0.1,10.4-7.9
						c0,0,1.4-5.8-3-9c0,0,0.1-2.2,1.8-1.2c0,0,5.5,5,2.2,12.9c0,0,5-0.1,7.9-8.1c0,0,4.1-3.2,3.6-8c0,0-4.4,2.6-8,1.9
						c0,0-3.4-0.8-4.2-1.9c0,0-4.5,4.6-10.7,1.2c0,0-1.3,1.6-2.4,0.7l2.1-4.5L103.7,84.5z"/>
				</g>
			</g>
		</g>
	</g>
	<g>
		<g>
			<path class="st4" d="M73,115.2c-3.9-1.1-5-4.7-10.4-10.6c-5.4-5.9-10-2.4-4.7,3.8c5.4,6.2,5.4,8.7,2.8,8.1
				c-2.4-0.5-12.1-8.3-12.1-14.6V93c0,0,0,0,0,0c0-1-0.6-1.9-1.3-2.3c-0.4-0.3-0.9-0.4-1.5-0.4c-0.6,0-1.1,0.2-1.5,0.4
				C43.5,91.2,43,92,43,93c0,0.1,0,0.2,0,0.3v12.3c0,0-0.3,2.5,2.4,5.3c1.9,1.9,6.6,8.6,6.6,8.6s1.4,3,4.3,4.6
				c2.9,1.6,7.8,3.6,11.6,4.8c3.8,1.2,1.5,13.4,1.5,13.4h14v-17.9C83.5,124.3,83.4,118.1,73,115.2z"/>
		</g>
		<g>
			<path class="st4" d="M137,93.3c0-0.1,0-0.2,0-0.3c0-1-0.5-1.9-1.3-2.4c-0.4-0.3-1-0.4-1.5-0.4c-0.5,0-1,0.2-1.5,0.4
				c-0.8,0.5-1.3,1.4-1.3,2.3c0,0,0,0,0,0v8.9c0,6.3-9.7,14.1-12.1,14.6c-2.6,0.5-2.5-1.9,2.8-8.1c5.4-6.2,0.7-9.7-4.7-3.8
				c-5.4,5.9-6.5,9.6-10.4,10.6c-10.5,2.9-10.5,9.1-10.5,9.1v17.9h14c0,0-2.3-12.2,1.6-13.4c3.8-1.2,8.7-3.2,11.6-4.8
				c2.9-1.6,4.3-4.6,4.3-4.6s4.7-6.6,6.6-8.6c2.8-2.8,2.4-5.3,2.4-5.3V93.3z"/>
		</g>
	</g>
	<g>
		<g>
			<path class="st4" d="M45.2,72.8H35.1c-0.2,0-0.4,0.2-0.4,0.4c0,0.2,0.2,0.4,0.4,0.4h10.2c0.2,0,0.4-0.2,0.4-0.4
				C45.6,73,45.4,72.8,45.2,72.8z"/>
		</g>
		<g>
			<path class="st4" d="M46,69.2h-1.6c-0.2,0-0.4,0.2-0.4,0.4c0,0.2,0.2,0.4,0.4,0.4H46c0.2,0,0.4-0.2,0.4-0.4
				C46.4,69.3,46.3,69.2,46,69.2z"/>
		</g>
		<g>
			<path class="st4" d="M44.1,76.4h-1.6c-0.2,0-0.4,0.2-0.4,0.4c0,0.2,0.2,0.4,0.4,0.4h1.6c0.2,0,0.4-0.2,0.4-0.4
				C44.5,76.6,44.4,76.4,44.1,76.4z"/>
		</g>
		<g>
			<path class="st4" d="M42.5,69.2h-6.2c-0.2,0-0.4,0.2-0.4,0.4c0,0.2,0.2,0.4,0.4,0.4h6.2c0.2,0,0.4-0.2,0.4-0.4
				C42.9,69.3,42.7,69.2,42.5,69.2z"/>
		</g>
		<g>
			<path class="st4" d="M49,63.9h-7.5c-0.2,0-0.4,0.2-0.4,0.4s0.2,0.4,0.4,0.4H49c0.2,0,0.4-0.2,0.4-0.4S49.2,63.9,49,63.9z"/>
		</g>
	</g>
	<g>
		<g>
			<path class="st4" d="M128.3,43.5h-10.2c-0.2,0-0.4,0.2-0.4,0.4c0,0.2,0.2,0.4,0.4,0.4h10.2c0.2,0,0.4-0.2,0.4-0.4
				C128.7,43.7,128.6,43.5,128.3,43.5z"/>
		</g>
		<g>
			<path class="st4" d="M116.3,46.3h-1.6c-0.2,0-0.4,0.2-0.4,0.4c0,0.2,0.2,0.4,0.4,0.4h1.6c0.2,0,0.4-0.2,0.4-0.4
				C116.7,46.5,116.5,46.3,116.3,46.3z"/>
		</g>
		<g>
			<path class="st4" d="M114.3,39.9h-1.6c-0.2,0-0.4,0.2-0.4,0.4c0,0.2,0.2,0.4,0.4,0.4h1.6c0.2,0,0.4-0.2,0.4-0.4
				C114.7,40.1,114.5,39.9,114.3,39.9z"/>
		</g>
		<g>
			<path class="st4" d="M124.4,46.3h-6.2c-0.2,0-0.4,0.2-0.4,0.4c0,0.2,0.2,0.4,0.4,0.4h6.2c0.2,0,0.4-0.2,0.4-0.4
				C124.8,46.5,124.6,46.3,124.4,46.3z"/>
		</g>
		<g>
			<path class="st4" d="M130.9,50.2h-7.5c-0.2,0-0.4,0.2-0.4,0.4c0,0.2,0.2,0.4,0.4,0.4h7.5c0.2,0,0.4-0.2,0.4-0.4
				C131.2,50.4,131.1,50.2,130.9,50.2z"/>
		</g>
	</g>
	<g>
		<g>
			<path class="st4" d="M146.6,78.7h-10.2c-0.2,0-0.4,0.2-0.4,0.4c0,0.2,0.2,0.4,0.4,0.4h10.2c0.2,0,0.4-0.2,0.4-0.4
				C147,78.8,146.9,78.7,146.6,78.7z"/>
		</g>
		<g>
			<path class="st4" d="M134.6,81.4h-1.6c-0.2,0-0.4,0.2-0.4,0.4s0.2,0.4,0.4,0.4h1.6c0.2,0,0.4-0.2,0.4-0.4S134.8,81.4,134.6,81.4z
				"/>
		</g>
		<g>
			<path class="st4" d="M132.6,75.1H131c-0.2,0-0.4,0.2-0.4,0.4c0,0.2,0.2,0.4,0.4,0.4h1.6c0.2,0,0.4-0.2,0.4-0.4
				C133,75.2,132.8,75.1,132.6,75.1z"/>
		</g>
		<g>
			<path class="st4" d="M142.7,81.4h-6.2c-0.2,0-0.4,0.2-0.4,0.4s0.2,0.4,0.4,0.4h6.2c0.2,0,0.4-0.2,0.4-0.4S142.9,81.4,142.7,81.4z
				"/>
		</g>
	</g>
	<g>
		<g>
			<path class="st4" d="M97.3,113.1H87.2c-0.2,0-0.4,0.2-0.4,0.4c0,0.2,0.2,0.4,0.4,0.4h10.2c0.2,0,0.4-0.2,0.4-0.4
				C97.7,113.2,97.6,113.1,97.3,113.1z"/>
		</g>
		<g>
			<path class="st4" d="M85.3,115.8h-1.6c-0.2,0-0.4,0.2-0.4,0.4c0,0.2,0.2,0.4,0.4,0.4h1.6c0.2,0,0.4-0.2,0.4-0.4
				C85.7,116,85.5,115.8,85.3,115.8z"/>
		</g>
		<g>
			<path class="st4" d="M83.3,109.5h-1.6c-0.2,0-0.4,0.2-0.4,0.4c0,0.2,0.2,0.4,0.4,0.4h1.6c0.2,0,0.4-0.2,0.4-0.4
				C83.7,109.6,83.5,109.5,83.3,109.5z"/>
		</g>
		<g>
			<path class="st4" d="M93.4,115.8h-6.2c-0.2,0-0.4,0.2-0.4,0.4c0,0.2,0.2,0.4,0.4,0.4h6.2c0.2,0,0.4-0.2,0.4-0.4
				C93.7,116,93.6,115.8,93.4,115.8z"/>
		</g>
	</g>
	<g>
		<g>
			<path class="st4" d="M60.9,46.6H50.7c-0.2,0-0.4,0.2-0.4,0.4c0,0.2,0.2,0.4,0.4,0.4h10.2c0.2,0,0.4-0.2,0.4-0.4
				C61.2,46.8,61.1,46.6,60.9,46.6z"/>
		</g>
		<g>
			<path class="st4" d="M64.4,43.8h-1.6c-0.2,0-0.4,0.2-0.4,0.4c0,0.2,0.2,0.4,0.4,0.4h1.6c0.2,0,0.4-0.2,0.4-0.4
				C64.8,44,64.6,43.8,64.4,43.8z"/>
		</g>
		<g>
			<path class="st4" d="M70.9,45.4h-1.6c-0.2,0-0.4,0.2-0.4,0.4c0,0.2,0.2,0.4,0.4,0.4h1.6c0.2,0,0.4-0.2,0.4-0.4
				C71.3,45.5,71.1,45.4,70.9,45.4z"/>
		</g>
		<g>
			<path class="st4" d="M60.9,43.8h-6.2c-0.2,0-0.4,0.2-0.4,0.4c0,0.2,0.2,0.4,0.4,0.4h6.2c0.2,0,0.4-0.2,0.4-0.4
				C61.2,44,61.1,43.8,60.9,43.8z"/>
		</g>
		<g>
			<path class="st4" d="M70.1,41h-7.5c-0.2,0-0.4,0.2-0.4,0.4s0.2,0.4,0.4,0.4h7.5c0.2,0,0.4-0.2,0.4-0.4S70.3,41,70.1,41z"/>
		</g>
	</g>
</g>
</svg>
