<svg xmlns="http://www.w3.org/2000/svg" width="128" height="128" viewBox="0 0 128 128">
  <title>COMPUTER</title>
  <g>
    <g>
      <rect x="24.196" y="27.35" width="79.602" height="55.772" rx="3.434" ry="3.434" fill="#c5dcf7"/>
      <path d="M100.364,27.35H27.63A3.434,3.434,0,0,0,24.2,30.783v40.6h79.6v-40.6A3.433,3.433,0,0,0,100.364,27.35Z" fill="#e9f1f8"/>
      <circle cx="63.997" cy="58.595" r="6.765" fill="#ffd92d"/>
      <g>
        <path d="M52.652,49a1.75,1.75,0,0,1-1.237-2.987,17.794,17.794,0,0,1,25.164,0,1.75,1.75,0,0,1-2.474,2.475,14.3,14.3,0,0,0-20.215,0A1.745,1.745,0,0,1,52.652,49Z" fill="#ff9001"/>
        <path d="M46.164,42.512a1.751,1.751,0,0,1-1.238-2.988,26.973,26.973,0,0,1,38.142,0A1.75,1.75,0,0,1,80.593,42,23.472,23.472,0,0,0,47.4,42,1.743,1.743,0,0,1,46.164,42.512Z" fill="#fd4b4a"/>
      </g>
      <polygon points="74.039 93.06 53.955 93.06 56.334 83.122 71.66 83.122 74.039 93.06" fill="#224071"/>
      <polygon points="80.664 100.65 47.33 100.65 49.33 93.06 78.664 93.06 80.664 100.65" fill="#455e9f"/>
    </g>
    <g>
      <path d="M69.612,62.762a1.751,1.751,0,0,0,2.279-.964A8.527,8.527,0,1,0,67.2,66.485a1.75,1.75,0,0,0-1.316-3.243,5.014,5.014,0,1,1,2.76-2.76A1.751,1.751,0,0,0,69.612,62.762Z" fill="#001c5b"/>
      <path d="M76.582,48.487a1.749,1.749,0,0,0,0-2.475,17.794,17.794,0,0,0-25.164,0,1.75,1.75,0,1,0,2.475,2.474,14.295,14.295,0,0,1,20.214,0A1.751,1.751,0,0,0,76.582,48.487Z" fill="#001c5b"/>
      <path d="M83.071,42a1.751,1.751,0,0,0,0-2.475,26.973,26.973,0,0,0-38.142,0A1.75,1.75,0,1,0,47.4,42,23.472,23.472,0,0,1,80.6,42,1.749,1.749,0,0,0,83.071,42Z" fill="#001c5b"/>
      <path d="M44.375,29.1H45.5a1.75,1.75,0,0,0,0-3.5H44.375a1.75,1.75,0,0,0,0,3.5Z" fill="#001c5b"/>
      <path d="M100.367,25.6H51.655a1.75,1.75,0,0,0,0,3.5h48.712a1.686,1.686,0,0,1,1.684,1.683V79.688a1.687,1.687,0,0,1-1.684,1.684H83.75a1.75,1.75,0,0,0,0,3.5h16.617a5.19,5.19,0,0,0,5.184-5.184v-48.9A5.189,5.189,0,0,0,100.367,25.6Z" fill="#001c5b"/>
      <path d="M77.25,81.372a1.75,1.75,0,0,0,0,3.5h.917a1.75,1.75,0,0,0,0-3.5Z" fill="#001c5b"/>
      <path d="M80.359,92.614a1.75,1.75,0,0,0-1.692-1.3H75.422l-2.056-8.6s-.008-.007-.009-.012a1.747,1.747,0,0,0-1.694-1.33H27.633a1.687,1.687,0,0,1-1.684-1.684V73.134h70.3a1.75,1.75,0,0,0,0-3.5h-70.3V30.783A1.686,1.686,0,0,1,27.633,29.1H38.5a1.75,1.75,0,0,0,0-3.5H27.633a5.189,5.189,0,0,0-5.184,5.183V79.688a5.19,5.19,0,0,0,5.184,5.184h42.65l1.54,6.438H56.177l.5-2.076a1.75,1.75,0,0,0-3.4-.815l-.691,2.891H49.333a1.75,1.75,0,0,0-1.692,1.3l-2,7.591a1.749,1.749,0,0,0,1.692,2.2H80.667a1.749,1.749,0,0,0,1.692-2.2ZM49.6,98.9l1.078-4.09H77.318L78.4,98.9Z" fill="#001c5b"/>
    </g>
  </g>
</svg>
