<?xml version="1.0" encoding="utf-8"?>
<!-- Generator: Adobe Illustrator 24.0.0, SVG Export Plug-In . SVG Version: 6.00 Build 0)  -->
<svg version="1.1" xmlns="http://www.w3.org/2000/svg" xmlns:xlink="http://www.w3.org/1999/xlink" x="0px" y="0px"
	 viewBox="0 0 256 256" enable-background="new 0 0 256 256" xml:space="preserve">
<g id="Layer_2" display="none">
	<rect x="-1100" y="-2472" display="inline" fill="#FFFFFF" width="1786" height="5896"/>
</g>
<g id="Layer_1">
	<g>
		<path fill="#FC5D3D" d="M220.792,162.574l-61.442,61.442c-35.154,35.154-92.591,36.146-127.936,0.801
			c-35.108-35.121-35.108-92.027,0-127.135l62.243-62.243c3.655-3.655,9.588-3.655,13.243,0l19.203,19.203
			c3.655,3.655,3.655,9.588,0,13.243l-61.72,61.72c-17.213,17.213-17.876,45.413-0.523,62.766c17.163,17.163,45.08,17.163,62.243,0
			l62.243-62.243c3.655-3.655,9.588-3.655,13.243,0l19.203,19.203C224.447,152.986,224.447,158.918,220.792,162.574z"/>
		<path fill="#72C1E8" d="M220.792,162.574l-61.442,61.442c-35.154,35.154-92.591,36.146-127.936,0.801l32.446-32.446
			c17.163,17.163,45.08,17.163,62.243,0l62.243-62.243c3.655-3.655,9.588-3.655,13.243,0l19.203,19.203
			C224.447,152.986,224.447,158.918,220.792,162.574z"/>
		<path fill="#C5E5FE" d="M94.982,242.374c-8.921,0-17.711-1.444-26.128-4.292c-1.309-0.442-2.01-1.861-1.567-3.169
			c0.442-1.308,1.859-2.011,3.169-1.567c7.9,2.673,16.152,4.028,24.526,4.028c20.366,0,39.491-7.909,53.854-22.271l37.081-37.081
			c0.977-0.977,2.559-0.977,3.535,0c0.977,0.976,0.977,2.559,0,3.535l-37.081,37.081
			C137.065,233.944,116.683,242.374,94.982,242.374z M59.32,234.162c-8.041-3.925-15.352-9.148-21.728-15.523
			c-0.977-0.977-0.977-2.559,0-3.536c0.975-0.977,2.559-0.976,3.535,0c5.984,5.983,12.843,10.884,20.386,14.566
			c1.241,0.605,1.756,2.103,1.15,3.343C62.059,234.25,60.564,234.768,59.32,234.162z"/>
		<path fill="#FFCBC3" d="M37.586,218.635c-15.303-15.302-23.73-35.815-23.73-57.39c0-21.017,8.039-41.69,23.74-57.39l37.08-37.08
			c0,0,0,0,0.01,0c0.94-0.94,2.58-0.94,3.521,0c0.979,0.98,0.979,2.56,0,3.54l-37.08,37.08c-14.36,14.36-22.271,33.49-22.271,53.85
			c0,20.37,7.91,39.49,22.271,53.86c0.964,0.964,0.98,2.548,0,3.53C40.178,219.602,38.594,219.644,37.586,218.635z"/>
		<path fill="#EFEFEF" d="M106.9,35.439l19.203,19.203c3.657,3.657,3.657,9.586,0,13.243l-25.162,25.162L68.495,60.601
			l25.162-25.162C97.314,31.782,103.243,31.782,106.9,35.439z"/>
		<path fill="#FFFFFF" d="M74.676,70.315c-0.98-0.97-0.98-2.56,0-3.54l23.84-23.83c0.94-0.95,2.59-0.95,3.53,0
			c0.97,0.97,0.97,2.56,0,3.53l-23.84,23.84C77.231,71.289,75.651,71.29,74.676,70.315z"/>
		<path fill="#EFEFEF" d="M220.792,162.574l-25.162,25.162l-32.446-32.446l25.162-25.162c3.657-3.657,9.586-3.657,13.243,0
			l19.203,19.203C224.449,152.987,224.449,158.917,220.792,162.574z"/>
		<path fill="#FFFFFF" d="M185.917,181.555c-0.971-0.97-0.971-2.56,0-3.53l23.84-23.84c0.939-0.95,2.59-0.95,3.53,0
			c0.979,0.97,0.979,2.56,0,3.53l-23.841,23.84C188.442,182.56,186.858,182.498,185.917,181.555z"/>
		<g>
			<path d="M203.356,128.365c-4.617-4.637-12.154-4.646-16.78,0l-62.239,62.24c-15.941,15.92-42.662,16.668-59.271-0.57
				c-15.643-16.26-15.15-42.43,1.08-58.66c14.549-14.549,57.7-57.701,61.72-61.72c4.67-4.67,4.619-12.182,0-16.78l-19.199-19.21
				c-4.627-4.627-12.155-4.635-16.78,0.01c-6.146,6.146-35.169,35.17-41.18,41.18c-0.98,0.97-0.98,2.56,0,3.54
				c0.939,0.94,2.59,0.94,3.529,0c0.011-0.01,0.011-0.01,0.011-0.02l14.247-14.243l28.913,28.913l-34.791,34.79
				c-17.666,17.668-18.753,46.105-2.241,64.481l-3.899,3.899c-0.97,0.97-0.97,2.56,0,3.54c0.974,0.974,2.566,0.974,3.54,0l3.9-3.9
				c18.742,16.88,46.95,15.32,63.949-1.72l35.315-35.315l5.935,5.935c0.978,0.976,2.557,0.973,3.53,0
				c0.932-0.933,1.017-2.501,0-3.54l-5.934-5.926l23.394-23.394c2.733-2.713,7.059-2.651,9.71,0l19.21,19.2
				c2.665,2.665,2.686,7.024,0,9.71l-23.396,23.396l-8.844-8.836c-0.94-0.95-2.591-0.95-3.53,0c-0.98,0.97-0.98,2.56,0,3.53
				l8.835,8.844l-34.516,34.516c-16.829,16.83-39.199,26.1-63,26.1c-22.408,0-43.487-8.381-59.588-23.582l10.878-10.878
				c1.025-1.025,0.948-2.603,0.011-3.54c-0.95-0.94-2.59-0.94-3.54,0L31.45,221.241c-15.397-16.293-23.864-37.55-23.874-60.216
				c0.011-23.2,9.101-45.07,25.601-61.58l6.92-6.91c0.944-0.944,1.003-2.515,0-3.54c-0.94-0.94-2.59-0.94-3.53,0l-6.92,6.92
				c-17.092,17.092-27.07,40.24-27.07,65.11c0,50.499,40.348,92.33,91.99,92.33l0.01-0.05l0.021,0.05
				c24.633,0,48.574-9.625,66.52-27.57c0.001-0.001,36.281-36.281,36.281-36.281l25.159-25.159c4.682-4.702,4.605-12.175,0-16.78
				L203.356,128.365z M72.028,60.598l23.398-23.393c2.645-2.644,6.971-2.718,9.71,0l19.2,19.2c2.667,2.687,2.697,6.993,0,9.71
				L100.941,89.51L72.028,60.598z"/>
			<path d="M47.167,85.465c1.004-1.025,0.944-2.596,0-3.54c-0.94-0.94-2.591-0.94-3.53,0c-0.951,0.93-1.001,2.54,0,3.54
				C44.611,86.44,46.19,86.439,47.167,85.465z"/>
			<path d="M179.716,171.825c0.979-0.97,0.979-2.56,0-3.53c-0.94-0.95-2.59-0.95-3.53,0c-0.979,0.97-0.979,2.55,0,3.53
				C177.154,172.794,178.74,172.802,179.716,171.825z"/>
			<path d="M52.946,206.825c0.971-0.98,0.971-2.57,0-3.54c-0.949-0.94-2.59-0.94-3.54,0c-0.943,0.944-1.003,2.515,0,3.54
				C50.382,207.8,51.975,207.797,52.946,206.825z"/>
			<path d="M127.556,37.345l19.86-9.93c1.501-0.752,1.873-2.788,0.649-4.01l-7.479-7.48l16.76-8.38
				c1.244-0.623,1.743-2.124,1.12-3.35c-0.601-1.2-2.141-1.73-3.351-1.13c0,0.01,0,0.01-0.01,0.01l-19.859,9.93
				c-1.515,0.757-1.865,2.808-0.65,4l7.479,7.48l-16.76,8.39c-1.206,0.603-1.751,2.088-1.12,3.35
				C124.823,37.464,126.306,37.953,127.556,37.345z"/>
			<path d="M253.156,98.885c-0.6-1.2-2.13-1.72-3.34-1.13c0,0-0.01,0-0.01,0.01l-19.87,9.93c-1.537,0.769-1.847,2.823-0.649,4
				l7.479,7.48l-16.76,8.38c-1.229,0.614-1.748,2.104-1.12,3.36c0.622,1.23,2.093,1.73,3.35,1.12l19.87-9.93
				c1.49-0.746,1.878-2.759,0.65-4.01l-7.48-7.48l16.761-8.38C253.287,101.609,253.777,100.104,253.156,98.885z"/>
		</g>
	</g>
</g>
</svg>
