<?xml version="1.0" encoding="utf-8"?>
<!-- Generator: Adobe Illustrator 22.0.1, SVG Export Plug-In . SVG Version: 6.00 Build 0)  -->
<svg version="1.1" id="Layer_3" xmlns="http://www.w3.org/2000/svg" xmlns:xlink="http://www.w3.org/1999/xlink" x="0px" y="0px"
	 viewBox="0 0 64 64" style="enable-background:new 0 0 64 64;" xml:space="preserve">
<style type="text/css">
	.st0{fill:#FAF5F5;}
	.st1{fill:#63312D;}
	.st2{fill:#F9A287;}
	.st3{fill:#FCB7A4;}
	.st4{fill:#DB785A;}
	.st5{fill:#E0E0E0;}
	.st6{fill:#84DBFF;}
	.st7{fill:#EFC36A;}
	.st8{fill:#F9DD9D;}
	.st9{fill:#EEC26A;}
	.st10{fill:#A9EBFF;}
	.st11{fill:#52BADB;}
	.st12{fill:#FFFFFF;}
	.st13{fill:#F0EEEE;}
	.st14{fill:#BDBDBD;}
	.st15{fill:#E3DFDF;}
	.st16{fill:#FFE8BB;}
	.st17{fill:#FFF2D2;}
	.st18{fill:#D8C18F;}
	.st19{fill:#EAD194;}
	.st20{fill:#BFA064;}
	.st21{fill:#CCCCCC;}
	.st22{fill:#C5F1FF;}
	.st23{fill:#D3A553;}
	.st24{fill:#67C7E5;}
</style>
<g>
	<path class="st4" d="M57.308,10.122h-7.442v38.821h7.442c1.979,0,3.583-1.604,3.583-3.583V13.705
		C60.892,11.726,59.287,10.122,57.308,10.122z"/>
	<path class="st1" d="M57.309,49.443h-7.442v-1h7.442c1.7,0,3.083-1.384,3.083-3.084V13.706c0-1.7-1.383-3.084-3.083-3.084h-7.442
		v-1h7.442c2.251,0,4.083,1.832,4.083,4.084v31.653C61.392,47.611,59.56,49.443,57.309,49.443z"/>
	<path class="st2" d="M56.41,13.12v32.82c0,1.66-1.34,3-3,3H6.11c-0.328,0-0.637-0.065-0.93-0.161c0,0,0,0.001,0,0.001
		c-0.003-0.001-0.006-0.003-0.009-0.004c-0.197-0.065-0.383-0.149-0.559-0.253C4.58,48.505,4.546,48.49,4.514,48.47
		C4.329,48.351,4.155,48.218,4,48.06c-0.22-0.21-0.41-0.46-0.55-0.74c-0.11-0.2-0.2-0.42-0.25-0.65c-0.04-0.14-0.06-0.28-0.07-0.42
		c-0.01-0.1-0.02-0.21-0.02-0.31V13.12c0-1.66,1.34-3,3-3h47.3c0.18,0,0.36,0.02,0.53,0.05c0.12,0.02,0.24,0.04,0.36,0.08
		c0.11,0.03,0.22,0.07,0.32,0.12c0.76,0.34,1.35,0.98,1.63,1.77C56.35,12.44,56.41,12.78,56.41,13.12z"/>
	<path class="st3" d="M56.25,12.14c-0.28-0.07-0.63-0.11-0.93-0.11H6.81c-0.99,0-1.8,0.8-1.8,1.79v34.03c0,0.33,0.07,0.64,0.17,0.93
		C4.73,48.64,4.32,48.39,4,48.06c-0.22-0.22-0.41-0.46-0.55-0.74c-0.11-0.2-0.19-0.42-0.25-0.65c-0.04-0.14-0.06-0.28-0.07-0.42
		c-0.01-0.1-0.02-0.21-0.02-0.31V13.12c0-1.66,1.34-3,3-3h47.3c0.18,0,0.36,0.02,0.53,0.05c0.12,0.02,0.24,0.04,0.36,0.08
		c0.11,0.03,0.22,0.07,0.32,0.12C55.38,10.71,55.97,11.35,56.25,12.14z"/>
	<path class="st1" d="M53.412,49.443H6.108c-1.93,0-3.5-1.57-3.5-3.5V13.122c0-1.93,1.57-3.5,3.5-3.5h47.304
		c1.93,0,3.5,1.57,3.5,3.5v32.821C56.912,47.873,55.342,49.443,53.412,49.443z M6.108,10.622c-1.379,0-2.5,1.121-2.5,2.5v32.821
		c0,1.379,1.121,2.5,2.5,2.5h47.304c1.379,0,2.5-1.121,2.5-2.5V13.122c0-1.379-1.121-2.5-2.5-2.5H6.108z"/>
	<rect id="XMLID_314_" x="7.513" y="14.452" class="st12" width="44.793" height="27.701"/>
	<polygon class="st15" points="9.417,16.378 52.306,16.378 52.306,14.452 7.513,14.452 7.513,42.153 9.417,42.153 	"/>
	<path class="st1" d="M52.307,42.653H7.513c-0.276,0-0.5-0.224-0.5-0.5V14.452c0-0.276,0.224-0.5,0.5-0.5h44.794
		c0.276,0,0.5,0.224,0.5,0.5v27.701C52.807,42.429,52.583,42.653,52.307,42.653z M8.013,41.653h43.794V14.952H8.013V41.653z"/>
	<rect id="XMLID_309_" x="25.423" y="48.943" class="st12" width="11.248" height="7.615"/>
	<rect id="XMLID_308_" x="25.423" y="48.943" class="st15" width="11.248" height="1.955"/>
	<rect x="32.535" y="48.946" class="st15" width="4.141" height="7.609"/>
	<rect x="32.535" y="48.946" class="st21" width="4.141" height="1.955"/>
	<path class="st1" d="M36.671,57.057H25.423c-0.276,0-0.5-0.224-0.5-0.5v-7.614c0-0.276,0.224-0.5,0.5-0.5h11.248
		c0.276,0,0.5,0.224,0.5,0.5v7.614C37.171,56.833,36.947,57.057,36.671,57.057z M25.923,56.057h10.248v-6.614H25.923V56.057z"/>
	<rect x="32.038" y="48.943" class="st1" width="1" height="7.614"/>
	<path class="st2" d="M41.51,58.56v2.33H17.62v-2.33c0-1.11,0.89-2,2-2h19.89c0.11,0,0.21,0.01,0.32,0.03
		c0.16,0.02,0.33,0.06,0.48,0.13c0.53,0.24,0.94,0.69,1.11,1.26C41.48,58.16,41.51,58.36,41.51,58.56z"/>
	<path class="st3" d="M41.42,57.98H19.96c-0.48,0-0.86,0.38-0.86,0.85v2.06h-1.48v-2.33c0-1.11,0.89-2,2-2h19.89
		c0.11,0,0.21,0.01,0.32,0.03c0.16,0.02,0.33,0.06,0.48,0.13C40.84,56.96,41.25,57.41,41.42,57.98z"/>
	<path class="st1" d="M41.505,61.387h-23.89c-0.276,0-0.5-0.224-0.5-0.5v-2.33c0-1.379,1.121-2.5,2.5-2.5h19.89
		c1.379,0,2.5,1.121,2.5,2.5v2.33C42.005,61.164,41.781,61.387,41.505,61.387z M18.115,60.387h22.89v-1.83
		c0-0.827-0.673-1.5-1.5-1.5h-19.89c-0.827,0-1.5,0.673-1.5,1.5V60.387z"/>
	<path class="st4" d="M42.48,56.557h-2.974c1.105,0,2,0.895,2,2v2.33h2.974v-2.33C44.48,57.453,43.584,56.557,42.48,56.557z"/>
	<path class="st1" d="M44.479,61.387h-2.974c-0.276,0-0.5-0.224-0.5-0.5v-2.33c0-0.827-0.673-1.5-1.5-1.5
		c-0.276,0-0.5-0.224-0.5-0.5s0.224-0.5,0.5-0.5h2.974c1.379,0,2.5,1.121,2.5,2.5v2.33C44.979,61.164,44.756,61.387,44.479,61.387z
		 M42.006,60.387h1.974v-1.83c0-0.827-0.673-1.5-1.5-1.5h-0.975c0.314,0.418,0.501,0.938,0.501,1.5V60.387z"/>
	<path class="st8" d="M43.361,18.271c0-2.11-1.609-3.844-3.667-4.043c0.372-0.614,0.59-1.331,0.59-2.101
		c0-2.244-1.819-4.063-4.063-4.063c-0.034,0-0.068,0.004-0.102,0.005c0.065-0.288,0.102-0.586,0.102-0.893
		c0-2.244-1.819-4.063-4.063-4.063c-2.209,0-4.003,1.764-4.058,3.96c-0.055-2.196-1.848-3.96-4.058-3.96
		c-2.244,0-4.063,1.819-4.063,4.063c0,0.307,0.037,0.605,0.102,0.893c-0.034-0.001-0.067-0.005-0.102-0.005
		c-2.244,0-4.063,1.819-4.063,4.063c0,0.77,0.218,1.488,0.59,2.101c-2.058,0.199-3.667,1.933-3.667,4.043
		c0,2.069,1.548,3.773,3.547,4.027c-0.299,0.566-0.47,1.21-0.47,1.895c0,2.244,1.819,4.063,4.063,4.063
		c0.034,0,0.068-0.004,0.102-0.005c-0.065,0.288-0.102,0.586-0.102,0.893c0,2.244,1.819,4.063,4.063,4.063
		c2.209,0,4.003-1.764,4.058-3.96c0.055,2.196,1.848,3.96,4.058,3.96c2.244,0,4.063-1.819,4.063-4.063
		c0-0.307-0.037-0.605-0.102-0.893c0.034,0.001,0.067,0.005,0.102,0.005c2.244,0,4.063-1.819,4.063-4.063
		c0-0.685-0.171-1.329-0.47-1.895C41.814,22.043,43.361,20.339,43.361,18.271z"/>
	<path class="st16" d="M20.923,29.143c0-0.307,0.037-0.605,0.102-0.893c-0.034,0.001-0.067,0.005-0.102,0.005
		c-2.244,0-4.063-1.819-4.063-4.063c0-0.685,0.171-1.329,0.47-1.895c-2-0.254-3.547-1.958-3.547-4.027
		c0-2.11,1.609-3.844,3.667-4.043c-0.372-0.614-0.59-1.331-0.59-2.101c0-2.244,1.819-4.063,4.063-4.063
		c0.034,0,0.068,0.004,0.102,0.005c-0.065-0.288-0.102-0.586-0.102-0.893c0-2.084,1.57-3.799,3.592-4.033
		c-0.155-0.018-0.312-0.03-0.471-0.03c-2.244,0-4.063,1.819-4.063,4.063c0,0.307,0.037,0.605,0.102,0.893
		c-0.034-0.001-0.067-0.005-0.102-0.005c-2.244,0-4.063,1.819-4.063,4.063c0,0.77,0.218,1.488,0.59,2.101
		c-2.058,0.199-3.667,1.933-3.667,4.043c0,2.069,1.548,3.773,3.547,4.027c-0.299,0.566-0.47,1.21-0.47,1.895
		c0,2.244,1.819,4.063,4.063,4.063c0.034,0,0.068-0.004,0.102-0.005c-0.065,0.288-0.102,0.586-0.102,0.893
		c0,2.244,1.819,4.063,4.063,4.063c0.16,0,0.316-0.012,0.471-0.029C22.493,32.943,20.923,31.227,20.923,29.143z"/>
	<path class="st1" d="M24.043,11.739c-2.516,0-4.563-2.047-4.563-4.563h1c0,1.965,1.598,3.563,3.563,3.563V11.739z"/>
	<path class="st1" d="M19.98,16.689c-2.516,0-4.563-2.047-4.563-4.563h1c0,1.965,1.598,3.563,3.563,3.563V16.689z"/>
	<path class="st1" d="M20.48,29.143h-1c0-2.516,2.047-4.563,4.563-4.563v1C22.078,25.581,20.48,27.178,20.48,29.143z"/>
	<path class="st1" d="M16.418,24.193h-1c0-2.517,2.047-4.563,4.563-4.563v1C18.016,20.629,16.418,22.228,16.418,24.193z"/>
	<path class="st1" d="M21.618,18.327c-1.179,0-2.138-0.959-2.138-2.138c0-1.178,0.959-2.137,2.138-2.137v1
		c-0.627,0-1.138,0.51-1.138,1.137s0.511,1.138,1.138,1.138V18.327z"/>
	<path class="st1" d="M32.169,11.739v-1c1.965,0,3.563-1.598,3.563-3.563h1C36.732,9.692,34.686,11.739,32.169,11.739z"/>
	<path class="st1" d="M36.232,16.689v-1c1.965,0,3.563-1.598,3.563-3.563h1C40.795,14.642,38.748,16.689,36.232,16.689z"/>
	<path class="st1" d="M36.732,29.143h-1c0-1.965-1.599-3.563-3.563-3.563v-1C34.686,24.581,36.732,26.627,36.732,29.143z"/>
	<path class="st1" d="M40.795,24.193h-1c0-1.965-1.598-3.563-3.563-3.563v-1C38.748,19.629,40.795,21.676,40.795,24.193z"/>
	<path class="st1" d="M32.159,33.706c-1.776,0-3.305-0.992-4.059-2.466c-0.753,1.474-2.28,2.466-4.058,2.466
		c-2.516,0-4.563-2.047-4.563-4.563c0-0.137,0.007-0.274,0.02-0.413c-2.291-0.24-4.082-2.184-4.082-4.537
		c0-0.521,0.091-1.039,0.264-1.528c-1.943-0.539-3.341-2.325-3.341-4.394c0-2.121,1.428-3.911,3.419-4.419
		c-0.225-0.547-0.342-1.133-0.342-1.726c0-2.354,1.791-4.297,4.082-4.537c-0.013-0.14-0.02-0.277-0.02-0.414
		c0-2.516,2.047-4.563,4.563-4.563c1.777,0,3.305,0.992,4.058,2.466c0.754-1.474,2.282-2.466,4.059-2.466
		c2.516,0,4.563,2.047,4.563,4.563c0,0.137-0.007,0.274-0.02,0.414c2.291,0.24,4.082,2.184,4.082,4.537
		c0,0.593-0.117,1.179-0.342,1.726c1.991,0.508,3.419,2.298,3.419,4.419c0,2.068-1.397,3.854-3.342,4.394
		c0.174,0.488,0.265,1.008,0.265,1.528c0,2.354-1.791,4.297-4.082,4.537c0.013,0.139,0.02,0.276,0.02,0.413
		C36.722,31.659,34.675,33.706,32.159,33.706z M28.101,28.746c0.271,0,0.493,0.216,0.5,0.487c0.049,1.947,1.612,3.473,3.559,3.473
		c1.965,0,3.563-1.598,3.563-3.563c0-0.255-0.03-0.519-0.09-0.783c-0.033-0.148,0.003-0.304,0.098-0.422s0.239-0.188,0.391-0.188
		c0.006,0,0.099,0.005,0.104,0.005c1.962,0,3.56-1.598,3.56-3.563c0-0.586-0.139-1.146-0.412-1.661
		c-0.077-0.146-0.078-0.318-0.002-0.465c0.075-0.146,0.218-0.245,0.381-0.266c1.773-0.225,3.11-1.743,3.11-3.53
		c0-1.845-1.382-3.369-3.215-3.545c-0.171-0.017-0.322-0.12-0.399-0.273c-0.077-0.154-0.069-0.337,0.02-0.483
		c0.339-0.56,0.518-1.196,0.518-1.843c0-1.965-1.598-3.563-3.563-3.563c-0.151,0-0.346-0.066-0.441-0.185
		c-0.095-0.119-0.182-0.271-0.148-0.42c0.06-0.266,0.09-0.529,0.09-0.784c0-1.965-1.598-3.563-3.563-3.563
		c-1.946,0-3.51,1.525-3.559,3.473c-0.007,0.271-0.229,0.487-0.5,0.487l0,0c-0.271,0-0.493-0.217-0.5-0.487
		c-0.049-1.947-1.611-3.473-3.558-3.473c-1.965,0-3.563,1.598-3.563,3.563c0,0.255,0.03,0.519,0.09,0.784
		c0.033,0.15-0.004,0.309-0.103,0.428c-0.098,0.119-0.239,0.19-0.4,0.182c-0.003,0-0.006,0-0.009,0
		c-2.047,0-3.641,1.596-3.641,3.558c0,0.646,0.179,1.283,0.518,1.843c0.089,0.146,0.097,0.329,0.02,0.483
		c-0.077,0.153-0.229,0.257-0.399,0.273c-1.833,0.176-3.215,1.7-3.215,3.545c0,1.787,1.337,3.305,3.11,3.53
		c0.162,0.021,0.305,0.12,0.38,0.266c0.076,0.146,0.075,0.319-0.001,0.464c-0.273,0.518-0.412,1.076-0.412,1.662
		c0,1.965,1.598,3.563,3.563,3.563c0.151,0,0.347,0.066,0.441,0.186c0.095,0.118,0.182,0.271,0.148,0.419
		c-0.06,0.265-0.09,0.528-0.09,0.783c0,1.965,1.598,3.563,3.563,3.563c1.946,0,3.51-1.525,3.558-3.473
		C27.607,28.962,27.829,28.746,28.101,28.746z"/>
	<path class="st1" d="M34.595,18.327v-1c0.627,0,1.138-0.511,1.138-1.138s-0.511-1.137-1.138-1.137v-1
		c1.179,0,2.138,0.959,2.138,2.137C36.732,17.368,35.773,18.327,34.595,18.327z"/>
	<rect x="24.494" y="14.399" class="st8" width="7.225" height="7.225"/>
	<path class="st1" d="M31.719,22.125h-7.225c-0.276,0-0.5-0.224-0.5-0.5v-7.226c0-0.276,0.224-0.5,0.5-0.5h7.225
		c0.276,0,0.5,0.224,0.5,0.5v7.226C32.219,21.901,31.995,22.125,31.719,22.125z M24.994,21.125h6.225v-6.226h-6.225V21.125z"/>
	<rect x="26.427" y="16.332" class="st0" width="3.359" height="3.359"/>
	<path class="st1" d="M29.786,20.191h-3.359c-0.276,0-0.5-0.224-0.5-0.5v-3.359c0-0.276,0.224-0.5,0.5-0.5h3.359
		c0.276,0,0.5,0.224,0.5,0.5v3.359C30.286,19.967,30.063,20.191,29.786,20.191z M26.927,19.191h2.359v-2.359h-2.359V19.191z"/>
	<rect x="25.201" y="12.319" class="st1" width="1" height="2.08"/>
	<rect x="26.801" y="12.319" class="st1" width="1" height="2.08"/>
	<rect x="28.401" y="12.319" class="st1" width="1" height="2.08"/>
	<rect x="30.001" y="12.319" class="st1" width="1" height="2.08"/>
	<rect x="25.201" y="21.625" class="st1" width="1" height="2.08"/>
	<rect x="26.801" y="21.625" class="st1" width="1" height="2.08"/>
	<rect x="28.401" y="21.625" class="st1" width="1" height="2.08"/>
	<rect x="30.001" y="21.625" class="st1" width="1" height="2.08"/>
	<rect x="22.408" y="19.911" class="st1" width="2.08" height="1"/>
	<rect x="22.408" y="18.311" class="st1" width="2.08" height="1"/>
	<rect x="22.408" y="16.711" class="st1" width="2.08" height="1"/>
	<rect x="22.408" y="15.112" class="st1" width="2.08" height="1"/>
	<rect x="31.714" y="19.911" class="st1" width="2.08" height="1"/>
	<rect x="31.714" y="18.311" class="st1" width="2.08" height="1"/>
	<rect x="31.714" y="16.711" class="st1" width="2.08" height="1"/>
	<rect x="31.714" y="15.112" class="st1" width="2.08" height="1"/>
	<rect x="27.601" y="7.073" class="st1" width="1" height="2.902"/>
	<rect x="27.601" y="26.448" class="st1" width="1" height="2.902"/>
	<path class="st7" d="M47.266,18.271c0-2.11-1.609-3.844-3.667-4.043c0.372-0.614,0.59-1.331,0.59-2.101
		c0-2.244-1.819-4.063-4.063-4.063c-0.034,0-0.068,0.004-0.102,0.005c0.065-0.288,0.102-0.586,0.102-0.893
		c0-2.244-1.819-4.063-4.063-4.063h-3.629l0,0.014c2.115,0.142,3.787,1.898,3.787,4.049c0,0.307-0.037,0.605-0.102,0.893
		c0.034-0.001,0.067-0.005,0.102-0.005c2.244,0,4.063,1.819,4.063,4.063c0,0.77-0.218,1.488-0.59,2.101
		c2.058,0.199,3.667,1.933,3.667,4.043c0,2.069-1.548,3.773-3.547,4.027c0.299,0.566,0.47,1.21,0.47,1.895
		c0,2.244-1.819,4.063-4.063,4.063c-0.034,0-0.068-0.004-0.102-0.005c0.065,0.288,0.102,0.586,0.102,0.893
		c0,2.244-1.819,4.063-4.063,4.063h3.904c2.244,0,4.063-1.819,4.063-4.063c0-0.307-0.037-0.605-0.102-0.893
		c0.034,0.001,0.067,0.005,0.102,0.005c2.244,0,4.063-1.819,4.063-4.063c0-0.685-0.171-1.329-0.47-1.895
		C45.718,22.043,47.266,20.339,47.266,18.271z"/>
	<path class="st1" d="M36.063,33.706h-3.903c-0.276,0-0.5-0.224-0.5-0.5s0.224-0.5,0.5-0.5c1.965,0,3.563-1.598,3.563-3.563
		c0-0.255-0.03-0.519-0.09-0.783c-0.033-0.148,0.003-0.304,0.098-0.422s0.239-0.188,0.391-0.188c0.006,0,0.099,0.005,0.104,0.005
		c1.962,0,3.56-1.598,3.56-3.563c0-0.586-0.139-1.146-0.412-1.661c-0.077-0.146-0.078-0.318-0.002-0.465
		c0.075-0.146,0.218-0.245,0.381-0.266c1.773-0.225,3.11-1.743,3.11-3.53c0-1.845-1.382-3.369-3.215-3.545
		c-0.171-0.017-0.322-0.12-0.399-0.273c-0.077-0.154-0.069-0.337,0.02-0.483c0.339-0.56,0.518-1.196,0.518-1.843
		c0-1.965-1.598-3.563-3.563-3.563c-0.151,0-0.346-0.066-0.441-0.185c-0.095-0.119-0.182-0.271-0.148-0.42
		c0.06-0.266,0.09-0.529,0.09-0.784c0-1.865-1.459-3.425-3.32-3.55c-0.263-0.018-0.467-0.236-0.467-0.499
		c0-0.276,0.224-0.514,0.5-0.514h3.628c2.517,0,4.563,2.047,4.563,4.563c0,0.137-0.007,0.274-0.02,0.414
		c2.291,0.24,4.082,2.184,4.082,4.537c0,0.593-0.117,1.179-0.342,1.726c1.991,0.508,3.419,2.298,3.419,4.419
		c0,2.068-1.397,3.854-3.342,4.394c0.174,0.488,0.265,1.008,0.265,1.528c0,2.354-1.791,4.297-4.082,4.537
		c0.013,0.139,0.02,0.276,0.02,0.413C40.626,31.659,38.579,33.706,36.063,33.706z M35.007,32.706h1.056
		c1.965,0,3.563-1.598,3.563-3.563c0-0.255-0.03-0.519-0.09-0.783c-0.033-0.148,0.003-0.304,0.098-0.422s0.239-0.188,0.391-0.188
		c0.006,0,0.099,0.005,0.104,0.005c1.962,0,3.56-1.598,3.56-3.563c0-0.586-0.139-1.146-0.412-1.661
		c-0.077-0.146-0.078-0.318-0.002-0.465c0.075-0.146,0.218-0.245,0.381-0.266c1.773-0.225,3.11-1.743,3.11-3.53
		c0-1.845-1.382-3.369-3.215-3.545c-0.171-0.017-0.322-0.12-0.399-0.273c-0.077-0.154-0.069-0.337,0.02-0.483
		c0.339-0.56,0.518-1.196,0.518-1.843c0-1.965-1.598-3.563-3.563-3.563c-0.151,0-0.346-0.066-0.441-0.185
		c-0.095-0.119-0.182-0.271-0.148-0.42c0.06-0.266,0.09-0.529,0.09-0.784c0-1.965-1.599-3.563-3.563-3.563H35
		c1.051,0.84,1.722,2.131,1.722,3.563c0,0.137-0.007,0.274-0.02,0.414c2.291,0.24,4.082,2.184,4.082,4.537
		c0,0.593-0.117,1.179-0.342,1.726c1.991,0.508,3.419,2.298,3.419,4.419c0,2.068-1.397,3.854-3.342,4.394
		c0.174,0.488,0.265,1.008,0.265,1.528c0,2.354-1.791,4.297-4.082,4.537c0.013,0.139,0.02,0.276,0.02,0.413
		C36.722,30.583,36.052,31.869,35.007,32.706z"/>
	<path class="st7" d="M28.101,29.246c-0.055,2.196-1.848,3.96-4.058,3.96h8.115C29.949,33.206,28.156,31.442,28.101,29.246z"/>
	<path class="st1" d="M32.159,33.706h-8.116c-0.276,0-0.5-0.224-0.5-0.5s0.224-0.5,0.5-0.5c1.946,0,3.51-1.525,3.558-3.473
		c0.007-0.271,0.229-0.487,0.5-0.487s0.493,0.216,0.5,0.487c0.049,1.947,1.612,3.473,3.559,3.473c0.276,0,0.5,0.224,0.5,0.5
		S32.436,33.706,32.159,33.706z M26.908,32.706h2.387c-0.494-0.396-0.902-0.895-1.194-1.466
		C27.81,31.811,27.401,32.309,26.908,32.706z"/>
	<rect x="18.519" y="37.166" class="st1" width="1.898" height="1"/>
	<rect x="22.012" y="37.166" class="st1" width="1.898" height="1"/>
	<rect x="25.505" y="37.166" class="st1" width="1.898" height="1"/>
	<rect x="28.998" y="37.166" class="st1" width="1.898" height="1"/>
	<rect x="32.491" y="37.166" class="st1" width="1.898" height="1"/>
	<rect x="35.984" y="37.166" class="st1" width="1.898" height="1"/>
	<rect x="39.478" y="37.166" class="st1" width="1.898" height="1"/>
</g>
</svg>
