<?xml version="1.0" encoding="utf-8"?>
<!-- Generator: Adobe Illustrator 24.0.0, SVG Export Plug-In . SVG Version: 6.00 Build 0)  -->
<svg version="1.1" xmlns="http://www.w3.org/2000/svg" xmlns:xlink="http://www.w3.org/1999/xlink" x="0px" y="0px"
	 viewBox="0 0 256 256" enable-background="new 0 0 256 256" xml:space="preserve">
<g id="Layer_2" display="none">
	<rect x="-1100" y="-2136" display="inline" fill="#FFFFFF" width="1786" height="5896"/>
</g>
<g id="Layer_1">
	<g>
		<path fill="#878787" d="M138.358,20.086h-40v-7c0-2.761,2.239-5,5-5h30c2.761,0,5,2.239,5,5V20.086z"/>
		<polygon fill="#878787" points="73.323,248.086 54.509,248.086 87.114,139.138 103.505,146.805 		"/>
		<polygon fill="#878787" points="167.392,248.086 186.206,248.086 149.833,139.138 133.44,146.805 		"/>
		<polygon fill="#FC5D3D" points="126.002,146.805 126.002,236.798 118.476,248.086 110.951,236.798 110.951,146.805 		"/>
		<rect x="110.951" y="146.805" fill="#B34F33" width="15.051" height="8.109"/>
		<rect x="98.872" y="112.627" fill="#878787" width="39.208" height="15.004"/>
		<rect x="98.872" y="112.627" fill="#4C4944" width="39.208" height="7.497"/>
		<path fill="#F0C020" d="M143.635,87.68H93.318c-5.523,0-10-4.477-10-10V30.086c0-5.523,4.477-10,10-10h50.317
			c5.523,0,10,4.477,10,10V77.68C153.635,83.203,149.158,87.68,143.635,87.68z"/>
		<path fill="#F8E5AC" d="M139.525,81.714H97.428c-1.381,0-2.5-1.119-2.5-2.5s1.119-2.5,2.5-2.5h42.097
			c1.733,0,3.144-1.411,3.144-3.144V34.196c0-1.381,1.119-2.5,2.5-2.5s2.5,1.119,2.5,2.5V73.57
			C147.668,78.061,144.015,81.714,139.525,81.714z"/>
		<ellipse fill="#878787" cx="118.476" cy="53.883" rx="16.879" ry="16.512"/>
		<path fill="#EFEFEF" d="M122.577,65.443c-0.977,0-1.904-0.576-2.306-1.533c-0.535-1.273,0.064-2.739,1.337-3.273
			c4.623-1.939,5.615-8.075,1.901-11.788c-0.977-0.976-0.977-2.559,0-3.535c0.977-0.977,2.559-0.977,3.535,0
			c2.408,2.408,3.734,5.585,3.734,8.945C130.78,61.58,124.57,65.443,122.577,65.443z M111.624,63.893
			c-0.609-0.426-1.187-0.911-1.716-1.44c-0.977-0.976-0.978-2.559-0.002-3.535c0.976-0.978,2.558-0.979,3.535-0.002
			c0.325,0.325,0.679,0.621,1.05,0.881c1.132,0.792,1.406,2.351,0.614,3.482C114.313,64.411,112.754,64.684,111.624,63.893z"/>
		<path fill="#F0C020" d="M55.147,125.492c-3.501-1.157-7.117-2.168-9.147-10.913c-1.87,8.055-4.865,9.498-9.147,10.913
			c6.984,2.308,8.037,6.129,9.147,10.913C47.913,128.157,51.079,126.836,55.147,125.492z"/>
		<path fill="#F0C020" d="M195.863,22.675c-3.501-1.157-7.117-2.168-9.147-10.913c-1.87,8.055-4.865,9.498-9.147,10.913
			c6.984,2.308,8.037,6.129,9.147,10.913C188.629,25.34,191.794,24.019,195.863,22.675z"/>
		<path fill="#F0C020" d="M219.147,74.675c-3.501-1.157-7.117-2.168-9.147-10.913c-1.87,8.055-4.866,9.498-9.147,10.913
			c6.984,2.308,8.037,6.129,9.147,10.913C211.913,77.34,215.079,76.019,219.147,74.675z"/>
		<path fill="#F0C020" d="M149.839,132.337v6.801l-16.392,7.667h-29.942l-16.392-7.667v-6.801c0-2.598,2.106-4.703,4.703-4.703
			h53.319C147.733,127.634,149.839,129.74,149.839,132.337z"/>
		<path fill="#72C1E8" d="M168.686,37.853v60.663c0,7.793-6.317,14.11-14.11,14.11H82.377c-7.793,0-14.11-6.317-14.11-14.11v-60.91
			c0-4.086,3.274-7.48,7.441-7.525c4.342-0.047,7.61,3.625,7.61,7.772v59.958h70.317V37.606c0-4.235,3.517-7.727,7.901-7.517
			C165.584,30.284,168.686,33.799,168.686,37.853z"/>
		<path fill="#878787" d="M68.267,52.893v29.161h-7.761c-2.598,0-4.703-2.106-4.703-4.703V57.596c0-2.598,2.106-4.703,4.703-4.703
			H68.267z"/>
		<path fill="#878787" d="M181.15,57.596v19.755c0,2.598-2.106,4.703-4.703,4.703h-7.761V52.893h7.761
			C179.044,52.893,181.15,54.998,181.15,57.596z"/>
		<g>
			<path d="M152.339,138.741v-6.404c0-3.972-3.231-7.203-7.203-7.203h-4.558v-10.008h13.999c9.15,0,16.61-7.45,16.61-16.61V84.554
				h5.259c3.972,0,7.203-3.231,7.203-7.204V57.596c0-3.972-3.231-7.204-7.203-7.204h-5.259V37.856c0-5.47-4.19-9.98-9.53-10.26
				c-1.876-0.114-3.845,0.358-5.578,1.386c-0.562-6.376-5.924-11.396-12.444-11.396h-2.777v-4.5c0-4.136-3.364-7.5-7.5-7.5h-30
				c-4.136,0-7.5,3.364-7.5,7.5v4.5h-2.54c-6.527,0-11.894,5.031-12.445,11.418c-1.581-0.954-3.383-1.428-5.085-1.428
				c-5.51,0.01-10.01,4.51-10.02,10.03v12.787h-5.262c-3.972,0-7.203,3.231-7.203,7.204v19.754c0,3.972,3.231,7.204,7.203,7.204
				h5.262v13.961c0,9.16,7.449,16.61,16.609,16.61h13.997v10.008h-4.558c-3.972,0-7.203,3.231-7.203,7.203v6.434l-32.5,108.599
				c-0.396,1.323,0.356,2.716,1.679,3.112c1.314,0.394,2.713-0.348,3.112-1.678L88.678,142.63l11.815,5.526l-29.565,99.216
				c-0.395,1.323,0.358,2.715,1.682,3.11c1.323,0.391,2.715-0.359,3.109-1.682l29.649-99.495h3.082v87.493
				c0,0.494,0.146,0.976,0.42,1.387l7.525,11.288c0.99,1.484,3.172,1.482,4.16,0l7.526-11.288c0.273-0.411,0.42-0.893,0.42-1.387
				v-87.493h3.138l17.557,52.381c0.43,1.27,1.88,2,3.17,1.58c1.3-0.44,2.01-1.86,1.57-3.17l-17.419-51.967l11.832-5.534
				l35.486,106.281c0.451,1.354,1.913,2.013,3.16,1.58c1.311-0.43,2.01-1.85,1.58-3.16L152.339,138.741z M171.188,55.393h5.259
				c1.215,0,2.203,0.989,2.203,2.204v19.754c0,1.215-0.988,2.204-2.203,2.204h-5.259V55.393z M65.767,79.554h-5.261
				c-1.215,0-2.203-0.989-2.203-2.204V57.596c0-1.215,0.988-2.204,2.203-2.204h5.261V79.554z M100.858,13.086
				c0-1.378,1.121-2.5,2.5-2.5h30c1.379,0,2.5,1.122,2.5,2.5v4.5h-35V13.086z M85.818,30.086c0-4.136,3.364-7.5,7.5-7.5h50.317
				c4.136,0,7.5,3.364,7.5,7.5V77.68c0,4.136-3.364,7.5-7.5,7.5H93.318c-4.136,0-7.5-3.364-7.5-7.5
				C85.818,67.786,85.818,40.07,85.818,30.086z M82.377,110.126c-6.39-0.01-11.6-5.22-11.609-11.61v-60.91
				c0-2.77,2.26-5.02,5.02-5.03c2.893,0,5.03,2.49,5.03,5.28c0,4.654,0,11.049,0,59.95c0,1.381,1.111,2.5,2.5,2.5h38.08
				c1.38,0,2.5-1.12,2.5-2.5c0-1.37-1.12-2.49-2.5-2.49l-35.58-0.01v-7.649c2.092,1.577,4.684,2.524,7.5,2.524h50.317
				c2.817,0,5.41-0.948,7.503-2.526v7.651h-9.74c-1.38,0-2.5,1.13-2.5,2.5c0,1.38,1.12,2.5,2.5,2.5h12.24c1.373,0,2.5-1.102,2.5-2.5
				v-60.2c0-2.585,1.984-5.02,5.25-5.02c2.649,0.1,4.8,2.46,4.8,5.27c0,8.266,0,56.631,0,60.66c-0.011,6.39-5.221,11.6-11.61,11.61
				H82.377z M135.578,115.126v10.003h-34.204v-10.003H135.578z M123.502,236.041l-5.026,7.538l-5.025-7.538v-86.736h10.052V236.041z
				 M147.339,137.547c-1,0.468,0.416-0.194-14.467,6.757c-0.342,0-28.525,0-28.81,0l-14.448-6.757v-5.21
				c0-1.215,0.988-2.203,2.203-2.203h53.319c1.215,0,2.203,0.988,2.203,2.203V137.547z"/>
			<path d="M160.297,219.056c-0.43-1.28-1.88-2.01-3.17-1.57c-1.292,0.431-2.014,1.826-1.569,3.16l9.46,28.23
				c0.456,1.342,1.898,2.02,3.17,1.58c1.3-0.44,2.01-1.86,1.569-3.17L160.297,219.056z"/>
			<path d="M157.117,209.576c-0.43-1.28-1.88-2.01-3.16-1.58c-1.31,0.44-2.02,1.86-1.58,3.17c0.416,1.247,1.76,2.028,3.16,1.58
				C156.888,212.282,157.548,210.868,157.117,209.576z"/>
			<path d="M118.476,72.895c10.686,0,19.379-8.529,19.379-19.012c0-10.483-8.693-19.012-19.379-19.012
				c-10.685,0-19.378,8.529-19.378,19.012C99.098,64.366,107.791,72.895,118.476,72.895z M118.476,39.871
				c7.929,0,14.379,6.286,14.379,14.012c0,7.727-6.45,14.012-14.379,14.012c-7.928,0-14.378-6.286-14.378-14.012
				C104.098,46.157,110.548,39.871,118.476,39.871z"/>
			<path d="M55.931,123.117c-3.282-1.076-5.799-1.795-7.497-9.104c-0.597-2.573-4.275-2.566-4.87,0
				c-1.667,7.179-3.986,7.945-7.496,9.104c-2.279,0.753-2.284,3.993,0,4.748c5.831,1.927,6.493,4.782,7.496,9.104
				c0.599,2.578,4.272,2.578,4.871,0c1.665-7.178,3.985-7.944,7.496-9.104C58.21,127.113,58.215,123.872,55.931,123.117z
				 M46.044,129.139c-0.799-1.289-1.882-2.51-3.413-3.593c1.258-0.897,2.392-2.088,3.377-3.793c0.992,1.721,2.105,2.902,3.256,3.759
				C48.07,126.384,46.99,127.53,46.044,129.139z"/>
			<path d="M196.647,20.301c-3.282-1.076-5.799-1.795-7.497-9.104c-0.597-2.573-4.275-2.566-4.87,0
				c-1.667,7.179-3.986,7.945-7.496,9.104c-2.279,0.753-2.284,3.993,0,4.748c5.831,1.927,6.493,4.782,7.496,9.104
				c0.599,2.578,4.272,2.577,4.871,0c1.665-7.178,3.985-7.944,7.496-9.104C198.926,24.296,198.931,21.055,196.647,20.301z
				 M186.759,26.322c-0.799-1.289-1.882-2.51-3.413-3.593c1.258-0.897,2.392-2.088,3.377-3.793c0.992,1.721,2.105,2.902,3.256,3.759
				C188.785,23.567,187.705,24.713,186.759,26.322z"/>
			<path d="M219.931,72.301c-3.282-1.076-5.799-1.795-7.497-9.104c-0.597-2.573-4.275-2.566-4.87,0
				c-1.667,7.179-3.986,7.945-7.496,9.104c-2.279,0.753-2.284,3.993,0,4.748c5.831,1.927,6.493,4.782,7.496,9.104
				c0.599,2.578,4.272,2.577,4.871,0c1.665-7.178,3.985-7.944,7.496-9.104C222.21,76.296,222.215,73.055,219.931,72.301z
				 M210.044,78.322c-0.799-1.289-1.882-2.51-3.413-3.593c1.258-0.897,2.392-2.088,3.377-3.793c0.992,1.721,2.105,2.902,3.256,3.759
				C212.07,75.567,210.99,76.713,210.044,78.322z"/>
			<circle cx="131.398" cy="97.806" r="2.5"/>
		</g>
	</g>
</g>
</svg>
