<?xml version="1.0" encoding="UTF-8"?>
<!DOCTYPE svg PUBLIC "-//W3C//DTD SVG 1.1//EN" "http://www.w3.org/Graphics/SVG/1.1/DTD/svg11.dtd">
<!-- Creator: CorelDRAW -->
<svg xmlns="http://www.w3.org/2000/svg" xml:space="preserve" width="2048px" height="2048px" style="shape-rendering:geometricPrecision; text-rendering:geometricPrecision; image-rendering:optimizeQuality; fill-rule:evenodd; clip-rule:evenodd"
viewBox="0 0 2048 2048"
 xmlns:xlink="http://www.w3.org/1999/xlink">
 <defs>
  <style type="text/css">
   <![CDATA[
    .fil1 {fill:none}
    .fil0 {fill:#212121;fill-rule:nonzero}
   ]]>
  </style>
 </defs>
 <g id="Layer_x0020_1">
  <metadata id="CorelCorpID_0Corel-Layer"/>
  <g id="_380758920">
   <path id="_380759376" class="fil0" d="M332.926 702.614l401.168 0c16.1055,0 30.763,6.60237 41.3989,17.2358l-22.5 22.6252 22.6252 -22.6299 0.32126 0.329528c10.4433,10.6063 16.9146,25.1705 16.9146,41.1992l0 402.388c0,16.1929 -6.60355,30.8918 -17.2358,41.524l0.00236221 0.00236221c-0.831497,0.831497 -1.70079,1.60748 -2.59606,2.32795 -10.3819,9.25867 -24.0366,14.9055 -38.9303,14.9055l-401.168 0c-16.1929,0 -30.8918,-6.60355 -41.524,-17.2358 -10.6323,-10.6323 -17.2358,-25.3311 -17.2358,-41.524l0 -402.388c0,-16.1929 6.60355,-30.8918 17.2358,-41.524 10.6323,-10.6323 25.3311,-17.2358 41.524,-17.2358zm395.926 64.0016l-390.684 0 0 391.904 390.684 0 0 -391.904z"/>
   <path id="_380759832" class="fil0" d="M767.599 891.596l11.3622 0c17.6728,0 32.0008,14.328 32.0008,32.0008l0 77.941c0,17.6728 -14.328,32.0008 -32.0008,32.0008l-11.3622 0c-17.6728,0 -32.0008,-14.328 -32.0008,-32.0008l0 -77.941c0,-17.6728 14.328,-32.0008 32.0008,-32.0008z"/>
   <path id="_380759688" class="fil0" d="M288.057 891.596l11.3634 0c17.6728,0 32.0008,14.328 32.0008,32.0008l0 77.941c0,17.6728 -14.328,32.0008 -32.0008,32.0008l-11.3634 0c-17.6728,0 -32.0008,-14.328 -32.0008,-32.0008l0 -77.941c0,-17.6728 14.328,-32.0008 32.0008,-32.0008z"/>
   <path id="_380758968" class="fil0" d="M335.296 703.613c-17.1201,4.28032 -27.5303,21.6307 -23.25,38.7508 4.28032,17.1201 21.6307,27.5303 38.7508,23.25 53.6445,-13.4008 59.2217,-54.5764 64.8851,-96.3828 3.31772,-24.4937 6.70394,-49.454 39.5918,-47.98l-0.00472441 0.0933072c0.498426,0.0236221 0.994489,0.0330709 1.48701,0.034252l0 0.0011811 0.159449 0 76.5934 0 76.754 0c1.15866,0 2.30197,-0.0625985 3.42874,-0.183071 31.076,-0.412205 34.3961,24.0343 37.6453,48.0343 5.66339,41.8063 11.2406,82.982 64.8839,96.3828 17.1201,4.28032 34.4705,-6.12993 38.7508,-23.25 4.28032,-17.1201 -6.12993,-34.4705 -23.25,-38.7508 -11.7201,-2.92796 -14.4083,-22.7528 -17.1343,-42.8811 -7.13741,-52.702 -14.4284,-106.394 -103.055,-103.326 -0.421654,-0.0165354 -0.844489,-0.0271654 -1.26969,-0.0271654l-76.754 0 -76.7528 0 0 0.0744095c-89.8264,-3.62599 -97.1528,50.3244 -104.324,103.279 -2.72599,20.1284 -5.41418,39.9532 -17.1354,42.8811z"/>
   <path id="_380758944" class="fil0" d="M350.798 1159.52c-17.1201,-4.28032 -34.4705,6.12993 -38.7508,23.25 -4.28032,17.1201 6.12993,34.4705 23.25,38.7508 11.7213,2.92796 14.4095,22.7528 17.1354,42.8811 7.17166,52.9548 14.498,106.905 104.324,103.279l0 0.0744095 76.754 0 76.7528 0c0.425197,0 0.848032,-0.0106299 1.26969,-0.0271654 88.6253,3.06733 95.9174,-50.6221 103.055,-103.326 2.72599,-20.1284 5.41418,-39.9532 17.1354,-42.8811 17.1201,-4.28032 27.5303,-21.6307 23.25,-38.7508 -4.28032,-17.1201 -21.6307,-27.5303 -38.7508,-23.25 -53.6445,13.4008 -59.2217,54.5764 -64.8851,96.3828 -3.2504,24.0012 -6.5693,48.4465 -37.6453,48.0343 -1.12677,-0.120473 -2.27008,-0.183071 -3.42874,-0.183071l-76.7528 0 -76.5945 0 -0.159449 0 0 0.0011811c-0.49252,0.0011811 -0.988583,0.0106299 -1.48701,0.034252l0.00472441 0.0933072c-32.8878,1.47402 -36.274,-23.4862 -39.5918,-47.98 -5.66339,-41.8063 -11.2406,-82.982 -64.8851,-96.3828z"/>
   <path id="_380758728" class="fil0" d="M680.434 620.024c-17.6043,0.206693 -31.7067,14.6469 -31.5,32.2512 0.206693,17.6043 14.6469,31.7067 32.2512,31.5l8.84528 -0.113386c65.0504,-0.83504 120.19,-1.54488 132.538,-2.58544l-2.62559 -31.8756 2.68701 31.8874c0.752363,-0.0637796 1.49646,-0.154725 2.2311,-0.26811l54.0414 -6.78662 -3.8752 -31.7504 3.9874 31.7504c4.45748,-0.559843 8.58426,-2.0126 12.2256,-4.15394l82.9902 -40.904 0.0354331 0.0720473c0.861024,-0.424016 1.69252,-0.884646 2.49803,-1.37362l75.456 -39.0296c61.3052,-20.2051 129.282,-31.4185 200.446,-32.7355 70.6264,-1.30866 144.314,7.07481 217.709,26.0114l-0.00826772 0.0295276 0.0259843 0.00708662 -0.0259843 0.101575c0.785434,0.20315 1.57205,0.37441 2.35866,0.516142 27.1701,7.36772 52.2709,20.3067 70.5768,38.7331 15.476,15.5788 26.1166,35.4 28.7492,59.406 2.27953,20.791 1.30984,32.1036 0.694489,39.2693 -0.885827,10.3299 -1.4126,16.4788 2.92441,27.0945 5.10237,12.4748 12.391,18.4122 30.3839,33.0721 5.3315,4.34528 11.6634,9.50552 14.1248,11.5488 42.8303,35.5477 38.0469,79.115 34.3748,112.559 -2.93622,26.7414 -5.41418,49.3111 7.21418,70.428 6.69449,11.1945 18.3165,21.2055 28.1044,29.6362 3.47481,2.99173 6.61536,5.69764 8.00316,7.15394 49.2579,51.6851 12.1807,104.431 -2.60669,125.469 -5.863,8.33977 -9.98623,14.2099 -11.8335,22.5 -7.25316,32.511 6.45473,45.45 21.5634,59.7048 2.19449,2.07166 4.47166,4.22008 5.67166,5.78386 4.96418,6.46654 8.77205,13.2473 11.5016,20.1366 6.79725,17.1579 7.61693,35.8146 3.47244,52.7363 -3.93307,16.0559 -12.3354,30.1855 -24.2504,39.3319 -3.73819,2.87008 -7.93938,5.27717 -12.5705,7.11142l11.7496 29.7496 -11.7862 -29.7508c-0.728741,0.28937 -1.44095,0.602363 -2.13662,0.937796 -20.5843,7.28859 -49.363,5.90434 -75.991,4.62284 -36.1772,-1.74095 -69.3449,-3.33662 -94.9666,13.5933 -18.0945,11.9563 -23.2606,22.4421 -30.2847,36.7087 -1.77874,3.61063 -3.74882,7.60867 -5.67048,10.8933l27.4996 16.1256 -27.6189 -16.1622c-0.611811,1.04646 -1.1563,2.11299 -1.63701,3.19488 -13.3276,27.8799 -49.7646,48.3756 -91.767,61.5036 -58.1634,18.1795 -123.822,21.3662 -158.89,11.1047 -105.403,-30.8421 -216.764,-132.595 -282.67,-192.815l-21.4996 23.5004 21.5858 -23.6232c-0.465355,-0.426378 -0.94252,-0.833859 -1.42559,-1.22599l-1.81181 -1.65591 0.0377953 -0.0413386c-2.22284,-2.0315 -4.65591,-3.68977 -7.22127,-4.97835l-3.39803 -2.10591c-40.1717,-24.8929 -57.4961,-35.6292 -81.1217,-41.7213 -17.5559,-4.52599 -34.5036,-5.3067 -64.2934,-6.67205 -14.5606,-0.668504 -32.6528,-1.5 -59.2949,-3.29292l0.00354331 -0.0531496c-0.687402,-0.046063 -1.37126,-0.0673229 -2.0504,-0.0696851 -3.00355,-0.166536 -7.18465,-0.317717 -12.3709,-0.455906 -6.83268,-0.183071 -16.6276,-0.373229 -28.4799,-0.568111 -17.6043,-0.275197 -32.1,13.7717 -32.3752,31.376 -0.275197,17.6043 13.7717,32.1 31.376,32.3752 11.0421,0.18189 20.5689,0.369685 27.9792,0.568111 4.44803,0.11811 7.44095,0.216142 8.63032,0.285827 0.981497,0.158268 1.97953,0.275197 2.99173,0.343701l2.14961 -31.9276 -2.1248 31.8756c23.4402,1.57795 44.1508,2.52992 60.8162,3.2941 25.7244,1.17992 40.3583,1.85197 51.2918,4.67126 13.9547,3.59882 28.8461,12.8268 63.3721,34.2213l2.8937 1.79291c0.4063,0.412205 0.822048,0.814961 1.25433,1.21063l0.0377953 -0.0413386 0.0484252 0.0437008 0.0625985 -0.068504c70.0193,63.978 188.286,172.019 307.857,207.007 45.2882,13.252 126.364,10.298 195.639,-11.3551 57.7276,-18.0437 109.215,-49.3725 130.962,-95.9068 2.86181,-5.04567 4.7504,-8.88072 6.48308,-12.398 2.62087,-5.32441 4.55079,-9.23977 8.28544,-11.7071 8.21339,-5.42717 31.4114,-4.31103 56.7154,-3.09331 33.0083,1.58977 68.6965,3.30827 101.538,-8.74253 1.06063,-0.297638 2.11536,-0.65315 3.16181,-1.06772l-0.00590552 -0.0141732c10.0169,-3.97205 19.3099,-9.33898 27.7902,-15.848 23.7319,-18.2173 40.1705,-45.1524 47.5016,-75.0816 7.11969,-29.067 5.62796,-61.3264 -6.22205,-91.2355 -4.94174,-12.4725 -11.5736,-24.4063 -20.0032,-35.387 -4.39016,-5.7189 -8.60316,-9.69568 -12.6709,-13.5343 -0.112205,-0.106299 -0.23504,-0.165354 -0.361418,-0.191339 23.9114,-34.0477 80.0812,-116.483 -4.2626,-204.983 -3.37441,-3.54095 -7.70788,-7.27323 -12.5032,-11.4036 -6.2693,-5.4 -13.715,-11.8146 -15.1028,-14.1354 -1.57087,-2.62795 -0.15,-15.5811 1.53543,-30.9272 5.28426,-48.1193 12.1654,-110.802 -57.1252,-168.31 -8.70827,-7.22835 -11.8866,-9.81733 -14.6256,-12.0496 -5.60315,-4.56615 -8.27245,-5.29843 -9.76891,-5.85119 0.796064,-9.30355 1.97008,-23.9197 -0.982678,-50.8359 -4.35118,-39.6697 -21.7394,-72.2268 -46.9996,-97.6548 -26.6492,-26.824 -61.9867,-45.2941 -99.5363,-55.4079 -0.864568,-0.303544 -1.74685,-0.576378 -2.6504,-0.809056l-7.99961 30.9839 7.8756 -30.8752c-79.0749,-20.4142 -158.475,-29.4508 -234.575,-28.0418 -77.8229,1.44095 -152.29,13.7539 -219.58,35.9469 -2.42362,0.591733 -4.81536,1.47638 -7.12796,2.67284l0.0354331 0.0696851 -77.5501 40.1138c-0.493701,0.21378 -0.98504,0.43937 -1.47284,0.680315l0.0318898 0.0649607 -0.36378 0.187795 -79.7327 39.2977 -49.2839 6.18898c-14.2288,1.07599 -66.2044,1.74449 -127.343,2.52992l-8.84528 0.113386zm955.233 104.378c-0.918898,-1.53543 -2.12599,-4.09134 -0.99567,-1.32402 0.284646,0.69567 0.579922,1.06181 0.99567,1.32402zm110.724 448.5l-0.544489 -0.382677 -0.159449 0.675591c-0.316536,1.41851 0.133465,0.980316 0.819686,0.337796 -0.0472441,-0.194882 -0.0850394,-0.412205 -0.115748,-0.630709zm0 0c-0.137008,-0.988583 -0.151181,-1.94764 -0.544489,-0.382677l0.544489 0.382677z"/>
   <path id="_380758440" class="fil0" d="M1599.72 773.603c15.9473,7.52481 34.976,0.696851 42.5008,-15.2504 7.52481,-15.9473 0.696851,-34.976 -15.2504,-42.5008 -0.317717,-0.148819 -110.146,-52.9122 -208.625,-9.05552 -16.0843,7.17875 -23.3032,26.041 -16.1244,42.1252 7.17875,16.0843 26.041,23.3032 42.1252,16.1244 71.3386,-31.7693 155.132,8.44371 155.374,8.55709z"/>
   <path id="_380758824" class="fil0" d="M1667.62 983.733c17.1201,4.14213 34.3583,-6.38032 38.5004,-23.5004 4.14213,-17.1201 -6.38032,-34.3583 -23.5004,-38.5004 -0.361418,-0.0874016 -125.325,-31.3394 -195.366,3.6815 -15.7394,7.86969 -22.1197,27.0107 -14.25,42.75 7.86969,15.7394 27.0107,22.1197 42.75,14.25 48.737,-24.3685 151.57,1.24725 151.866,1.31929z"/>
   <path id="_380758800" class="fil0" d="M1697.32 1205.11c17.1201,4.14213 34.3583,-6.38032 38.5004,-23.5004 4.14213,-17.1201 -6.38032,-34.3583 -23.5004,-38.5004 -0.361418,-0.0874016 -125.325,-31.3382 -195.366,3.6815 -15.7394,7.86969 -22.1197,27.0107 -14.25,42.75 7.86969,15.7394 27.0107,22.1197 42.75,14.25 48.737,-24.3673 151.57,1.24725 151.866,1.31929z"/>
   <path id="_380758536" class="fil0" d="M1544.3 1413.91c17.1201,4.14213 34.3583,-6.38032 38.5004,-23.5004 4.14213,-17.1201 -6.38032,-34.3583 -23.5004,-38.5004 -0.361418,-0.0874016 -125.325,-31.3382 -195.366,3.6815 -15.7394,7.86969 -22.1197,27.0107 -14.25,42.75 7.86969,15.7394 27.0107,22.1197 42.75,14.25 48.737,-24.3673 151.57,1.24725 151.866,1.31929z"/>
   <path id="_380758344" class="fil0" d="M648.66 1103.42c-27.574,26.6693 -53.4248,12.8067 -99.1985,-11.7532 -4.80591,-2.57953 -9.86339,-5.2937 -14.5252,-7.7504 -18.6874,-9.85158 -44.6008,-31.3488 -68.0115,-54.7583 -23.4095,-23.4095 -44.9079,-49.3252 -54.7595,-68.0115 -2.44488,-4.63819 -5.16851,-9.71339 -7.74922,-14.5252 -24.8516,-46.3205 -38.7555,-72.2375 -10.7847,-100.187l-0.0318898 -0.0318898 0.00944883 -0.00944883 0 -0.0011811 0.0425197 -0.0413386 33.6414 -33.6402 -0.0011811 -0.0011811c6.24804,-6.24804 16.3795,-6.24804 22.6276,0l0.0956694 0.0980316 63.2953 63.2953 0.0011811 -0.0011811c6.24804,6.24804 6.24804,16.3795 0,22.6276l-0.0980316 0.0956694 -18.3662 18.3673c0.445276,3.4937 2.62323,8.83583 6.03898,15.2303 6.00237,11.237 15.6886,23.9032 27.2799,35.4945 11.5902,11.5902 24.2563,21.2752 35.4933,27.2788 6.39567,3.41575 11.7378,5.59371 15.2303,6.03898l18.4642 -18.463 -0.0011811 -0.0011811c6.24804,-6.24804 16.3795,-6.24804 22.6276,0l0.0956694 0.0980316 63.2965 63.2953 0.0011811 -0.0011811c6.24804,6.24804 6.24804,16.3795 0,22.6276l-0.0980316 0.0956694 -33.5965 33.5977 0.0011811 0.0011811c-0.329528,0.329528 -0.670867,0.640158 -1.02047,0.935434zm-84.0733 -39.8776c32.3209,17.3421 50.6575,27.176 61.8556,16.9606 0.197244,-0.219685 0.399213,-0.434646 0.61063,-0.646063l0.0011811 0.0011811 22.3807 -22.3819 -40.7681 -40.767 -10.735 10.7339c-1.80354,1.88504 -4.0937,3.35551 -6.75827,4.19292l-4.79528 -15.2646 4.7504 15.2504c-11.5595,3.63071 -26.7166,0.112205 -42.4689,-8.30197 -14.1437,-7.5567 -29.5418,-19.2012 -43.1185,-32.778 -13.578,-13.578 -25.2225,-28.9748 -32.7792,-43.1197 -8.09292,-15.1524 -11.6575,-29.752 -8.68583,-41.1307 0.628347,-2.89607 2.06929,-5.6504 4.32048,-7.90158l0.0011811 0.0011811 10.9748 -10.976 -40.767 -40.767 -22.3417 22.3406 -0.0484252 0.0496063 -11.3032 -11.3232 11.25 11.3126c-11.1602,11.1402 -1.2815,29.5512 16.3784,62.4686 2.39173,4.45985 4.90394,9.13938 7.87442,14.7756 8.27127,15.6874 27.6307,38.7567 49.1351,60.2611 21.5043,21.5032 44.5725,40.8638 60.2611,49.1339 5.61378,2.95866 10.3099,5.47914 14.7756,7.8756z"/>
  </g>
 </g>
 <rect class="fil1" width="2048" height="2048"/>
</svg>
