<?xml version="1.0" encoding="utf-8"?>
<!-- Generator: Adobe Illustrator 16.0.0, SVG Export Plug-In . SVG Version: 6.00 Build 0)  -->
<!DOCTYPE svg PUBLIC "-//W3C//DTD SVG 1.1//EN" "http://www.w3.org/Graphics/SVG/1.1/DTD/svg11.dtd">
<svg version="1.1" id="Layer_1" xmlns="http://www.w3.org/2000/svg" xmlns:xlink="http://www.w3.org/1999/xlink" x="0px" y="0px"
	 width="128px" height="128px" viewBox="0 0 128 128" enable-background="new 0 0 128 128" xml:space="preserve">
<g>
	<g>
		<path fill="#282D33" d="M114.934,76.141H88.105v-4h23.904l0.059-0.146l1.482,0.11c0.232,0.019,0.461,0.036,0.697,0.036
			c4.527,0,8.213-3.646,8.213-8.128c0-4.416-3.496-7.977-7.957-8.107l-2.186-0.063l0.256-2.17c0.104-0.869,0.152-1.649,0.152-2.385
			c0-11.094-9.109-20.119-20.309-20.119c-1.809,0-3.658,0.258-5.498,0.767l-2.201,0.608l-0.313-2.263
			C82.338,15.298,69.25,4,53.966,4C37.017,4,23.228,17.66,23.228,34.449l0.005,2.003l-1.775,0.201
			C12.383,37.68,5.54,45.28,5.54,54.333c0,9.818,8.064,17.806,17.976,17.806h6.356v4h-6.356c-12.118,0-21.976-9.782-21.976-21.806
			c0-10.5,7.503-19.403,17.721-21.387C20.056,14.645,35.319,0,53.966,0C70.5,0,84.76,11.712,88,27.583
			c1.479-0.275,2.957-0.415,4.418-0.415c13.404,0,24.309,10.82,24.309,24.119c0,0.281-0.006,0.565-0.018,0.856
			c5.609,1.117,9.752,5.984,9.752,11.869c0,6.458-5.109,11.752-11.523,12.109L114.934,76.141z"/>
	</g>
	<g>
		<path fill="#282D33" d="M28.031,35.855l-0.006-0.219c0-14.865,12.203-26.915,27.2-26.915v4c-12.792,0-23.199,10.255-23.2,22.861
			l0.005,0.165L28.031,35.855z"/>
	</g>
	<g>
		<path fill="#282D33" d="M14.337,55.579h-4c0-7.287,5.495-13.403,12.781-14.228l0.45,3.975
			C18.306,45.922,14.337,50.33,14.337,55.579z"/>
	</g>
	<g>
		<g>
			<path fill="#282D33" d="M93.111,128h-4V96.968l0.592-0.587c7.123-7.077,11.047-16.48,11.047-26.477
				c0-20.674-16.973-37.494-37.835-37.494c-20.864,0-37.839,16.82-37.839,37.494c0,0.57,0.021,1.133,0.045,1.698l0.025,0.586
				l-11.424,19.62H21.5v17.59c0,4.771,3.92,8.652,8.74,8.652H49.25V128h-4v-5.949H30.239c-7.025,0-12.74-5.676-12.74-12.652v-13.59
				H6.763l14.338-24.622c-0.015-0.426-0.025-0.852-0.025-1.282c0-22.88,18.769-41.494,41.839-41.494
				c23.068,0,41.835,18.614,41.835,41.494c0,10.79-4.127,20.955-11.639,28.716V128z"/>
		</g>
	</g>
	<g>
		<path fill="#282D33" d="M53.89,100.663l-3.447-1.897l7.583-22.649H33.977l35.613-43.72l3.447,1.898l-7.584,22.652h24.049
			L53.89,100.663z M42.394,72.116h21.189L57.72,89.628l23.364-28.682H59.896l5.863-17.514L42.394,72.116z"/>
	</g>
</g>
</svg>
