<?xml version="1.0" encoding="utf-8"?>
<!-- Generator: Adobe Illustrator 24.0.0, SVG Export Plug-In . SVG Version: 6.00 Build 0)  -->
<svg version="1.1" xmlns="http://www.w3.org/2000/svg" xmlns:xlink="http://www.w3.org/1999/xlink" x="0px" y="0px"
	 viewBox="0 0 256 256" style="enable-background:new 0 0 256 256;" xml:space="preserve">
<style type="text/css">
	.st0{fill:#F98FA6;}
	.st1{fill:#FC657E;}
	.st2{fill:#DAE6F1;}
	.st3{fill:#5290DB;}
	.st4{fill:#FCDD86;}
	.st5{fill:#F5C84C;}
	.st6{fill:#87D147;}
	.st7{fill:#70D6F9;}
	.st8{fill:#EDF4FC;}
	.st9{fill:#9BE5F9;}
	.st10{fill:#B2E26D;}
	.st11{fill:#F9C1A8;}
	.st12{fill:#414344;}
	.st13{fill:#E1FBFF;}
	.st14{fill:#FFE3EC;}
	.st15{fill:#FCBECF;}
	.st16{fill:#EF4460;}
	.st17{fill:#80C2F9;}
	.st18{fill:#3A70BF;}
	.st19{fill:#FCA265;}
	.st20{fill:#5B5D60;}
	.st21{fill:#818182;}
	.st22{fill:#C7D7E5;}
	.st23{fill:#F9D0B4;}
	.st24{fill:#AA6F59;}
	.st25{fill:#D1856D;}
	.st26{fill:#FCC29A;}
	.st27{fill:#29589F;}
	.st28{fill:#F7B386;}
	.st29{fill:#FC8C48;}
	.st30{fill:#FFF0CC;}
	.st31{fill:#57AF12;}
	.st32{fill:#3CAADC;}
	.st33{fill:#EDB311;}
	.st34{fill:#231F20;}
</style>
<g id="Layer_1">
</g>
<g id="Layer_2">
</g>
<g id="Layer_3">
</g>
<g id="Layer_4">
</g>
<g id="Layer_5">
	<g>
		<g>
			<g>
				<path class="st5" d="M86.975,105.293H41.22c-2.982,0-5.422,2.44-5.422,5.421v16.452c0,2.982,2.44,5.421,5.422,5.421h45.756
					c2.982,0,5.421-2.44,5.421-5.421v-16.452C92.397,107.732,89.957,105.293,86.975,105.293z"/>
			</g>
		</g>
		<g>
			<g>
				<rect x="42.958" y="132.588" class="st2" width="42.278" height="12.36"/>
			</g>
		</g>
		<g>
			<g>
				<path class="st1" d="M220.109,82.101c-1.838-1.483-2.689-3.821-2.419-6.167c2.221-19.274-11.435-36.462-30.123-39.277
					c-2.281-0.344-4.298-1.708-5.241-3.812c-3.27-7.299-10.828-12.255-19.479-11.629c-10.422,0.753-18.285,9.853-18.285,20.301
					v117.289c0,10.486,7.91,19.625,18.372,20.331c10.148,0.685,18.613-6.248,20.66-15.359c1.13-5.029,5.358-8.646,10.407-9.686
					c13.52-2.784,23.684-14.719,23.916-28.932c0.034-2.082,0.971-4.004,2.566-5.343c5.335-4.483,8.734-11.189,8.734-18.703
					C229.218,93.426,225.66,86.58,220.109,82.101z"/>
			</g>
		</g>
		<g>
			<g>
				<path class="st1" d="M113.347,21.216c-8.652-0.625-16.209,4.33-19.479,11.629c-0.943,2.104-2.96,3.469-5.241,3.812
					c-18.688,2.815-32.344,20.003-30.123,39.277c0.27,2.346-0.58,4.684-2.419,6.167c-5.551,4.479-9.108,11.325-9.108,19.013
					c0,1.425,0.124,2.821,0.358,4.179h39.64c2.982,0,5.422,2.44,5.422,5.421v16.452c0,2.982-2.44,5.421-5.422,5.421h-1.739v12.36
					h5.999c5.597,0,10.177,4.58,10.177,10.177v21.056c3.378,2.118,7.454,3.254,11.847,2.957
					c10.463-0.706,18.372-9.845,18.372-20.331V41.517C131.632,31.068,123.769,21.969,113.347,21.216z"/>
			</g>
		</g>
		<g>
			<g>
				<circle class="st4" cx="132.284" cy="235.844" r="14.514"/>
			</g>
		</g>
		<g>
			<g>
				<path class="st4" d="M121.45,226.214c-0.189-0.212-0.369-0.429-0.572-0.633c-5.668-5.668-14.857-5.668-20.525,0
					c-5.668,5.668-5.668,14.857,0,20.525c5.668,5.668,14.857,5.668,20.525,0c0.203-0.203,0.383-0.421,0.572-0.633
					C116.566,239.986,116.566,231.701,121.45,226.214z"/>
			</g>
		</g>
		<g>
			<g>
				<path class="st8" d="M101.412,224.624v-69.499c0-5.597-4.58-10.177-10.177-10.177H36.959c-5.597,0-10.177,4.58-10.177,10.177
					v88.199c0,5.597,4.58,10.177,10.177,10.177h54.276c4.461,0,8.268-2.913,9.632-6.928c-0.171-0.156-0.349-0.3-0.515-0.465
					c-5.668-5.668-5.668-14.857,0-20.525C100.694,225.241,101.048,224.923,101.412,224.624z"/>
			</g>
		</g>
		<g>
			<g>
				<path class="st5" d="M142.547,225.581l-20.525,20.525c5.668,5.668,14.857,5.668,20.525,0
					C148.215,240.438,148.215,231.249,142.547,225.581z"/>
			</g>
		</g>
		<g>
			<g>
				<path class="st5" d="M121.45,226.214c-0.189-0.212-0.369-0.429-0.572-0.633l-20.525,20.525c5.668,5.668,14.857,5.668,20.525,0
					c0.203-0.203,0.383-0.421,0.572-0.633C116.566,239.986,116.566,231.701,121.45,226.214z"/>
			</g>
		</g>
		<g>
			<g>
				<path class="st5" d="M26.782,162.743v72.962h69.326c0.035-3.668,1.446-7.325,4.244-10.123c0.34-0.34,0.695-0.658,1.059-0.957
					v-61.881H26.782z"/>
			</g>
		</g>
		<g>
			<g>
				<g>
					<path d="M86.976,102.793H41.22c-4.368,0-7.922,3.554-7.922,7.921v16.452c0,4.368,3.554,7.921,7.922,7.921h45.756
						c4.367,0,7.921-3.554,7.921-7.921v-16.452C94.896,106.347,91.343,102.793,86.976,102.793z M89.896,127.167
						c0,1.611-1.311,2.921-2.921,2.921H41.22c-1.611,0-2.922-1.311-2.922-2.921v-16.452c0-1.611,1.311-2.921,2.922-2.921h45.756
						c1.61,0,2.921,1.311,2.921,2.921V127.167z"/>
				</g>
			</g>
		</g>
		<g>
			<g>
				<g>
					<path d="M85.236,130.547c-1.381,0-2.5,1.119-2.5,2.5v11.35c0,1.381,1.119,2.5,2.5,2.5s2.5-1.119,2.5-2.5v-11.35
						C87.736,131.666,86.617,130.547,85.236,130.547z"/>
				</g>
			</g>
			<g>
				<g>
					<path d="M42.958,130.578c-1.381,0-2.5,1.119-2.5,2.5v11.203c0,1.381,1.119,2.5,2.5,2.5s2.5-1.119,2.5-2.5v-11.203
						C45.458,131.697,44.339,130.578,42.958,130.578z"/>
				</g>
			</g>
		</g>
		<g>
			<g>
				<path d="M179.949,90.284c-0.082-0.405-2.125-9.965-12.842-13.291c-1.323-0.41-2.72,0.328-3.129,1.647s0.328,2.719,1.646,3.128
					c7.793,2.417,9.354,9.191,9.425,9.516c0.244,1.18,1.284,1.994,2.445,1.994c0.164,0,0.33-0.016,0.497-0.05
					C179.346,92.956,180.222,91.638,179.949,90.284z"/>
			</g>
		</g>
		<g>
			<g>
				<path d="M190.899,94.923c-1.37-2.797-3.748-4.894-6.696-5.903c-4.176-1.429-8.573-0.47-11.771,2.561
					c-3.176,3.01-4.413,7.473-3.229,11.647c0.313,1.1,1.314,1.818,2.404,1.818c0.226,0,0.455-0.031,0.683-0.095
					c1.329-0.377,2.101-1.759,1.724-3.087c-0.685-2.414,0.011-4.902,1.859-6.654c1.822-1.728,4.332-2.273,6.711-1.459
					c1.685,0.577,3.043,1.774,3.825,3.372c0.606,1.24,2.106,1.753,3.345,1.146C190.994,97.661,191.507,96.164,190.899,94.923z"/>
			</g>
		</g>
		<g>
			<g>
				<path d="M195.846,56.021c-4.172-1.427-8.572-0.471-11.771,2.562c-3.175,3.01-4.412,7.473-3.229,11.646
					c0.313,1.101,1.314,1.818,2.404,1.818c0.226,0,0.455-0.031,0.684-0.095c1.328-0.377,2.1-1.759,1.723-3.087
					c-0.685-2.414,0.01-4.901,1.858-6.654c1.824-1.728,4.333-2.274,6.712-1.46c1.31,0.447,2.729-0.249,3.175-1.556
					C197.849,57.889,197.152,56.468,195.846,56.021z"/>
			</g>
		</g>
		<g>
			<g>
				<path d="M183.476,126.021c-4.172-1.429-8.571-0.471-11.77,2.561c-3.176,3.01-4.414,7.473-3.23,11.647
					c0.313,1.1,1.314,1.818,2.404,1.818c0.226,0,0.455-0.031,0.683-0.095c1.329-0.377,2.101-1.759,1.724-3.087
					c-0.685-2.414,0.011-4.902,1.859-6.654c1.823-1.728,4.332-2.275,6.711-1.459c1.31,0.447,2.728-0.249,3.175-1.556
					C185.479,127.889,184.782,126.468,183.476,126.021z"/>
			</g>
		</g>
		<g>
			<g>
				<path d="M161.837,51.111c-3.113-3.125-7.481-4.208-11.691-2.901c-4.179,1.298-7.261,4.755-8.042,9.023
					c-0.249,1.358,0.65,2.661,2.009,2.909c0.152,0.028,0.304,0.042,0.453,0.042c1.184,0,2.235-0.844,2.456-2.05
					c0.452-2.468,2.175-4.394,4.607-5.149c2.397-0.746,4.891-0.127,6.665,1.654c0.974,0.979,2.557,0.982,3.536,0.007
					C162.808,53.672,162.812,52.089,161.837,51.111z"/>
			</g>
		</g>
		<g>
			<g>
				<path d="M134.091,57.233c-0.781-4.268-3.863-7.726-8.041-9.023c-4.21-1.309-8.58-0.223-11.692,2.9
					c-0.974,0.978-0.971,2.561,0.007,3.536c0.979,0.975,2.561,0.972,3.536-0.006c1.774-1.781,4.265-2.4,6.666-1.655
					c2.432,0.755,4.154,2.681,4.606,5.149c0.221,1.206,1.272,2.05,2.456,2.05c0.149,0,0.301-0.014,0.453-0.042
					C133.44,59.894,134.34,58.591,134.091,57.233z"/>
			</g>
		</g>
		<g>
			<g>
				<path d="M104.49,128.583c-3.198-3.033-7.603-3.989-11.771-2.562c-1.307,0.447-2.003,1.869-1.556,3.175
					c0.447,1.307,1.867,2.003,3.175,1.556c2.381-0.815,4.889-0.268,6.712,1.46c1.849,1.752,2.543,4.24,1.858,6.654
					c-0.377,1.328,0.395,2.71,1.723,3.087c0.229,0.064,0.458,0.095,0.684,0.095c1.09,0,2.092-0.718,2.404-1.818
					C108.902,136.056,107.665,131.593,104.49,128.583z"/>
			</g>
		</g>
		<g>
			<g>
				<path d="M92.119,58.582c-3.197-3.031-7.599-3.989-11.77-2.561c-1.307,0.447-2.003,1.869-1.556,3.175
					c0.447,1.307,1.874,2.003,3.175,1.556c2.379-0.815,4.888-0.269,6.711,1.459c1.849,1.752,2.544,4.24,1.859,6.654
					c-0.377,1.329,0.395,2.71,1.724,3.087c0.228,0.064,0.457,0.095,0.683,0.095c1.09,0,2.092-0.718,2.404-1.818
					C96.533,66.055,95.295,61.592,92.119,58.582z"/>
			</g>
		</g>
		<g>
			<g>
				<path d="M176.766,128.124c-2.1-4.285-5.741-7.495-10.255-9.04c-1.307-0.446-2.727,0.25-3.175,1.556
					c-0.447,1.307,0.249,2.728,1.556,3.175c3.25,1.112,5.872,3.424,7.384,6.509c0.435,0.886,1.322,1.4,2.247,1.4
					c0.369,0,0.744-0.082,1.098-0.255C176.86,130.861,177.373,129.364,176.766,128.124z"/>
			</g>
		</g>
		<g>
			<g>
				<path d="M114.216,78.641c-0.409-1.319-1.807-2.057-3.129-1.647c-10.717,3.325-12.76,12.885-12.842,13.291
					c-0.271,1.347,0.598,2.653,1.943,2.934c0.17,0.035,0.341,0.053,0.509,0.053c1.155,0,2.194-0.81,2.446-1.982
					c0.063-0.289,1.61-7.094,9.426-9.519C113.888,81.36,114.625,79.959,114.216,78.641z"/>
			</g>
		</g>
		<g>
			<g>
				<path d="M105.763,91.583c-3.198-3.033-7.603-3.99-11.771-2.562c-2.947,1.009-5.325,3.105-6.696,5.902
					c-0.607,1.24-0.095,2.737,1.145,3.345c1.241,0.609,2.737,0.095,3.346-1.145c0.783-1.598,2.142-2.796,3.825-3.372
					c2.38-0.815,4.889-0.268,6.712,1.46c1.849,1.752,2.543,4.24,1.858,6.654c-0.377,1.328,0.395,2.71,1.723,3.087
					c0.229,0.064,0.458,0.095,0.684,0.095c1.09,0,2.092-0.718,2.404-1.818C110.175,99.056,108.938,94.593,105.763,91.583z"/>
			</g>
		</g>
		<g>
			<g>
				<path d="M112.858,120.64c-0.447-1.306-1.866-2.002-3.175-1.556c-4.514,1.545-8.156,4.755-10.255,9.04
					c-0.607,1.24-0.095,2.738,1.146,3.345c0.354,0.173,0.729,0.255,1.098,0.255c0.925,0,1.813-0.515,2.247-1.4
					c1.511-3.085,4.134-5.396,7.384-6.509C112.609,123.367,113.306,121.946,112.858,120.64z"/>
			</g>
		</g>
		<g>
			<g>
				<g>
					<path d="M221.68,80.155L221.68,80.155c-1.123-0.905-1.686-2.376-1.506-3.935c2.361-20.493-11.798-38.957-32.233-42.035
						c-1.527-0.23-2.773-1.113-3.333-2.362c-3.813-8.509-12.65-13.771-21.939-13.101c-11.555,0.835-20.605,10.847-20.605,22.794
						v117.29c0,12.016,9.095,22.042,20.705,22.826c0.521,0.036,1.04,0.053,1.555,0.053c10.412,0,19.405-7.092,21.712-17.358
						c0.865-3.848,4.19-6.904,8.472-7.786c14.768-3.041,25.664-16.221,25.912-31.34c0.021-1.349,0.616-2.582,1.674-3.47
						c6.117-5.14,9.626-12.654,9.626-20.617C231.718,92.942,228.059,85.303,221.68,80.155z M218.875,117.903
						c-2.151,1.808-3.411,4.438-3.457,7.216c-0.209,12.797-9.428,23.952-21.92,26.524c-6.202,1.277-11.047,5.825-12.343,11.587
						c-1.875,8.352-9.482,13.994-18.052,13.413c-8.995-0.607-16.041-8.443-16.041-17.837V41.517c0-9.338,7.013-17.161,15.966-17.807
						c0.415-0.03,0.828-0.045,1.24-0.045c6.755,0,12.99,3.984,15.776,10.203c1.26,2.81,3.933,4.776,7.15,5.262
						c17.759,2.674,30.063,18.715,28.012,36.518c-0.377,3.271,0.868,6.411,3.332,8.399c5.198,4.194,8.179,10.415,8.179,17.068
						C226.718,107.596,223.859,113.715,218.875,117.903z"/>
				</g>
			</g>
		</g>
		<g>
			<g>
				<path d="M113.528,18.722c-9.319-0.668-18.129,4.592-21.941,13.1c-0.56,1.249-1.806,2.132-3.332,2.362
					C67.819,37.262,53.66,55.726,56.021,76.22c0.18,1.559-0.383,3.029-1.506,3.935c-6.379,5.147-10.037,12.787-10.037,20.959
					c0,1.157,0.074,2.321,0.222,3.46c0.177,1.369,1.433,2.338,2.8,2.159c1.369-0.177,2.336-1.431,2.159-2.8
					c-0.12-0.927-0.181-1.876-0.181-2.819c0-6.654,2.98-12.875,8.177-17.068c2.465-1.988,3.71-5.128,3.333-8.399
					c-2.05-17.803,10.254-33.844,28.012-36.519c3.218-0.485,5.891-2.452,7.15-5.262c2.957-6.598,9.794-10.686,17.019-10.158
					c8.951,0.646,15.964,8.469,15.964,17.807v117.29c0,9.395-7.046,17.23-16.04,17.837c-3.405,0.228-6.754-0.525-9.682-2.182
					c-1.199-0.68-2.727-0.258-3.407,0.944c-0.68,1.202-0.257,2.727,0.944,3.407c3.339,1.89,7.095,2.871,10.946,2.871
					c0.51,0,1.022-0.017,1.534-0.052c11.61-0.784,20.704-10.81,20.704-22.826V41.517C134.132,29.569,125.081,19.557,113.528,18.722z
					"/>
			</g>
		</g>
		<g>
			<g>
				<g>
					<path d="M144.314,223.813c-6.633-6.634-17.428-6.634-24.061,0c-6.634,6.633-6.634,17.427,0,24.061
						c3.316,3.317,7.674,4.976,12.03,4.976s8.714-1.659,12.03-4.976C150.948,241.241,150.948,230.447,144.314,223.813z
						 M140.779,244.339c-2.27,2.269-5.286,3.519-8.495,3.519s-6.226-1.25-8.495-3.519c-2.269-2.27-3.519-5.286-3.519-8.495
						s1.25-6.226,3.519-8.495c2.27-2.269,5.286-3.519,8.495-3.519s6.226,1.25,8.495,3.519c2.269,2.27,3.519,5.286,3.519,8.495
						S143.048,242.069,140.779,244.339z"/>
				</g>
			</g>
		</g>
		<g>
			<g>
				<path d="M122.865,243.856c-1.041-0.91-2.62-0.803-3.528,0.235c-0.071,0.083-0.145,0.165-0.227,0.248
					c-2.27,2.269-5.286,3.519-8.495,3.519s-6.226-1.25-8.494-3.519c-4.684-4.684-4.684-12.306,0-16.99
					c2.269-2.269,5.285-3.519,8.494-3.519s6.226,1.25,8.503,3.526c0.074,0.074,0.143,0.153,0.212,0.231
					c0.913,1.036,2.491,1.135,3.528,0.222c1.036-0.913,1.135-2.493,0.222-3.529c-0.142-0.161-0.286-0.321-0.435-0.467
					c-3.213-3.214-7.485-4.983-12.03-4.983c-4.544,0-8.816,1.77-12.029,4.983c-6.634,6.633-6.634,17.427,0,24.061
					c3.213,3.213,7.485,4.983,12.029,4.983c4.545,0,8.817-1.77,12.026-4.979c0.162-0.161,0.312-0.326,0.459-0.494
					C124.01,246.345,123.904,244.766,122.865,243.856z"/>
			</g>
		</g>
		<g>
			<g>
				<path d="M101.412,226.688c1.381,0,2.5-1.119,2.5-2.5v-69.063c0-6.99-5.687-12.677-12.677-12.677H36.959
					c-6.99,0-12.677,5.687-12.677,12.677v88.199c0,6.99,5.687,12.677,12.677,12.677h54.276c5.225,0,9.986-3.297,11.849-8.206
					c0.49-1.291-0.159-2.734-1.449-3.225c-1.294-0.49-2.735,0.159-3.225,1.45c-1.131,2.979-4.015,4.98-7.175,4.98H36.959
					c-4.233,0-7.677-3.444-7.677-7.677v-88.199c0-4.233,3.443-7.677,7.677-7.677h54.276c4.233,0,7.677,3.444,7.677,7.677v69.063
					C98.912,225.569,100.031,226.688,101.412,226.688z"/>
			</g>
		</g>
		<g>
			<g>
				<path d="M45.559,111.656c-1.381,0-2.5,1.119-2.5,2.5v9.965c0,1.381,1.119,2.5,2.5,2.5s2.5-1.119,2.5-2.5v-9.965
					C48.059,112.775,46.939,111.656,45.559,111.656z"/>
			</g>
		</g>
		<g>
			<g>
				<path d="M54.809,111.656c-1.381,0-2.5,1.119-2.5,2.5v9.965c0,1.381,1.119,2.5,2.5,2.5s2.5-1.119,2.5-2.5v-9.965
					C57.309,112.775,56.189,111.656,54.809,111.656z"/>
			</g>
		</g>
		<g>
			<g>
				<path d="M64.06,111.656c-1.381,0-2.5,1.119-2.5,2.5v9.965c0,1.381,1.119,2.5,2.5,2.5s2.5-1.119,2.5-2.5v-9.965
					C66.56,112.775,65.44,111.656,64.06,111.656z"/>
			</g>
		</g>
		<g>
			<g>
				<path d="M73.31,111.656c-1.381,0-2.5,1.119-2.5,2.5v9.965c0,1.381,1.119,2.5,2.5,2.5s2.5-1.119,2.5-2.5v-9.965
					C75.81,112.775,74.69,111.656,73.31,111.656z"/>
			</g>
		</g>
		<g>
			<g>
				<path d="M82.56,111.656c-1.381,0-2.5,1.119-2.5,2.5v9.965c0,1.381,1.119,2.5,2.5,2.5s2.5-1.119,2.5-2.5v-9.965
					C85.06,112.775,83.94,111.656,82.56,111.656z"/>
			</g>
		</g>
		<g>
			<g>
				<path class="st5" d="M77.297,17.882c-4.498-0.838-8.043-4.31-8.898-8.716c-0.043-0.221-0.352-0.221-0.395,0
					c-0.855,4.406-4.4,7.879-8.898,8.716c-0.226,0.042-0.226,0.345,0,0.387c4.498,0.838,8.043,4.31,8.898,8.717
					c0.043,0.221,0.352,0.221,0.395,0c0.855-4.406,4.4-7.879,8.898-8.717C77.522,18.227,77.522,17.925,77.297,17.882z"/>
			</g>
		</g>
		<g>
			<g>
				<path class="st6" d="M218.977,165.938c-3.195-0.595-5.712-3.061-6.32-6.191c-0.031-0.157-0.25-0.157-0.28,0
					c-0.607,3.13-3.125,5.596-6.32,6.191c-0.16,0.03-0.16,0.245,0,0.275c3.195,0.595,5.712,3.062,6.32,6.191
					c0.031,0.157,0.25,0.157,0.28,0c0.607-3.129,3.125-5.596,6.32-6.191C219.137,166.183,219.137,165.968,218.977,165.938z"/>
			</g>
		</g>
		<g>
			<g>
				<path class="st7" d="M151.008,197.487h-2.329v-2.33c0-1.744-1.413-3.157-3.157-3.157s-3.157,1.413-3.157,3.157v2.33h-2.33
					c-1.744,0-3.157,1.413-3.157,3.157s1.413,3.157,3.157,3.157h2.33v2.33c0,1.744,1.413,3.157,3.157,3.157s3.157-1.413,3.157-3.157
					v-2.33h2.329c1.744,0,3.157-1.413,3.157-3.157S152.752,197.487,151.008,197.487z"/>
			</g>
		</g>
		<g>
			<g>
				<circle class="st1" cx="93.313" cy="3.377" r="3.377"/>
			</g>
		</g>
		<g>
			<g>
				<circle class="st5" cx="160.313" cy="221.377" r="3.377"/>
			</g>
		</g>
		<g>
			<g>
				<path d="M143.785,224.343c-0.977-0.977-2.559-0.977-3.535,0l-19.453,19.453c-0.977,0.976-0.977,2.559,0,3.535
					c0.488,0.488,1.128,0.732,1.768,0.732s1.279-0.244,1.768-0.732l19.453-19.453C144.762,226.902,144.762,225.319,143.785,224.343z
					"/>
			</g>
		</g>
		<g>
			<g>
				<path d="M122.175,224.285c-0.977-0.977-2.559-0.977-3.535,0l-19.761,19.76c-0.977,0.976-0.977,2.559,0,3.535
					c0.488,0.488,1.128,0.732,1.768,0.732s1.279-0.244,1.768-0.732l19.761-19.76C123.151,226.844,123.151,225.261,122.175,224.285z"
					/>
			</g>
		</g>
		<g>
			<g>
				<path d="M100.594,160.243H27.542c-1.381,0-2.5,1.119-2.5,2.5s1.119,2.5,2.5,2.5h73.052c1.381,0,2.5-1.119,2.5-2.5
					S101.975,160.243,100.594,160.243z"/>
			</g>
		</g>
		<g>
			<g>
				<path d="M95.438,233.205H27.563c-1.381,0-2.5,1.119-2.5,2.5s1.119,2.5,2.5,2.5h67.875c1.381,0,2.5-1.119,2.5-2.5
					S96.819,233.205,95.438,233.205z"/>
			</g>
		</g>
	</g>
</g>
<g id="Layer_6">
</g>
<g id="Layer_7">
</g>
<g id="Layer_8">
</g>
<g id="Layer_9">
</g>
<g id="Layer_10">
</g>
<g id="Layer_11">
</g>
<g id="Layer_12">
</g>
<g id="Layer_13">
</g>
<g id="Layer_14">
</g>
<g id="Layer_15">
</g>
<g id="Layer_16">
</g>
<g id="Layer_17">
</g>
<g id="Layer_18">
</g>
<g id="Layer_19">
</g>
<g id="Layer_20">
</g>
<g id="Layer_21">
</g>
<g id="Layer_22">
</g>
<g id="Layer_23">
</g>
<g id="Layer_24">
</g>
<g id="Layer_25">
</g>
<g id="Layer_26">
</g>
<g id="Layer_27">
</g>
<g id="Layer_28">
</g>
<g id="Layer_29">
</g>
<g id="Layer_30">
</g>
<g id="Layer_31">
</g>
<g id="Layer_32">
</g>
<g id="Layer_33">
</g>
<g id="Layer_34">
</g>
<g id="Layer_35">
</g>
<g id="Layer_36">
</g>
<g id="Layer_37">
</g>
<g id="Layer_38">
</g>
<g id="Layer_39">
</g>
<g id="Layer_40">
</g>
<g id="Layer_41">
</g>
<g id="Layer_42">
</g>
<g id="Layer_43">
</g>
<g id="Layer_44">
</g>
<g id="Layer_45">
</g>
<g id="Layer_46">
</g>
<g id="Layer_47">
</g>
<g id="Layer_48">
</g>
<g id="Layer_49">
</g>
<g id="Layer_50">
</g>
<g id="Layer_51">
</g>
<g id="Layer_52">
</g>
<g id="Layer_53">
</g>
<g id="Layer_54">
</g>
<g id="Layer_55">
</g>
<g id="Layer_56">
</g>
<g id="Layer_57">
</g>
<g id="Layer_58">
</g>
<g id="Layer_59">
</g>
<g id="Layer_60">
</g>
<g id="Layer_61">
</g>
<g id="Layer_62">
</g>
<g id="Layer_63">
</g>
<g id="Layer_64">
</g>
<g id="Layer_65">
</g>
<g id="Layer_66">
</g>
<g id="Layer_67">
</g>
<g id="Layer_68">
</g>
<g id="Layer_69">
</g>
<g id="Layer_70">
</g>
<g id="Layer_71">
</g>
<g id="Layer_72">
</g>
<g id="Layer_73">
</g>
<g id="Layer_74">
</g>
<g id="Layer_75">
</g>
<g id="Layer_76">
</g>
<g id="Layer_77">
</g>
<g id="Layer_78">
</g>
<g id="Layer_79">
</g>
<g id="Layer_80">
</g>
<g id="Layer_81">
</g>
<g id="Layer_82">
</g>
<g id="Layer_83">
</g>
<g id="Layer_84">
</g>
<g id="Layer_85">
</g>
</svg>
