<?xml version="1.0" encoding="utf-8"?>
<!-- Generator: Adobe Illustrator 24.0.0, SVG Export Plug-In . SVG Version: 6.00 Build 0)  -->
<svg version="1.1" xmlns="http://www.w3.org/2000/svg" xmlns:xlink="http://www.w3.org/1999/xlink" x="0px" y="0px"
	 viewBox="0 0 256 256" enable-background="new 0 0 256 256" xml:space="preserve">
<g id="Layer_2" display="none">
	<rect x="-1100" y="-1464" display="inline" fill="#FFFFFF" width="1786" height="5896"/>
</g>
<g id="Layer_1">
	<g>
		<path fill="#FEB69F" d="M93.446,125.406v16.142v9.29c0,2.073,0.173,4.088,0.537,6.017c1.612,9.175,6.737,16.891,13.781,21.987
			c12.256,9.031,29.098,8.436,40.461-0.01c7.102-5.096,12.236-12.86,13.82-21.977c0.365-1.948,0.518-3.973,0.518-6.017v-9.28h0.01
			v-16.152H93.446z"/>
		<polygon fill="#AFAFAF" points="149.138,125.406 162.564,141.548 162.574,141.548 162.574,125.406 		"/>
		<polygon fill="#AFAFAF" points="106.882,125.406 93.455,141.548 93.446,141.548 93.446,125.406 		"/>
		<g>
			<path fill="#FEB69F" d="M93.98,156.86h-4.03c-5.5,0-9.95-4.46-9.95-9.95c0-5.48,4.43-9.94,9.95-9.94h3.5
				C93.45,151.972,93.309,153.26,93.98,156.86z"/>
			<path fill="#FEB69F" d="M176,146.91c0,5.48-4.42,9.95-9.93,9.95h-4.02c0.634-3.435,0.52-4.718,0.52-19.9h3.5
				C171.57,136.96,176,141.41,176,146.91z"/>
		</g>
		<path fill="#F0C020" d="M164.533,112.313h-1.764c0-16.619-11.768-30.481-27.441-33.697v-0.527c0-4.037-3.273-7.31-7.319-7.31
			c-4.037,0-7.31,3.273-7.31,7.31v0.527c-15.664,3.22-27.441,17.077-27.441,33.697h-1.764c-3.563,0-6.555,2.875-6.555,6.546
			c0,3.616,2.931,6.546,6.555,6.546h73.038c3.638,0,6.555-2.954,6.555-6.546C171.088,115.244,168.149,112.313,164.533,112.313z"/>
		<path fill="#F8E5B0" d="M152.902,106.803l-0.053-0.242c-0.295-1.349,0.561-2.681,1.909-2.975c1.354-0.3,2.682,0.561,2.976,1.91
			l0.053,0.242c0.295,1.349-0.561,2.681-1.909,2.975C154.538,109.007,153.198,108.158,152.902,106.803z M149.263,98.327
			c-2.229-3.255-5.244-5.924-8.72-7.719c-1.228-0.633-1.708-2.141-1.075-3.368c0.635-1.227,2.146-1.707,3.368-1.074
			c4.209,2.172,7.857,5.401,10.552,9.337c0.78,1.139,0.489,2.695-0.65,3.475C151.601,99.756,150.045,99.469,149.263,98.327z"/>
		<path fill="#72C2E9" d="M248,139.086v-22c0-2.761-2.239-5-5-5h-20.34c-2.43-14.59-8.17-28.06-16.41-39.62l14.384-14.385
			c1.953-1.953,1.953-5.118,0-7.071l-15.559-15.559c-1.953-1.953-5.118-1.953-7.071,0L183.62,49.836
			c-11.56-8.24-25.03-13.98-39.62-16.41v-20.34c0-2.761-2.239-5-5-5h-22c-2.761,0-5,2.239-5,5v20.34
			c-14.59,2.43-28.06,8.17-39.62,16.41L57.996,35.452c-1.953-1.953-5.118-1.953-7.071,0L35.366,51.011
			c-1.953,1.953-1.953,5.118,0,7.071L49.75,72.466c-8.24,11.56-13.98,25.03-16.41,39.62H13c-2.761,0-5,2.239-5,5v22
			c0,2.761,2.239,5,5,5h20.34c2.43,14.59,8.17,28.06,16.41,39.62l-14.384,14.385c-1.953,1.953-1.953,5.118,0,7.071l15.559,15.559
			c1.953,1.953,5.118,1.953,7.071,0l14.385-14.384c11.56,8.24,25.03,13.98,39.62,16.41v20.34c0,2.761,2.239,5,5,5h22
			c2.761,0,5-2.239,5-5v-20.34c14.59-2.43,28.06-8.17,39.62-16.41l14.385,14.384c1.953,1.953,5.118,1.953,7.071,0l15.559-15.559
			c1.953-1.953,1.953-5.118,0-7.071l-14.384-14.385c8.24-11.56,13.98-25.03,16.41-39.62H243
			C245.761,144.086,248,141.848,248,139.086z M128,200.086c-39.769,0-72-32.239-72-72c0-39.727,32.196-72,72-72
			c39.777,0,72,32.248,72,72C200,167.808,167.809,200.086,128,200.086z"/>
		<path fill="#C5E5FE" d="M128.001,214.587c-17.051,0-33.539-4.948-47.682-14.309c-1.151-0.762-1.467-2.313-0.705-3.464
			c0.763-1.152,2.314-1.466,3.465-0.705c13.321,8.817,28.855,13.478,44.922,13.478c45.041,0,81.499-36.451,81.499-81.5
			c0-21.77-8.478-42.236-23.871-57.63c-0.977-0.976-0.977-2.559,0-3.535c0.977-0.977,2.559-0.977,3.535,0
			c16.338,16.337,25.336,38.06,25.336,61.165C214.5,175.889,175.815,214.587,128.001,214.587z M72.093,194.097
			c-1.809-1.535-3.578-3.165-5.258-4.846c-0.976-0.977-0.976-2.56,0.001-3.535s2.56-0.977,3.536,0.001
			c1.583,1.584,3.251,3.121,4.955,4.568c1.053,0.894,1.183,2.471,0.289,3.524C74.723,194.861,73.144,194.989,72.093,194.097z"/>
		<g>
			<path d="M111.919,137.17c-1.381,0-2.5,1.119-2.5,2.5v2.035c0,1.381,1.119,2.5,2.5,2.5s2.5-1.119,2.5-2.5v-2.035
				C114.419,138.289,113.3,137.17,111.919,137.17z"/>
			<path d="M144.087,137.17c-1.381,0-2.5,1.119-2.5,2.5v2.035c0,1.381,1.119,2.5,2.5,2.5s2.5-1.119,2.5-2.5v-2.035
				C146.587,138.289,145.468,137.17,144.087,137.17z"/>
			<path d="M138.95,159.596c-1.261-0.47-2.75,0.21-3.221,1.46c-1.184,3.159-4.248,5.35-7.729,5.35c-3.42,0-6.53-2.15-7.72-5.34
				c-0.461-1.25-1.95-1.94-3.211-1.47c-1.219,0.445-1.962,1.818-1.479,3.2c0,0,0,0.01,0.01,0.01c1.852,5.034,6.713,8.6,12.41,8.6
				c5.621,0,10.496-3.502,12.41-8.59C140.909,161.473,140.21,160.076,138.95,159.596z"/>
			<path d="M128.003,153.49c1.381,0,2.5-1.119,2.5-2.5v-9.286c0-1.381-1.119-2.5-2.5-2.5s-2.5,1.119-2.5,2.5v9.286
				C125.503,152.371,126.622,153.49,128.003,153.49z"/>
			<path d="M99.05,93.046c1.022,0.813,2.598,0.705,3.5-0.42h0.01c0.836-1.081,0.669-2.652-0.42-3.51
				c-1.06-0.83-2.689-0.63-3.51,0.42C97.8,90.563,97.92,92.151,99.05,93.046z"/>
			<path d="M89.952,134.47c-6.866,0-12.452,5.582-12.452,12.442s5.586,12.443,12.452,12.443h1.999
				c2.03,8.663,7.064,16.244,14.33,21.5c12.95,9.543,30.813,9.368,43.401,0.009c7.333-5.261,12.389-12.851,14.401-21.509h1.984
				c6.855,0,12.433-5.582,12.433-12.443c0-6.866-5.577-12.452-12.433-12.452h-0.994v-6.582c4.737-0.283,8.517-4.216,8.517-9.022
				c-0.01-4.73-3.69-8.68-8.4-9.02c-1.055-15.88-12.172-29.232-27.47-33.23c-0.723-4.735-4.825-8.33-9.71-8.33
				c-4.836,0-8.967,3.543-9.7,8.33c-4.29,1.12-8.31,2.99-11.939,5.56c-1.089,0.771-1.425,2.297-0.601,3.49
				c0.771,1.08,2.391,1.36,3.49,0.59c2.758-1.948,5.757-3.425,8.94-4.408v27.975H95.863c0.243-3.16,0.94-6.238,2.097-9.177
				c0.51-1.29-0.13-2.74-1.41-3.25c-1.307-0.495-2.733,0.128-3.24,1.41c0,0.01,0,0.01,0,0.02c-1.39,3.52-2.22,7.23-2.47,11.02
				c-4.71,0.35-8.4,4.3-8.4,9.02c0,4.806,3.77,8.738,8.506,9.022v6.592H89.952z M160.064,150.838
				c0,10.403-4.876,19.921-13.33,25.989c-10.814,8.038-26.579,8.041-37.505-0.01c-8.701-6.295-13.284-16.095-13.284-25.979v-8.375
				l12.109-14.557h39.912l12.099,14.546V150.838z M95.945,134.645v-6.739h5.605L95.945,134.645z M160.073,134.644l-5.604-6.738
				h5.604V134.644z M166.067,139.461c4.099,0,7.433,3.343,7.433,7.452c0,4.104-3.334,7.443-7.433,7.443h-1.162
				c0.104-1.133,0.159-2.306,0.159-3.518v-9.069c0.006-0.069,0.009-0.14,0.009-0.211v-2.097H166.067z M137.829,81.846
				c12.383,3.844,21.31,14.987,22.337,27.967h-22.337V81.846z M123.2,78.616L123.2,78.616v-0.53c0-2.64,2.159-4.8,4.81-4.81
				c2.65,0.01,4.82,2.17,4.82,4.81v0.52c0,0.003-0.001,0.007-0.001,0.01v31.197H123.2V78.616z M87.439,118.856
				c0-2.23,1.82-4.04,4.051-4.04c0.187,0,71.777,0,73.04,0c2.239,0,4.05,1.81,4.06,4.04c-0.01,2.23-1.82,4.05-4.06,4.05
				c-8.484,0-64.353,0-73.04,0C89.26,122.906,87.439,121.086,87.439,118.856z M91.113,154.356h-1.161
				c-4.109,0-7.452-3.339-7.452-7.443c0-4.104,3.343-7.442,7.452-7.442h0.993v11.368C90.945,152.039,91.004,153.215,91.113,154.356z
				"/>
			<path d="M243,109.586h-18.25c-2.5-13.25-7.63-25.64-15.25-36.83l12.899-12.91c2.878-2.857,2.977-7.623,0-10.6l-15.56-15.56
				c-2.945-2.968-7.733-2.898-10.61,0l-12.899,12.9c-11.19-7.62-23.58-12.75-36.83-15.26v-18.24c0-4.13-3.36-7.5-7.5-7.5h-22
				c-4.141,0-7.5,3.37-7.5,7.5v18.24c-13.25,2.51-25.641,7.64-36.83,15.26l-12.91-12.9c-2.921-2.944-7.708-2.923-10.61,0
				L33.6,49.246c-2.917,2.897-2.939,7.681,0,10.6l12.9,12.91c-7.62,11.19-12.75,23.58-15.26,36.83H13c-4.13,0-7.5,3.37-7.5,7.5v22
				c0,4.13,3.37,7.5,7.5,7.5h18.25c0.569,3.06,1.3,6.12,2.17,9.1c0.37,1.28,1.8,2.08,3.1,1.7c1.32-0.38,2.09-1.77,1.7-3.1
				c-1.01-3.46-1.82-7.03-2.41-10.61c-0.21-1.21-1.24-2.09-2.47-2.09H13c-1.37,0-2.5-1.12-2.5-2.5v-22c0-1.38,1.13-2.5,2.5-2.5
				h20.34c1.229,0,2.26-0.88,2.47-2.09c2.29-13.79,7.82-27.13,15.971-38.58c0.72-1,0.6-2.35-0.261-3.22l-14.39-14.38
				c-0.97-0.991-0.983-2.535,0-3.54l15.56-15.56c0.994-0.973,2.543-0.978,3.54,0l14.38,14.39c0.841,0.84,2.25,0.96,3.221,0.26
				c11.439-8.15,24.779-13.67,38.58-15.97c1.21-0.21,2.09-1.24,2.09-2.47v-20.34c0-1.38,1.12-2.5,2.5-2.5h22
				c1.38,0,2.5,1.12,2.5,2.5v20.34c0,1.23,0.88,2.26,2.09,2.47c13.8,2.3,27.14,7.82,38.58,15.97c0.97,0.7,2.37,0.58,3.22-0.26
				l14.38-14.39c0.994-0.973,2.543-0.978,3.54,0l15.561,15.56c0.935,0.935,1.013,2.505,0,3.54l-14.391,14.38
				c-0.87,0.87-0.979,2.22-0.27,3.22c8.16,11.45,13.689,24.79,15.979,38.58c0.21,1.21,1.24,2.09,2.471,2.09H243
				c1.37,0,2.5,1.12,2.5,2.5v22c0,1.38-1.13,2.5-2.5,2.5h-20.34c-1.23,0-2.261,0.88-2.471,2.09
				c-2.29,13.79-7.819,27.13-15.979,38.58c-0.71,1-0.601,2.35,0.27,3.22l14.391,14.38c0.936,0.936,1.012,2.506,0,3.54l-15.561,15.56
				c-0.995,0.976-2.54,0.979-3.54,0l-14.38-14.39c-0.85-0.84-2.25-0.96-3.22-0.27c-11.44,8.16-24.79,13.69-38.58,15.99
				c-1.21,0.19-2.09,1.23-2.09,2.46v20.34c0,1.38-1.12,2.5-2.5,2.5h-22c-1.38,0-2.5-1.12-2.5-2.5v-20.34c0-1.23-0.88-2.26-2.09-2.46
				c-13.801-2.3-27.141-7.83-38.58-15.99c-0.971-0.69-2.38-0.57-3.221,0.27l-14.38,14.39c-0.479,0.47-1.09,0.73-1.77,0.73
				s-1.29-0.26-1.771-0.73l-15.56-15.56c-0.47-0.48-0.73-1.09-0.73-1.77c0-0.68,0.261-1.29,0.73-1.77l14.39-14.38
				c0.86-0.87,0.98-2.22,0.261-3.22c-2.271-3.19-4.351-6.55-6.2-9.98c-0.681-1.252-2.231-1.649-3.38-1.01
				c-1.165,0.611-1.705,2.12-1.021,3.38c1.61,3,3.4,5.95,5.32,8.77l-12.9,12.91c-1.399,1.39-2.2,3.33-2.2,5.3
				c0,1.97,0.801,3.91,2.2,5.3l15.561,15.56c1.39,1.4,3.319,2.2,5.29,2.2h0.02c1.97,0,3.89-0.8,5.29-2.2l12.91-12.9
				c11.189,7.62,23.58,12.75,36.83,15.25v18.25c0,4.13,3.359,7.5,7.5,7.5h22c4.14,0,7.5-3.37,7.5-7.5v-18.25
				c13.25-2.5,25.64-7.63,36.83-15.25l12.91,12.9c2.9,2.921,7.653,2.946,10.6,0l15.56-15.56c2.885-2.864,2.971-7.63,0-10.6
				l-12.899-12.91c7.62-11.19,12.75-23.58,15.25-36.83H243c4.13,0,7.5-3.37,7.5-7.5v-22C250.5,112.956,247.13,109.586,243,109.586z"
				/>
			<path d="M40.06,166.736c1.235-0.498,1.905-1.932,1.37-3.26c-0.51-1.24-2.01-1.88-3.26-1.37c-1.308,0.548-1.883,1.999-1.37,3.27
				C37.348,166.699,38.863,167.255,40.06,166.736z"/>
			<path d="M128,53.586c-41.105,0-74.5,33.288-74.5,74.5c0,41.217,33.399,74.5,74.5,74.5c41.116,0,74.5-33.324,74.5-74.5
				c0-4.34-0.38-8.7-1.12-12.94c-0.23-1.34-1.53-2.27-2.89-2.03c-1.364,0.227-2.268,1.54-2.04,2.88v0.01
				c0.699,3.96,1.05,8.02,1.05,12.08c0,38.4-31.093,69.5-69.5,69.5c-38.503,0-69.5-31.17-69.5-69.5c0-38.355,31.025-69.5,69.5-69.5
				c26.819,0,50.78,14.99,62.53,39.12c0.636,1.318,2.189,1.735,3.34,1.16c1.232-0.596,1.77-2.098,1.149-3.34
				C182.76,70.292,157.024,53.586,128,53.586z"/>
			<path d="M194.13,106.646c0.455,1.392,1.94,2.045,3.15,1.61c1.31-0.42,2.029-1.83,1.609-3.15c-0.42-1.28-1.85-2.02-3.149-1.6
				C194.454,103.907,193.702,105.3,194.13,106.646z"/>
		</g>
	</g>
</g>
</svg>
