<svg id="artwork" xmlns="http://www.w3.org/2000/svg" width="64" height="64" viewBox="0 0 64 64"><title>video</title><path d="M19.51,34.366V51.5a1.5,1.5,0,0,0,2.25,1.3L36.6,44.232Z" style="fill:#3e3ef4"/><path d="M39.6,42.5l8.142-4.7a1.5,1.5,0,0,0,0-2.6l-25.98-15a1.5,1.5,0,0,0-2.25,1.3v9.4Z" style="fill:#3e3ef4"/><path d="M60,.5H4A3.5,3.5,0,0,0,.5,4V60A3.5,3.5,0,0,0,4,63.5H60A3.5,3.5,0,0,0,63.5,60V4A3.5,3.5,0,0,0,60,.5ZM60.5,4V9.5H59.093L48.7,3.5H60A.5.5,0,0,1,60.5,4ZM40.2,9.5,29.8,3.5H42.7l10.393,6Zm-18.9,0-10.393-6h12.9L34.2,9.5ZM3.5,4A.5.5,0,0,1,4,3.5h.907L15.3,9.5H3.5Zm57,56a.5.5,0,0,1-.5.5H4a.5.5,0,0,1-.5-.5V12.5h57Z"/></svg>