<svg xmlns="http://www.w3.org/2000/svg" viewBox="0 0 48 48"><defs><style>.cls-1{fill:#424242;}.cls-2{fill:#42a5f5;}</style></defs><title>Data Computers</title><g id="Data_Computers" data-name="Data Computers"><path class="cls-1" d="M38,8.09v1.8c-.63.74-5.36,2.11-14,2.11S10.64,10.63,10,9.89V8.09a10.06,10.06,0,0,1-2-1V16c0,3.45,11.32,3.93,15,4h0v4.28a1.91,1.91,0,0,0-.72.72H11a1,1,0,0,0-1,1v4h2V27H22.28a2,2,0,0,0,3.44,0H36v3h2V26a1,1,0,0,0-1-1H25.72a1.91,1.91,0,0,0-.72-.72V20h0c3.68-.06,15-.54,15-4V7.11A10.06,10.06,0,0,1,38,8.09Zm0,7.8c-.64.74-5.37,2.11-14,2.11s-13.36-1.37-14-2.11V12.15C14,13.93,22.74,14,24,14s10-.07,14-1.85Z"/><ellipse class="cls-2" cx="24" cy="4" rx="16" ry="4"/><path class="cls-2" d="M20,44V34a2,2,0,0,0-2-2H4a2,2,0,0,0-2,2V44H0v2a2,2,0,0,0,2,2H20a2,2,0,0,0,2-2V44ZM4,44V34H18V44Z"/><path class="cls-2" d="M46,44V34a2,2,0,0,0-2-2H30a2,2,0,0,0-2,2V44H26v2a2,2,0,0,0,2,2H46a2,2,0,0,0,2-2V44ZM30,44V34H44V44Z"/></g></svg>