<?xml version="1.0" encoding="UTF-8"?>
<!DOCTYPE svg PUBLIC "-//W3C//DTD SVG 1.1//EN" "http://www.w3.org/Graphics/SVG/1.1/DTD/svg11.dtd">
<!-- Creator: CorelDRAW -->
<svg xmlns="http://www.w3.org/2000/svg" xml:space="preserve" width="2048px" height="2048px" style="shape-rendering:geometricPrecision; text-rendering:geometricPrecision; image-rendering:optimizeQuality; fill-rule:evenodd; clip-rule:evenodd"
viewBox="0 0 2048 2048"
 xmlns:xlink="http://www.w3.org/1999/xlink">
 <defs>
  <style type="text/css">
   <![CDATA[
    .fil3 {fill:none}
    .fil2 {fill:#33691E}
    .fil1 {fill:#43A047}
    .fil0 {fill:#FFCEB4}
   ]]>
  </style>
 </defs>
 <g id="Layer_x0020_1">
  <metadata id="CorelCorpID_0Corel-Layer"/>
  <g id="_360981632">
   <path id="_360982160" class="fil0" d="M1348.93 1792c0,0 -152.53,-106.703 -137.826,-211.211 0,0 -25.3406,-131.18 98.5465,-132.456 381.112,72.3839 115.061,-359.224 264.247,-382.213 13.6406,-2.10118 29.015,-8.7319 37.8933,-26.4059 22.3134,-60.1193 -78.5552,-120.771 -102.692,-205.785 -45.7359,-161.093 27.2658,-387.966 -185.078,-503.495 -517.738,-251.675 -1087.51,173.349 -824.847,698.685 0,0 177.833,268.223 167.685,475.108 0,0 -13.748,128.386 -146.612,287.772l828.683 0z"/>
   <path id="_360981968" class="fil1" d="M1010.23 585.46c19.7953,-11.1827 33.1618,-32.4154 33.1618,-56.7733 0,-35.987 -29.1744,-65.1615 -65.1615,-65.1615 -35.9894,0 -65.1638,29.1744 -65.1638,65.1615 0,24.3579 13.3665,45.5894 33.1618,56.7721l0 201.111 -163.764 0 0 -97.5816c19.7941,-11.1827 33.1607,-32.4142 33.1607,-56.7721 0,-35.987 -29.1744,-65.1615 -65.1615,-65.1615 -35.9894,0 -65.1638,29.1744 -65.1638,65.1615 0,24.3579 13.3665,45.5906 33.163,56.7733l0 233.111 0 21.0177 19.5012 8.35749 144.94 62.1178 0.624804 0.250394 83.4036 33.3614 0 270.601 64.0016 0 0 -177.352 112.942 0 32.0008 0 0 -32.0008 0 -122.65 121.663 0 32.0008 0 0 -32.0008 0 -233.111c19.7953,-11.1827 33.1618,-32.4154 33.1618,-56.7733 0,-35.987 -29.1744,-65.1615 -65.1615,-65.1615 -35.9894,0 -65.1638,29.1744 -65.1638,65.1615 0,24.3579 13.3665,45.5894 33.1618,56.7721l0 201.111 -89.6623 0 0 -46.4587c19.7953,-11.1827 33.1618,-32.4154 33.1618,-56.7733 0,-35.987 -29.1744,-65.1615 -65.1615,-65.1615 -35.9894,0 -65.1638,29.1744 -65.1638,65.1615 0,24.3579 13.3665,45.5894 33.1618,56.7721l0 201.111 -80.941 0 0 -50.8229 0 -21.5752 -20.126 -8.0504 -102.921 -41.1685 -125.423 -53.7532 0 -50.5111 195.764 0 32.0008 0 0 -32.0008 0 -233.111z"/>
   <circle id="_360982400" class="fil2" cx="749.996" cy="632.463" r="34.8186"/>
   <circle id="_360981536" class="fil2" cx="978.227" cy="528.715" r="35.0005"/>
   <circle id="_360981200" class="fil2" cx="1144.16" cy="818.69" r="35.0002"/>
   <circle id="_360981104" class="fil2" cx="1297.54" cy="663.986" r="35.0003"/>
  </g>
 </g>
 <rect class="fil3" width="2048" height="2048"/>
</svg>
