<svg id="artwork" xmlns="http://www.w3.org/2000/svg" width="64" height="64" viewBox="0 0 64 64"><title>analyze</title><path d="M28.874,10.4a16.5,16.5,0,1,0,16.5,16.5A16.519,16.519,0,0,0,28.874,10.4Zm7.561,14.365-8.392,8.392a1.5,1.5,0,0,1-2.121,0l-4.608-4.608a1.5,1.5,0,1,1,2.121-2.121l3.548,3.548,7.331-7.332a1.5,1.5,0,0,1,2.121,2.121Z" style="fill:#3e3ef4"/><path d="M61.341,38.83,55.273,26.642A26.392,26.392,0,1,0,13.629,48.609a9.316,9.316,0,0,1,3.807,7.615V62a1.5,1.5,0,0,0,1.494,1.5H40.09A1.5,1.5,0,0,0,41.583,62V54a.5.5,0,0,1,.5-.5H49.8A5.5,5.5,0,0,0,55.275,48V41h4.73A1.5,1.5,0,0,0,61.341,38.83ZM53.781,38a1.5,1.5,0,0,0-1.493,1.5V48a2.5,2.5,0,0,1-2.49,2.5H42.081A3.5,3.5,0,0,0,38.6,54v6.5H20.424V56.224a12.324,12.324,0,0,0-5.067-10.062A23.457,23.457,0,1,1,52.288,27a1.517,1.517,0,0,0,.157.671L57.588,38Z"/></svg>