<svg xmlns="http://www.w3.org/2000/svg" viewBox="0 0 48 48"><defs><style>.cls-1{fill:#fc6459;}.cls-2{fill:#bfbfbf;}.cls-3{fill:#424242;}</style></defs><title>Brain</title><g id="Brain"><path class="cls-1" d="M40.53,28.65A16.93,16.93,0,0,1,39,32.4l1.89,4.42-4,4L32.4,39a16.93,16.93,0,0,1-3.75,1.55L26.86,45H23V36A12,12,0,0,0,23,12V3h3.86l1.79,4.47A16.93,16.93,0,0,1,32.4,9l4.42-1.89,4,4.05L39,15.6a16.93,16.93,0,0,1,1.55,3.75L45,21.14v5.72Z"/><path class="cls-2" d="M16.5,39a1,1,0,0,1,0-2,2,2,0,0,0,2-2,1,1,0,0,1,1-1C21.59,34,20.31,39,16.5,39Z"/><path class="cls-2" d="M9,25a1,1,0,0,1,2,0,2,2,0,0,0,2,2,1,1,0,0,1,1,1C14,30.09,9,28.81,9,25Z"/><path class="cls-2" d="M12,21c-2.09,0-.81-5,3-5a1,1,0,0,1,0,2,2,2,0,0,0-2,2A1,1,0,0,1,12,21Z"/><path class="cls-2" d="M24,24a1,1,0,0,1-1-1,2,2,0,0,0-3.49-1.33A1,1,0,1,1,18,20.33,4,4,0,0,1,25,23,1,1,0,0,1,24,24Z"/><path class="cls-2" d="M24,33a1,1,0,0,1-1-1,3,3,0,0,0-6,0,1,1,0,0,1-2,0,5,5,0,0,1,10,0A1,1,0,0,1,24,33Z"/><path class="cls-3" d="M24.75,1.7a5,5,0,0,0-8.52,1.79A8,8,0,0,0,11,11.07,7,7,0,0,0,5.69,21a8,8,0,0,0,1.55,13A8,8,0,0,0,14.33,44,6,6,0,0,0,24.8,45.6c.3-.4.2,2.31.2-43.24A1,1,0,0,0,24.75,1.7ZM23,44.64a4,4,0,0,1-6.53-.78,7.39,7.39,0,0,0,1.46-.42,1,1,0,1,0-.76-1.86,6,6,0,0,1-8-6.81,7.78,7.78,0,0,0,3,.15,1,1,0,0,0-.3-2A6,6,0,0,1,5,27a6,6,0,0,1,2.55-4.9,1,1,0,0,0,.26-1.37,5,5,0,0,1,5.86-7.45,1,1,0,0,0,.66-1.88A6.78,6.78,0,0,0,13,11.08a6,6,0,0,1,4.34-5.85,1,1,0,0,0,.71-.78A3,3,0,0,1,23,2.77Z"/></g></svg>