<?xml version="1.0" encoding="UTF-8"?>
<!DOCTYPE svg PUBLIC "-//W3C//DTD SVG 1.1//EN" "http://www.w3.org/Graphics/SVG/1.1/DTD/svg11.dtd">
<!-- Creator: CorelDRAW -->
<svg xmlns="http://www.w3.org/2000/svg" xml:space="preserve" width="2048px" height="2048px" style="shape-rendering:geometricPrecision; text-rendering:geometricPrecision; image-rendering:optimizeQuality; fill-rule:evenodd; clip-rule:evenodd"
viewBox="0 0 2048 2048"
 xmlns:xlink="http://www.w3.org/1999/xlink">
 <defs>
  <style type="text/css">
   <![CDATA[
    .fil4 {fill:none}
    .fil1 {fill:#1565C0}
    .fil0 {fill:#1E88E5}
    .fil3 {fill:#A4D9DF}
    .fil2 {fill:#B2EBF2}
   ]]>
  </style>
 </defs>
 <g id="Layer_x0020_1">
  <metadata id="CorelCorpID_0Corel-Layer"/>
  <g id="_360988472">
   <ellipse id="_360991424" class="fil0" cx="1024" cy="1024" rx="767.919" ry="768.001"/>
   <g>
    <path id="_360991256" class="fil1" d="M731.603 462.505c43.5366,-86.7733 97.2591,-154.055 157.589,-194.712 -152.054,26.9232 -288.656,98.5831 -395.717,200.895 36.0721,34.4693 75.4926,65.4567 117.715,92.4261 23.2878,-26.3587 57.2575,-43.05 95.1308,-43.2886 7.99371,-19.2154 16.4303,-37.6784 25.2827,-55.3205z"/>
    <path id="_360990992" class="fil1" d="M614.718 1008c0.88819,-89.0516 9.17363,-174.56 23.6835,-254.198 -35.6292,-22.7292 -59.263,-62.602 -59.263,-107.987 0,-21.0166 5.0693,-40.8508 14.048,-58.3489 -43.8933,-28.1067 -84.8564,-60.378 -122.327,-96.254 -129.606,134.523 -210.597,316.214 -214.696,516.788l358.555 0z"/>
    <path id="_360990968" class="fil1" d="M638.403 1294.2c-14.5099,-79.6383 -22.7965,-165.147 -23.6847,-254.199l-358.555 0c4.09961,200.575 85.0914,382.266 214.697,516.789 37.4705,-35.876 78.4335,-68.1461 122.327,-96.2528 -8.97993,-17.498 -14.0492,-37.3335 -14.0492,-58.35 0,-45.3851 23.6351,-85.2579 59.2642,-107.987z"/>
    <path id="_360990872" class="fil1" d="M731.603 1585.5c-8.85237,-17.6421 -17.289,-36.104 -25.2827,-55.3193 -37.8721,-0.237402 -71.8441,-16.9323 -95.1308,-43.2874 -42.2221,26.9693 -81.6402,57.9567 -117.713,92.4249 107.06,102.311 243.662,173.971 395.716,200.894 -60.3296,-40.6559 -114.052,-107.937 -157.589,-194.712z"/>
    <path id="_360991520" class="fil1" d="M1008 1791.31l0 -424.476c-59.7615,1.2189 -117.817,9.24686 -173.427,23.3386 0.368504,3.9567 0.565748,7.96418 0.565748,12.0165 0,59.6103 -40.7693,109.716 -95.9398,123.95 6.66851,15.5894 13.6429,30.6378 20.9043,45.1099 64.8402,129.233 152.073,211.754 247.897,220.061z"/>
    <path id="_360991352" class="fil1" d="M1008 1334.83l0 -183.82c-57.8894,-7.22245 -103.782,-53.1166 -111.005,-111.005l-250.275 0c0.850394,84.0827 8.39528,164.822 21.6059,240.187 12.2421,-3.89174 25.2815,-6 38.8122,-6 55.5201,0 102.788,35.3681 120.515,84.7973 57.8906,-14.6256 118.265,-22.9382 180.346,-24.1595z"/>
    <path id="_360990656" class="fil1" d="M1008 896.995l0 -183.82c-62.0812,-1.22126 -122.454,-9.53268 -180.346,-24.1583 -17.7272,49.4292 -64.9949,84.7973 -120.515,84.7973 -13.5307,0 -26.5701,-2.10709 -38.8134,-6 -13.2095,75.3638 -20.7543,156.103 -21.6047,240.186l250.275 0c7.22245,-57.8882 53.1154,-103.782 111.005,-111.005z"/>
    <path id="_360990752" class="fil1" d="M1008 681.168l0 -424.476c-95.8241,8.3067 -183.057,90.828 -247.897,220.061 -7.26142,14.4721 -14.2347,29.5229 -20.9043,45.1111 55.1705,14.2335 95.9398,64.3394 95.9398,123.95 0,4.05355 -0.197244,8.05985 -0.565748,12.0165 55.6087,14.0917 113.666,22.1197 173.427,23.3374z"/>
    <path id="_360990776" class="fil1" d="M1040 681.168c59.7615,-1.21772 117.819,-9.24568 173.427,-23.3374 -0.368504,-3.9567 -0.565748,-7.963 -0.565748,-12.0165 0,-59.6103 40.7693,-109.716 95.9398,-123.95 -6.66969,-15.5882 -13.6429,-30.639 -20.9043,-45.1111 -64.8402,-129.233 -152.073,-211.754 -247.897,-220.061l0 424.476z"/>
    <path id="_360990632" class="fil1" d="M1151.01 1008l250.275 0c-0.850394,-84.0827 -8.39528,-164.822 -21.6047,-240.186 -12.2433,3.89292 -25.2827,6 -38.8134,6 -55.5201,0 -102.788,-35.3681 -120.515,-84.7973 -57.8918,14.6256 -118.265,22.937 -180.346,24.1583l0 183.82c57.8882,7.22245 103.782,53.1154 111.005,111.005z"/>
    <path id="_360990824" class="fil1" d="M1379.67 1280.19c13.2106,-75.365 20.7555,-156.104 21.6059,-240.187l-250.275 0c-7.22245,57.8894 -53.1166,103.782 -111.005,111.005l0 183.82c62.0812,1.22126 122.456,9.53387 180.346,24.1595 17.7272,-49.4292 64.9949,-84.7973 120.515,-84.7973 13.5307,0 26.5701,2.10827 38.8122,6z"/>
    <path id="_360990536" class="fil1" d="M1287.9 1571.25c7.26142,-14.4721 14.2358,-29.5205 20.9043,-45.1099 -55.1705,-14.2335 -95.9398,-64.3394 -95.9398,-123.95 0,-4.05237 0.197244,-8.05985 0.565748,-12.0165 -55.6099,-14.0917 -113.666,-22.1197 -173.427,-23.3386l0 424.476c95.8241,-8.3067 183.057,-90.828 247.897,-220.061z"/>
    <path id="_360990104" class="fil1" d="M1577.14 1556.79c129.606,-134.523 210.598,-316.214 214.697,-516.789l-358.555 0c-0.88819,89.0528 -9.17481,174.561 -23.6847,254.199 35.6292,22.7292 59.2642,62.602 59.2642,107.987 0,21.0166 -5.0693,40.852 -14.0492,58.35 43.8933,28.1067 84.8564,60.3768 122.327,96.2528z"/>
    <path id="_360990464" class="fil1" d="M1433.28 1008l358.555 0c-4.09961,-200.574 -85.0902,-382.265 -214.696,-516.788 -37.4705,35.876 -78.4335,68.1473 -122.327,96.254 8.97875,17.498 14.048,37.3323 14.048,58.3489 0,45.3851 -23.6339,85.2579 -59.263,107.987 14.5099,79.6383 22.7953,165.147 23.6835,254.198z"/>
    <path id="_360989456" class="fil1" d="M1436.81 561.114c42.2221,-26.9693 81.6426,-57.9567 117.715,-92.4261 -107.06,-102.312 -243.663,-173.972 -395.717,-200.895 60.3296,40.6559 114.052,107.937 157.589,194.712 8.85237,17.6421 17.289,36.1051 25.2827,55.3205 37.8733,0.238583 71.843,16.9299 95.1308,43.2886z"/>
    <path id="_360989408" class="fil1" d="M1158.81 1780.21c152.053,-26.9232 288.655,-98.5831 395.716,-200.894 -36.0733,-34.4681 -75.4914,-65.4556 -117.713,-92.4249 -23.2866,26.3575 -57.2587,43.0489 -95.1308,43.2874 -7.99371,19.2154 -16.4303,37.6772 -25.2827,55.3193 -43.5366,86.7745 -97.2591,154.056 -157.589,194.712z"/>
   </g>
   <circle id="_360989912" class="fil2" cx="1340.86" cy="645.814" r="96.0001"/>
   <circle id="_360990056" class="fil2" cx="1024" cy="1024" r="96.0001"/>
   <circle id="_360989600" class="fil2" cx="707.138" cy="1402.19" r="96.0001"/>
   <circle id="_360989336" class="fil2" cx="707.138" cy="645.814" r="96.0001"/>
   <circle id="_360989120" class="fil2" cx="707.138" cy="645.814" r="96.0001"/>
   <circle id="_360989096" class="fil2" cx="1340.86" cy="1402.19" r="96.0001"/>
   <path id="_360988976" class="fil3" d="M1340.86 741.814l0 -192c-53.0197,0 -96.0001,42.9803 -96.0001,96.0001 0,53.0197 42.9803,96.0001 96.0001,96.0001z"/>
   <path id="_360988904" class="fil3" d="M707.138 741.814l0 -192c-53.0197,0 -96.0001,42.9803 -96.0001,96.0001 0,53.0197 42.9803,96.0001 96.0001,96.0001z"/>
   <path id="_360989312" class="fil3" d="M707.138 741.814l0 -192c-53.0197,0 -96.0001,42.9803 -96.0001,96.0001 0,53.0197 42.9803,96.0001 96.0001,96.0001z"/>
   <path id="_360988592" class="fil3" d="M1024 1120l0 -192c-53.0197,0 -96.0001,42.9803 -96.0001,96.0001 0,53.0197 42.9803,96.0001 96.0001,96.0001z"/>
   <path id="_360989264" class="fil3" d="M707.138 1498.19l0 -192c-53.0197,0 -96.0001,42.9803 -96.0001,96.0001 0,53.0197 42.9803,96.0001 96.0001,96.0001z"/>
   <path id="_360989240" class="fil3" d="M1340.86 1498.19l0 -192c-53.0197,0 -96.0001,42.9803 -96.0001,96.0001 0,53.0197 42.9803,96.0001 96.0001,96.0001z"/>
  </g>
 </g>
 <rect class="fil4" width="2048" height="2048"/>
</svg>
