<?xml version="1.0" encoding="UTF-8"?>
<!DOCTYPE svg PUBLIC "-//W3C//DTD SVG 1.1//EN" "http://www.w3.org/Graphics/SVG/1.1/DTD/svg11.dtd">
<!-- Creator: CorelDRAW -->
<svg xmlns="http://www.w3.org/2000/svg" xml:space="preserve" width="2048px" height="2048px" style="shape-rendering:geometricPrecision; text-rendering:geometricPrecision; image-rendering:optimizeQuality; fill-rule:evenodd; clip-rule:evenodd"
viewBox="0 0 2048 2048"
 xmlns:xlink="http://www.w3.org/1999/xlink">
 <defs>
  <style type="text/css">
   <![CDATA[
    .fil5 {fill:none}
    .fil2 {fill:#354191}
    .fil1 {fill:#4A58B0}
    .fil0 {fill:#C5CAE9}
    .fil4 {fill:#283593;fill-rule:nonzero}
    .fil3 {fill:#4A58B0;fill-rule:nonzero}
   ]]>
  </style>
 </defs>
 <g id="Layer_x0020_1">
  <metadata id="CorelCorpID_0Corel-Layer"/>
  <g id="_361280224">
   <rect id="_355508696" class="fil0" x="256.095" y="547.802" width="1533.56" height="952.397"/>
   <path id="_355508600" class="fil1" d="M592.532 687.468c185.864,0 336.533,150.669 336.533,336.532 0,185.863 -150.669,336.532 -336.533,336.532 -185.863,0 -336.533,-150.669 -336.533,-336.532 0,-185.863 150.67,-336.532 336.533,-336.532zm0 192.996c79.2745,0 143.538,64.2626 143.538,143.536 0,79.2733 -64.2638,143.536 -143.538,143.536 -79.2733,0 -143.536,-64.2626 -143.536,-143.536 0,-79.2733 64.2626,-143.536 143.536,-143.536z"/>
   <path id="_355508288" class="fil1" d="M1455.47 687.468c185.863,0 336.532,150.669 336.532,336.532 0,185.863 -150.669,336.532 -336.532,336.532 -185.864,0 -336.534,-150.669 -336.534,-336.532 0,-185.863 150.67,-336.532 336.534,-336.532zm-2.25236 480.068c-79.2745,0 -143.537,-64.2626 -143.537,-143.536 0,-79.2733 64.2626,-143.536 143.537,-143.536 79.2733,0 143.537,64.2626 143.537,143.536 0,79.2733 -64.2638,143.536 -143.537,143.536z"/>
   <path id="_355508360" class="fil2" d="M1455.47 751.468c-150.538,0 -272.535,121.994 -272.535,272.532 0,150.539 121.997,272.532 272.535,272.532 150.538,0 272.532,-121.995 272.532,-272.532 0,-150.538 -121.995,-272.532 -272.532,-272.532zm-2.25236 480.068c-114.598,0 -207.536,-92.9375 -207.536,-207.535 0,-114.598 92.9387,-207.535 207.536,-207.535 114.597,0 207.536,92.9387 207.536,207.535 0,114.597 -92.9398,207.535 -207.536,207.535z"/>
   <path id="_360188568" class="fil2" d="M592.534 751.468c-150.538,0 -272.535,121.994 -272.535,272.532 0,150.539 121.997,272.532 272.535,272.532 150.538,0 272.532,-121.995 272.532,-272.532 0,-150.538 -121.995,-272.532 -272.532,-272.532zm-2.25236 480.068c-114.598,0 -207.536,-92.9375 -207.536,-207.535 0,-114.598 92.9387,-207.535 207.536,-207.535 114.597,0 207.536,92.9387 207.536,207.535 0,114.597 -92.9398,207.535 -207.536,207.535z"/>
   <path id="_358904344" class="fil3" d="M826.016 782.007c-12.4748,-12.4748 -32.7036,-12.4748 -45.1784,0 -12.4748,12.4748 -12.4748,32.7036 0,45.1784l428.324 428.325c12.476,12.4748 32.7036,12.4748 45.1796,0 12.4748,-12.4748 12.4748,-32.7036 0,-45.1784l-428.325 -428.325z"/>
   <polygon id="_354717808" class="fil4" points="256.095,547.802 1789.65,547.802 1789.65,627.675 256.095,627.675 "/>
   <polygon id="_354575592" class="fil4" points="256.095,1420.33 1789.65,1420.33 1789.65,1500.2 256.095,1500.2 "/>
  </g>
 </g>
 <rect class="fil5" width="2048" height="2048"/>
</svg>
